<?xml version="1.0" encoding="UTF-8" standalone="no"?>
<svg xmlns="http://www.w3.org/2000/svg" viewBox="-5 -5 160 160">
<rect x="-5" y="-5" width="160" height="160" fill="white"/>
<text x="0" y="10" font-family="Arial" font-size="10" fill="black">Iteration: 0 | Cost: 3767.55</text>
<g>
<line x1="5.00" y1="5.00" x2="144.32" y2="86.75" stroke="rgb(0,0,255)" stroke-width="0.8"/>
<line x1="144.32" y1="86.75" x2="129.34" y2="135.66" stroke="rgb(5,0,250)" stroke-width="0.8"/>
<line x1="129.34" y1="135.66" x2="136.70" y2="94.37" stroke="rgb(10,0,245)" stroke-width="0.8"/>
<line x1="136.70" y1="94.37" x2="129.34" y2="133.12" stroke="rgb(15,0,240)" stroke-width="0.8"/>
<line x1="129.34" y1="133.12" x2="33.81" y2="71.39" stroke="rgb(20,0,235)" stroke-width="0.8"/>
<line x1="33.81" y1="71.39" x2="126.14" y2="49.27" stroke="rgb(25,0,230)" stroke-width="0.8"/>
<line x1="126.14" y1="49.27" x2="129.34" y2="136.93" stroke="rgb(30,0,225)" stroke-width="0.8"/>
<line x1="129.34" y1="136.93" x2="136.70" y2="81.67" stroke="rgb(35,0,220)" stroke-width="0.8"/>
<line x1="136.70" y1="81.67" x2="33.81" y2="70.12" stroke="rgb(40,0,215)" stroke-width="0.8"/>
<line x1="33.81" y1="70.12" x2="124.26" y2="135.66" stroke="rgb(45,0,210)" stroke-width="0.8"/>
<line x1="124.26" y1="135.66" x2="144.32" y2="94.37" stroke="rgb(51,0,204)" stroke-width="0.8"/>
<line x1="144.32" y1="94.37" x2="38.89" y2="72.66" stroke="rgb(56,0,199)" stroke-width="0.8"/>
<line x1="38.89" y1="72.66" x2="38.89" y2="70.12" stroke="rgb(61,0,194)" stroke-width="0.8"/>
<line x1="38.89" y1="70.12" x2="144.32" y2="84.21" stroke="rgb(66,0,189)" stroke-width="0.8"/>
<line x1="144.32" y1="84.21" x2="144.32" y2="91.83" stroke="rgb(71,0,184)" stroke-width="0.8"/>
<line x1="144.32" y1="91.83" x2="43.85" y2="102.60" stroke="rgb(76,0,179)" stroke-width="0.8"/>
<line x1="43.85" y1="102.60" x2="136.70" y2="86.75" stroke="rgb(81,0,174)" stroke-width="0.8"/>
<line x1="136.70" y1="86.75" x2="48.93" y2="102.60" stroke="rgb(86,0,169)" stroke-width="0.8"/>
<line x1="48.93" y1="102.60" x2="144.32" y2="89.29" stroke="rgb(91,0,164)" stroke-width="0.8"/>
<line x1="144.32" y1="89.29" x2="124.26" y2="136.93" stroke="rgb(96,0,159)" stroke-width="0.8"/>
<line x1="124.26" y1="136.93" x2="145.00" y2="145.00" stroke="rgb(102,0,153)" stroke-width="0.8"/>
<line x1="145.00" y1="145.00" x2="124.26" y2="133.12" stroke="rgb(107,0,148)" stroke-width="0.8"/>
<line x1="124.26" y1="133.12" x2="43.85" y2="105.14" stroke="rgb(112,0,143)" stroke-width="0.8"/>
<line x1="43.85" y1="105.14" x2="136.70" y2="84.21" stroke="rgb(117,0,138)" stroke-width="0.8"/>
<line x1="136.70" y1="84.21" x2="48.93" y2="103.87" stroke="rgb(122,0,133)" stroke-width="0.8"/>
<line x1="48.93" y1="103.87" x2="136.70" y2="91.83" stroke="rgb(127,0,128)" stroke-width="0.8"/>
<line x1="136.70" y1="91.83" x2="136.70" y2="96.91" stroke="rgb(132,0,123)" stroke-width="0.8"/>
<line x1="136.70" y1="96.91" x2="136.70" y2="89.29" stroke="rgb(137,0,118)" stroke-width="0.8"/>
<line x1="136.70" y1="89.29" x2="48.93" y2="105.14" stroke="rgb(142,0,113)" stroke-width="0.8"/>
<line x1="48.93" y1="105.14" x2="43.85" y2="103.87" stroke="rgb(147,0,108)" stroke-width="0.8"/>
<line x1="43.85" y1="103.87" x2="124.26" y2="134.39" stroke="rgb(153,0,102)" stroke-width="0.8"/>
<line x1="124.26" y1="134.39" x2="38.89" y2="71.39" stroke="rgb(158,0,97)" stroke-width="0.8"/>
<line x1="38.89" y1="71.39" x2="121.06" y2="51.81" stroke="rgb(163,0,92)" stroke-width="0.8"/>
<line x1="121.06" y1="51.81" x2="129.34" y2="134.39" stroke="rgb(168,0,87)" stroke-width="0.8"/>
<line x1="129.34" y1="134.39" x2="126.14" y2="51.81" stroke="rgb(173,0,82)" stroke-width="0.8"/>
<line x1="126.14" y1="51.81" x2="38.89" y2="68.85" stroke="rgb(178,0,77)" stroke-width="0.8"/>
<line x1="38.89" y1="68.85" x2="126.14" y2="53.08" stroke="rgb(183,0,72)" stroke-width="0.8"/>
<line x1="126.14" y1="53.08" x2="126.14" y2="50.54" stroke="rgb(188,0,67)" stroke-width="0.8"/>
<line x1="126.14" y1="50.54" x2="121.06" y2="50.54" stroke="rgb(193,0,62)" stroke-width="0.8"/>
<line x1="121.06" y1="50.54" x2="33.81" y2="68.85" stroke="rgb(198,0,57)" stroke-width="0.8"/>
<line x1="33.81" y1="68.85" x2="48.93" y2="106.41" stroke="rgb(204,0,51)" stroke-width="0.8"/>
<line x1="48.93" y1="106.41" x2="33.81" y2="72.66" stroke="rgb(209,0,46)" stroke-width="0.8"/>
<line x1="33.81" y1="72.66" x2="144.32" y2="96.91" stroke="rgb(214,0,41)" stroke-width="0.8"/>
<line x1="144.32" y1="96.91" x2="5.00" y2="145.00" stroke="rgb(219,0,36)" stroke-width="0.8"/>
<line x1="5.00" y1="145.00" x2="145.00" y2="5.00" stroke="rgb(224,0,31)" stroke-width="0.8"/>
<line x1="145.00" y1="5.00" x2="43.85" y2="106.41" stroke="rgb(229,0,26)" stroke-width="0.8"/>
<line x1="43.85" y1="106.41" x2="121.06" y2="49.27" stroke="rgb(234,0,21)" stroke-width="0.8"/>
<line x1="121.06" y1="49.27" x2="121.06" y2="53.08" stroke="rgb(239,0,16)" stroke-width="0.8"/>
<line x1="121.06" y1="53.08" x2="144.32" y2="81.67" stroke="rgb(244,0,11)" stroke-width="0.8"/>
<line x1="144.32" y1="81.67" x2="5.00" y2="5.00" stroke="rgb(249,0,6)" stroke-width="0.8"/>
</g>
<g>
<circle cx="5.00" cy="5.00" r="2" fill="blue"/>
<text x="7.50" y="5.00" font-family="Arial" font-size="5" fill="black">0</text>
<circle cx="145.00" cy="5.00" r="2" fill="blue"/>
<text x="147.50" y="5.00" font-family="Arial" font-size="5" fill="black">1</text>
<circle cx="5.00" cy="145.00" r="2" fill="blue"/>
<text x="7.50" y="145.00" font-family="Arial" font-size="5" fill="black">2</text>
<circle cx="145.00" cy="145.00" r="2" fill="blue"/>
<text x="147.50" y="145.00" font-family="Arial" font-size="5" fill="black">3</text>
<circle cx="43.85" cy="102.60" r="2" fill="blue"/>
<text x="46.35" y="102.60" font-family="Arial" font-size="5" fill="black">4</text>
<circle cx="43.85" cy="103.87" r="2" fill="blue"/>
<text x="46.35" y="103.87" font-family="Arial" font-size="5" fill="black">5</text>
<circle cx="43.85" cy="105.14" r="2" fill="blue"/>
<text x="46.35" y="105.14" font-family="Arial" font-size="5" fill="black">6</text>
<circle cx="43.85" cy="106.41" r="2" fill="blue"/>
<text x="46.35" y="106.41" font-family="Arial" font-size="5" fill="black">7</text>
<circle cx="48.93" cy="102.60" r="2" fill="blue"/>
<text x="51.43" y="102.60" font-family="Arial" font-size="5" fill="black">8</text>
<circle cx="48.93" cy="103.87" r="2" fill="blue"/>
<text x="51.43" y="103.87" font-family="Arial" font-size="5" fill="black">9</text>
<circle cx="48.93" cy="105.14" r="2" fill="blue"/>
<text x="51.43" y="105.14" font-family="Arial" font-size="5" fill="black">10</text>
<circle cx="48.93" cy="106.41" r="2" fill="blue"/>
<text x="51.43" y="106.41" font-family="Arial" font-size="5" fill="black">11</text>
<circle cx="136.70" cy="81.67" r="2" fill="blue"/>
<text x="139.20" y="81.67" font-family="Arial" font-size="5" fill="black">12</text>
<circle cx="136.70" cy="84.21" r="2" fill="blue"/>
<text x="139.20" y="84.21" font-family="Arial" font-size="5" fill="black">13</text>
<circle cx="136.70" cy="86.75" r="2" fill="blue"/>
<text x="139.20" y="86.75" font-family="Arial" font-size="5" fill="black">14</text>
<circle cx="136.70" cy="89.29" r="2" fill="blue"/>
<text x="139.20" y="89.29" font-family="Arial" font-size="5" fill="black">15</text>
<circle cx="136.70" cy="91.83" r="2" fill="blue"/>
<text x="139.20" y="91.83" font-family="Arial" font-size="5" fill="black">16</text>
<circle cx="136.70" cy="94.37" r="2" fill="blue"/>
<text x="139.20" y="94.37" font-family="Arial" font-size="5" fill="black">17</text>
<circle cx="136.70" cy="96.91" r="2" fill="blue"/>
<text x="139.20" y="96.91" font-family="Arial" font-size="5" fill="black">18</text>
<circle cx="144.32" cy="81.67" r="2" fill="blue"/>
<text x="146.82" y="81.67" font-family="Arial" font-size="5" fill="black">19</text>
<circle cx="144.32" cy="84.21" r="2" fill="blue"/>
<text x="146.82" y="84.21" font-family="Arial" font-size="5" fill="black">20</text>
<circle cx="144.32" cy="86.75" r="2" fill="blue"/>
<text x="146.82" y="86.75" font-family="Arial" font-size="5" fill="black">21</text>
<circle cx="144.32" cy="89.29" r="2" fill="blue"/>
<text x="146.82" y="89.29" font-family="Arial" font-size="5" fill="black">22</text>
<circle cx="144.32" cy="91.83" r="2" fill="blue"/>
<text x="146.82" y="91.83" font-family="Arial" font-size="5" fill="black">23</text>
<circle cx="144.32" cy="94.37" r="2" fill="blue"/>
<text x="146.82" y="94.37" font-family="Arial" font-size="5" fill="black">24</text>
<circle cx="144.32" cy="96.91" r="2" fill="blue"/>
<text x="146.82" y="96.91" font-family="Arial" font-size="5" fill="black">25</text>
<circle cx="124.26" cy="133.12" r="2" fill="blue"/>
<text x="126.76" y="133.12" font-family="Arial" font-size="5" fill="black">26</text>
<circle cx="124.26" cy="134.39" r="2" fill="blue"/>
<text x="126.76" y="134.39" font-family="Arial" font-size="5" fill="black">27</text>
<circle cx="124.26" cy="135.66" r="2" fill="blue"/>
<text x="126.76" y="135.66" font-family="Arial" font-size="5" fill="black">28</text>
<circle cx="124.26" cy="136.93" r="2" fill="blue"/>
<text x="126.76" y="136.93" font-family="Arial" font-size="5" fill="black">29</text>
<circle cx="129.34" cy="133.12" r="2" fill="blue"/>
<text x="131.84" y="133.12" font-family="Arial" font-size="5" fill="black">30</text>
<circle cx="129.34" cy="134.39" r="2" fill="blue"/>
<text x="131.84" y="134.39" font-family="Arial" font-size="5" fill="black">31</text>
<circle cx="129.34" cy="135.66" r="2" fill="blue"/>
<text x="131.84" y="135.66" font-family="Arial" font-size="5" fill="black">32</text>
<circle cx="129.34" cy="136.93" r="2" fill="blue"/>
<text x="131.84" y="136.93" font-family="Arial" font-size="5" fill="black">33</text>
<circle cx="33.81" cy="68.85" r="2" fill="blue"/>
<text x="36.31" y="68.85" font-family="Arial" font-size="5" fill="black">34</text>
<circle cx="33.81" cy="70.12" r="2" fill="blue"/>
<text x="36.31" y="70.12" font-family="Arial" font-size="5" fill="black">35</text>
<circle cx="33.81" cy="71.39" r="2" fill="blue"/>
<text x="36.31" y="71.39" font-family="Arial" font-size="5" fill="black">36</text>
<circle cx="33.81" cy="72.66" r="2" fill="blue"/>
<text x="36.31" y="72.66" font-family="Arial" font-size="5" fill="black">37</text>
<circle cx="38.89" cy="68.85" r="2" fill="blue"/>
<text x="41.39" y="68.85" font-family="Arial" font-size="5" fill="black">38</text>
<circle cx="38.89" cy="70.12" r="2" fill="blue"/>
<text x="41.39" y="70.12" font-family="Arial" font-size="5" fill="black">39</text>
<circle cx="38.89" cy="71.39" r="2" fill="blue"/>
<text x="41.39" y="71.39" font-family="Arial" font-size="5" fill="black">40</text>
<circle cx="38.89" cy="72.66" r="2" fill="blue"/>
<text x="41.39" y="72.66" font-family="Arial" font-size="5" fill="black">41</text>
<circle cx="121.06" cy="49.27" r="2" fill="blue"/>
<text x="123.56" y="49.27" font-family="Arial" font-size="5" fill="black">42</text>
<circle cx="121.06" cy="50.54" r="2" fill="blue"/>
<text x="123.56" y="50.54" font-family="Arial" font-size="5" fill="black">43</text>
<circle cx="121.06" cy="51.81" r="2" fill="blue"/>
<text x="123.56" y="51.81" font-family="Arial" font-size="5" fill="black">44</text>
<circle cx="121.06" cy="53.08" r="2" fill="blue"/>
<text x="123.56" y="53.08" font-family="Arial" font-size="5" fill="black">45</text>
<circle cx="126.14" cy="49.27" r="2" fill="blue"/>
<text x="128.64" y="49.27" font-family="Arial" font-size="5" fill="black">46</text>
<circle cx="126.14" cy="50.54" r="2" fill="blue"/>
<text x="128.64" y="50.54" font-family="Arial" font-size="5" fill="black">47</text>
<circle cx="126.14" cy="51.81" r="2" fill="blue"/>
<text x="128.64" y="51.81" font-family="Arial" font-size="5" fill="black">48</text>
<circle cx="126.14" cy="53.08" r="2" fill="blue"/>
<text x="128.64" y="53.08" font-family="Arial" font-size="5" fill="black">49</text>
</g>
</svg>
