<?xml version="1.0" encoding="UTF-8" standalone="no"?>
<svg xmlns="http://www.w3.org/2000/svg" width="1760" height="800" viewBox="-218.182 -218.182 1760 800">
<g transform="translate(0,0)">
<rect x="-218.182" y="-218.182" width="800" height="800" fill="white"/>
<g>
<line x1="24.2424" y1="24.2424" x2="292.306" y2="256.377" stroke="rgb(128,0,127)" stroke-width="2"/>
<line x1="292.306" y1="256.377" x2="66.7363" y2="189.051" stroke="rgb(128,0,127)" stroke-width="2"/>
<line x1="66.7363" y1="189.051" x2="339.394" y2="24.2424" stroke="rgb(128,0,127)" stroke-width="2"/>
<line x1="339.394" y1="24.2424" x2="284.71" y2="80.1729" stroke="rgb(128,0,127)" stroke-width="2"/>
<line x1="284.71" y1="80.1729" x2="316.936" y2="262.535" stroke="rgb(128,0,127)" stroke-width="2"/>
<line x1="316.936" y1="262.535" x2="316.936" y2="268.692" stroke="rgb(128,0,127)" stroke-width="2"/>
<line x1="316.936" y1="268.692" x2="66.7363" y2="182.893" stroke="rgb(128,0,127)" stroke-width="2"/>
<line x1="66.7363" y1="182.893" x2="66.7363" y2="201.366" stroke="rgb(128,0,127)" stroke-width="2"/>
<line x1="66.7363" y1="201.366" x2="91.3666" y2="195.208" stroke="rgb(128,0,127)" stroke-width="2"/>
<line x1="91.3666" y1="195.208" x2="247.765" y2="104.803" stroke="rgb(128,0,127)" stroke-width="2"/>
<line x1="247.765" y1="104.803" x2="247.765" y2="43.2275" stroke="rgb(128,0,127)" stroke-width="2"/>
<line x1="247.765" y1="43.2275" x2="24.2424" y2="339.394" stroke="rgb(128,0,127)" stroke-width="2"/>
<line x1="24.2424" y1="339.394" x2="339.394" y2="339.394" stroke="rgb(128,0,127)" stroke-width="2"/>
<line x1="339.394" y1="339.394" x2="292.306" y2="274.85" stroke="rgb(128,0,127)" stroke-width="2"/>
<line x1="292.306" y1="274.85" x2="247.765" y2="80.1729" stroke="rgb(128,0,127)" stroke-width="2"/>
<line x1="247.765" y1="80.1729" x2="316.936" y2="256.377" stroke="rgb(128,0,127)" stroke-width="2"/>
<line x1="316.936" y1="256.377" x2="284.71" y2="55.5426" stroke="rgb(128,0,127)" stroke-width="2"/>
<line x1="284.71" y1="55.5426" x2="316.936" y2="274.85" stroke="rgb(128,0,127)" stroke-width="2"/>
<line x1="316.936" y1="274.85" x2="284.71" y2="92.4881" stroke="rgb(128,0,127)" stroke-width="2"/>
<line x1="284.71" y1="92.4881" x2="284.71" y2="43.2275" stroke="rgb(128,0,127)" stroke-width="2"/>
<line x1="284.71" y1="43.2275" x2="91.3666" y2="182.893" stroke="rgb(128,0,127)" stroke-width="2"/>
<line x1="91.3666" y1="182.893" x2="91.3666" y2="189.051" stroke="rgb(128,0,127)" stroke-width="2"/>
<line x1="91.3666" y1="189.051" x2="284.71" y2="117.118" stroke="rgb(128,0,127)" stroke-width="2"/>
<line x1="284.71" y1="117.118" x2="247.765" y2="92.4881" stroke="rgb(128,0,127)" stroke-width="2"/>
<line x1="247.765" y1="92.4881" x2="247.765" y2="117.118" stroke="rgb(128,0,127)" stroke-width="2"/>
<line x1="247.765" y1="117.118" x2="91.3666" y2="201.366" stroke="rgb(128,0,127)" stroke-width="2"/>
<line x1="91.3666" y1="201.366" x2="292.306" y2="268.692" stroke="rgb(128,0,127)" stroke-width="2"/>
<line x1="292.306" y1="268.692" x2="66.7363" y2="195.208" stroke="rgb(128,0,127)" stroke-width="2"/>
<line x1="66.7363" y1="195.208" x2="284.71" y2="67.8578" stroke="rgb(128,0,127)" stroke-width="2"/>
<line x1="284.71" y1="67.8578" x2="292.306" y2="262.535" stroke="rgb(128,0,127)" stroke-width="2"/>
<line x1="292.306" y1="262.535" x2="247.765" y2="67.8578" stroke="rgb(128,0,127)" stroke-width="2"/>
<line x1="247.765" y1="67.8578" x2="284.71" y2="104.803" stroke="rgb(128,0,127)" stroke-width="2"/>
<line x1="284.71" y1="104.803" x2="247.765" y2="55.5426" stroke="rgb(128,0,127)" stroke-width="2"/>
<line x1="247.765" y1="55.5426" x2="24.2424" y2="24.2424" stroke="rgb(128,0,127)" stroke-width="2"/>
</g>
<g>
<circle cx="24.2424" cy="24.2424" r="8" fill="blue"/>
<text x="39.2424" y="29.2424" font-family="Arial" font-size="12" fill="black">0</text>
<circle cx="339.394" cy="24.2424" r="8" fill="blue"/>
<text x="354.394" y="29.2424" font-family="Arial" font-size="12" fill="black">1</text>
<circle cx="24.2424" cy="339.394" r="8" fill="blue"/>
<text x="39.2424" y="344.394" font-family="Arial" font-size="12" fill="black">2</text>
<circle cx="339.394" cy="339.394" r="8" fill="blue"/>
<text x="354.394" y="344.394" font-family="Arial" font-size="12" fill="black">3</text>
<circle cx="292.306" cy="256.377" r="8" fill="blue"/>
<text x="307.306" y="261.377" font-family="Arial" font-size="12" fill="black">4</text>
<circle cx="292.306" cy="262.535" r="8" fill="blue"/>
<text x="307.306" y="267.535" font-family="Arial" font-size="12" fill="black">5</text>
<circle cx="292.306" cy="268.692" r="8" fill="blue"/>
<text x="307.306" y="273.692" font-family="Arial" font-size="12" fill="black">6</text>
<circle cx="292.306" cy="274.85" r="8" fill="blue"/>
<text x="307.306" y="279.85" font-family="Arial" font-size="12" fill="black">7</text>
<circle cx="316.936" cy="256.377" r="8" fill="blue"/>
<text x="331.936" y="261.377" font-family="Arial" font-size="12" fill="black">8</text>
<circle cx="316.936" cy="262.535" r="8" fill="blue"/>
<text x="331.936" y="267.535" font-family="Arial" font-size="12" fill="black">9</text>
<circle cx="316.936" cy="268.692" r="8" fill="blue"/>
<text x="331.936" y="273.692" font-family="Arial" font-size="12" fill="black">10</text>
<circle cx="316.936" cy="274.85" r="8" fill="blue"/>
<text x="331.936" y="279.85" font-family="Arial" font-size="12" fill="black">11</text>
<circle cx="247.765" cy="43.2275" r="8" fill="blue"/>
<text x="262.765" y="48.2275" font-family="Arial" font-size="12" fill="black">12</text>
<circle cx="247.765" cy="55.5426" r="8" fill="blue"/>
<text x="262.765" y="60.5426" font-family="Arial" font-size="12" fill="black">13</text>
<circle cx="247.765" cy="67.8578" r="8" fill="blue"/>
<text x="262.765" y="72.8578" font-family="Arial" font-size="12" fill="black">14</text>
<circle cx="247.765" cy="80.1729" r="8" fill="blue"/>
<text x="262.765" y="85.1729" font-family="Arial" font-size="12" fill="black">15</text>
<circle cx="247.765" cy="92.4881" r="8" fill="blue"/>
<text x="262.765" y="97.4881" font-family="Arial" font-size="12" fill="black">16</text>
<circle cx="247.765" cy="104.803" r="8" fill="blue"/>
<text x="262.765" y="109.803" font-family="Arial" font-size="12" fill="black">17</text>
<circle cx="247.765" cy="117.118" r="8" fill="blue"/>
<text x="262.765" y="122.118" font-family="Arial" font-size="12" fill="black">18</text>
<circle cx="284.71" cy="43.2275" r="8" fill="blue"/>
<text x="299.71" y="48.2275" font-family="Arial" font-size="12" fill="black">19</text>
<circle cx="284.71" cy="55.5426" r="8" fill="blue"/>
<text x="299.71" y="60.5426" font-family="Arial" font-size="12" fill="black">20</text>
<circle cx="284.71" cy="67.8578" r="8" fill="blue"/>
<text x="299.71" y="72.8578" font-family="Arial" font-size="12" fill="black">21</text>
<circle cx="284.71" cy="80.1729" r="8" fill="blue"/>
<text x="299.71" y="85.1729" font-family="Arial" font-size="12" fill="black">22</text>
<circle cx="284.71" cy="92.4881" r="8" fill="blue"/>
<text x="299.71" y="97.4881" font-family="Arial" font-size="12" fill="black">23</text>
<circle cx="284.71" cy="104.803" r="8" fill="blue"/>
<text x="299.71" y="109.803" font-family="Arial" font-size="12" fill="black">24</text>
<circle cx="284.71" cy="117.118" r="8" fill="blue"/>
<text x="299.71" y="122.118" font-family="Arial" font-size="12" fill="black">25</text>
<circle cx="66.7363" cy="182.893" r="8" fill="blue"/>
<text x="81.7363" y="187.893" font-family="Arial" font-size="12" fill="black">26</text>
<circle cx="66.7363" cy="189.051" r="8" fill="blue"/>
<text x="81.7363" y="194.051" font-family="Arial" font-size="12" fill="black">27</text>
<circle cx="66.7363" cy="195.208" r="8" fill="blue"/>
<text x="81.7363" y="200.208" font-family="Arial" font-size="12" fill="black">28</text>
<circle cx="66.7363" cy="201.366" r="8" fill="blue"/>
<text x="81.7363" y="206.366" font-family="Arial" font-size="12" fill="black">29</text>
<circle cx="91.3666" cy="182.893" r="8" fill="blue"/>
<text x="106.367" y="187.893" font-family="Arial" font-size="12" fill="black">30</text>
<circle cx="91.3666" cy="189.051" r="8" fill="blue"/>
<text x="106.367" y="194.051" font-family="Arial" font-size="12" fill="black">31</text>
<circle cx="91.3666" cy="195.208" r="8" fill="blue"/>
<text x="106.367" y="200.208" font-family="Arial" font-size="12" fill="black">32</text>
<circle cx="91.3666" cy="201.366" r="8" fill="blue"/>
<text x="106.367" y="206.366" font-family="Arial" font-size="12" fill="black">33</text>
</g>
<text x="-193.182" y="-193.182" font-family="Arial" font-size="14.4" fill="black"> Cost: 1170.81</text>
</g>
<g transform="translate(880.00,0)">
<rect x="-218.18" y="-218.18" width="800.00" height="800.00" fill="white"/>
<g>
<line x1="247.77" y1="117.12" x2="247.77" y2="104.80" stroke="rgb(128,0,127)" stroke-width="2.00"/>
<line x1="247.77" y1="104.80" x2="247.77" y2="92.49" stroke="rgb(128,0,127)" stroke-width="2.00"/>
<line x1="247.77" y1="92.49" x2="247.77" y2="80.17" stroke="rgb(128,0,127)" stroke-width="2.00"/>
<line x1="247.77" y1="80.17" x2="247.77" y2="67.86" stroke="rgb(128,0,127)" stroke-width="2.00"/>
<line x1="247.77" y1="67.86" x2="247.77" y2="55.54" stroke="rgb(128,0,127)" stroke-width="2.00"/>
<line x1="247.77" y1="55.54" x2="247.77" y2="43.23" stroke="rgb(128,0,127)" stroke-width="2.00"/>
<line x1="247.77" y1="43.23" x2="284.71" y2="43.23" stroke="rgb(128,0,127)" stroke-width="2.00"/>
<line x1="284.71" y1="43.23" x2="339.39" y2="24.24" stroke="rgb(128,0,127)" stroke-width="2.00"/>
<line x1="339.39" y1="24.24" x2="284.71" y2="55.54" stroke="rgb(128,0,127)" stroke-width="2.00"/>
<line x1="284.71" y1="55.54" x2="284.71" y2="67.86" stroke="rgb(128,0,127)" stroke-width="2.00"/>
<line x1="284.71" y1="67.86" x2="284.71" y2="80.17" stroke="rgb(128,0,127)" stroke-width="2.00"/>
<line x1="284.71" y1="80.17" x2="284.71" y2="92.49" stroke="rgb(128,0,127)" stroke-width="2.00"/>
<line x1="284.71" y1="92.49" x2="284.71" y2="104.80" stroke="rgb(128,0,127)" stroke-width="2.00"/>
<line x1="284.71" y1="104.80" x2="284.71" y2="117.12" stroke="rgb(128,0,127)" stroke-width="2.00"/>
<line x1="284.71" y1="117.12" x2="292.31" y2="256.38" stroke="rgb(128,0,127)" stroke-width="2.00"/>
<line x1="292.31" y1="256.38" x2="292.31" y2="262.53" stroke="rgb(128,0,127)" stroke-width="2.00"/>
<line x1="292.31" y1="262.53" x2="292.31" y2="268.69" stroke="rgb(128,0,127)" stroke-width="2.00"/>
<line x1="292.31" y1="268.69" x2="292.31" y2="274.85" stroke="rgb(128,0,127)" stroke-width="2.00"/>
<line x1="292.31" y1="274.85" x2="316.94" y2="262.53" stroke="rgb(128,0,127)" stroke-width="2.00"/>
<line x1="316.94" y1="262.53" x2="316.94" y2="256.38" stroke="rgb(128,0,127)" stroke-width="2.00"/>
<line x1="316.94" y1="256.38" x2="316.94" y2="268.69" stroke="rgb(128,0,127)" stroke-width="2.00"/>
<line x1="316.94" y1="268.69" x2="316.94" y2="274.85" stroke="rgb(128,0,127)" stroke-width="2.00"/>
<line x1="316.94" y1="274.85" x2="339.39" y2="339.39" stroke="rgb(128,0,127)" stroke-width="2.00"/>
<line x1="339.39" y1="339.39" x2="24.24" y2="339.39" stroke="rgb(128,0,127)" stroke-width="2.00"/>
<line x1="24.24" y1="339.39" x2="66.74" y2="201.37" stroke="rgb(128,0,127)" stroke-width="2.00"/>
<line x1="66.74" y1="201.37" x2="66.74" y2="182.89" stroke="rgb(128,0,127)" stroke-width="2.00"/>
<line x1="66.74" y1="182.89" x2="66.74" y2="189.05" stroke="rgb(128,0,127)" stroke-width="2.00"/>
<line x1="66.74" y1="189.05" x2="66.74" y2="195.21" stroke="rgb(128,0,127)" stroke-width="2.00"/>
<line x1="66.74" y1="195.21" x2="91.37" y2="201.37" stroke="rgb(128,0,127)" stroke-width="2.00"/>
<line x1="91.37" y1="201.37" x2="91.37" y2="195.21" stroke="rgb(128,0,127)" stroke-width="2.00"/>
<line x1="91.37" y1="195.21" x2="91.37" y2="189.05" stroke="rgb(128,0,127)" stroke-width="2.00"/>
<line x1="91.37" y1="189.05" x2="91.37" y2="182.89" stroke="rgb(128,0,127)" stroke-width="2.00"/>
<line x1="91.37" y1="182.89" x2="24.24" y2="24.24" stroke="rgb(128,0,127)" stroke-width="2.00"/>
<line x1="24.24" y1="24.24" x2="24.24" y2="24.24" stroke="rgb(128,0,127)" stroke-width="2.00"/>
</g>
<g>
<circle cx="24.24" cy="24.24" r="8.00" fill="blue"/>
<text x="39.24" y="29.24" font-family="Arial" font-size="12.00" fill="black">0</text>
<circle cx="339.39" cy="24.24" r="8.00" fill="blue"/>
<text x="354.39" y="29.24" font-family="Arial" font-size="12.00" fill="black">1</text>
<circle cx="24.24" cy="339.39" r="8.00" fill="blue"/>
<text x="39.24" y="344.39" font-family="Arial" font-size="12.00" fill="black">2</text>
<circle cx="339.39" cy="339.39" r="8.00" fill="blue"/>
<text x="354.39" y="344.39" font-family="Arial" font-size="12.00" fill="black">3</text>
<circle cx="292.31" cy="256.38" r="8.00" fill="blue"/>
<text x="307.31" y="261.38" font-family="Arial" font-size="12.00" fill="black">4</text>
<circle cx="292.31" cy="262.53" r="8.00" fill="blue"/>
<text x="307.31" y="267.53" font-family="Arial" font-size="12.00" fill="black">5</text>
<circle cx="292.31" cy="268.69" r="8.00" fill="blue"/>
<text x="307.31" y="273.69" font-family="Arial" font-size="12.00" fill="black">6</text>
<circle cx="292.31" cy="274.85" r="8.00" fill="blue"/>
<text x="307.31" y="279.85" font-family="Arial" font-size="12.00" fill="black">7</text>
<circle cx="316.94" cy="256.38" r="8.00" fill="blue"/>
<text x="331.94" y="261.38" font-family="Arial" font-size="12.00" fill="black">8</text>
<circle cx="316.94" cy="262.53" r="8.00" fill="blue"/>
<text x="331.94" y="267.53" font-family="Arial" font-size="12.00" fill="black">9</text>
<circle cx="316.94" cy="268.69" r="8.00" fill="blue"/>
<text x="331.94" y="273.69" font-family="Arial" font-size="12.00" fill="black">10</text>
<circle cx="316.94" cy="274.85" r="8.00" fill="blue"/>
<text x="331.94" y="279.85" font-family="Arial" font-size="12.00" fill="black">11</text>
<circle cx="247.77" cy="43.23" r="8.00" fill="blue"/>
<text x="262.77" y="48.23" font-family="Arial" font-size="12.00" fill="black">12</text>
<circle cx="247.77" cy="55.54" r="8.00" fill="blue"/>
<text x="262.77" y="60.54" font-family="Arial" font-size="12.00" fill="black">13</text>
<circle cx="247.77" cy="67.86" r="8.00" fill="blue"/>
<text x="262.77" y="72.86" font-family="Arial" font-size="12.00" fill="black">14</text>
<circle cx="247.77" cy="80.17" r="8.00" fill="blue"/>
<text x="262.77" y="85.17" font-family="Arial" font-size="12.00" fill="black">15</text>
<circle cx="247.77" cy="92.49" r="8.00" fill="blue"/>
<text x="262.77" y="97.49" font-family="Arial" font-size="12.00" fill="black">16</text>
<circle cx="247.77" cy="104.80" r="8.00" fill="blue"/>
<text x="262.77" y="109.80" font-family="Arial" font-size="12.00" fill="black">17</text>
<circle cx="247.77" cy="117.12" r="8.00" fill="blue"/>
<text x="262.77" y="122.12" font-family="Arial" font-size="12.00" fill="black">18</text>
<circle cx="284.71" cy="43.23" r="8.00" fill="blue"/>
<text x="299.71" y="48.23" font-family="Arial" font-size="12.00" fill="black">19</text>
<circle cx="284.71" cy="55.54" r="8.00" fill="blue"/>
<text x="299.71" y="60.54" font-family="Arial" font-size="12.00" fill="black">20</text>
<circle cx="284.71" cy="67.86" r="8.00" fill="blue"/>
<text x="299.71" y="72.86" font-family="Arial" font-size="12.00" fill="black">21</text>
<circle cx="284.71" cy="80.17" r="8.00" fill="blue"/>
<text x="299.71" y="85.17" font-family="Arial" font-size="12.00" fill="black">22</text>
<circle cx="284.71" cy="92.49" r="8.00" fill="blue"/>
<text x="299.71" y="97.49" font-family="Arial" font-size="12.00" fill="black">23</text>
<circle cx="284.71" cy="104.80" r="8.00" fill="blue"/>
<text x="299.71" y="109.80" font-family="Arial" font-size="12.00" fill="black">24</text>
<circle cx="284.71" cy="117.12" r="8.00" fill="blue"/>
<text x="299.71" y="122.12" font-family="Arial" font-size="12.00" fill="black">25</text>
<circle cx="66.74" cy="182.89" r="8.00" fill="blue"/>
<text x="81.74" y="187.89" font-family="Arial" font-size="12.00" fill="black">26</text>
<circle cx="66.74" cy="189.05" r="8.00" fill="blue"/>
<text x="81.74" y="194.05" font-family="Arial" font-size="12.00" fill="black">27</text>
<circle cx="66.74" cy="195.21" r="8.00" fill="blue"/>
<text x="81.74" y="200.21" font-family="Arial" font-size="12.00" fill="black">28</text>
<circle cx="66.74" cy="201.37" r="8.00" fill="blue"/>
<text x="81.74" y="206.37" font-family="Arial" font-size="12.00" fill="black">29</text>
<circle cx="91.37" cy="182.89" r="8.00" fill="blue"/>
<text x="106.37" y="187.89" font-family="Arial" font-size="12.00" fill="black">30</text>
<circle cx="91.37" cy="189.05" r="8.00" fill="blue"/>
<text x="106.37" y="194.05" font-family="Arial" font-size="12.00" fill="black">31</text>
<circle cx="91.37" cy="195.21" r="8.00" fill="blue"/>
<text x="106.37" y="200.21" font-family="Arial" font-size="12.00" fill="black">32</text>
<circle cx="91.37" cy="201.37" r="8.00" fill="blue"/>
<text x="106.37" y="206.37" font-family="Arial" font-size="12.00" fill="black">33</text>
</g>
<text x="-193.18" y="-193.18" font-family="Arial" font-size="14.40" fill="black"> Cost: 263.64</text>
</g>
</svg>
