<?xml version="1.0" encoding="UTF-8" standalone="no"?>
<svg xmlns="http://www.w3.org/2000/svg" viewBox="-5 -5 60 60">
<rect x="-5" y="-5" width="60" height="60" fill="white"/>
<text x="0" y="10" font-family="Arial" font-size="10" fill="black">Iteration: 0 | Cost: 377.15</text>
<g>
<line x1="5.00" y1="5.00" x2="26.98" y2="37.15" stroke="rgb(0,0,255)" stroke-width="0.8"/>
<line x1="26.98" y1="37.15" x2="30.92" y2="11.15" stroke="rgb(15,0,240)" stroke-width="0.8"/>
<line x1="30.92" y1="11.15" x2="5.00" y2="45.00" stroke="rgb(30,0,225)" stroke-width="0.8"/>
<line x1="5.00" y1="45.00" x2="29.52" y2="37.15" stroke="rgb(45,0,210)" stroke-width="0.8"/>
<line x1="29.52" y1="37.15" x2="36.00" y2="9.88" stroke="rgb(60,0,195)" stroke-width="0.8"/>
<line x1="36.00" y1="9.88" x2="24.44" y2="37.15" stroke="rgb(75,0,180)" stroke-width="0.8"/>
<line x1="24.44" y1="37.15" x2="32.06" y2="37.15" stroke="rgb(90,0,165)" stroke-width="0.8"/>
<line x1="32.06" y1="37.15" x2="34.60" y2="37.15" stroke="rgb(105,0,150)" stroke-width="0.8"/>
<line x1="34.60" y1="37.15" x2="30.92" y2="8.61" stroke="rgb(120,0,135)" stroke-width="0.8"/>
<line x1="30.92" y1="8.61" x2="36.00" y2="11.15" stroke="rgb(135,0,120)" stroke-width="0.8"/>
<line x1="36.00" y1="11.15" x2="45.00" y2="45.00" stroke="rgb(150,0,105)" stroke-width="0.8"/>
<line x1="45.00" y1="45.00" x2="30.92" y2="12.42" stroke="rgb(165,0,90)" stroke-width="0.8"/>
<line x1="30.92" y1="12.42" x2="36.00" y2="8.61" stroke="rgb(180,0,75)" stroke-width="0.8"/>
<line x1="36.00" y1="8.61" x2="36.00" y2="12.42" stroke="rgb(195,0,60)" stroke-width="0.8"/>
<line x1="36.00" y1="12.42" x2="30.92" y2="9.88" stroke="rgb(210,0,45)" stroke-width="0.8"/>
<line x1="30.92" y1="9.88" x2="45.00" y2="5.00" stroke="rgb(225,0,30)" stroke-width="0.8"/>
<line x1="45.00" y1="5.00" x2="5.00" y2="5.00" stroke="rgb(240,0,15)" stroke-width="0.8"/>
</g>
<g>
<circle cx="5.00" cy="5.00" r="2" fill="blue"/>
<text x="7.50" y="5.00" font-family="Arial" font-size="5" fill="black">0</text>
<circle cx="45.00" cy="5.00" r="2" fill="blue"/>
<text x="47.50" y="5.00" font-family="Arial" font-size="5" fill="black">1</text>
<circle cx="5.00" cy="45.00" r="2" fill="blue"/>
<text x="7.50" y="45.00" font-family="Arial" font-size="5" fill="black">2</text>
<circle cx="45.00" cy="45.00" r="2" fill="blue"/>
<text x="47.50" y="45.00" font-family="Arial" font-size="5" fill="black">3</text>
<circle cx="30.92" cy="8.61" r="2" fill="blue"/>
<text x="33.42" y="8.61" font-family="Arial" font-size="5" fill="black">4</text>
<circle cx="30.92" cy="9.88" r="2" fill="blue"/>
<text x="33.42" y="9.88" font-family="Arial" font-size="5" fill="black">5</text>
<circle cx="30.92" cy="11.15" r="2" fill="blue"/>
<text x="33.42" y="11.15" font-family="Arial" font-size="5" fill="black">6</text>
<circle cx="30.92" cy="12.42" r="2" fill="blue"/>
<text x="33.42" y="12.42" font-family="Arial" font-size="5" fill="black">7</text>
<circle cx="36.00" cy="8.61" r="2" fill="blue"/>
<text x="38.50" y="8.61" font-family="Arial" font-size="5" fill="black">8</text>
<circle cx="36.00" cy="9.88" r="2" fill="blue"/>
<text x="38.50" y="9.88" font-family="Arial" font-size="5" fill="black">9</text>
<circle cx="36.00" cy="11.15" r="2" fill="blue"/>
<text x="38.50" y="11.15" font-family="Arial" font-size="5" fill="black">10</text>
<circle cx="36.00" cy="12.42" r="2" fill="blue"/>
<text x="38.50" y="12.42" font-family="Arial" font-size="5" fill="black">11</text>
<circle cx="24.44" cy="37.15" r="2" fill="blue"/>
<text x="26.94" y="37.15" font-family="Arial" font-size="5" fill="black">12</text>
<circle cx="26.98" cy="37.15" r="2" fill="blue"/>
<text x="29.48" y="37.15" font-family="Arial" font-size="5" fill="black">13</text>
<circle cx="29.52" cy="37.15" r="2" fill="blue"/>
<text x="32.02" y="37.15" font-family="Arial" font-size="5" fill="black">14</text>
<circle cx="32.06" cy="37.15" r="2" fill="blue"/>
<text x="34.56" y="37.15" font-family="Arial" font-size="5" fill="black">15</text>
<circle cx="34.60" cy="37.15" r="2" fill="blue"/>
<text x="37.10" y="37.15" font-family="Arial" font-size="5" fill="black">16</text>
</g>
</svg>
