<?xml version="1.0" encoding="UTF-8" standalone="no"?>
<svg xmlns="http://www.w3.org/2000/svg" viewBox="-5 -5 60 60">
<rect x="-5" y="-5" width="60" height="60" fill="white"/>
<g>
<line x1="5" y1="5" x2="5" y2="45" stroke="rgb(0,0,255)" stroke-width="0.8"/>
<line x1="5" y1="45" x2="29.9667" y2="44.6652" stroke="rgb(18,0,237)" stroke-width="0.8"/>
<line x1="29.9667" y1="44.6652" x2="32.5067" y2="44.6652" stroke="rgb(36,0,219)" stroke-width="0.8"/>
<line x1="32.5067" y1="44.6652" x2="35.0467" y2="44.6652" stroke="rgb(54,0,201)" stroke-width="0.8"/>
<line x1="35.0467" y1="44.6652" x2="37.5867" y2="44.6652" stroke="rgb(72,0,183)" stroke-width="0.8"/>
<line x1="37.5867" y1="44.6652" x2="40.1267" y2="44.6652" stroke="rgb(91,0,164)" stroke-width="0.8"/>
<line x1="40.1267" y1="44.6652" x2="45" y2="45" stroke="rgb(109,0,146)" stroke-width="0.8"/>
<line x1="45" y1="45" x2="36.602" y2="25.7858" stroke="rgb(127,0,128)" stroke-width="0.8"/>
<line x1="36.602" y1="25.7858" x2="34.062" y2="25.7858" stroke="rgb(145,0,110)" stroke-width="0.8"/>
<line x1="34.062" y1="25.7858" x2="31.522" y2="25.7858" stroke="rgb(163,0,92)" stroke-width="0.8"/>
<line x1="31.522" y1="25.7858" x2="28.982" y2="25.7858" stroke="rgb(182,0,73)" stroke-width="0.8"/>
<line x1="28.982" y1="25.7858" x2="26.442" y2="25.7858" stroke="rgb(200,0,55)" stroke-width="0.8"/>
<line x1="26.442" y1="25.7858" x2="45" y2="5" stroke="rgb(218,0,37)" stroke-width="0.8"/>
<line x1="45" y1="5" x2="5" y2="5" stroke="rgb(236,0,19)" stroke-width="0.8"/>
</g>
<g>
<circle cx="5" cy="5" r="2" fill="blue"/>
<text x="7.5" y="5" font-family="Arial" font-size="5" fill="black">0</text>
<circle cx="45" cy="5" r="2" fill="blue"/>
<text x="47.5" y="5" font-family="Arial" font-size="5" fill="black">1</text>
<circle cx="5" cy="45" r="2" fill="blue"/>
<text x="7.5" y="45" font-family="Arial" font-size="5" fill="black">2</text>
<circle cx="45" cy="45" r="2" fill="blue"/>
<text x="47.5" y="45" font-family="Arial" font-size="5" fill="black">3</text>
<circle cx="26.442" cy="25.7858" r="2" fill="blue"/>
<text x="28.942" y="25.7858" font-family="Arial" font-size="5" fill="black">4</text>
<circle cx="28.982" cy="25.7858" r="2" fill="blue"/>
<text x="31.482" y="25.7858" font-family="Arial" font-size="5" fill="black">5</text>
<circle cx="31.522" cy="25.7858" r="2" fill="blue"/>
<text x="34.022" y="25.7858" font-family="Arial" font-size="5" fill="black">6</text>
<circle cx="34.062" cy="25.7858" r="2" fill="blue"/>
<text x="36.562" y="25.7858" font-family="Arial" font-size="5" fill="black">7</text>
<circle cx="36.602" cy="25.7858" r="2" fill="blue"/>
<text x="39.102" y="25.7858" font-family="Arial" font-size="5" fill="black">8</text>
<circle cx="29.9667" cy="44.6652" r="2" fill="blue"/>
<text x="32.4667" y="44.6652" font-family="Arial" font-size="5" fill="black">9</text>
<circle cx="32.5067" cy="44.6652" r="2" fill="blue"/>
<text x="35.0067" y="44.6652" font-family="Arial" font-size="5" fill="black">10</text>
<circle cx="35.0467" cy="44.6652" r="2" fill="blue"/>
<text x="37.5467" y="44.6652" font-family="Arial" font-size="5" fill="black">11</text>
<circle cx="37.5867" cy="44.6652" r="2" fill="blue"/>
<text x="40.0867" y="44.6652" font-family="Arial" font-size="5" fill="black">12</text>
<circle cx="40.1267" cy="44.6652" r="2" fill="blue"/>
<text x="42.6267" y="44.6652" font-family="Arial" font-size="5" fill="black">13</text>
</g>
</svg>
