<?xml version="1.0" encoding="UTF-8" standalone="no"?>
<svg xmlns="http://www.w3.org/2000/svg" viewBox="-5 -5 60 60">
<rect x="-5" y="-5" width="60" height="60" fill="white"/>
<g>
<line x1="45" y1="45" x2="24.6774" y2="42.9296" stroke="rgb(0,0,255)" stroke-width="0.8"/>
<line x1="24.6774" y1="42.9296" x2="22.1374" y2="42.9296" stroke="rgb(18,0,237)" stroke-width="0.8"/>
<line x1="22.1374" y1="42.9296" x2="19.5974" y2="42.9296" stroke="rgb(36,0,219)" stroke-width="0.8"/>
<line x1="19.5974" y1="42.9296" x2="17.0574" y2="42.9296" stroke="rgb(54,0,201)" stroke-width="0.8"/>
<line x1="17.0574" y1="42.9296" x2="14.5174" y2="42.9296" stroke="rgb(72,0,183)" stroke-width="0.8"/>
<line x1="14.5174" y1="42.9296" x2="5" y2="45" stroke="rgb(91,0,164)" stroke-width="0.8"/>
<line x1="5" y1="45" x2="23.2869" y2="28.7198" stroke="rgb(109,0,146)" stroke-width="0.8"/>
<line x1="23.2869" y1="28.7198" x2="25.8269" y2="28.7198" stroke="rgb(127,0,128)" stroke-width="0.8"/>
<line x1="25.8269" y1="28.7198" x2="28.3669" y2="28.7198" stroke="rgb(145,0,110)" stroke-width="0.8"/>
<line x1="28.3669" y1="28.7198" x2="30.9069" y2="28.7198" stroke="rgb(163,0,92)" stroke-width="0.8"/>
<line x1="30.9069" y1="28.7198" x2="33.4469" y2="28.7198" stroke="rgb(182,0,73)" stroke-width="0.8"/>
<line x1="33.4469" y1="28.7198" x2="45" y2="5" stroke="rgb(200,0,55)" stroke-width="0.8"/>
<line x1="45" y1="5" x2="5" y2="5" stroke="rgb(218,0,37)" stroke-width="0.8"/>
<line x1="5" y1="5" x2="5" y2="5" stroke="rgb(236,0,19)" stroke-width="0.8"/>
</g>
<g>
<circle cx="5" cy="5" r="2" fill="blue"/>
<text x="7.5" y="5" font-family="Arial" font-size="5" fill="black">0</text>
<circle cx="45" cy="5" r="2" fill="blue"/>
<text x="47.5" y="5" font-family="Arial" font-size="5" fill="black">1</text>
<circle cx="5" cy="45" r="2" fill="blue"/>
<text x="7.5" y="45" font-family="Arial" font-size="5" fill="black">2</text>
<circle cx="45" cy="45" r="2" fill="blue"/>
<text x="47.5" y="45" font-family="Arial" font-size="5" fill="black">3</text>
<circle cx="14.5174" cy="42.9296" r="2" fill="blue"/>
<text x="17.0174" y="42.9296" font-family="Arial" font-size="5" fill="black">4</text>
<circle cx="17.0574" cy="42.9296" r="2" fill="blue"/>
<text x="19.5574" y="42.9296" font-family="Arial" font-size="5" fill="black">5</text>
<circle cx="19.5974" cy="42.9296" r="2" fill="blue"/>
<text x="22.0974" y="42.9296" font-family="Arial" font-size="5" fill="black">6</text>
<circle cx="22.1374" cy="42.9296" r="2" fill="blue"/>
<text x="24.6374" y="42.9296" font-family="Arial" font-size="5" fill="black">7</text>
<circle cx="24.6774" cy="42.9296" r="2" fill="blue"/>
<text x="27.1774" y="42.9296" font-family="Arial" font-size="5" fill="black">8</text>
<circle cx="23.2869" cy="28.7198" r="2" fill="blue"/>
<text x="25.7869" y="28.7198" font-family="Arial" font-size="5" fill="black">9</text>
<circle cx="25.8269" cy="28.7198" r="2" fill="blue"/>
<text x="28.3269" y="28.7198" font-family="Arial" font-size="5" fill="black">10</text>
<circle cx="28.3669" cy="28.7198" r="2" fill="blue"/>
<text x="30.8669" y="28.7198" font-family="Arial" font-size="5" fill="black">11</text>
<circle cx="30.9069" cy="28.7198" r="2" fill="blue"/>
<text x="33.4069" y="28.7198" font-family="Arial" font-size="5" fill="black">12</text>
<circle cx="33.4469" cy="28.7198" r="2" fill="blue"/>
<text x="35.9469" y="28.7198" font-family="Arial" font-size="5" fill="black">13</text>
</g>
</svg>
