<?xml version="1.0" encoding="UTF-8" standalone="no"?>
<svg xmlns="http://www.w3.org/2000/svg" viewBox="-5 -5 160 160">
<rect x="-5" y="-5" width="160" height="160" fill="white"/>
<g>
<circle cx="5" cy="5" r="2" fill="blue"/>
<text x="7.5" y="5" font-family="Arial" font-size="5" fill="black">0</text>
<circle cx="145" cy="5" r="2" fill="blue"/>
<text x="147.5" y="5" font-family="Arial" font-size="5" fill="black">1</text>
<circle cx="5" cy="145" r="2" fill="blue"/>
<text x="7.5" y="145" font-family="Arial" font-size="5" fill="black">2</text>
<circle cx="145" cy="145" r="2" fill="blue"/>
<text x="147.5" y="145" font-family="Arial" font-size="5" fill="black">3</text>
<circle cx="133.705" cy="6.81532" r="2" fill="blue"/>
<text x="136.205" y="6.81532" font-family="Arial" font-size="5" fill="black">4</text>
<circle cx="133.705" cy="8.08532" r="2" fill="blue"/>
<text x="136.205" y="8.08532" font-family="Arial" font-size="5" fill="black">5</text>
<circle cx="133.705" cy="9.35532" r="2" fill="blue"/>
<text x="136.205" y="9.35532" font-family="Arial" font-size="5" fill="black">6</text>
<circle cx="133.705" cy="10.6253" r="2" fill="blue"/>
<text x="136.205" y="10.6253" font-family="Arial" font-size="5" fill="black">7</text>
<circle cx="138.785" cy="6.81532" r="2" fill="blue"/>
<text x="141.285" y="6.81532" font-family="Arial" font-size="5" fill="black">8</text>
<circle cx="138.785" cy="8.08532" r="2" fill="blue"/>
<text x="141.285" y="8.08532" font-family="Arial" font-size="5" fill="black">9</text>
<circle cx="138.785" cy="9.35532" r="2" fill="blue"/>
<text x="141.285" y="9.35532" font-family="Arial" font-size="5" fill="black">10</text>
<circle cx="138.785" cy="10.6253" r="2" fill="blue"/>
<text x="141.285" y="10.6253" font-family="Arial" font-size="5" fill="black">11</text>
<circle cx="126.443" cy="91.6514" r="2" fill="blue"/>
<text x="128.943" y="91.6514" font-family="Arial" font-size="5" fill="black">12</text>
<circle cx="128.983" cy="91.6514" r="2" fill="blue"/>
<text x="131.483" y="91.6514" font-family="Arial" font-size="5" fill="black">13</text>
<circle cx="131.523" cy="91.6514" r="2" fill="blue"/>
<text x="134.023" y="91.6514" font-family="Arial" font-size="5" fill="black">14</text>
<circle cx="134.063" cy="91.6514" r="2" fill="blue"/>
<text x="136.563" y="91.6514" font-family="Arial" font-size="5" fill="black">15</text>
<circle cx="136.603" cy="91.6514" r="2" fill="blue"/>
<text x="139.103" y="91.6514" font-family="Arial" font-size="5" fill="black">16</text>
<circle cx="23.6395" cy="67.4382" r="2" fill="blue"/>
<text x="26.1395" y="67.4382" font-family="Arial" font-size="5" fill="black">17</text>
<circle cx="23.6395" cy="68.7082" r="2" fill="blue"/>
<text x="26.1395" y="68.7082" font-family="Arial" font-size="5" fill="black">18</text>
<circle cx="23.6395" cy="69.9782" r="2" fill="blue"/>
<text x="26.1395" y="69.9782" font-family="Arial" font-size="5" fill="black">19</text>
<circle cx="23.6395" cy="71.2482" r="2" fill="blue"/>
<text x="26.1395" y="71.2482" font-family="Arial" font-size="5" fill="black">20</text>
<circle cx="28.7195" cy="67.4382" r="2" fill="blue"/>
<text x="31.2195" y="67.4382" font-family="Arial" font-size="5" fill="black">21</text>
<circle cx="28.7195" cy="68.7082" r="2" fill="blue"/>
<text x="31.2195" y="68.7082" font-family="Arial" font-size="5" fill="black">22</text>
<circle cx="28.7195" cy="69.9782" r="2" fill="blue"/>
<text x="31.2195" y="69.9782" font-family="Arial" font-size="5" fill="black">23</text>
<circle cx="28.7195" cy="71.2482" r="2" fill="blue"/>
<text x="31.2195" y="71.2482" font-family="Arial" font-size="5" fill="black">24</text>
<circle cx="49.4941" cy="108.047" r="2" fill="blue"/>
<text x="51.9941" y="108.047" font-family="Arial" font-size="5" fill="black">25</text>
<circle cx="49.4941" cy="109.317" r="2" fill="blue"/>
<text x="51.9941" y="109.317" font-family="Arial" font-size="5" fill="black">26</text>
<circle cx="49.4941" cy="110.587" r="2" fill="blue"/>
<text x="51.9941" y="110.587" font-family="Arial" font-size="5" fill="black">27</text>
<circle cx="49.4941" cy="111.857" r="2" fill="blue"/>
<text x="51.9941" y="111.857" font-family="Arial" font-size="5" fill="black">28</text>
<circle cx="54.5741" cy="108.047" r="2" fill="blue"/>
<text x="57.0741" y="108.047" font-family="Arial" font-size="5" fill="black">29</text>
<circle cx="54.5741" cy="109.317" r="2" fill="blue"/>
<text x="57.0741" y="109.317" font-family="Arial" font-size="5" fill="black">30</text>
<circle cx="54.5741" cy="110.587" r="2" fill="blue"/>
<text x="57.0741" y="110.587" font-family="Arial" font-size="5" fill="black">31</text>
<circle cx="54.5741" cy="111.857" r="2" fill="blue"/>
<text x="57.0741" y="111.857" font-family="Arial" font-size="5" fill="black">32</text>
<circle cx="39.8923" cy="129.746" r="2" fill="blue"/>
<text x="42.3923" y="129.746" font-family="Arial" font-size="5" fill="black">33</text>
<circle cx="42.4323" cy="129.746" r="2" fill="blue"/>
<text x="44.9323" y="129.746" font-family="Arial" font-size="5" fill="black">34</text>
<circle cx="44.9723" cy="129.746" r="2" fill="blue"/>
<text x="47.4723" y="129.746" font-family="Arial" font-size="5" fill="black">35</text>
<circle cx="47.5123" cy="129.746" r="2" fill="blue"/>
<text x="50.0123" y="129.746" font-family="Arial" font-size="5" fill="black">36</text>
<circle cx="50.0523" cy="129.746" r="2" fill="blue"/>
<text x="52.5523" y="129.746" font-family="Arial" font-size="5" fill="black">37</text>
</g>
</svg>
