<?xml version="1.0" encoding="UTF-8" standalone="no"?>
<svg xmlns="http://www.w3.org/2000/svg" viewBox="-5 -5 160 160">
<rect x="-5" y="-5" width="160" height="160" fill="white"/>
<text x="0" y="10" font-family="Arial" font-size="10" fill="black">Iteration: 0 | Cost: 3087.18</text>
<g>
<line x1="5.00" y1="5.00" x2="102.88" y2="62.49" stroke="rgb(0,0,255)" stroke-width="0.8"/>
<line x1="102.88" y1="62.49" x2="50.11" y2="88.38" stroke="rgb(5,0,250)" stroke-width="0.8"/>
<line x1="50.11" y1="88.38" x2="110.50" y2="59.95" stroke="rgb(10,0,245)" stroke-width="0.8"/>
<line x1="110.50" y1="59.95" x2="110.50" y2="62.49" stroke="rgb(16,0,239)" stroke-width="0.8"/>
<line x1="110.50" y1="62.49" x2="134.21" y2="141.59" stroke="rgb(21,0,234)" stroke-width="0.8"/>
<line x1="134.21" y1="141.59" x2="145.00" y2="145.00" stroke="rgb(27,0,228)" stroke-width="0.8"/>
<line x1="145.00" y1="145.00" x2="145.00" y2="5.00" stroke="rgb(32,0,223)" stroke-width="0.8"/>
<line x1="145.00" y1="5.00" x2="129.13" y2="141.59" stroke="rgb(37,0,218)" stroke-width="0.8"/>
<line x1="129.13" y1="141.59" x2="129.13" y2="140.32" stroke="rgb(43,0,212)" stroke-width="0.8"/>
<line x1="129.13" y1="140.32" x2="45.03" y2="88.38" stroke="rgb(48,0,207)" stroke-width="0.8"/>
<line x1="45.03" y1="88.38" x2="110.50" y2="70.11" stroke="rgb(54,0,201)" stroke-width="0.8"/>
<line x1="110.50" y1="70.11" x2="110.50" y2="57.41" stroke="rgb(59,0,196)" stroke-width="0.8"/>
<line x1="110.50" y1="57.41" x2="110.50" y2="67.57" stroke="rgb(65,0,190)" stroke-width="0.8"/>
<line x1="110.50" y1="67.57" x2="134.21" y2="142.86" stroke="rgb(70,0,185)" stroke-width="0.8"/>
<line x1="134.21" y1="142.86" x2="102.88" y2="57.41" stroke="rgb(75,0,180)" stroke-width="0.8"/>
<line x1="102.88" y1="57.41" x2="51.89" y2="27.96" stroke="rgb(81,0,174)" stroke-width="0.8"/>
<line x1="51.89" y1="27.96" x2="102.88" y2="67.57" stroke="rgb(86,0,169)" stroke-width="0.8"/>
<line x1="102.88" y1="67.57" x2="45.03" y2="87.11" stroke="rgb(92,0,163)" stroke-width="0.8"/>
<line x1="45.03" y1="87.11" x2="129.13" y2="142.86" stroke="rgb(97,0,158)" stroke-width="0.8"/>
<line x1="129.13" y1="142.86" x2="50.11" y2="85.84" stroke="rgb(103,0,152)" stroke-width="0.8"/>
<line x1="50.11" y1="85.84" x2="102.88" y2="59.95" stroke="rgb(108,0,147)" stroke-width="0.8"/>
<line x1="102.88" y1="59.95" x2="102.88" y2="65.03" stroke="rgb(113,0,142)" stroke-width="0.8"/>
<line x1="102.88" y1="65.03" x2="110.47" y2="51.55" stroke="rgb(119,0,136)" stroke-width="0.8"/>
<line x1="110.47" y1="51.55" x2="50.11" y2="87.11" stroke="rgb(124,0,131)" stroke-width="0.8"/>
<line x1="50.11" y1="87.11" x2="105.39" y2="51.55" stroke="rgb(130,0,125)" stroke-width="0.8"/>
<line x1="105.39" y1="51.55" x2="110.47" y2="49.01" stroke="rgb(135,0,120)" stroke-width="0.8"/>
<line x1="110.47" y1="49.01" x2="134.21" y2="144.13" stroke="rgb(141,0,114)" stroke-width="0.8"/>
<line x1="134.21" y1="144.13" x2="49.35" y2="27.96" stroke="rgb(146,0,109)" stroke-width="0.8"/>
<line x1="49.35" y1="27.96" x2="5.00" y2="145.00" stroke="rgb(151,0,104)" stroke-width="0.8"/>
<line x1="5.00" y1="145.00" x2="105.39" y2="50.28" stroke="rgb(157,0,98)" stroke-width="0.8"/>
<line x1="105.39" y1="50.28" x2="129.13" y2="144.13" stroke="rgb(162,0,93)" stroke-width="0.8"/>
<line x1="129.13" y1="144.13" x2="54.43" y2="27.96" stroke="rgb(168,0,87)" stroke-width="0.8"/>
<line x1="54.43" y1="27.96" x2="102.88" y2="54.87" stroke="rgb(173,0,82)" stroke-width="0.8"/>
<line x1="102.88" y1="54.87" x2="110.50" y2="54.87" stroke="rgb(179,0,76)" stroke-width="0.8"/>
<line x1="110.50" y1="54.87" x2="50.11" y2="89.65" stroke="rgb(184,0,71)" stroke-width="0.8"/>
<line x1="50.11" y1="89.65" x2="44.27" y2="27.96" stroke="rgb(189,0,66)" stroke-width="0.8"/>
<line x1="44.27" y1="27.96" x2="46.81" y2="27.96" stroke="rgb(195,0,60)" stroke-width="0.8"/>
<line x1="46.81" y1="27.96" x2="102.88" y2="70.11" stroke="rgb(200,0,55)" stroke-width="0.8"/>
<line x1="102.88" y1="70.11" x2="110.47" y2="50.28" stroke="rgb(206,0,49)" stroke-width="0.8"/>
<line x1="110.47" y1="50.28" x2="110.47" y2="47.74" stroke="rgb(211,0,44)" stroke-width="0.8"/>
<line x1="110.47" y1="47.74" x2="45.03" y2="85.84" stroke="rgb(217,0,38)" stroke-width="0.8"/>
<line x1="45.03" y1="85.84" x2="134.21" y2="140.32" stroke="rgb(222,0,33)" stroke-width="0.8"/>
<line x1="134.21" y1="140.32" x2="105.39" y2="47.74" stroke="rgb(227,0,28)" stroke-width="0.8"/>
<line x1="105.39" y1="47.74" x2="110.50" y2="65.03" stroke="rgb(233,0,22)" stroke-width="0.8"/>
<line x1="110.50" y1="65.03" x2="105.39" y2="49.01" stroke="rgb(238,0,17)" stroke-width="0.8"/>
<line x1="105.39" y1="49.01" x2="45.03" y2="89.65" stroke="rgb(244,0,11)" stroke-width="0.8"/>
<line x1="45.03" y1="89.65" x2="5.00" y2="5.00" stroke="rgb(249,0,6)" stroke-width="0.8"/>
</g>
<g>
<circle cx="5.00" cy="5.00" r="2" fill="blue"/>
<text x="7.50" y="5.00" font-family="Arial" font-size="5" fill="black">0</text>
<circle cx="145.00" cy="5.00" r="2" fill="blue"/>
<text x="147.50" y="5.00" font-family="Arial" font-size="5" fill="black">1</text>
<circle cx="5.00" cy="145.00" r="2" fill="blue"/>
<text x="7.50" y="145.00" font-family="Arial" font-size="5" fill="black">2</text>
<circle cx="145.00" cy="145.00" r="2" fill="blue"/>
<text x="147.50" y="145.00" font-family="Arial" font-size="5" fill="black">3</text>
<circle cx="44.27" cy="27.96" r="2" fill="blue"/>
<text x="46.77" y="27.96" font-family="Arial" font-size="5" fill="black">4</text>
<circle cx="46.81" cy="27.96" r="2" fill="blue"/>
<text x="49.31" y="27.96" font-family="Arial" font-size="5" fill="black">5</text>
<circle cx="49.35" cy="27.96" r="2" fill="blue"/>
<text x="51.85" y="27.96" font-family="Arial" font-size="5" fill="black">6</text>
<circle cx="51.89" cy="27.96" r="2" fill="blue"/>
<text x="54.39" y="27.96" font-family="Arial" font-size="5" fill="black">7</text>
<circle cx="54.43" cy="27.96" r="2" fill="blue"/>
<text x="56.93" y="27.96" font-family="Arial" font-size="5" fill="black">8</text>
<circle cx="102.88" cy="54.87" r="2" fill="blue"/>
<text x="105.38" y="54.87" font-family="Arial" font-size="5" fill="black">9</text>
<circle cx="102.88" cy="57.41" r="2" fill="blue"/>
<text x="105.38" y="57.41" font-family="Arial" font-size="5" fill="black">10</text>
<circle cx="102.88" cy="59.95" r="2" fill="blue"/>
<text x="105.38" y="59.95" font-family="Arial" font-size="5" fill="black">11</text>
<circle cx="102.88" cy="62.49" r="2" fill="blue"/>
<text x="105.38" y="62.49" font-family="Arial" font-size="5" fill="black">12</text>
<circle cx="102.88" cy="65.03" r="2" fill="blue"/>
<text x="105.38" y="65.03" font-family="Arial" font-size="5" fill="black">13</text>
<circle cx="102.88" cy="67.57" r="2" fill="blue"/>
<text x="105.38" y="67.57" font-family="Arial" font-size="5" fill="black">14</text>
<circle cx="102.88" cy="70.11" r="2" fill="blue"/>
<text x="105.38" y="70.11" font-family="Arial" font-size="5" fill="black">15</text>
<circle cx="110.50" cy="54.87" r="2" fill="blue"/>
<text x="113.00" y="54.87" font-family="Arial" font-size="5" fill="black">16</text>
<circle cx="110.50" cy="57.41" r="2" fill="blue"/>
<text x="113.00" y="57.41" font-family="Arial" font-size="5" fill="black">17</text>
<circle cx="110.50" cy="59.95" r="2" fill="blue"/>
<text x="113.00" y="59.95" font-family="Arial" font-size="5" fill="black">18</text>
<circle cx="110.50" cy="62.49" r="2" fill="blue"/>
<text x="113.00" y="62.49" font-family="Arial" font-size="5" fill="black">19</text>
<circle cx="110.50" cy="65.03" r="2" fill="blue"/>
<text x="113.00" y="65.03" font-family="Arial" font-size="5" fill="black">20</text>
<circle cx="110.50" cy="67.57" r="2" fill="blue"/>
<text x="113.00" y="67.57" font-family="Arial" font-size="5" fill="black">21</text>
<circle cx="110.50" cy="70.11" r="2" fill="blue"/>
<text x="113.00" y="70.11" font-family="Arial" font-size="5" fill="black">22</text>
<circle cx="45.03" cy="85.84" r="2" fill="blue"/>
<text x="47.53" y="85.84" font-family="Arial" font-size="5" fill="black">23</text>
<circle cx="45.03" cy="87.11" r="2" fill="blue"/>
<text x="47.53" y="87.11" font-family="Arial" font-size="5" fill="black">24</text>
<circle cx="45.03" cy="88.38" r="2" fill="blue"/>
<text x="47.53" y="88.38" font-family="Arial" font-size="5" fill="black">25</text>
<circle cx="45.03" cy="89.65" r="2" fill="blue"/>
<text x="47.53" y="89.65" font-family="Arial" font-size="5" fill="black">26</text>
<circle cx="50.11" cy="85.84" r="2" fill="blue"/>
<text x="52.61" y="85.84" font-family="Arial" font-size="5" fill="black">27</text>
<circle cx="50.11" cy="87.11" r="2" fill="blue"/>
<text x="52.61" y="87.11" font-family="Arial" font-size="5" fill="black">28</text>
<circle cx="50.11" cy="88.38" r="2" fill="blue"/>
<text x="52.61" y="88.38" font-family="Arial" font-size="5" fill="black">29</text>
<circle cx="50.11" cy="89.65" r="2" fill="blue"/>
<text x="52.61" y="89.65" font-family="Arial" font-size="5" fill="black">30</text>
<circle cx="105.39" cy="47.74" r="2" fill="blue"/>
<text x="107.89" y="47.74" font-family="Arial" font-size="5" fill="black">31</text>
<circle cx="105.39" cy="49.01" r="2" fill="blue"/>
<text x="107.89" y="49.01" font-family="Arial" font-size="5" fill="black">32</text>
<circle cx="105.39" cy="50.28" r="2" fill="blue"/>
<text x="107.89" y="50.28" font-family="Arial" font-size="5" fill="black">33</text>
<circle cx="105.39" cy="51.55" r="2" fill="blue"/>
<text x="107.89" y="51.55" font-family="Arial" font-size="5" fill="black">34</text>
<circle cx="110.47" cy="47.74" r="2" fill="blue"/>
<text x="112.97" y="47.74" font-family="Arial" font-size="5" fill="black">35</text>
<circle cx="110.47" cy="49.01" r="2" fill="blue"/>
<text x="112.97" y="49.01" font-family="Arial" font-size="5" fill="black">36</text>
<circle cx="110.47" cy="50.28" r="2" fill="blue"/>
<text x="112.97" y="50.28" font-family="Arial" font-size="5" fill="black">37</text>
<circle cx="110.47" cy="51.55" r="2" fill="blue"/>
<text x="112.97" y="51.55" font-family="Arial" font-size="5" fill="black">38</text>
<circle cx="129.13" cy="140.32" r="2" fill="blue"/>
<text x="131.63" y="140.32" font-family="Arial" font-size="5" fill="black">39</text>
<circle cx="129.13" cy="141.59" r="2" fill="blue"/>
<text x="131.63" y="141.59" font-family="Arial" font-size="5" fill="black">40</text>
<circle cx="129.13" cy="142.86" r="2" fill="blue"/>
<text x="131.63" y="142.86" font-family="Arial" font-size="5" fill="black">41</text>
<circle cx="129.13" cy="144.13" r="2" fill="blue"/>
<text x="131.63" y="144.13" font-family="Arial" font-size="5" fill="black">42</text>
<circle cx="134.21" cy="140.32" r="2" fill="blue"/>
<text x="136.71" y="140.32" font-family="Arial" font-size="5" fill="black">43</text>
<circle cx="134.21" cy="141.59" r="2" fill="blue"/>
<text x="136.71" y="141.59" font-family="Arial" font-size="5" fill="black">44</text>
<circle cx="134.21" cy="142.86" r="2" fill="blue"/>
<text x="136.71" y="142.86" font-family="Arial" font-size="5" fill="black">45</text>
<circle cx="134.21" cy="144.13" r="2" fill="blue"/>
<text x="136.71" y="144.13" font-family="Arial" font-size="5" fill="black">46</text>
</g>
</svg>
