<?xml version="1.0" encoding="UTF-8" standalone="no"?>
<svg xmlns="http://www.w3.org/2000/svg" width="800" height="800" viewBox="-150 -150 800 800">
<rect x="-150" y="-150" width="800" height="800" fill="white"/>
<g>
<line x1="483.333" y1="483.333" x2="482.378" y2="214.066" stroke="rgb(0,0,255)" stroke-width="2"/>
<line x1="482.378" y1="214.066" x2="482.378" y2="205.6" stroke="rgb(4,0,251)" stroke-width="2"/>
<line x1="482.378" y1="205.6" x2="482.378" y2="197.133" stroke="rgb(8,0,247)" stroke-width="2"/>
<line x1="482.378" y1="197.133" x2="482.378" y2="188.666" stroke="rgb(12,0,243)" stroke-width="2"/>
<line x1="482.378" y1="188.666" x2="482.378" y2="180.2" stroke="rgb(17,0,238)" stroke-width="2"/>
<line x1="482.378" y1="180.2" x2="482.378" y2="171.733" stroke="rgb(21,0,234)" stroke-width="2"/>
<line x1="482.378" y1="171.733" x2="482.378" y2="163.266" stroke="rgb(25,0,230)" stroke-width="2"/>
<line x1="482.378" y1="163.266" x2="456.978" y2="214.066" stroke="rgb(30,0,225)" stroke-width="2"/>
<line x1="456.978" y1="214.066" x2="456.978" y2="205.6" stroke="rgb(34,0,221)" stroke-width="2"/>
<line x1="456.978" y1="205.6" x2="456.978" y2="197.133" stroke="rgb(38,0,217)" stroke-width="2"/>
<line x1="456.978" y1="197.133" x2="456.978" y2="188.666" stroke="rgb(43,0,212)" stroke-width="2"/>
<line x1="456.978" y1="188.666" x2="456.978" y2="180.2" stroke="rgb(47,0,208)" stroke-width="2"/>
<line x1="456.978" y1="180.2" x2="456.978" y2="171.733" stroke="rgb(51,0,204)" stroke-width="2"/>
<line x1="456.978" y1="171.733" x2="456.978" y2="163.266" stroke="rgb(56,0,199)" stroke-width="2"/>
<line x1="456.978" y1="163.266" x2="483.333" y2="16.6667" stroke="rgb(60,0,195)" stroke-width="2"/>
<line x1="483.333" y1="16.6667" x2="216.684" y2="110.543" stroke="rgb(64,0,191)" stroke-width="2"/>
<line x1="216.684" y1="110.543" x2="216.684" y2="119.01" stroke="rgb(69,0,186)" stroke-width="2"/>
<line x1="216.684" y1="119.01" x2="216.684" y2="127.477" stroke="rgb(73,0,182)" stroke-width="2"/>
<line x1="216.684" y1="127.477" x2="216.684" y2="135.943" stroke="rgb(77,0,178)" stroke-width="2"/>
<line x1="216.684" y1="135.943" x2="216.684" y2="144.41" stroke="rgb(82,0,173)" stroke-width="2"/>
<line x1="216.684" y1="144.41" x2="216.684" y2="152.877" stroke="rgb(86,0,169)" stroke-width="2"/>
<line x1="216.684" y1="152.877" x2="216.684" y2="161.343" stroke="rgb(90,0,165)" stroke-width="2"/>
<line x1="216.684" y1="161.343" x2="191.284" y2="161.343" stroke="rgb(95,0,160)" stroke-width="2"/>
<line x1="191.284" y1="161.343" x2="191.284" y2="152.877" stroke="rgb(99,0,156)" stroke-width="2"/>
<line x1="191.284" y1="152.877" x2="191.284" y2="144.41" stroke="rgb(103,0,152)" stroke-width="2"/>
<line x1="191.284" y1="144.41" x2="191.284" y2="135.943" stroke="rgb(108,0,147)" stroke-width="2"/>
<line x1="191.284" y1="135.943" x2="191.284" y2="127.477" stroke="rgb(112,0,143)" stroke-width="2"/>
<line x1="191.284" y1="127.477" x2="191.284" y2="119.01" stroke="rgb(116,0,139)" stroke-width="2"/>
<line x1="191.284" y1="119.01" x2="191.284" y2="110.543" stroke="rgb(121,0,134)" stroke-width="2"/>
<line x1="191.284" y1="110.543" x2="139.682" y2="160.513" stroke="rgb(125,0,130)" stroke-width="2"/>
<line x1="139.682" y1="160.513" x2="139.682" y2="168.98" stroke="rgb(129,0,126)" stroke-width="2"/>
<line x1="139.682" y1="168.98" x2="139.682" y2="177.446" stroke="rgb(133,0,122)" stroke-width="2"/>
<line x1="139.682" y1="177.446" x2="139.682" y2="185.913" stroke="rgb(138,0,117)" stroke-width="2"/>
<line x1="139.682" y1="185.913" x2="139.682" y2="194.38" stroke="rgb(142,0,113)" stroke-width="2"/>
<line x1="139.682" y1="194.38" x2="139.682" y2="202.846" stroke="rgb(146,0,109)" stroke-width="2"/>
<line x1="139.682" y1="202.846" x2="139.682" y2="211.313" stroke="rgb(151,0,104)" stroke-width="2"/>
<line x1="139.682" y1="211.313" x2="88.6093" y2="279.022" stroke="rgb(155,0,100)" stroke-width="2"/>
<line x1="88.6093" y1="279.022" x2="80.1427" y2="279.022" stroke="rgb(159,0,96)" stroke-width="2"/>
<line x1="80.1427" y1="279.022" x2="34.3496" y2="365.324" stroke="rgb(164,0,91)" stroke-width="2"/>
<line x1="34.3496" y1="365.324" x2="34.3496" y2="369.558" stroke="rgb(168,0,87)" stroke-width="2"/>
<line x1="34.3496" y1="369.558" x2="34.3496" y2="373.791" stroke="rgb(172,0,83)" stroke-width="2"/>
<line x1="34.3496" y1="373.791" x2="34.3496" y2="378.024" stroke="rgb(177,0,78)" stroke-width="2"/>
<line x1="34.3496" y1="378.024" x2="16.6667" y2="483.333" stroke="rgb(181,0,74)" stroke-width="2"/>
<line x1="16.6667" y1="483.333" x2="17.4163" y2="378.024" stroke="rgb(185,0,70)" stroke-width="2"/>
<line x1="17.4163" y1="378.024" x2="17.4163" y2="373.791" stroke="rgb(190,0,65)" stroke-width="2"/>
<line x1="17.4163" y1="373.791" x2="17.4163" y2="369.558" stroke="rgb(194,0,61)" stroke-width="2"/>
<line x1="17.4163" y1="369.558" x2="17.4163" y2="365.324" stroke="rgb(198,0,57)" stroke-width="2"/>
<line x1="17.4163" y1="365.324" x2="54.7427" y2="279.022" stroke="rgb(203,0,52)" stroke-width="2"/>
<line x1="54.7427" y1="279.022" x2="63.2093" y2="279.022" stroke="rgb(207,0,48)" stroke-width="2"/>
<line x1="63.2093" y1="279.022" x2="71.676" y2="279.022" stroke="rgb(211,0,44)" stroke-width="2"/>
<line x1="71.676" y1="279.022" x2="114.282" y2="211.313" stroke="rgb(216,0,39)" stroke-width="2"/>
<line x1="114.282" y1="211.313" x2="114.282" y2="202.846" stroke="rgb(220,0,35)" stroke-width="2"/>
<line x1="114.282" y1="202.846" x2="114.282" y2="194.38" stroke="rgb(224,0,31)" stroke-width="2"/>
<line x1="114.282" y1="194.38" x2="114.282" y2="185.913" stroke="rgb(229,0,26)" stroke-width="2"/>
<line x1="114.282" y1="185.913" x2="114.282" y2="177.446" stroke="rgb(233,0,22)" stroke-width="2"/>
<line x1="114.282" y1="177.446" x2="114.282" y2="168.98" stroke="rgb(237,0,18)" stroke-width="2"/>
<line x1="114.282" y1="168.98" x2="114.282" y2="160.513" stroke="rgb(242,0,13)" stroke-width="2"/>
<line x1="114.282" y1="160.513" x2="16.6667" y2="16.6667" stroke="rgb(246,0,9)" stroke-width="2"/>
<line x1="16.6667" y1="16.6667" x2="16.6667" y2="16.6667" stroke="rgb(250,0,5)" stroke-width="2"/>
</g>
<g>
<circle cx="16.6667" cy="16.6667" r="8" fill="blue"/>
<text x="31.6667" y="21.6667" font-family="Arial" font-size="12" fill="black">0</text>
<circle cx="483.333" cy="16.6667" r="8" fill="blue"/>
<text x="498.333" y="21.6667" font-family="Arial" font-size="12" fill="black">1</text>
<circle cx="16.6667" cy="483.333" r="8" fill="blue"/>
<text x="31.6667" y="488.333" font-family="Arial" font-size="12" fill="black">2</text>
<circle cx="483.333" cy="483.333" r="8" fill="blue"/>
<text x="498.333" y="488.333" font-family="Arial" font-size="12" fill="black">3</text>
<circle cx="17.4163" cy="365.324" r="8" fill="blue"/>
<text x="32.4163" y="370.324" font-family="Arial" font-size="12" fill="black">4</text>
<circle cx="17.4163" cy="369.558" r="8" fill="blue"/>
<text x="32.4163" y="374.558" font-family="Arial" font-size="12" fill="black">5</text>
<circle cx="17.4163" cy="373.791" r="8" fill="blue"/>
<text x="32.4163" y="378.791" font-family="Arial" font-size="12" fill="black">6</text>
<circle cx="17.4163" cy="378.024" r="8" fill="blue"/>
<text x="32.4163" y="383.024" font-family="Arial" font-size="12" fill="black">7</text>
<circle cx="34.3496" cy="365.324" r="8" fill="blue"/>
<text x="49.3496" y="370.324" font-family="Arial" font-size="12" fill="black">8</text>
<circle cx="34.3496" cy="369.558" r="8" fill="blue"/>
<text x="49.3496" y="374.558" font-family="Arial" font-size="12" fill="black">9</text>
<circle cx="34.3496" cy="373.791" r="8" fill="blue"/>
<text x="49.3496" y="378.791" font-family="Arial" font-size="12" fill="black">10</text>
<circle cx="34.3496" cy="378.024" r="8" fill="blue"/>
<text x="49.3496" y="383.024" font-family="Arial" font-size="12" fill="black">11</text>
<circle cx="114.282" cy="160.513" r="8" fill="blue"/>
<text x="129.282" y="165.513" font-family="Arial" font-size="12" fill="black">12</text>
<circle cx="114.282" cy="168.98" r="8" fill="blue"/>
<text x="129.282" y="173.98" font-family="Arial" font-size="12" fill="black">13</text>
<circle cx="114.282" cy="177.446" r="8" fill="blue"/>
<text x="129.282" y="182.446" font-family="Arial" font-size="12" fill="black">14</text>
<circle cx="114.282" cy="185.913" r="8" fill="blue"/>
<text x="129.282" y="190.913" font-family="Arial" font-size="12" fill="black">15</text>
<circle cx="114.282" cy="194.38" r="8" fill="blue"/>
<text x="129.282" y="199.38" font-family="Arial" font-size="12" fill="black">16</text>
<circle cx="114.282" cy="202.846" r="8" fill="blue"/>
<text x="129.282" y="207.846" font-family="Arial" font-size="12" fill="black">17</text>
<circle cx="114.282" cy="211.313" r="8" fill="blue"/>
<text x="129.282" y="216.313" font-family="Arial" font-size="12" fill="black">18</text>
<circle cx="139.682" cy="160.513" r="8" fill="blue"/>
<text x="154.682" y="165.513" font-family="Arial" font-size="12" fill="black">19</text>
<circle cx="139.682" cy="168.98" r="8" fill="blue"/>
<text x="154.682" y="173.98" font-family="Arial" font-size="12" fill="black">20</text>
<circle cx="139.682" cy="177.446" r="8" fill="blue"/>
<text x="154.682" y="182.446" font-family="Arial" font-size="12" fill="black">21</text>
<circle cx="139.682" cy="185.913" r="8" fill="blue"/>
<text x="154.682" y="190.913" font-family="Arial" font-size="12" fill="black">22</text>
<circle cx="139.682" cy="194.38" r="8" fill="blue"/>
<text x="154.682" y="199.38" font-family="Arial" font-size="12" fill="black">23</text>
<circle cx="139.682" cy="202.846" r="8" fill="blue"/>
<text x="154.682" y="207.846" font-family="Arial" font-size="12" fill="black">24</text>
<circle cx="139.682" cy="211.313" r="8" fill="blue"/>
<text x="154.682" y="216.313" font-family="Arial" font-size="12" fill="black">25</text>
<circle cx="456.978" cy="163.266" r="8" fill="blue"/>
<text x="471.978" y="168.266" font-family="Arial" font-size="12" fill="black">26</text>
<circle cx="456.978" cy="171.733" r="8" fill="blue"/>
<text x="471.978" y="176.733" font-family="Arial" font-size="12" fill="black">27</text>
<circle cx="456.978" cy="180.2" r="8" fill="blue"/>
<text x="471.978" y="185.2" font-family="Arial" font-size="12" fill="black">28</text>
<circle cx="456.978" cy="188.666" r="8" fill="blue"/>
<text x="471.978" y="193.666" font-family="Arial" font-size="12" fill="black">29</text>
<circle cx="456.978" cy="197.133" r="8" fill="blue"/>
<text x="471.978" y="202.133" font-family="Arial" font-size="12" fill="black">30</text>
<circle cx="456.978" cy="205.6" r="8" fill="blue"/>
<text x="471.978" y="210.6" font-family="Arial" font-size="12" fill="black">31</text>
<circle cx="456.978" cy="214.066" r="8" fill="blue"/>
<text x="471.978" y="219.066" font-family="Arial" font-size="12" fill="black">32</text>
<circle cx="482.378" cy="163.266" r="8" fill="blue"/>
<text x="497.378" y="168.266" font-family="Arial" font-size="12" fill="black">33</text>
<circle cx="482.378" cy="171.733" r="8" fill="blue"/>
<text x="497.378" y="176.733" font-family="Arial" font-size="12" fill="black">34</text>
<circle cx="482.378" cy="180.2" r="8" fill="blue"/>
<text x="497.378" y="185.2" font-family="Arial" font-size="12" fill="black">35</text>
<circle cx="482.378" cy="188.666" r="8" fill="blue"/>
<text x="497.378" y="193.666" font-family="Arial" font-size="12" fill="black">36</text>
<circle cx="482.378" cy="197.133" r="8" fill="blue"/>
<text x="497.378" y="202.133" font-family="Arial" font-size="12" fill="black">37</text>
<circle cx="482.378" cy="205.6" r="8" fill="blue"/>
<text x="497.378" y="210.6" font-family="Arial" font-size="12" fill="black">38</text>
<circle cx="482.378" cy="214.066" r="8" fill="blue"/>
<text x="497.378" y="219.066" font-family="Arial" font-size="12" fill="black">39</text>
<circle cx="191.284" cy="110.543" r="8" fill="blue"/>
<text x="206.284" y="115.543" font-family="Arial" font-size="12" fill="black">40</text>
<circle cx="191.284" cy="119.01" r="8" fill="blue"/>
<text x="206.284" y="124.01" font-family="Arial" font-size="12" fill="black">41</text>
<circle cx="191.284" cy="127.477" r="8" fill="blue"/>
<text x="206.284" y="132.477" font-family="Arial" font-size="12" fill="black">42</text>
<circle cx="191.284" cy="135.943" r="8" fill="blue"/>
<text x="206.284" y="140.943" font-family="Arial" font-size="12" fill="black">43</text>
<circle cx="191.284" cy="144.41" r="8" fill="blue"/>
<text x="206.284" y="149.41" font-family="Arial" font-size="12" fill="black">44</text>
<circle cx="191.284" cy="152.877" r="8" fill="blue"/>
<text x="206.284" y="157.877" font-family="Arial" font-size="12" fill="black">45</text>
<circle cx="191.284" cy="161.343" r="8" fill="blue"/>
<text x="206.284" y="166.343" font-family="Arial" font-size="12" fill="black">46</text>
<circle cx="216.684" cy="110.543" r="8" fill="blue"/>
<text x="231.684" y="115.543" font-family="Arial" font-size="12" fill="black">47</text>
<circle cx="216.684" cy="119.01" r="8" fill="blue"/>
<text x="231.684" y="124.01" font-family="Arial" font-size="12" fill="black">48</text>
<circle cx="216.684" cy="127.477" r="8" fill="blue"/>
<text x="231.684" y="132.477" font-family="Arial" font-size="12" fill="black">49</text>
<circle cx="216.684" cy="135.943" r="8" fill="blue"/>
<text x="231.684" y="140.943" font-family="Arial" font-size="12" fill="black">50</text>
<circle cx="216.684" cy="144.41" r="8" fill="blue"/>
<text x="231.684" y="149.41" font-family="Arial" font-size="12" fill="black">51</text>
<circle cx="216.684" cy="152.877" r="8" fill="blue"/>
<text x="231.684" y="157.877" font-family="Arial" font-size="12" fill="black">52</text>
<circle cx="216.684" cy="161.343" r="8" fill="blue"/>
<text x="231.684" y="166.343" font-family="Arial" font-size="12" fill="black">53</text>
<circle cx="54.7427" cy="279.022" r="8" fill="blue"/>
<text x="69.7427" y="284.022" font-family="Arial" font-size="12" fill="black">54</text>
<circle cx="63.2093" cy="279.022" r="8" fill="blue"/>
<text x="78.2093" y="284.022" font-family="Arial" font-size="12" fill="black">55</text>
<circle cx="71.676" cy="279.022" r="8" fill="blue"/>
<text x="86.676" y="284.022" font-family="Arial" font-size="12" fill="black">56</text>
<circle cx="80.1427" cy="279.022" r="8" fill="blue"/>
<text x="95.1427" y="284.022" font-family="Arial" font-size="12" fill="black">57</text>
<circle cx="88.6093" cy="279.022" r="8" fill="blue"/>
<text x="103.609" y="284.022" font-family="Arial" font-size="12" fill="black">58</text>
</g>
<text x="-125" y="-125" font-family="Arial" font-size="14.4" fill="black"> Cost: 585.90</text>
</svg>
