<?xml version="1.0" encoding="UTF-8" standalone="no"?>
<svg xmlns="http://www.w3.org/2000/svg" viewBox="-5 -5 135 135">
<rect x="-5" y="-5" width="135" height="135" fill="white"/>
<g>
<circle cx="5" cy="5" r="2" fill="blue"/>
<text x="7.5" y="5" font-family="Arial" font-size="5" fill="black">0</text>
<circle cx="120" cy="5" r="2" fill="blue"/>
<text x="122.5" y="5" font-family="Arial" font-size="5" fill="black">1</text>
<circle cx="5" cy="120" r="2" fill="blue"/>
<text x="7.5" y="120" font-family="Arial" font-size="5" fill="black">2</text>
<circle cx="120" cy="120" r="2" fill="blue"/>
<text x="122.5" y="120" font-family="Arial" font-size="5" fill="black">3</text>
<circle cx="40.8237" cy="48.6164" r="2" fill="blue"/>
<text x="43.3237" y="48.6164" font-family="Arial" font-size="5" fill="black">4</text>
<circle cx="43.3637" cy="48.6164" r="2" fill="blue"/>
<text x="45.8637" y="48.6164" font-family="Arial" font-size="5" fill="black">5</text>
<circle cx="45.9037" cy="48.6164" r="2" fill="blue"/>
<text x="48.4037" y="48.6164" font-family="Arial" font-size="5" fill="black">6</text>
<circle cx="48.4437" cy="48.6164" r="2" fill="blue"/>
<text x="50.9437" y="48.6164" font-family="Arial" font-size="5" fill="black">7</text>
<circle cx="50.9837" cy="48.6164" r="2" fill="blue"/>
<text x="53.4837" y="48.6164" font-family="Arial" font-size="5" fill="black">8</text>
<circle cx="14.041" cy="73.7888" r="2" fill="blue"/>
<text x="16.541" y="73.7888" font-family="Arial" font-size="5" fill="black">9</text>
<circle cx="14.041" cy="76.3288" r="2" fill="blue"/>
<text x="16.541" y="76.3288" font-family="Arial" font-size="5" fill="black">10</text>
<circle cx="14.041" cy="78.8688" r="2" fill="blue"/>
<text x="16.541" y="78.8688" font-family="Arial" font-size="5" fill="black">11</text>
<circle cx="14.041" cy="81.4088" r="2" fill="blue"/>
<text x="16.541" y="81.4088" font-family="Arial" font-size="5" fill="black">12</text>
<circle cx="14.041" cy="83.9488" r="2" fill="blue"/>
<text x="16.541" y="83.9488" font-family="Arial" font-size="5" fill="black">13</text>
<circle cx="14.041" cy="86.4888" r="2" fill="blue"/>
<text x="16.541" y="86.4888" font-family="Arial" font-size="5" fill="black">14</text>
<circle cx="14.041" cy="89.0288" r="2" fill="blue"/>
<text x="16.541" y="89.0288" font-family="Arial" font-size="5" fill="black">15</text>
<circle cx="21.661" cy="73.7888" r="2" fill="blue"/>
<text x="24.161" y="73.7888" font-family="Arial" font-size="5" fill="black">16</text>
<circle cx="21.661" cy="76.3288" r="2" fill="blue"/>
<text x="24.161" y="76.3288" font-family="Arial" font-size="5" fill="black">17</text>
<circle cx="21.661" cy="78.8688" r="2" fill="blue"/>
<text x="24.161" y="78.8688" font-family="Arial" font-size="5" fill="black">18</text>
<circle cx="21.661" cy="81.4088" r="2" fill="blue"/>
<text x="24.161" y="81.4088" font-family="Arial" font-size="5" fill="black">19</text>
<circle cx="21.661" cy="83.9488" r="2" fill="blue"/>
<text x="24.161" y="83.9488" font-family="Arial" font-size="5" fill="black">20</text>
<circle cx="21.661" cy="86.4888" r="2" fill="blue"/>
<text x="24.161" y="86.4888" font-family="Arial" font-size="5" fill="black">21</text>
<circle cx="21.661" cy="89.0288" r="2" fill="blue"/>
<text x="24.161" y="89.0288" font-family="Arial" font-size="5" fill="black">22</text>
<circle cx="40.6299" cy="102.614" r="2" fill="blue"/>
<text x="43.1299" y="102.614" font-family="Arial" font-size="5" fill="black">23</text>
<circle cx="40.6299" cy="103.884" r="2" fill="blue"/>
<text x="43.1299" y="103.884" font-family="Arial" font-size="5" fill="black">24</text>
<circle cx="40.6299" cy="105.154" r="2" fill="blue"/>
<text x="43.1299" y="105.154" font-family="Arial" font-size="5" fill="black">25</text>
<circle cx="40.6299" cy="106.424" r="2" fill="blue"/>
<text x="43.1299" y="106.424" font-family="Arial" font-size="5" fill="black">26</text>
<circle cx="45.7099" cy="102.614" r="2" fill="blue"/>
<text x="48.2099" y="102.614" font-family="Arial" font-size="5" fill="black">27</text>
<circle cx="45.7099" cy="103.884" r="2" fill="blue"/>
<text x="48.2099" y="103.884" font-family="Arial" font-size="5" fill="black">28</text>
<circle cx="45.7099" cy="105.154" r="2" fill="blue"/>
<text x="48.2099" y="105.154" font-family="Arial" font-size="5" fill="black">29</text>
<circle cx="45.7099" cy="106.424" r="2" fill="blue"/>
<text x="48.2099" y="106.424" font-family="Arial" font-size="5" fill="black">30</text>
<circle cx="64.8907" cy="98.1865" r="2" fill="blue"/>
<text x="67.3907" y="98.1865" font-family="Arial" font-size="5" fill="black">31</text>
<circle cx="67.4307" cy="98.1865" r="2" fill="blue"/>
<text x="69.9307" y="98.1865" font-family="Arial" font-size="5" fill="black">32</text>
<circle cx="69.9707" cy="98.1865" r="2" fill="blue"/>
<text x="72.4707" y="98.1865" font-family="Arial" font-size="5" fill="black">33</text>
<circle cx="72.5107" cy="98.1865" r="2" fill="blue"/>
<text x="75.0107" y="98.1865" font-family="Arial" font-size="5" fill="black">34</text>
<circle cx="75.0507" cy="98.1865" r="2" fill="blue"/>
<text x="77.5507" y="98.1865" font-family="Arial" font-size="5" fill="black">35</text>
</g>
</svg>
