<?xml version="1.0" encoding="UTF-8" standalone="no"?>
<svg xmlns="http://www.w3.org/2000/svg" viewBox="-5 -5 85 85">
<rect x="-5" y="-5" width="85" height="85" fill="white"/>
<g>
<line x1="5" y1="5" x2="27.5618" y2="33.4428" stroke="rgb(0,0,255)" stroke-width="0.8"/>
<line x1="27.5618" y1="33.4428" x2="30.1018" y2="33.4428" stroke="rgb(10,0,245)" stroke-width="0.8"/>
<line x1="30.1018" y1="33.4428" x2="32.6418" y2="33.4428" stroke="rgb(20,0,235)" stroke-width="0.8"/>
<line x1="32.6418" y1="33.4428" x2="35.1818" y2="33.4428" stroke="rgb(30,0,225)" stroke-width="0.8"/>
<line x1="35.1818" y1="33.4428" x2="35.6751" y2="29.3323" stroke="rgb(40,0,215)" stroke-width="0.8"/>
<line x1="35.6751" y1="29.3323" x2="35.6751" y2="28.0623" stroke="rgb(51,0,204)" stroke-width="0.8"/>
<line x1="35.6751" y1="28.0623" x2="35.6751" y2="26.7923" stroke="rgb(61,0,194)" stroke-width="0.8"/>
<line x1="35.6751" y1="26.7923" x2="35.6751" y2="25.5223" stroke="rgb(71,0,184)" stroke-width="0.8"/>
<line x1="35.6751" y1="25.5223" x2="40.7551" y2="29.3323" stroke="rgb(81,0,174)" stroke-width="0.8"/>
<line x1="40.7551" y1="29.3323" x2="40.7551" y2="28.0623" stroke="rgb(91,0,164)" stroke-width="0.8"/>
<line x1="40.7551" y1="28.0623" x2="40.7551" y2="26.7923" stroke="rgb(102,0,153)" stroke-width="0.8"/>
<line x1="40.7551" y1="26.7923" x2="40.7551" y2="25.5223" stroke="rgb(112,0,143)" stroke-width="0.8"/>
<line x1="40.7551" y1="25.5223" x2="70" y2="5" stroke="rgb(122,0,133)" stroke-width="0.8"/>
<line x1="70" y1="5" x2="70" y2="70" stroke="rgb(132,0,123)" stroke-width="0.8"/>
<line x1="70" y1="70" x2="5" y2="70" stroke="rgb(142,0,113)" stroke-width="0.8"/>
<line x1="5" y1="70" x2="21.426" y2="48.3737" stroke="rgb(153,0,102)" stroke-width="0.8"/>
<line x1="21.426" y1="48.3737" x2="21.426" y2="47.1037" stroke="rgb(163,0,92)" stroke-width="0.8"/>
<line x1="21.426" y1="47.1037" x2="21.426" y2="45.8337" stroke="rgb(173,0,82)" stroke-width="0.8"/>
<line x1="21.426" y1="45.8337" x2="21.426" y2="44.5637" stroke="rgb(183,0,72)" stroke-width="0.8"/>
<line x1="21.426" y1="44.5637" x2="26.506" y2="48.3737" stroke="rgb(193,0,62)" stroke-width="0.8"/>
<line x1="26.506" y1="48.3737" x2="26.506" y2="47.1037" stroke="rgb(204,0,51)" stroke-width="0.8"/>
<line x1="26.506" y1="47.1037" x2="26.506" y2="45.8337" stroke="rgb(214,0,41)" stroke-width="0.8"/>
<line x1="26.506" y1="45.8337" x2="26.506" y2="44.5637" stroke="rgb(224,0,31)" stroke-width="0.8"/>
<line x1="26.506" y1="44.5637" x2="25.0218" y2="33.4428" stroke="rgb(234,0,21)" stroke-width="0.8"/>
<line x1="25.0218" y1="33.4428" x2="5" y2="5" stroke="rgb(244,0,11)" stroke-width="0.8"/>
</g>
<g>
<circle cx="5" cy="5" r="2" fill="blue"/>
<text x="7.5" y="5" font-family="Arial" font-size="5" fill="black">0</text>
<circle cx="70" cy="5" r="2" fill="blue"/>
<text x="72.5" y="5" font-family="Arial" font-size="5" fill="black">1</text>
<circle cx="5" cy="70" r="2" fill="blue"/>
<text x="7.5" y="70" font-family="Arial" font-size="5" fill="black">2</text>
<circle cx="70" cy="70" r="2" fill="blue"/>
<text x="72.5" y="70" font-family="Arial" font-size="5" fill="black">3</text>
<circle cx="25.0218" cy="33.4428" r="2" fill="blue"/>
<text x="27.5218" y="33.4428" font-family="Arial" font-size="5" fill="black">4</text>
<circle cx="27.5618" cy="33.4428" r="2" fill="blue"/>
<text x="30.0618" y="33.4428" font-family="Arial" font-size="5" fill="black">5</text>
<circle cx="30.1018" cy="33.4428" r="2" fill="blue"/>
<text x="32.6018" y="33.4428" font-family="Arial" font-size="5" fill="black">6</text>
<circle cx="32.6418" cy="33.4428" r="2" fill="blue"/>
<text x="35.1418" y="33.4428" font-family="Arial" font-size="5" fill="black">7</text>
<circle cx="35.1818" cy="33.4428" r="2" fill="blue"/>
<text x="37.6818" y="33.4428" font-family="Arial" font-size="5" fill="black">8</text>
<circle cx="35.6751" cy="25.5223" r="2" fill="blue"/>
<text x="38.1751" y="25.5223" font-family="Arial" font-size="5" fill="black">9</text>
<circle cx="35.6751" cy="26.7923" r="2" fill="blue"/>
<text x="38.1751" y="26.7923" font-family="Arial" font-size="5" fill="black">10</text>
<circle cx="35.6751" cy="28.0623" r="2" fill="blue"/>
<text x="38.1751" y="28.0623" font-family="Arial" font-size="5" fill="black">11</text>
<circle cx="35.6751" cy="29.3323" r="2" fill="blue"/>
<text x="38.1751" y="29.3323" font-family="Arial" font-size="5" fill="black">12</text>
<circle cx="40.7551" cy="25.5223" r="2" fill="blue"/>
<text x="43.2551" y="25.5223" font-family="Arial" font-size="5" fill="black">13</text>
<circle cx="40.7551" cy="26.7923" r="2" fill="blue"/>
<text x="43.2551" y="26.7923" font-family="Arial" font-size="5" fill="black">14</text>
<circle cx="40.7551" cy="28.0623" r="2" fill="blue"/>
<text x="43.2551" y="28.0623" font-family="Arial" font-size="5" fill="black">15</text>
<circle cx="40.7551" cy="29.3323" r="2" fill="blue"/>
<text x="43.2551" y="29.3323" font-family="Arial" font-size="5" fill="black">16</text>
<circle cx="21.426" cy="44.5637" r="2" fill="blue"/>
<text x="23.926" y="44.5637" font-family="Arial" font-size="5" fill="black">17</text>
<circle cx="21.426" cy="45.8337" r="2" fill="blue"/>
<text x="23.926" y="45.8337" font-family="Arial" font-size="5" fill="black">18</text>
<circle cx="21.426" cy="47.1037" r="2" fill="blue"/>
<text x="23.926" y="47.1037" font-family="Arial" font-size="5" fill="black">19</text>
<circle cx="21.426" cy="48.3737" r="2" fill="blue"/>
<text x="23.926" y="48.3737" font-family="Arial" font-size="5" fill="black">20</text>
<circle cx="26.506" cy="44.5637" r="2" fill="blue"/>
<text x="29.006" y="44.5637" font-family="Arial" font-size="5" fill="black">21</text>
<circle cx="26.506" cy="45.8337" r="2" fill="blue"/>
<text x="29.006" y="45.8337" font-family="Arial" font-size="5" fill="black">22</text>
<circle cx="26.506" cy="47.1037" r="2" fill="blue"/>
<text x="29.006" y="47.1037" font-family="Arial" font-size="5" fill="black">23</text>
<circle cx="26.506" cy="48.3737" r="2" fill="blue"/>
<text x="29.006" y="48.3737" font-family="Arial" font-size="5" fill="black">24</text>
</g>
</svg>
