<?xml version="1.0" encoding="UTF-8" standalone="no"?>
<svg xmlns="http://www.w3.org/2000/svg" viewBox="-5 -5 110 110">
<rect x="-5" y="-5" width="110" height="110" fill="white"/>
<g>
<line x1="5" y1="5" x2="14.57" y2="32.3644" stroke="rgb(0,0,255)" stroke-width="0.8"/>
<line x1="14.57" y1="32.3644" x2="17.11" y2="32.3644" stroke="rgb(6,0,249)" stroke-width="0.8"/>
<line x1="17.11" y1="32.3644" x2="19.65" y2="32.3644" stroke="rgb(13,0,242)" stroke-width="0.8"/>
<line x1="19.65" y1="32.3644" x2="22.19" y2="32.3644" stroke="rgb(20,0,235)" stroke-width="0.8"/>
<line x1="22.19" y1="32.3644" x2="24.73" y2="32.3644" stroke="rgb(27,0,228)" stroke-width="0.8"/>
<line x1="24.73" y1="32.3644" x2="13.3471" y2="53.23" stroke="rgb(34,0,221)" stroke-width="0.8"/>
<line x1="13.3471" y1="53.23" x2="13.3471" y2="55.77" stroke="rgb(41,0,214)" stroke-width="0.8"/>
<line x1="13.3471" y1="55.77" x2="13.3471" y2="58.31" stroke="rgb(48,0,207)" stroke-width="0.8"/>
<line x1="13.3471" y1="58.31" x2="13.3471" y2="60.85" stroke="rgb(55,0,200)" stroke-width="0.8"/>
<line x1="13.3471" y1="60.85" x2="13.3471" y2="63.39" stroke="rgb(62,0,193)" stroke-width="0.8"/>
<line x1="13.3471" y1="63.39" x2="13.3471" y2="65.93" stroke="rgb(68,0,187)" stroke-width="0.8"/>
<line x1="13.3471" y1="65.93" x2="13.3471" y2="68.47" stroke="rgb(75,0,180)" stroke-width="0.8"/>
<line x1="13.3471" y1="68.47" x2="5.72715" y2="53.23" stroke="rgb(82,0,173)" stroke-width="0.8"/>
<line x1="5.72715" y1="53.23" x2="5.72715" y2="55.77" stroke="rgb(89,0,166)" stroke-width="0.8"/>
<line x1="5.72715" y1="55.77" x2="5.72715" y2="58.31" stroke="rgb(96,0,159)" stroke-width="0.8"/>
<line x1="5.72715" y1="58.31" x2="5.72715" y2="60.85" stroke="rgb(103,0,152)" stroke-width="0.8"/>
<line x1="5.72715" y1="60.85" x2="5.72715" y2="63.39" stroke="rgb(110,0,145)" stroke-width="0.8"/>
<line x1="5.72715" y1="63.39" x2="5.72715" y2="65.93" stroke="rgb(117,0,138)" stroke-width="0.8"/>
<line x1="5.72715" y1="65.93" x2="5.72715" y2="68.47" stroke="rgb(124,0,131)" stroke-width="0.8"/>
<line x1="5.72715" y1="68.47" x2="5" y2="95" stroke="rgb(130,0,125)" stroke-width="0.8"/>
<line x1="5" y1="95" x2="36.4006" y2="71.0737" stroke="rgb(137,0,118)" stroke-width="0.8"/>
<line x1="36.4006" y1="71.0737" x2="36.4006" y2="68.5337" stroke="rgb(144,0,111)" stroke-width="0.8"/>
<line x1="36.4006" y1="68.5337" x2="36.4006" y2="65.9937" stroke="rgb(151,0,104)" stroke-width="0.8"/>
<line x1="36.4006" y1="65.9937" x2="36.4006" y2="63.4537" stroke="rgb(158,0,97)" stroke-width="0.8"/>
<line x1="36.4006" y1="63.4537" x2="36.4006" y2="60.9137" stroke="rgb(165,0,90)" stroke-width="0.8"/>
<line x1="36.4006" y1="60.9137" x2="36.4006" y2="58.3737" stroke="rgb(172,0,83)" stroke-width="0.8"/>
<line x1="36.4006" y1="58.3737" x2="36.4006" y2="55.8337" stroke="rgb(179,0,76)" stroke-width="0.8"/>
<line x1="36.4006" y1="55.8337" x2="44.0206" y2="55.8337" stroke="rgb(186,0,69)" stroke-width="0.8"/>
<line x1="44.0206" y1="55.8337" x2="44.0206" y2="58.3737" stroke="rgb(192,0,63)" stroke-width="0.8"/>
<line x1="44.0206" y1="58.3737" x2="44.0206" y2="60.9137" stroke="rgb(199,0,56)" stroke-width="0.8"/>
<line x1="44.0206" y1="60.9137" x2="44.0206" y2="63.4537" stroke="rgb(206,0,49)" stroke-width="0.8"/>
<line x1="44.0206" y1="63.4537" x2="44.0206" y2="65.9937" stroke="rgb(213,0,42)" stroke-width="0.8"/>
<line x1="44.0206" y1="65.9937" x2="44.0206" y2="68.5337" stroke="rgb(220,0,35)" stroke-width="0.8"/>
<line x1="44.0206" y1="68.5337" x2="44.0206" y2="71.0737" stroke="rgb(227,0,28)" stroke-width="0.8"/>
<line x1="44.0206" y1="71.0737" x2="95" y2="95" stroke="rgb(234,0,21)" stroke-width="0.8"/>
<line x1="95" y1="95" x2="95" y2="5" stroke="rgb(241,0,14)" stroke-width="0.8"/>
<line x1="95" y1="5" x2="5" y2="5" stroke="rgb(248,0,7)" stroke-width="0.8"/>
</g>
<g>
<circle cx="5" cy="5" r="2" fill="blue"/>
<text x="7.5" y="5" font-family="Arial" font-size="5" fill="black">0</text>
<circle cx="95" cy="5" r="2" fill="blue"/>
<text x="97.5" y="5" font-family="Arial" font-size="5" fill="black">1</text>
<circle cx="5" cy="95" r="2" fill="blue"/>
<text x="7.5" y="95" font-family="Arial" font-size="5" fill="black">2</text>
<circle cx="95" cy="95" r="2" fill="blue"/>
<text x="97.5" y="95" font-family="Arial" font-size="5" fill="black">3</text>
<circle cx="36.4006" cy="55.8337" r="2" fill="blue"/>
<text x="38.9006" y="55.8337" font-family="Arial" font-size="5" fill="black">4</text>
<circle cx="36.4006" cy="58.3737" r="2" fill="blue"/>
<text x="38.9006" y="58.3737" font-family="Arial" font-size="5" fill="black">5</text>
<circle cx="36.4006" cy="60.9137" r="2" fill="blue"/>
<text x="38.9006" y="60.9137" font-family="Arial" font-size="5" fill="black">6</text>
<circle cx="36.4006" cy="63.4537" r="2" fill="blue"/>
<text x="38.9006" y="63.4537" font-family="Arial" font-size="5" fill="black">7</text>
<circle cx="36.4006" cy="65.9937" r="2" fill="blue"/>
<text x="38.9006" y="65.9937" font-family="Arial" font-size="5" fill="black">8</text>
<circle cx="36.4006" cy="68.5337" r="2" fill="blue"/>
<text x="38.9006" y="68.5337" font-family="Arial" font-size="5" fill="black">9</text>
<circle cx="36.4006" cy="71.0737" r="2" fill="blue"/>
<text x="38.9006" y="71.0737" font-family="Arial" font-size="5" fill="black">10</text>
<circle cx="44.0206" cy="55.8337" r="2" fill="blue"/>
<text x="46.5206" y="55.8337" font-family="Arial" font-size="5" fill="black">11</text>
<circle cx="44.0206" cy="58.3737" r="2" fill="blue"/>
<text x="46.5206" y="58.3737" font-family="Arial" font-size="5" fill="black">12</text>
<circle cx="44.0206" cy="60.9137" r="2" fill="blue"/>
<text x="46.5206" y="60.9137" font-family="Arial" font-size="5" fill="black">13</text>
<circle cx="44.0206" cy="63.4537" r="2" fill="blue"/>
<text x="46.5206" y="63.4537" font-family="Arial" font-size="5" fill="black">14</text>
<circle cx="44.0206" cy="65.9937" r="2" fill="blue"/>
<text x="46.5206" y="65.9937" font-family="Arial" font-size="5" fill="black">15</text>
<circle cx="44.0206" cy="68.5337" r="2" fill="blue"/>
<text x="46.5206" y="68.5337" font-family="Arial" font-size="5" fill="black">16</text>
<circle cx="44.0206" cy="71.0737" r="2" fill="blue"/>
<text x="46.5206" y="71.0737" font-family="Arial" font-size="5" fill="black">17</text>
<circle cx="14.57" cy="32.3644" r="2" fill="blue"/>
<text x="17.07" y="32.3644" font-family="Arial" font-size="5" fill="black">18</text>
<circle cx="17.11" cy="32.3644" r="2" fill="blue"/>
<text x="19.61" y="32.3644" font-family="Arial" font-size="5" fill="black">19</text>
<circle cx="19.65" cy="32.3644" r="2" fill="blue"/>
<text x="22.15" y="32.3644" font-family="Arial" font-size="5" fill="black">20</text>
<circle cx="22.19" cy="32.3644" r="2" fill="blue"/>
<text x="24.69" y="32.3644" font-family="Arial" font-size="5" fill="black">21</text>
<circle cx="24.73" cy="32.3644" r="2" fill="blue"/>
<text x="27.23" y="32.3644" font-family="Arial" font-size="5" fill="black">22</text>
<circle cx="5.72715" cy="53.23" r="2" fill="blue"/>
<text x="8.22715" y="53.23" font-family="Arial" font-size="5" fill="black">23</text>
<circle cx="5.72715" cy="55.77" r="2" fill="blue"/>
<text x="8.22715" y="55.77" font-family="Arial" font-size="5" fill="black">24</text>
<circle cx="5.72715" cy="58.31" r="2" fill="blue"/>
<text x="8.22715" y="58.31" font-family="Arial" font-size="5" fill="black">25</text>
<circle cx="5.72715" cy="60.85" r="2" fill="blue"/>
<text x="8.22715" y="60.85" font-family="Arial" font-size="5" fill="black">26</text>
<circle cx="5.72715" cy="63.39" r="2" fill="blue"/>
<text x="8.22715" y="63.39" font-family="Arial" font-size="5" fill="black">27</text>
<circle cx="5.72715" cy="65.93" r="2" fill="blue"/>
<text x="8.22715" y="65.93" font-family="Arial" font-size="5" fill="black">28</text>
<circle cx="5.72715" cy="68.47" r="2" fill="blue"/>
<text x="8.22715" y="68.47" font-family="Arial" font-size="5" fill="black">29</text>
<circle cx="13.3471" cy="53.23" r="2" fill="blue"/>
<text x="15.8471" y="53.23" font-family="Arial" font-size="5" fill="black">30</text>
<circle cx="13.3471" cy="55.77" r="2" fill="blue"/>
<text x="15.8471" y="55.77" font-family="Arial" font-size="5" fill="black">31</text>
<circle cx="13.3471" cy="58.31" r="2" fill="blue"/>
<text x="15.8471" y="58.31" font-family="Arial" font-size="5" fill="black">32</text>
<circle cx="13.3471" cy="60.85" r="2" fill="blue"/>
<text x="15.8471" y="60.85" font-family="Arial" font-size="5" fill="black">33</text>
<circle cx="13.3471" cy="63.39" r="2" fill="blue"/>
<text x="15.8471" y="63.39" font-family="Arial" font-size="5" fill="black">34</text>
<circle cx="13.3471" cy="65.93" r="2" fill="blue"/>
<text x="15.8471" y="65.93" font-family="Arial" font-size="5" fill="black">35</text>
<circle cx="13.3471" cy="68.47" r="2" fill="blue"/>
<text x="15.8471" y="68.47" font-family="Arial" font-size="5" fill="black">36</text>
</g>
</svg>
