<?xml version="1.0" encoding="UTF-8" standalone="no"?>
<svg xmlns="http://www.w3.org/2000/svg" viewBox="-5 -5 60 60">
<rect x="-5" y="-5" width="60" height="60" fill="white"/>
<text x="0" y="10" font-family="Arial" font-size="10" fill="black">Iteration: 0 | Cost: 417.09</text>
<g>
<line x1="5.00" y1="5.00" x2="37.95" y2="33.28" stroke="rgb(0,0,255)" stroke-width="0.8"/>
<line x1="37.95" y1="33.28" x2="40.49" y2="33.28" stroke="rgb(11,0,244)" stroke-width="0.8"/>
<line x1="40.49" y1="33.28" x2="35.40" y2="14.96" stroke="rgb(22,0,233)" stroke-width="0.8"/>
<line x1="35.40" y1="14.96" x2="35.40" y2="17.50" stroke="rgb(33,0,222)" stroke-width="0.8"/>
<line x1="35.40" y1="17.50" x2="32.87" y2="33.28" stroke="rgb(44,0,211)" stroke-width="0.8"/>
<line x1="32.87" y1="33.28" x2="45.00" y2="5.00" stroke="rgb(55,0,200)" stroke-width="0.8"/>
<line x1="45.00" y1="5.00" x2="27.78" y2="20.04" stroke="rgb(66,0,189)" stroke-width="0.8"/>
<line x1="27.78" y1="20.04" x2="35.40" y2="25.12" stroke="rgb(77,0,178)" stroke-width="0.8"/>
<line x1="35.40" y1="25.12" x2="35.40" y2="22.58" stroke="rgb(88,0,167)" stroke-width="0.8"/>
<line x1="35.40" y1="22.58" x2="35.40" y2="12.42" stroke="rgb(99,0,156)" stroke-width="0.8"/>
<line x1="35.40" y1="12.42" x2="35.40" y2="20.04" stroke="rgb(110,0,145)" stroke-width="0.8"/>
<line x1="35.40" y1="20.04" x2="35.40" y2="9.88" stroke="rgb(121,0,134)" stroke-width="0.8"/>
<line x1="35.40" y1="9.88" x2="27.78" y2="17.50" stroke="rgb(133,0,122)" stroke-width="0.8"/>
<line x1="27.78" y1="17.50" x2="30.33" y2="33.28" stroke="rgb(144,0,111)" stroke-width="0.8"/>
<line x1="30.33" y1="33.28" x2="45.00" y2="45.00" stroke="rgb(155,0,100)" stroke-width="0.8"/>
<line x1="45.00" y1="45.00" x2="27.78" y2="22.58" stroke="rgb(166,0,89)" stroke-width="0.8"/>
<line x1="27.78" y1="22.58" x2="27.78" y2="25.12" stroke="rgb(177,0,78)" stroke-width="0.8"/>
<line x1="27.78" y1="25.12" x2="27.78" y2="12.42" stroke="rgb(188,0,67)" stroke-width="0.8"/>
<line x1="27.78" y1="12.42" x2="35.41" y2="33.28" stroke="rgb(199,0,56)" stroke-width="0.8"/>
<line x1="35.41" y1="33.28" x2="27.78" y2="9.88" stroke="rgb(210,0,45)" stroke-width="0.8"/>
<line x1="27.78" y1="9.88" x2="5.00" y2="45.00" stroke="rgb(221,0,34)" stroke-width="0.8"/>
<line x1="5.00" y1="45.00" x2="27.78" y2="14.96" stroke="rgb(232,0,23)" stroke-width="0.8"/>
<line x1="27.78" y1="14.96" x2="5.00" y2="5.00" stroke="rgb(243,0,12)" stroke-width="0.8"/>
</g>
<g>
<circle cx="5.00" cy="5.00" r="2" fill="blue"/>
<text x="7.50" y="5.00" font-family="Arial" font-size="5" fill="black">0</text>
<circle cx="45.00" cy="5.00" r="2" fill="blue"/>
<text x="47.50" y="5.00" font-family="Arial" font-size="5" fill="black">1</text>
<circle cx="5.00" cy="45.00" r="2" fill="blue"/>
<text x="7.50" y="45.00" font-family="Arial" font-size="5" fill="black">2</text>
<circle cx="45.00" cy="45.00" r="2" fill="blue"/>
<text x="47.50" y="45.00" font-family="Arial" font-size="5" fill="black">3</text>
<circle cx="27.78" cy="9.88" r="2" fill="blue"/>
<text x="30.28" y="9.88" font-family="Arial" font-size="5" fill="black">4</text>
<circle cx="27.78" cy="12.42" r="2" fill="blue"/>
<text x="30.28" y="12.42" font-family="Arial" font-size="5" fill="black">5</text>
<circle cx="27.78" cy="14.96" r="2" fill="blue"/>
<text x="30.28" y="14.96" font-family="Arial" font-size="5" fill="black">6</text>
<circle cx="27.78" cy="17.50" r="2" fill="blue"/>
<text x="30.28" y="17.50" font-family="Arial" font-size="5" fill="black">7</text>
<circle cx="27.78" cy="20.04" r="2" fill="blue"/>
<text x="30.28" y="20.04" font-family="Arial" font-size="5" fill="black">8</text>
<circle cx="27.78" cy="22.58" r="2" fill="blue"/>
<text x="30.28" y="22.58" font-family="Arial" font-size="5" fill="black">9</text>
<circle cx="27.78" cy="25.12" r="2" fill="blue"/>
<text x="30.28" y="25.12" font-family="Arial" font-size="5" fill="black">10</text>
<circle cx="35.40" cy="9.88" r="2" fill="blue"/>
<text x="37.90" y="9.88" font-family="Arial" font-size="5" fill="black">11</text>
<circle cx="35.40" cy="12.42" r="2" fill="blue"/>
<text x="37.90" y="12.42" font-family="Arial" font-size="5" fill="black">12</text>
<circle cx="35.40" cy="14.96" r="2" fill="blue"/>
<text x="37.90" y="14.96" font-family="Arial" font-size="5" fill="black">13</text>
<circle cx="35.40" cy="17.50" r="2" fill="blue"/>
<text x="37.90" y="17.50" font-family="Arial" font-size="5" fill="black">14</text>
<circle cx="35.40" cy="20.04" r="2" fill="blue"/>
<text x="37.90" y="20.04" font-family="Arial" font-size="5" fill="black">15</text>
<circle cx="35.40" cy="22.58" r="2" fill="blue"/>
<text x="37.90" y="22.58" font-family="Arial" font-size="5" fill="black">16</text>
<circle cx="35.40" cy="25.12" r="2" fill="blue"/>
<text x="37.90" y="25.12" font-family="Arial" font-size="5" fill="black">17</text>
<circle cx="30.33" cy="33.28" r="2" fill="blue"/>
<text x="32.83" y="33.28" font-family="Arial" font-size="5" fill="black">18</text>
<circle cx="32.87" cy="33.28" r="2" fill="blue"/>
<text x="35.37" y="33.28" font-family="Arial" font-size="5" fill="black">19</text>
<circle cx="35.41" cy="33.28" r="2" fill="blue"/>
<text x="37.91" y="33.28" font-family="Arial" font-size="5" fill="black">20</text>
<circle cx="37.95" cy="33.28" r="2" fill="blue"/>
<text x="40.45" y="33.28" font-family="Arial" font-size="5" fill="black">21</text>
<circle cx="40.49" cy="33.28" r="2" fill="blue"/>
<text x="42.99" y="33.28" font-family="Arial" font-size="5" fill="black">22</text>
</g>
</svg>
