<?xml version="1.0" encoding="UTF-8" standalone="no"?>
<svg xmlns="http://www.w3.org/2000/svg" viewBox="-5 -5 132 60">
<g transform="translate(0,0)">
<rect x="-5" y="-5" width="60" height="60" fill="white"/>
<g>
<line x1="5" y1="5" x2="25.8269" y2="28.7198" stroke="rgb(128,0,127)" stroke-width="0.8"/>
<line x1="25.8269" y1="28.7198" x2="33.4469" y2="28.7198" stroke="rgb(128,0,127)" stroke-width="0.8"/>
<line x1="33.4469" y1="28.7198" x2="14.5174" y2="42.9296" stroke="rgb(128,0,127)" stroke-width="0.8"/>
<line x1="14.5174" y1="42.9296" x2="45" y2="5" stroke="rgb(128,0,127)" stroke-width="0.8"/>
<line x1="45" y1="5" x2="22.1374" y2="42.9296" stroke="rgb(128,0,127)" stroke-width="0.8"/>
<line x1="22.1374" y1="42.9296" x2="24.6774" y2="42.9296" stroke="rgb(128,0,127)" stroke-width="0.8"/>
<line x1="24.6774" y1="42.9296" x2="19.5974" y2="42.9296" stroke="rgb(128,0,127)" stroke-width="0.8"/>
<line x1="19.5974" y1="42.9296" x2="30.9069" y2="28.7198" stroke="rgb(128,0,127)" stroke-width="0.8"/>
<line x1="30.9069" y1="28.7198" x2="45" y2="45" stroke="rgb(128,0,127)" stroke-width="0.8"/>
<line x1="45" y1="45" x2="5" y2="45" stroke="rgb(128,0,127)" stroke-width="0.8"/>
<line x1="5" y1="45" x2="28.3669" y2="28.7198" stroke="rgb(128,0,127)" stroke-width="0.8"/>
<line x1="28.3669" y1="28.7198" x2="23.2869" y2="28.7198" stroke="rgb(128,0,127)" stroke-width="0.8"/>
<line x1="23.2869" y1="28.7198" x2="17.0574" y2="42.9296" stroke="rgb(128,0,127)" stroke-width="0.8"/>
<line x1="17.0574" y1="42.9296" x2="5" y2="5" stroke="rgb(128,0,127)" stroke-width="0.8"/>
</g>
<text x="0" y="10" font-family="Arial" font-size="10">Initial Solution (Cost: 331.99)</text>
</g>
<g transform="translate(66.00,0)">
<rect x="-5.00" y="-5.00" width="60.00" height="60.00" fill="white"/>
<g>
<line x1="45.00" y1="45.00" x2="24.68" y2="42.93" stroke="rgb(128,0,127)" stroke-width="0.8"/>
<line x1="24.68" y1="42.93" x2="22.14" y2="42.93" stroke="rgb(128,0,127)" stroke-width="0.8"/>
<line x1="22.14" y1="42.93" x2="19.60" y2="42.93" stroke="rgb(128,0,127)" stroke-width="0.8"/>
<line x1="19.60" y1="42.93" x2="17.06" y2="42.93" stroke="rgb(128,0,127)" stroke-width="0.8"/>
<line x1="17.06" y1="42.93" x2="14.52" y2="42.93" stroke="rgb(128,0,127)" stroke-width="0.8"/>
<line x1="14.52" y1="42.93" x2="5.00" y2="45.00" stroke="rgb(128,0,127)" stroke-width="0.8"/>
<line x1="5.00" y1="45.00" x2="23.29" y2="28.72" stroke="rgb(128,0,127)" stroke-width="0.8"/>
<line x1="23.29" y1="28.72" x2="25.83" y2="28.72" stroke="rgb(128,0,127)" stroke-width="0.8"/>
<line x1="25.83" y1="28.72" x2="28.37" y2="28.72" stroke="rgb(128,0,127)" stroke-width="0.8"/>
<line x1="28.37" y1="28.72" x2="30.91" y2="28.72" stroke="rgb(128,0,127)" stroke-width="0.8"/>
<line x1="30.91" y1="28.72" x2="33.45" y2="28.72" stroke="rgb(128,0,127)" stroke-width="0.8"/>
<line x1="33.45" y1="28.72" x2="45.00" y2="5.00" stroke="rgb(128,0,127)" stroke-width="0.8"/>
<line x1="45.00" y1="5.00" x2="5.00" y2="5.00" stroke="rgb(128,0,127)" stroke-width="0.8"/>
<line x1="5.00" y1="5.00" x2="5.00" y2="5.00" stroke="rgb(128,0,127)" stroke-width="0.8"/>
</g>
<text x="0.00" y="10.00" font-family="Arial" font-size="10">Final Solution (Cost: 141.36)</text>
</g>
</svg>
