<?xml version="1.0" encoding="UTF-8" standalone="no"?>
<svg xmlns="http://www.w3.org/2000/svg" width="1760" height="800" viewBox="-150 -150 1760 800">
<g transform="translate(0,0)">
<rect x="-150" y="-150" width="800" height="800" fill="white"/>
<g>
<line x1="16.6667" y1="16.6667" x2="182.647" y2="228.533" stroke="rgb(128,0,127)" stroke-width="2"/>
<line x1="182.647" y1="228.533" x2="329.591" y2="122.706" stroke="rgb(128,0,127)" stroke-width="2"/>
<line x1="329.591" y1="122.706" x2="483.333" y2="16.6667" stroke="rgb(128,0,127)" stroke-width="2"/>
<line x1="483.333" y1="16.6667" x2="307.599" y2="330.154" stroke="rgb(128,0,127)" stroke-width="2"/>
<line x1="307.599" y1="330.154" x2="240.742" y2="32.0326" stroke="rgb(128,0,127)" stroke-width="2"/>
<line x1="240.742" y1="32.0326" x2="174.18" y2="228.533" stroke="rgb(128,0,127)" stroke-width="2"/>
<line x1="174.18" y1="228.533" x2="329.591" y2="114.239" stroke="rgb(128,0,127)" stroke-width="2"/>
<line x1="329.591" y1="114.239" x2="329.591" y2="139.639" stroke="rgb(128,0,127)" stroke-width="2"/>
<line x1="329.591" y1="139.639" x2="147.9" y2="464.435" stroke="rgb(128,0,127)" stroke-width="2"/>
<line x1="147.9" y1="464.435" x2="257.675" y2="23.566" stroke="rgb(128,0,127)" stroke-width="2"/>
<line x1="257.675" y1="23.566" x2="157.247" y2="228.533" stroke="rgb(128,0,127)" stroke-width="2"/>
<line x1="157.247" y1="228.533" x2="16.6667" y2="483.333" stroke="rgb(128,0,127)" stroke-width="2"/>
<line x1="16.6667" y1="483.333" x2="164.833" y2="472.901" stroke="rgb(128,0,127)" stroke-width="2"/>
<line x1="164.833" y1="472.901" x2="354.991" y2="105.772" stroke="rgb(128,0,127)" stroke-width="2"/>
<line x1="354.991" y1="105.772" x2="164.833" y2="468.668" stroke="rgb(128,0,127)" stroke-width="2"/>
<line x1="164.833" y1="468.668" x2="164.833" y2="477.135" stroke="rgb(128,0,127)" stroke-width="2"/>
<line x1="164.833" y1="477.135" x2="165.714" y2="228.533" stroke="rgb(128,0,127)" stroke-width="2"/>
<line x1="165.714" y1="228.533" x2="191.114" y2="228.533" stroke="rgb(128,0,127)" stroke-width="2"/>
<line x1="191.114" y1="228.533" x2="147.9" y2="472.901" stroke="rgb(128,0,127)" stroke-width="2"/>
<line x1="147.9" y1="472.901" x2="354.991" y2="122.706" stroke="rgb(128,0,127)" stroke-width="2"/>
<line x1="354.991" y1="122.706" x2="483.333" y2="483.333" stroke="rgb(128,0,127)" stroke-width="2"/>
<line x1="483.333" y1="483.333" x2="354.991" y2="97.3056" stroke="rgb(128,0,127)" stroke-width="2"/>
<line x1="354.991" y1="97.3056" x2="282.199" y2="330.154" stroke="rgb(128,0,127)" stroke-width="2"/>
<line x1="282.199" y1="330.154" x2="354.991" y2="114.239" stroke="rgb(128,0,127)" stroke-width="2"/>
<line x1="354.991" y1="114.239" x2="164.833" y2="464.435" stroke="rgb(128,0,127)" stroke-width="2"/>
<line x1="164.833" y1="464.435" x2="290.666" y2="330.154" stroke="rgb(128,0,127)" stroke-width="2"/>
<line x1="290.666" y1="330.154" x2="240.742" y2="19.3326" stroke="rgb(128,0,127)" stroke-width="2"/>
<line x1="240.742" y1="19.3326" x2="329.591" y2="105.772" stroke="rgb(128,0,127)" stroke-width="2"/>
<line x1="329.591" y1="105.772" x2="329.591" y2="97.3056" stroke="rgb(128,0,127)" stroke-width="2"/>
<line x1="329.591" y1="97.3056" x2="147.9" y2="477.135" stroke="rgb(128,0,127)" stroke-width="2"/>
<line x1="147.9" y1="477.135" x2="354.991" y2="131.172" stroke="rgb(128,0,127)" stroke-width="2"/>
<line x1="354.991" y1="131.172" x2="354.991" y2="139.639" stroke="rgb(128,0,127)" stroke-width="2"/>
<line x1="354.991" y1="139.639" x2="147.9" y2="468.668" stroke="rgb(128,0,127)" stroke-width="2"/>
<line x1="147.9" y1="468.668" x2="257.675" y2="32.0326" stroke="rgb(128,0,127)" stroke-width="2"/>
<line x1="257.675" y1="32.0326" x2="329.591" y2="131.172" stroke="rgb(128,0,127)" stroke-width="2"/>
<line x1="329.591" y1="131.172" x2="354.991" y2="88.8389" stroke="rgb(128,0,127)" stroke-width="2"/>
<line x1="354.991" y1="88.8389" x2="329.591" y2="88.8389" stroke="rgb(128,0,127)" stroke-width="2"/>
<line x1="329.591" y1="88.8389" x2="240.742" y2="27.7993" stroke="rgb(128,0,127)" stroke-width="2"/>
<line x1="240.742" y1="27.7993" x2="240.742" y2="23.566" stroke="rgb(128,0,127)" stroke-width="2"/>
<line x1="240.742" y1="23.566" x2="273.732" y2="330.154" stroke="rgb(128,0,127)" stroke-width="2"/>
<line x1="273.732" y1="330.154" x2="257.675" y2="19.3326" stroke="rgb(128,0,127)" stroke-width="2"/>
<line x1="257.675" y1="19.3326" x2="257.675" y2="27.7993" stroke="rgb(128,0,127)" stroke-width="2"/>
<line x1="257.675" y1="27.7993" x2="299.132" y2="330.154" stroke="rgb(128,0,127)" stroke-width="2"/>
<line x1="299.132" y1="330.154" x2="16.6667" y2="16.6667" stroke="rgb(128,0,127)" stroke-width="2"/>
</g>
<g>
<circle cx="16.6667" cy="16.6667" r="8" fill="blue"/>
<text x="31.6667" y="21.6667" font-family="Arial" font-size="12" fill="black">0</text>
<circle cx="483.333" cy="16.6667" r="8" fill="blue"/>
<text x="498.333" y="21.6667" font-family="Arial" font-size="12" fill="black">1</text>
<circle cx="16.6667" cy="483.333" r="8" fill="blue"/>
<text x="31.6667" y="488.333" font-family="Arial" font-size="12" fill="black">2</text>
<circle cx="483.333" cy="483.333" r="8" fill="blue"/>
<text x="498.333" y="488.333" font-family="Arial" font-size="12" fill="black">3</text>
<circle cx="273.732" cy="330.154" r="8" fill="blue"/>
<text x="288.732" y="335.154" font-family="Arial" font-size="12" fill="black">4</text>
<circle cx="282.199" cy="330.154" r="8" fill="blue"/>
<text x="297.199" y="335.154" font-family="Arial" font-size="12" fill="black">5</text>
<circle cx="290.666" cy="330.154" r="8" fill="blue"/>
<text x="305.666" y="335.154" font-family="Arial" font-size="12" fill="black">6</text>
<circle cx="299.132" cy="330.154" r="8" fill="blue"/>
<text x="314.132" y="335.154" font-family="Arial" font-size="12" fill="black">7</text>
<circle cx="307.599" cy="330.154" r="8" fill="blue"/>
<text x="322.599" y="335.154" font-family="Arial" font-size="12" fill="black">8</text>
<circle cx="157.247" cy="228.533" r="8" fill="blue"/>
<text x="172.247" y="233.533" font-family="Arial" font-size="12" fill="black">9</text>
<circle cx="165.714" cy="228.533" r="8" fill="blue"/>
<text x="180.714" y="233.533" font-family="Arial" font-size="12" fill="black">10</text>
<circle cx="174.18" cy="228.533" r="8" fill="blue"/>
<text x="189.18" y="233.533" font-family="Arial" font-size="12" fill="black">11</text>
<circle cx="182.647" cy="228.533" r="8" fill="blue"/>
<text x="197.647" y="233.533" font-family="Arial" font-size="12" fill="black">12</text>
<circle cx="191.114" cy="228.533" r="8" fill="blue"/>
<text x="206.114" y="233.533" font-family="Arial" font-size="12" fill="black">13</text>
<circle cx="329.591" cy="88.8389" r="8" fill="blue"/>
<text x="344.591" y="93.8389" font-family="Arial" font-size="12" fill="black">14</text>
<circle cx="329.591" cy="97.3056" r="8" fill="blue"/>
<text x="344.591" y="102.306" font-family="Arial" font-size="12" fill="black">15</text>
<circle cx="329.591" cy="105.772" r="8" fill="blue"/>
<text x="344.591" y="110.772" font-family="Arial" font-size="12" fill="black">16</text>
<circle cx="329.591" cy="114.239" r="8" fill="blue"/>
<text x="344.591" y="119.239" font-family="Arial" font-size="12" fill="black">17</text>
<circle cx="329.591" cy="122.706" r="8" fill="blue"/>
<text x="344.591" y="127.706" font-family="Arial" font-size="12" fill="black">18</text>
<circle cx="329.591" cy="131.172" r="8" fill="blue"/>
<text x="344.591" y="136.172" font-family="Arial" font-size="12" fill="black">19</text>
<circle cx="329.591" cy="139.639" r="8" fill="blue"/>
<text x="344.591" y="144.639" font-family="Arial" font-size="12" fill="black">20</text>
<circle cx="354.991" cy="88.8389" r="8" fill="blue"/>
<text x="369.991" y="93.8389" font-family="Arial" font-size="12" fill="black">21</text>
<circle cx="354.991" cy="97.3056" r="8" fill="blue"/>
<text x="369.991" y="102.306" font-family="Arial" font-size="12" fill="black">22</text>
<circle cx="354.991" cy="105.772" r="8" fill="blue"/>
<text x="369.991" y="110.772" font-family="Arial" font-size="12" fill="black">23</text>
<circle cx="354.991" cy="114.239" r="8" fill="blue"/>
<text x="369.991" y="119.239" font-family="Arial" font-size="12" fill="black">24</text>
<circle cx="354.991" cy="122.706" r="8" fill="blue"/>
<text x="369.991" y="127.706" font-family="Arial" font-size="12" fill="black">25</text>
<circle cx="354.991" cy="131.172" r="8" fill="blue"/>
<text x="369.991" y="136.172" font-family="Arial" font-size="12" fill="black">26</text>
<circle cx="354.991" cy="139.639" r="8" fill="blue"/>
<text x="369.991" y="144.639" font-family="Arial" font-size="12" fill="black">27</text>
<circle cx="147.9" cy="464.435" r="8" fill="blue"/>
<text x="162.9" y="469.435" font-family="Arial" font-size="12" fill="black">28</text>
<circle cx="147.9" cy="468.668" r="8" fill="blue"/>
<text x="162.9" y="473.668" font-family="Arial" font-size="12" fill="black">29</text>
<circle cx="147.9" cy="472.901" r="8" fill="blue"/>
<text x="162.9" y="477.901" font-family="Arial" font-size="12" fill="black">30</text>
<circle cx="147.9" cy="477.135" r="8" fill="blue"/>
<text x="162.9" y="482.135" font-family="Arial" font-size="12" fill="black">31</text>
<circle cx="164.833" cy="464.435" r="8" fill="blue"/>
<text x="179.833" y="469.435" font-family="Arial" font-size="12" fill="black">32</text>
<circle cx="164.833" cy="468.668" r="8" fill="blue"/>
<text x="179.833" y="473.668" font-family="Arial" font-size="12" fill="black">33</text>
<circle cx="164.833" cy="472.901" r="8" fill="blue"/>
<text x="179.833" y="477.901" font-family="Arial" font-size="12" fill="black">34</text>
<circle cx="164.833" cy="477.135" r="8" fill="blue"/>
<text x="179.833" y="482.135" font-family="Arial" font-size="12" fill="black">35</text>
<circle cx="240.742" cy="19.3326" r="8" fill="blue"/>
<text x="255.742" y="24.3326" font-family="Arial" font-size="12" fill="black">36</text>
<circle cx="240.742" cy="23.566" r="8" fill="blue"/>
<text x="255.742" y="28.566" font-family="Arial" font-size="12" fill="black">37</text>
<circle cx="240.742" cy="27.7993" r="8" fill="blue"/>
<text x="255.742" y="32.7993" font-family="Arial" font-size="12" fill="black">38</text>
<circle cx="240.742" cy="32.0326" r="8" fill="blue"/>
<text x="255.742" y="37.0326" font-family="Arial" font-size="12" fill="black">39</text>
<circle cx="257.675" cy="19.3326" r="8" fill="blue"/>
<text x="272.675" y="24.3326" font-family="Arial" font-size="12" fill="black">40</text>
<circle cx="257.675" cy="23.566" r="8" fill="blue"/>
<text x="272.675" y="28.566" font-family="Arial" font-size="12" fill="black">41</text>
<circle cx="257.675" cy="27.7993" r="8" fill="blue"/>
<text x="272.675" y="32.7993" font-family="Arial" font-size="12" fill="black">42</text>
<circle cx="257.675" cy="32.0326" r="8" fill="blue"/>
<text x="272.675" y="37.0326" font-family="Arial" font-size="12" fill="black">43</text>
</g>
<text x="-125" y="-125" font-family="Arial" font-size="14.4" fill="black"> Cost: 3182.99</text>
</g>
<g transform="translate(880.00,0)">
<rect x="-150.00" y="-150.00" width="800.00" height="800.00" fill="white"/>
<g>
<line x1="147.90" y1="477.13" x2="164.83" y2="477.13" stroke="rgb(128,0,127)" stroke-width="2.00"/>
<line x1="164.83" y1="477.13" x2="164.83" y2="472.90" stroke="rgb(128,0,127)" stroke-width="2.00"/>
<line x1="164.83" y1="472.90" x2="164.83" y2="468.67" stroke="rgb(128,0,127)" stroke-width="2.00"/>
<line x1="164.83" y1="468.67" x2="164.83" y2="464.43" stroke="rgb(128,0,127)" stroke-width="2.00"/>
<line x1="164.83" y1="464.43" x2="147.90" y2="464.43" stroke="rgb(128,0,127)" stroke-width="2.00"/>
<line x1="147.90" y1="464.43" x2="147.90" y2="468.67" stroke="rgb(128,0,127)" stroke-width="2.00"/>
<line x1="147.90" y1="468.67" x2="147.90" y2="472.90" stroke="rgb(128,0,127)" stroke-width="2.00"/>
<line x1="147.90" y1="472.90" x2="16.67" y2="483.33" stroke="rgb(128,0,127)" stroke-width="2.00"/>
<line x1="16.67" y1="483.33" x2="157.25" y2="228.53" stroke="rgb(128,0,127)" stroke-width="2.00"/>
<line x1="157.25" y1="228.53" x2="165.71" y2="228.53" stroke="rgb(128,0,127)" stroke-width="2.00"/>
<line x1="165.71" y1="228.53" x2="174.18" y2="228.53" stroke="rgb(128,0,127)" stroke-width="2.00"/>
<line x1="174.18" y1="228.53" x2="182.65" y2="228.53" stroke="rgb(128,0,127)" stroke-width="2.00"/>
<line x1="182.65" y1="228.53" x2="191.11" y2="228.53" stroke="rgb(128,0,127)" stroke-width="2.00"/>
<line x1="191.11" y1="228.53" x2="273.73" y2="330.15" stroke="rgb(128,0,127)" stroke-width="2.00"/>
<line x1="273.73" y1="330.15" x2="282.20" y2="330.15" stroke="rgb(128,0,127)" stroke-width="2.00"/>
<line x1="282.20" y1="330.15" x2="290.67" y2="330.15" stroke="rgb(128,0,127)" stroke-width="2.00"/>
<line x1="290.67" y1="330.15" x2="299.13" y2="330.15" stroke="rgb(128,0,127)" stroke-width="2.00"/>
<line x1="299.13" y1="330.15" x2="307.60" y2="330.15" stroke="rgb(128,0,127)" stroke-width="2.00"/>
<line x1="307.60" y1="330.15" x2="483.33" y2="483.33" stroke="rgb(128,0,127)" stroke-width="2.00"/>
<line x1="483.33" y1="483.33" x2="483.33" y2="16.67" stroke="rgb(128,0,127)" stroke-width="2.00"/>
<line x1="483.33" y1="16.67" x2="354.99" y2="88.84" stroke="rgb(128,0,127)" stroke-width="2.00"/>
<line x1="354.99" y1="88.84" x2="354.99" y2="97.31" stroke="rgb(128,0,127)" stroke-width="2.00"/>
<line x1="354.99" y1="97.31" x2="354.99" y2="105.77" stroke="rgb(128,0,127)" stroke-width="2.00"/>
<line x1="354.99" y1="105.77" x2="354.99" y2="114.24" stroke="rgb(128,0,127)" stroke-width="2.00"/>
<line x1="354.99" y1="114.24" x2="354.99" y2="122.71" stroke="rgb(128,0,127)" stroke-width="2.00"/>
<line x1="354.99" y1="122.71" x2="354.99" y2="131.17" stroke="rgb(128,0,127)" stroke-width="2.00"/>
<line x1="354.99" y1="131.17" x2="354.99" y2="139.64" stroke="rgb(128,0,127)" stroke-width="2.00"/>
<line x1="354.99" y1="139.64" x2="329.59" y2="139.64" stroke="rgb(128,0,127)" stroke-width="2.00"/>
<line x1="329.59" y1="139.64" x2="329.59" y2="131.17" stroke="rgb(128,0,127)" stroke-width="2.00"/>
<line x1="329.59" y1="131.17" x2="329.59" y2="122.71" stroke="rgb(128,0,127)" stroke-width="2.00"/>
<line x1="329.59" y1="122.71" x2="329.59" y2="114.24" stroke="rgb(128,0,127)" stroke-width="2.00"/>
<line x1="329.59" y1="114.24" x2="329.59" y2="105.77" stroke="rgb(128,0,127)" stroke-width="2.00"/>
<line x1="329.59" y1="105.77" x2="329.59" y2="97.31" stroke="rgb(128,0,127)" stroke-width="2.00"/>
<line x1="329.59" y1="97.31" x2="329.59" y2="88.84" stroke="rgb(128,0,127)" stroke-width="2.00"/>
<line x1="329.59" y1="88.84" x2="257.68" y2="32.03" stroke="rgb(128,0,127)" stroke-width="2.00"/>
<line x1="257.68" y1="32.03" x2="257.68" y2="27.80" stroke="rgb(128,0,127)" stroke-width="2.00"/>
<line x1="257.68" y1="27.80" x2="257.68" y2="23.57" stroke="rgb(128,0,127)" stroke-width="2.00"/>
<line x1="257.68" y1="23.57" x2="257.68" y2="19.33" stroke="rgb(128,0,127)" stroke-width="2.00"/>
<line x1="257.68" y1="19.33" x2="240.74" y2="32.03" stroke="rgb(128,0,127)" stroke-width="2.00"/>
<line x1="240.74" y1="32.03" x2="240.74" y2="27.80" stroke="rgb(128,0,127)" stroke-width="2.00"/>
<line x1="240.74" y1="27.80" x2="240.74" y2="23.57" stroke="rgb(128,0,127)" stroke-width="2.00"/>
<line x1="240.74" y1="23.57" x2="240.74" y2="19.33" stroke="rgb(128,0,127)" stroke-width="2.00"/>
<line x1="240.74" y1="19.33" x2="16.67" y2="16.67" stroke="rgb(128,0,127)" stroke-width="2.00"/>
<line x1="16.67" y1="16.67" x2="16.67" y2="16.67" stroke="rgb(128,0,127)" stroke-width="2.00"/>
</g>
<g>
<circle cx="16.67" cy="16.67" r="8.00" fill="blue"/>
<text x="31.67" y="21.67" font-family="Arial" font-size="12.00" fill="black">0</text>
<circle cx="483.33" cy="16.67" r="8.00" fill="blue"/>
<text x="498.33" y="21.67" font-family="Arial" font-size="12.00" fill="black">1</text>
<circle cx="16.67" cy="483.33" r="8.00" fill="blue"/>
<text x="31.67" y="488.33" font-family="Arial" font-size="12.00" fill="black">2</text>
<circle cx="483.33" cy="483.33" r="8.00" fill="blue"/>
<text x="498.33" y="488.33" font-family="Arial" font-size="12.00" fill="black">3</text>
<circle cx="273.73" cy="330.15" r="8.00" fill="blue"/>
<text x="288.73" y="335.15" font-family="Arial" font-size="12.00" fill="black">4</text>
<circle cx="282.20" cy="330.15" r="8.00" fill="blue"/>
<text x="297.20" y="335.15" font-family="Arial" font-size="12.00" fill="black">5</text>
<circle cx="290.67" cy="330.15" r="8.00" fill="blue"/>
<text x="305.67" y="335.15" font-family="Arial" font-size="12.00" fill="black">6</text>
<circle cx="299.13" cy="330.15" r="8.00" fill="blue"/>
<text x="314.13" y="335.15" font-family="Arial" font-size="12.00" fill="black">7</text>
<circle cx="307.60" cy="330.15" r="8.00" fill="blue"/>
<text x="322.60" y="335.15" font-family="Arial" font-size="12.00" fill="black">8</text>
<circle cx="157.25" cy="228.53" r="8.00" fill="blue"/>
<text x="172.25" y="233.53" font-family="Arial" font-size="12.00" fill="black">9</text>
<circle cx="165.71" cy="228.53" r="8.00" fill="blue"/>
<text x="180.71" y="233.53" font-family="Arial" font-size="12.00" fill="black">10</text>
<circle cx="174.18" cy="228.53" r="8.00" fill="blue"/>
<text x="189.18" y="233.53" font-family="Arial" font-size="12.00" fill="black">11</text>
<circle cx="182.65" cy="228.53" r="8.00" fill="blue"/>
<text x="197.65" y="233.53" font-family="Arial" font-size="12.00" fill="black">12</text>
<circle cx="191.11" cy="228.53" r="8.00" fill="blue"/>
<text x="206.11" y="233.53" font-family="Arial" font-size="12.00" fill="black">13</text>
<circle cx="329.59" cy="88.84" r="8.00" fill="blue"/>
<text x="344.59" y="93.84" font-family="Arial" font-size="12.00" fill="black">14</text>
<circle cx="329.59" cy="97.31" r="8.00" fill="blue"/>
<text x="344.59" y="102.31" font-family="Arial" font-size="12.00" fill="black">15</text>
<circle cx="329.59" cy="105.77" r="8.00" fill="blue"/>
<text x="344.59" y="110.77" font-family="Arial" font-size="12.00" fill="black">16</text>
<circle cx="329.59" cy="114.24" r="8.00" fill="blue"/>
<text x="344.59" y="119.24" font-family="Arial" font-size="12.00" fill="black">17</text>
<circle cx="329.59" cy="122.71" r="8.00" fill="blue"/>
<text x="344.59" y="127.71" font-family="Arial" font-size="12.00" fill="black">18</text>
<circle cx="329.59" cy="131.17" r="8.00" fill="blue"/>
<text x="344.59" y="136.17" font-family="Arial" font-size="12.00" fill="black">19</text>
<circle cx="329.59" cy="139.64" r="8.00" fill="blue"/>
<text x="344.59" y="144.64" font-family="Arial" font-size="12.00" fill="black">20</text>
<circle cx="354.99" cy="88.84" r="8.00" fill="blue"/>
<text x="369.99" y="93.84" font-family="Arial" font-size="12.00" fill="black">21</text>
<circle cx="354.99" cy="97.31" r="8.00" fill="blue"/>
<text x="369.99" y="102.31" font-family="Arial" font-size="12.00" fill="black">22</text>
<circle cx="354.99" cy="105.77" r="8.00" fill="blue"/>
<text x="369.99" y="110.77" font-family="Arial" font-size="12.00" fill="black">23</text>
<circle cx="354.99" cy="114.24" r="8.00" fill="blue"/>
<text x="369.99" y="119.24" font-family="Arial" font-size="12.00" fill="black">24</text>
<circle cx="354.99" cy="122.71" r="8.00" fill="blue"/>
<text x="369.99" y="127.71" font-family="Arial" font-size="12.00" fill="black">25</text>
<circle cx="354.99" cy="131.17" r="8.00" fill="blue"/>
<text x="369.99" y="136.17" font-family="Arial" font-size="12.00" fill="black">26</text>
<circle cx="354.99" cy="139.64" r="8.00" fill="blue"/>
<text x="369.99" y="144.64" font-family="Arial" font-size="12.00" fill="black">27</text>
<circle cx="147.90" cy="464.43" r="8.00" fill="blue"/>
<text x="162.90" y="469.43" font-family="Arial" font-size="12.00" fill="black">28</text>
<circle cx="147.90" cy="468.67" r="8.00" fill="blue"/>
<text x="162.90" y="473.67" font-family="Arial" font-size="12.00" fill="black">29</text>
<circle cx="147.90" cy="472.90" r="8.00" fill="blue"/>
<text x="162.90" y="477.90" font-family="Arial" font-size="12.00" fill="black">30</text>
<circle cx="147.90" cy="477.13" r="8.00" fill="blue"/>
<text x="162.90" y="482.13" font-family="Arial" font-size="12.00" fill="black">31</text>
<circle cx="164.83" cy="464.43" r="8.00" fill="blue"/>
<text x="179.83" y="469.43" font-family="Arial" font-size="12.00" fill="black">32</text>
<circle cx="164.83" cy="468.67" r="8.00" fill="blue"/>
<text x="179.83" y="473.67" font-family="Arial" font-size="12.00" fill="black">33</text>
<circle cx="164.83" cy="472.90" r="8.00" fill="blue"/>
<text x="179.83" y="477.90" font-family="Arial" font-size="12.00" fill="black">34</text>
<circle cx="164.83" cy="477.13" r="8.00" fill="blue"/>
<text x="179.83" y="482.13" font-family="Arial" font-size="12.00" fill="black">35</text>
<circle cx="240.74" cy="19.33" r="8.00" fill="blue"/>
<text x="255.74" y="24.33" font-family="Arial" font-size="12.00" fill="black">36</text>
<circle cx="240.74" cy="23.57" r="8.00" fill="blue"/>
<text x="255.74" y="28.57" font-family="Arial" font-size="12.00" fill="black">37</text>
<circle cx="240.74" cy="27.80" r="8.00" fill="blue"/>
<text x="255.74" y="32.80" font-family="Arial" font-size="12.00" fill="black">38</text>
<circle cx="240.74" cy="32.03" r="8.00" fill="blue"/>
<text x="255.74" y="37.03" font-family="Arial" font-size="12.00" fill="black">39</text>
<circle cx="257.68" cy="19.33" r="8.00" fill="blue"/>
<text x="272.68" y="24.33" font-family="Arial" font-size="12.00" fill="black">40</text>
<circle cx="257.68" cy="23.57" r="8.00" fill="blue"/>
<text x="272.68" y="28.57" font-family="Arial" font-size="12.00" fill="black">41</text>
<circle cx="257.68" cy="27.80" r="8.00" fill="blue"/>
<text x="272.68" y="32.80" font-family="Arial" font-size="12.00" fill="black">42</text>
<circle cx="257.68" cy="32.03" r="8.00" fill="blue"/>
<text x="272.68" y="37.03" font-family="Arial" font-size="12.00" fill="black">43</text>
</g>
<text x="-125.00" y="-125.00" font-family="Arial" font-size="14.40" fill="black"> Cost: 603.82</text>
</g>
</svg>
