<?xml version="1.0" encoding="UTF-8" standalone="no"?>
<svg xmlns="http://www.w3.org/2000/svg" viewBox="-5 -5 160 160">
<rect x="-5" y="-5" width="160" height="160" fill="white"/>
<g>
<line x1="5" y1="5" x2="35.0844" y2="31.1493" stroke="rgb(0,0,255)" stroke-width="0.8"/>
<line x1="35.0844" y1="31.1493" x2="35.0844" y2="33.6893" stroke="rgb(4,0,251)" stroke-width="0.8"/>
<line x1="35.0844" y1="33.6893" x2="35.0844" y2="36.2293" stroke="rgb(8,0,247)" stroke-width="0.8"/>
<line x1="35.0844" y1="36.2293" x2="35.0844" y2="38.7693" stroke="rgb(12,0,243)" stroke-width="0.8"/>
<line x1="35.0844" y1="38.7693" x2="35.0844" y2="41.3093" stroke="rgb(16,0,239)" stroke-width="0.8"/>
<line x1="35.0844" y1="41.3093" x2="35.0844" y2="43.8493" stroke="rgb(20,0,235)" stroke-width="0.8"/>
<line x1="35.0844" y1="43.8493" x2="35.0844" y2="46.3893" stroke="rgb(24,0,231)" stroke-width="0.8"/>
<line x1="35.0844" y1="46.3893" x2="78.5153" y2="35.0288" stroke="rgb(28,0,227)" stroke-width="0.8"/>
<line x1="78.5153" y1="35.0288" x2="78.5153" y2="32.4888" stroke="rgb(32,0,223)" stroke-width="0.8"/>
<line x1="78.5153" y1="32.4888" x2="78.5153" y2="29.9488" stroke="rgb(37,0,218)" stroke-width="0.8"/>
<line x1="78.5153" y1="29.9488" x2="78.5153" y2="27.4088" stroke="rgb(41,0,214)" stroke-width="0.8"/>
<line x1="78.5153" y1="27.4088" x2="78.5153" y2="24.8688" stroke="rgb(45,0,210)" stroke-width="0.8"/>
<line x1="78.5153" y1="24.8688" x2="78.5153" y2="22.3288" stroke="rgb(49,0,206)" stroke-width="0.8"/>
<line x1="78.5153" y1="22.3288" x2="78.5153" y2="19.7888" stroke="rgb(53,0,202)" stroke-width="0.8"/>
<line x1="78.5153" y1="19.7888" x2="86.1353" y2="19.7888" stroke="rgb(57,0,198)" stroke-width="0.8"/>
<line x1="86.1353" y1="19.7888" x2="86.1353" y2="22.3288" stroke="rgb(61,0,194)" stroke-width="0.8"/>
<line x1="86.1353" y1="22.3288" x2="86.1353" y2="24.8688" stroke="rgb(65,0,190)" stroke-width="0.8"/>
<line x1="86.1353" y1="24.8688" x2="86.1353" y2="27.4088" stroke="rgb(69,0,186)" stroke-width="0.8"/>
<line x1="86.1353" y1="27.4088" x2="86.1353" y2="29.9488" stroke="rgb(74,0,181)" stroke-width="0.8"/>
<line x1="86.1353" y1="29.9488" x2="86.1353" y2="32.4888" stroke="rgb(78,0,177)" stroke-width="0.8"/>
<line x1="86.1353" y1="32.4888" x2="86.1353" y2="35.0288" stroke="rgb(82,0,173)" stroke-width="0.8"/>
<line x1="86.1353" y1="35.0288" x2="145" y2="5" stroke="rgb(86,0,169)" stroke-width="0.8"/>
<line x1="145" y1="5" x2="137.028" y2="60.5446" stroke="rgb(90,0,165)" stroke-width="0.8"/>
<line x1="137.028" y1="60.5446" x2="137.028" y2="63.0846" stroke="rgb(94,0,161)" stroke-width="0.8"/>
<line x1="137.028" y1="63.0846" x2="137.028" y2="65.6246" stroke="rgb(98,0,157)" stroke-width="0.8"/>
<line x1="137.028" y1="65.6246" x2="137.028" y2="68.1646" stroke="rgb(102,0,153)" stroke-width="0.8"/>
<line x1="137.028" y1="68.1646" x2="137.028" y2="70.7046" stroke="rgb(106,0,149)" stroke-width="0.8"/>
<line x1="137.028" y1="70.7046" x2="144.648" y2="60.5446" stroke="rgb(111,0,144)" stroke-width="0.8"/>
<line x1="144.648" y1="60.5446" x2="144.648" y2="63.0846" stroke="rgb(115,0,140)" stroke-width="0.8"/>
<line x1="144.648" y1="63.0846" x2="144.648" y2="65.6246" stroke="rgb(119,0,136)" stroke-width="0.8"/>
<line x1="144.648" y1="65.6246" x2="144.648" y2="68.1646" stroke="rgb(123,0,132)" stroke-width="0.8"/>
<line x1="144.648" y1="68.1646" x2="144.648" y2="70.7046" stroke="rgb(127,0,128)" stroke-width="0.8"/>
<line x1="144.648" y1="70.7046" x2="144.648" y2="73.2446" stroke="rgb(131,0,124)" stroke-width="0.8"/>
<line x1="144.648" y1="73.2446" x2="144.648" y2="75.7846" stroke="rgb(135,0,120)" stroke-width="0.8"/>
<line x1="144.648" y1="75.7846" x2="137.028" y2="73.2446" stroke="rgb(139,0,116)" stroke-width="0.8"/>
<line x1="137.028" y1="73.2446" x2="137.028" y2="75.7846" stroke="rgb(143,0,112)" stroke-width="0.8"/>
<line x1="137.028" y1="75.7846" x2="145" y2="145" stroke="rgb(148,0,107)" stroke-width="0.8"/>
<line x1="145" y1="145" x2="62.9026" y2="119.644" stroke="rgb(152,0,103)" stroke-width="0.8"/>
<line x1="62.9026" y1="119.644" x2="62.9026" y2="118.374" stroke="rgb(156,0,99)" stroke-width="0.8"/>
<line x1="62.9026" y1="118.374" x2="62.9026" y2="117.104" stroke="rgb(160,0,95)" stroke-width="0.8"/>
<line x1="62.9026" y1="117.104" x2="62.9026" y2="115.834" stroke="rgb(164,0,91)" stroke-width="0.8"/>
<line x1="62.9026" y1="115.834" x2="57.8226" y2="115.834" stroke="rgb(168,0,87)" stroke-width="0.8"/>
<line x1="57.8226" y1="115.834" x2="57.8226" y2="117.104" stroke="rgb(172,0,83)" stroke-width="0.8"/>
<line x1="57.8226" y1="117.104" x2="57.8226" y2="118.374" stroke="rgb(176,0,79)" stroke-width="0.8"/>
<line x1="57.8226" y1="118.374" x2="57.8226" y2="119.644" stroke="rgb(180,0,75)" stroke-width="0.8"/>
<line x1="57.8226" y1="119.644" x2="51.0684" y2="131.156" stroke="rgb(185,0,70)" stroke-width="0.8"/>
<line x1="51.0684" y1="131.156" x2="51.0684" y2="132.426" stroke="rgb(189,0,66)" stroke-width="0.8"/>
<line x1="51.0684" y1="132.426" x2="51.0684" y2="133.696" stroke="rgb(193,0,62)" stroke-width="0.8"/>
<line x1="51.0684" y1="133.696" x2="51.0684" y2="134.966" stroke="rgb(197,0,58)" stroke-width="0.8"/>
<line x1="51.0684" y1="134.966" x2="45.9884" y2="131.156" stroke="rgb(201,0,54)" stroke-width="0.8"/>
<line x1="45.9884" y1="131.156" x2="45.9884" y2="132.426" stroke="rgb(205,0,50)" stroke-width="0.8"/>
<line x1="45.9884" y1="132.426" x2="45.9884" y2="133.696" stroke="rgb(209,0,46)" stroke-width="0.8"/>
<line x1="45.9884" y1="133.696" x2="45.9884" y2="134.966" stroke="rgb(213,0,42)" stroke-width="0.8"/>
<line x1="45.9884" y1="134.966" x2="5" y2="145" stroke="rgb(217,0,38)" stroke-width="0.8"/>
<line x1="5" y1="145" x2="27.4644" y2="46.3893" stroke="rgb(222,0,33)" stroke-width="0.8"/>
<line x1="27.4644" y1="46.3893" x2="27.4644" y2="43.8493" stroke="rgb(226,0,29)" stroke-width="0.8"/>
<line x1="27.4644" y1="43.8493" x2="27.4644" y2="41.3093" stroke="rgb(230,0,25)" stroke-width="0.8"/>
<line x1="27.4644" y1="41.3093" x2="27.4644" y2="38.7693" stroke="rgb(234,0,21)" stroke-width="0.8"/>
<line x1="27.4644" y1="38.7693" x2="27.4644" y2="36.2293" stroke="rgb(238,0,17)" stroke-width="0.8"/>
<line x1="27.4644" y1="36.2293" x2="27.4644" y2="33.6893" stroke="rgb(242,0,13)" stroke-width="0.8"/>
<line x1="27.4644" y1="33.6893" x2="27.4644" y2="31.1493" stroke="rgb(246,0,9)" stroke-width="0.8"/>
<line x1="27.4644" y1="31.1493" x2="5" y2="5" stroke="rgb(250,0,5)" stroke-width="0.8"/>
</g>
<g>
<circle cx="5" cy="5" r="2" fill="blue"/>
<text x="7.5" y="5" font-family="Arial" font-size="5" fill="black">0</text>
<circle cx="145" cy="5" r="2" fill="blue"/>
<text x="147.5" y="5" font-family="Arial" font-size="5" fill="black">1</text>
<circle cx="5" cy="145" r="2" fill="blue"/>
<text x="7.5" y="145" font-family="Arial" font-size="5" fill="black">2</text>
<circle cx="145" cy="145" r="2" fill="blue"/>
<text x="147.5" y="145" font-family="Arial" font-size="5" fill="black">3</text>
<circle cx="57.8226" cy="115.834" r="2" fill="blue"/>
<text x="60.3226" y="115.834" font-family="Arial" font-size="5" fill="black">4</text>
<circle cx="57.8226" cy="117.104" r="2" fill="blue"/>
<text x="60.3226" y="117.104" font-family="Arial" font-size="5" fill="black">5</text>
<circle cx="57.8226" cy="118.374" r="2" fill="blue"/>
<text x="60.3226" y="118.374" font-family="Arial" font-size="5" fill="black">6</text>
<circle cx="57.8226" cy="119.644" r="2" fill="blue"/>
<text x="60.3226" y="119.644" font-family="Arial" font-size="5" fill="black">7</text>
<circle cx="62.9026" cy="115.834" r="2" fill="blue"/>
<text x="65.4026" y="115.834" font-family="Arial" font-size="5" fill="black">8</text>
<circle cx="62.9026" cy="117.104" r="2" fill="blue"/>
<text x="65.4026" y="117.104" font-family="Arial" font-size="5" fill="black">9</text>
<circle cx="62.9026" cy="118.374" r="2" fill="blue"/>
<text x="65.4026" y="118.374" font-family="Arial" font-size="5" fill="black">10</text>
<circle cx="62.9026" cy="119.644" r="2" fill="blue"/>
<text x="65.4026" y="119.644" font-family="Arial" font-size="5" fill="black">11</text>
<circle cx="78.5153" cy="19.7888" r="2" fill="blue"/>
<text x="81.0153" y="19.7888" font-family="Arial" font-size="5" fill="black">12</text>
<circle cx="78.5153" cy="22.3288" r="2" fill="blue"/>
<text x="81.0153" y="22.3288" font-family="Arial" font-size="5" fill="black">13</text>
<circle cx="78.5153" cy="24.8688" r="2" fill="blue"/>
<text x="81.0153" y="24.8688" font-family="Arial" font-size="5" fill="black">14</text>
<circle cx="78.5153" cy="27.4088" r="2" fill="blue"/>
<text x="81.0153" y="27.4088" font-family="Arial" font-size="5" fill="black">15</text>
<circle cx="78.5153" cy="29.9488" r="2" fill="blue"/>
<text x="81.0153" y="29.9488" font-family="Arial" font-size="5" fill="black">16</text>
<circle cx="78.5153" cy="32.4888" r="2" fill="blue"/>
<text x="81.0153" y="32.4888" font-family="Arial" font-size="5" fill="black">17</text>
<circle cx="78.5153" cy="35.0288" r="2" fill="blue"/>
<text x="81.0153" y="35.0288" font-family="Arial" font-size="5" fill="black">18</text>
<circle cx="86.1353" cy="19.7888" r="2" fill="blue"/>
<text x="88.6353" y="19.7888" font-family="Arial" font-size="5" fill="black">19</text>
<circle cx="86.1353" cy="22.3288" r="2" fill="blue"/>
<text x="88.6353" y="22.3288" font-family="Arial" font-size="5" fill="black">20</text>
<circle cx="86.1353" cy="24.8688" r="2" fill="blue"/>
<text x="88.6353" y="24.8688" font-family="Arial" font-size="5" fill="black">21</text>
<circle cx="86.1353" cy="27.4088" r="2" fill="blue"/>
<text x="88.6353" y="27.4088" font-family="Arial" font-size="5" fill="black">22</text>
<circle cx="86.1353" cy="29.9488" r="2" fill="blue"/>
<text x="88.6353" y="29.9488" font-family="Arial" font-size="5" fill="black">23</text>
<circle cx="86.1353" cy="32.4888" r="2" fill="blue"/>
<text x="88.6353" y="32.4888" font-family="Arial" font-size="5" fill="black">24</text>
<circle cx="86.1353" cy="35.0288" r="2" fill="blue"/>
<text x="88.6353" y="35.0288" font-family="Arial" font-size="5" fill="black">25</text>
<circle cx="45.9884" cy="131.156" r="2" fill="blue"/>
<text x="48.4884" y="131.156" font-family="Arial" font-size="5" fill="black">26</text>
<circle cx="45.9884" cy="132.426" r="2" fill="blue"/>
<text x="48.4884" y="132.426" font-family="Arial" font-size="5" fill="black">27</text>
<circle cx="45.9884" cy="133.696" r="2" fill="blue"/>
<text x="48.4884" y="133.696" font-family="Arial" font-size="5" fill="black">28</text>
<circle cx="45.9884" cy="134.966" r="2" fill="blue"/>
<text x="48.4884" y="134.966" font-family="Arial" font-size="5" fill="black">29</text>
<circle cx="51.0684" cy="131.156" r="2" fill="blue"/>
<text x="53.5684" y="131.156" font-family="Arial" font-size="5" fill="black">30</text>
<circle cx="51.0684" cy="132.426" r="2" fill="blue"/>
<text x="53.5684" y="132.426" font-family="Arial" font-size="5" fill="black">31</text>
<circle cx="51.0684" cy="133.696" r="2" fill="blue"/>
<text x="53.5684" y="133.696" font-family="Arial" font-size="5" fill="black">32</text>
<circle cx="51.0684" cy="134.966" r="2" fill="blue"/>
<text x="53.5684" y="134.966" font-family="Arial" font-size="5" fill="black">33</text>
<circle cx="137.028" cy="60.5446" r="2" fill="blue"/>
<text x="139.528" y="60.5446" font-family="Arial" font-size="5" fill="black">34</text>
<circle cx="137.028" cy="63.0846" r="2" fill="blue"/>
<text x="139.528" y="63.0846" font-family="Arial" font-size="5" fill="black">35</text>
<circle cx="137.028" cy="65.6246" r="2" fill="blue"/>
<text x="139.528" y="65.6246" font-family="Arial" font-size="5" fill="black">36</text>
<circle cx="137.028" cy="68.1646" r="2" fill="blue"/>
<text x="139.528" y="68.1646" font-family="Arial" font-size="5" fill="black">37</text>
<circle cx="137.028" cy="70.7046" r="2" fill="blue"/>
<text x="139.528" y="70.7046" font-family="Arial" font-size="5" fill="black">38</text>
<circle cx="137.028" cy="73.2446" r="2" fill="blue"/>
<text x="139.528" y="73.2446" font-family="Arial" font-size="5" fill="black">39</text>
<circle cx="137.028" cy="75.7846" r="2" fill="blue"/>
<text x="139.528" y="75.7846" font-family="Arial" font-size="5" fill="black">40</text>
<circle cx="144.648" cy="60.5446" r="2" fill="blue"/>
<text x="147.148" y="60.5446" font-family="Arial" font-size="5" fill="black">41</text>
<circle cx="144.648" cy="63.0846" r="2" fill="blue"/>
<text x="147.148" y="63.0846" font-family="Arial" font-size="5" fill="black">42</text>
<circle cx="144.648" cy="65.6246" r="2" fill="blue"/>
<text x="147.148" y="65.6246" font-family="Arial" font-size="5" fill="black">43</text>
<circle cx="144.648" cy="68.1646" r="2" fill="blue"/>
<text x="147.148" y="68.1646" font-family="Arial" font-size="5" fill="black">44</text>
<circle cx="144.648" cy="70.7046" r="2" fill="blue"/>
<text x="147.148" y="70.7046" font-family="Arial" font-size="5" fill="black">45</text>
<circle cx="144.648" cy="73.2446" r="2" fill="blue"/>
<text x="147.148" y="73.2446" font-family="Arial" font-size="5" fill="black">46</text>
<circle cx="144.648" cy="75.7846" r="2" fill="blue"/>
<text x="147.148" y="75.7846" font-family="Arial" font-size="5" fill="black">47</text>
<circle cx="27.4644" cy="31.1493" r="2" fill="blue"/>
<text x="29.9644" y="31.1493" font-family="Arial" font-size="5" fill="black">48</text>
<circle cx="27.4644" cy="33.6893" r="2" fill="blue"/>
<text x="29.9644" y="33.6893" font-family="Arial" font-size="5" fill="black">49</text>
<circle cx="27.4644" cy="36.2293" r="2" fill="blue"/>
<text x="29.9644" y="36.2293" font-family="Arial" font-size="5" fill="black">50</text>
<circle cx="27.4644" cy="38.7693" r="2" fill="blue"/>
<text x="29.9644" y="38.7693" font-family="Arial" font-size="5" fill="black">51</text>
<circle cx="27.4644" cy="41.3093" r="2" fill="blue"/>
<text x="29.9644" y="41.3093" font-family="Arial" font-size="5" fill="black">52</text>
<circle cx="27.4644" cy="43.8493" r="2" fill="blue"/>
<text x="29.9644" y="43.8493" font-family="Arial" font-size="5" fill="black">53</text>
<circle cx="27.4644" cy="46.3893" r="2" fill="blue"/>
<text x="29.9644" y="46.3893" font-family="Arial" font-size="5" fill="black">54</text>
<circle cx="35.0844" cy="31.1493" r="2" fill="blue"/>
<text x="37.5844" y="31.1493" font-family="Arial" font-size="5" fill="black">55</text>
<circle cx="35.0844" cy="33.6893" r="2" fill="blue"/>
<text x="37.5844" y="33.6893" font-family="Arial" font-size="5" fill="black">56</text>
<circle cx="35.0844" cy="36.2293" r="2" fill="blue"/>
<text x="37.5844" y="36.2293" font-family="Arial" font-size="5" fill="black">57</text>
<circle cx="35.0844" cy="38.7693" r="2" fill="blue"/>
<text x="37.5844" y="38.7693" font-family="Arial" font-size="5" fill="black">58</text>
<circle cx="35.0844" cy="41.3093" r="2" fill="blue"/>
<text x="37.5844" y="41.3093" font-family="Arial" font-size="5" fill="black">59</text>
<circle cx="35.0844" cy="43.8493" r="2" fill="blue"/>
<text x="37.5844" y="43.8493" font-family="Arial" font-size="5" fill="black">60</text>
<circle cx="35.0844" cy="46.3893" r="2" fill="blue"/>
<text x="37.5844" y="46.3893" font-family="Arial" font-size="5" fill="black">61</text>
</g>
</svg>
