<?xml version="1.0" encoding="UTF-8" standalone="no"?>
<svg xmlns="http://www.w3.org/2000/svg" viewBox="-5 -5 135 135">
<rect x="-5" y="-5" width="135" height="135" fill="white"/>
<g>
<line x1="15.599" y1="103.071" x2="5" y2="120" stroke="rgb(0,0,255)" stroke-width="0.8"/>
<line x1="5" y1="120" x2="18.139" y2="103.071" stroke="rgb(7,0,248)" stroke-width="0.8"/>
<line x1="18.139" y1="103.071" x2="20.679" y2="103.071" stroke="rgb(14,0,241)" stroke-width="0.8"/>
<line x1="20.679" y1="103.071" x2="23.219" y2="103.071" stroke="rgb(21,0,234)" stroke-width="0.8"/>
<line x1="23.219" y1="103.071" x2="25.759" y2="103.071" stroke="rgb(28,0,227)" stroke-width="0.8"/>
<line x1="25.759" y1="103.071" x2="70.088" y2="79.0845" stroke="rgb(35,0,220)" stroke-width="0.8"/>
<line x1="70.088" y1="79.0845" x2="72.628" y2="79.0845" stroke="rgb(42,0,213)" stroke-width="0.8"/>
<line x1="72.628" y1="79.0845" x2="75.168" y2="79.0845" stroke="rgb(49,0,206)" stroke-width="0.8"/>
<line x1="75.168" y1="79.0845" x2="77.708" y2="79.0845" stroke="rgb(56,0,199)" stroke-width="0.8"/>
<line x1="77.708" y1="79.0845" x2="80.248" y2="79.0845" stroke="rgb(63,0,192)" stroke-width="0.8"/>
<line x1="80.248" y1="79.0845" x2="88.706" y2="94.4227" stroke="rgb(70,0,185)" stroke-width="0.8"/>
<line x1="88.706" y1="94.4227" x2="88.706" y2="96.9627" stroke="rgb(77,0,178)" stroke-width="0.8"/>
<line x1="88.706" y1="96.9627" x2="88.706" y2="99.5027" stroke="rgb(85,0,170)" stroke-width="0.8"/>
<line x1="88.706" y1="99.5027" x2="88.706" y2="102.043" stroke="rgb(92,0,163)" stroke-width="0.8"/>
<line x1="88.706" y1="102.043" x2="88.706" y2="104.583" stroke="rgb(99,0,156)" stroke-width="0.8"/>
<line x1="88.706" y1="104.583" x2="88.706" y2="107.123" stroke="rgb(106,0,149)" stroke-width="0.8"/>
<line x1="88.706" y1="107.123" x2="88.706" y2="109.663" stroke="rgb(113,0,142)" stroke-width="0.8"/>
<line x1="88.706" y1="109.663" x2="96.326" y2="109.663" stroke="rgb(120,0,135)" stroke-width="0.8"/>
<line x1="96.326" y1="109.663" x2="120" y2="120" stroke="rgb(127,0,128)" stroke-width="0.8"/>
<line x1="120" y1="120" x2="96.326" y2="107.123" stroke="rgb(134,0,121)" stroke-width="0.8"/>
<line x1="96.326" y1="107.123" x2="96.326" y2="104.583" stroke="rgb(141,0,114)" stroke-width="0.8"/>
<line x1="96.326" y1="104.583" x2="96.326" y2="102.043" stroke="rgb(148,0,107)" stroke-width="0.8"/>
<line x1="96.326" y1="102.043" x2="96.326" y2="99.5027" stroke="rgb(155,0,100)" stroke-width="0.8"/>
<line x1="96.326" y1="99.5027" x2="96.326" y2="96.9627" stroke="rgb(162,0,93)" stroke-width="0.8"/>
<line x1="96.326" y1="96.9627" x2="96.326" y2="94.4227" stroke="rgb(170,0,85)" stroke-width="0.8"/>
<line x1="96.326" y1="94.4227" x2="120" y2="5" stroke="rgb(177,0,78)" stroke-width="0.8"/>
<line x1="120" y1="5" x2="23.1862" y2="17.917" stroke="rgb(184,0,71)" stroke-width="0.8"/>
<line x1="23.1862" y1="17.917" x2="23.1862" y2="19.187" stroke="rgb(191,0,64)" stroke-width="0.8"/>
<line x1="23.1862" y1="19.187" x2="23.1862" y2="20.457" stroke="rgb(198,0,57)" stroke-width="0.8"/>
<line x1="23.1862" y1="20.457" x2="23.1862" y2="21.727" stroke="rgb(205,0,50)" stroke-width="0.8"/>
<line x1="23.1862" y1="21.727" x2="18.1062" y2="21.727" stroke="rgb(212,0,43)" stroke-width="0.8"/>
<line x1="18.1062" y1="21.727" x2="18.1062" y2="20.457" stroke="rgb(219,0,36)" stroke-width="0.8"/>
<line x1="18.1062" y1="20.457" x2="18.1062" y2="19.187" stroke="rgb(226,0,29)" stroke-width="0.8"/>
<line x1="18.1062" y1="19.187" x2="18.1062" y2="17.917" stroke="rgb(233,0,22)" stroke-width="0.8"/>
<line x1="18.1062" y1="17.917" x2="5" y2="5" stroke="rgb(240,0,15)" stroke-width="0.8"/>
<line x1="5" y1="5" x2="5" y2="5" stroke="rgb(247,0,8)" stroke-width="0.8"/>
</g>
<g>
<circle cx="5" cy="5" r="2" fill="blue"/>
<text x="7.5" y="5" font-family="Arial" font-size="5" fill="black">0</text>
<circle cx="120" cy="5" r="2" fill="blue"/>
<text x="122.5" y="5" font-family="Arial" font-size="5" fill="black">1</text>
<circle cx="5" cy="120" r="2" fill="blue"/>
<text x="7.5" y="120" font-family="Arial" font-size="5" fill="black">2</text>
<circle cx="120" cy="120" r="2" fill="blue"/>
<text x="122.5" y="120" font-family="Arial" font-size="5" fill="black">3</text>
<circle cx="88.706" cy="94.4227" r="2" fill="blue"/>
<text x="91.206" y="94.4227" font-family="Arial" font-size="5" fill="black">4</text>
<circle cx="88.706" cy="96.9627" r="2" fill="blue"/>
<text x="91.206" y="96.9627" font-family="Arial" font-size="5" fill="black">5</text>
<circle cx="88.706" cy="99.5027" r="2" fill="blue"/>
<text x="91.206" y="99.5027" font-family="Arial" font-size="5" fill="black">6</text>
<circle cx="88.706" cy="102.043" r="2" fill="blue"/>
<text x="91.206" y="102.043" font-family="Arial" font-size="5" fill="black">7</text>
<circle cx="88.706" cy="104.583" r="2" fill="blue"/>
<text x="91.206" y="104.583" font-family="Arial" font-size="5" fill="black">8</text>
<circle cx="88.706" cy="107.123" r="2" fill="blue"/>
<text x="91.206" y="107.123" font-family="Arial" font-size="5" fill="black">9</text>
<circle cx="88.706" cy="109.663" r="2" fill="blue"/>
<text x="91.206" y="109.663" font-family="Arial" font-size="5" fill="black">10</text>
<circle cx="96.326" cy="94.4227" r="2" fill="blue"/>
<text x="98.826" y="94.4227" font-family="Arial" font-size="5" fill="black">11</text>
<circle cx="96.326" cy="96.9627" r="2" fill="blue"/>
<text x="98.826" y="96.9627" font-family="Arial" font-size="5" fill="black">12</text>
<circle cx="96.326" cy="99.5027" r="2" fill="blue"/>
<text x="98.826" y="99.5027" font-family="Arial" font-size="5" fill="black">13</text>
<circle cx="96.326" cy="102.043" r="2" fill="blue"/>
<text x="98.826" y="102.043" font-family="Arial" font-size="5" fill="black">14</text>
<circle cx="96.326" cy="104.583" r="2" fill="blue"/>
<text x="98.826" y="104.583" font-family="Arial" font-size="5" fill="black">15</text>
<circle cx="96.326" cy="107.123" r="2" fill="blue"/>
<text x="98.826" y="107.123" font-family="Arial" font-size="5" fill="black">16</text>
<circle cx="96.326" cy="109.663" r="2" fill="blue"/>
<text x="98.826" y="109.663" font-family="Arial" font-size="5" fill="black">17</text>
<circle cx="70.088" cy="79.0845" r="2" fill="blue"/>
<text x="72.588" y="79.0845" font-family="Arial" font-size="5" fill="black">18</text>
<circle cx="72.628" cy="79.0845" r="2" fill="blue"/>
<text x="75.128" y="79.0845" font-family="Arial" font-size="5" fill="black">19</text>
<circle cx="75.168" cy="79.0845" r="2" fill="blue"/>
<text x="77.668" y="79.0845" font-family="Arial" font-size="5" fill="black">20</text>
<circle cx="77.708" cy="79.0845" r="2" fill="blue"/>
<text x="80.208" y="79.0845" font-family="Arial" font-size="5" fill="black">21</text>
<circle cx="80.248" cy="79.0845" r="2" fill="blue"/>
<text x="82.748" y="79.0845" font-family="Arial" font-size="5" fill="black">22</text>
<circle cx="15.599" cy="103.071" r="2" fill="blue"/>
<text x="18.099" y="103.071" font-family="Arial" font-size="5" fill="black">23</text>
<circle cx="18.139" cy="103.071" r="2" fill="blue"/>
<text x="20.639" y="103.071" font-family="Arial" font-size="5" fill="black">24</text>
<circle cx="20.679" cy="103.071" r="2" fill="blue"/>
<text x="23.179" y="103.071" font-family="Arial" font-size="5" fill="black">25</text>
<circle cx="23.219" cy="103.071" r="2" fill="blue"/>
<text x="25.719" y="103.071" font-family="Arial" font-size="5" fill="black">26</text>
<circle cx="25.759" cy="103.071" r="2" fill="blue"/>
<text x="28.259" y="103.071" font-family="Arial" font-size="5" fill="black">27</text>
<circle cx="18.1062" cy="17.917" r="2" fill="blue"/>
<text x="20.6062" y="17.917" font-family="Arial" font-size="5" fill="black">28</text>
<circle cx="18.1062" cy="19.187" r="2" fill="blue"/>
<text x="20.6062" y="19.187" font-family="Arial" font-size="5" fill="black">29</text>
<circle cx="18.1062" cy="20.457" r="2" fill="blue"/>
<text x="20.6062" y="20.457" font-family="Arial" font-size="5" fill="black">30</text>
<circle cx="18.1062" cy="21.727" r="2" fill="blue"/>
<text x="20.6062" y="21.727" font-family="Arial" font-size="5" fill="black">31</text>
<circle cx="23.1862" cy="17.917" r="2" fill="blue"/>
<text x="25.6862" y="17.917" font-family="Arial" font-size="5" fill="black">32</text>
<circle cx="23.1862" cy="19.187" r="2" fill="blue"/>
<text x="25.6862" y="19.187" font-family="Arial" font-size="5" fill="black">33</text>
<circle cx="23.1862" cy="20.457" r="2" fill="blue"/>
<text x="25.6862" y="20.457" font-family="Arial" font-size="5" fill="black">34</text>
<circle cx="23.1862" cy="21.727" r="2" fill="blue"/>
<text x="25.6862" y="21.727" font-family="Arial" font-size="5" fill="black">35</text>
</g>
</svg>
