<?xml version="1.0" encoding="UTF-8" standalone="no"?>
<svg xmlns="http://www.w3.org/2000/svg" width="800" height="800" viewBox="-150 -150 800 800">
<rect x="-150" y="-150" width="800" height="800" fill="white"/>
<g>
<line x1="16.6667" y1="16.6667" x2="288.877" y2="108.819" stroke="rgb(0,0,255)" stroke-width="2"/>
<line x1="288.877" y1="108.819" x2="419.043" y2="246.893" stroke="rgb(4,0,251)" stroke-width="2"/>
<line x1="419.043" y1="246.893" x2="263.477" y2="125.752" stroke="rgb(8,0,247)" stroke-width="2"/>
<line x1="263.477" y1="125.752" x2="435.976" y2="246.893" stroke="rgb(12,0,243)" stroke-width="2"/>
<line x1="435.976" y1="246.893" x2="313.55" y2="93.1813" stroke="rgb(17,0,238)" stroke-width="2"/>
<line x1="313.55" y1="93.1813" x2="124.454" y2="310.338" stroke="rgb(21,0,234)" stroke-width="2"/>
<line x1="124.454" y1="310.338" x2="124.454" y2="327.272" stroke="rgb(25,0,230)" stroke-width="2"/>
<line x1="124.454" y1="327.272" x2="99.0539" y2="361.138" stroke="rgb(30,0,225)" stroke-width="2"/>
<line x1="99.0539" y1="361.138" x2="60.7873" y2="325.776" stroke="rgb(34,0,221)" stroke-width="2"/>
<line x1="60.7873" y1="325.776" x2="60.7873" y2="342.71" stroke="rgb(38,0,217)" stroke-width="2"/>
<line x1="60.7873" y1="342.71" x2="296.617" y2="88.948" stroke="rgb(43,0,212)" stroke-width="2"/>
<line x1="296.617" y1="88.948" x2="60.7873" y2="334.243" stroke="rgb(47,0,208)" stroke-width="2"/>
<line x1="60.7873" y1="334.243" x2="263.477" y2="100.352" stroke="rgb(51,0,204)" stroke-width="2"/>
<line x1="263.477" y1="100.352" x2="99.0539" y2="335.738" stroke="rgb(56,0,199)" stroke-width="2"/>
<line x1="99.0539" y1="335.738" x2="296.617" y2="84.7146" stroke="rgb(60,0,195)" stroke-width="2"/>
<line x1="296.617" y1="84.7146" x2="288.877" y2="117.286" stroke="rgb(64,0,191)" stroke-width="2"/>
<line x1="288.877" y1="117.286" x2="296.617" y2="93.1813" stroke="rgb(69,0,186)" stroke-width="2"/>
<line x1="296.617" y1="93.1813" x2="313.55" y2="80.4813" stroke="rgb(73,0,182)" stroke-width="2"/>
<line x1="313.55" y1="80.4813" x2="124.454" y2="352.672" stroke="rgb(77,0,178)" stroke-width="2"/>
<line x1="124.454" y1="352.672" x2="483.333" y2="16.6667" stroke="rgb(82,0,173)" stroke-width="2"/>
<line x1="483.333" y1="16.6667" x2="288.877" y2="134.219" stroke="rgb(86,0,169)" stroke-width="2"/>
<line x1="288.877" y1="134.219" x2="124.454" y2="335.738" stroke="rgb(90,0,165)" stroke-width="2"/>
<line x1="124.454" y1="335.738" x2="263.477" y2="142.686" stroke="rgb(95,0,160)" stroke-width="2"/>
<line x1="263.477" y1="142.686" x2="60.7873" y2="359.643" stroke="rgb(99,0,156)" stroke-width="2"/>
<line x1="60.7873" y1="359.643" x2="16.6667" y2="483.333" stroke="rgb(103,0,152)" stroke-width="2"/>
<line x1="16.6667" y1="483.333" x2="288.877" y2="125.752" stroke="rgb(108,0,147)" stroke-width="2"/>
<line x1="288.877" y1="125.752" x2="263.477" y2="134.219" stroke="rgb(112,0,143)" stroke-width="2"/>
<line x1="263.477" y1="134.219" x2="99.0539" y2="352.672" stroke="rgb(116,0,139)" stroke-width="2"/>
<line x1="99.0539" y1="352.672" x2="313.55" y2="84.7146" stroke="rgb(121,0,134)" stroke-width="2"/>
<line x1="313.55" y1="84.7146" x2="288.877" y2="151.152" stroke="rgb(125,0,130)" stroke-width="2"/>
<line x1="288.877" y1="151.152" x2="263.477" y2="117.286" stroke="rgb(129,0,126)" stroke-width="2"/>
<line x1="263.477" y1="117.286" x2="60.7873" y2="351.176" stroke="rgb(133,0,122)" stroke-width="2"/>
<line x1="60.7873" y1="351.176" x2="86.1873" y2="317.31" stroke="rgb(138,0,117)" stroke-width="2"/>
<line x1="86.1873" y1="317.31" x2="124.454" y2="344.205" stroke="rgb(142,0,113)" stroke-width="2"/>
<line x1="124.454" y1="344.205" x2="444.443" y2="246.893" stroke="rgb(146,0,109)" stroke-width="2"/>
<line x1="444.443" y1="246.893" x2="483.333" y2="483.333" stroke="rgb(151,0,104)" stroke-width="2"/>
<line x1="483.333" y1="483.333" x2="99.0539" y2="318.805" stroke="rgb(155,0,100)" stroke-width="2"/>
<line x1="99.0539" y1="318.805" x2="99.0539" y2="310.338" stroke="rgb(159,0,96)" stroke-width="2"/>
<line x1="99.0539" y1="310.338" x2="86.1873" y2="325.776" stroke="rgb(164,0,91)" stroke-width="2"/>
<line x1="86.1873" y1="325.776" x2="296.617" y2="80.4813" stroke="rgb(168,0,87)" stroke-width="2"/>
<line x1="296.617" y1="80.4813" x2="288.877" y2="142.686" stroke="rgb(172,0,83)" stroke-width="2"/>
<line x1="288.877" y1="142.686" x2="99.0539" y2="327.272" stroke="rgb(177,0,78)" stroke-width="2"/>
<line x1="99.0539" y1="327.272" x2="60.7873" y2="317.31" stroke="rgb(181,0,74)" stroke-width="2"/>
<line x1="60.7873" y1="317.31" x2="124.454" y2="318.805" stroke="rgb(185,0,70)" stroke-width="2"/>
<line x1="124.454" y1="318.805" x2="86.1873" y2="308.843" stroke="rgb(190,0,65)" stroke-width="2"/>
<line x1="86.1873" y1="308.843" x2="86.1873" y2="351.176" stroke="rgb(194,0,61)" stroke-width="2"/>
<line x1="86.1873" y1="351.176" x2="263.477" y2="108.819" stroke="rgb(198,0,57)" stroke-width="2"/>
<line x1="263.477" y1="108.819" x2="86.1873" y2="342.71" stroke="rgb(203,0,52)" stroke-width="2"/>
<line x1="86.1873" y1="342.71" x2="427.509" y2="246.893" stroke="rgb(207,0,48)" stroke-width="2"/>
<line x1="427.509" y1="246.893" x2="60.7873" y2="308.843" stroke="rgb(211,0,44)" stroke-width="2"/>
<line x1="60.7873" y1="308.843" x2="86.1873" y2="359.643" stroke="rgb(216,0,39)" stroke-width="2"/>
<line x1="86.1873" y1="359.643" x2="99.0539" y2="344.205" stroke="rgb(220,0,35)" stroke-width="2"/>
<line x1="99.0539" y1="344.205" x2="288.877" y2="100.352" stroke="rgb(224,0,31)" stroke-width="2"/>
<line x1="288.877" y1="100.352" x2="86.1873" y2="334.243" stroke="rgb(229,0,26)" stroke-width="2"/>
<line x1="86.1873" y1="334.243" x2="452.909" y2="246.893" stroke="rgb(233,0,22)" stroke-width="2"/>
<line x1="452.909" y1="246.893" x2="313.55" y2="88.948" stroke="rgb(237,0,18)" stroke-width="2"/>
<line x1="313.55" y1="88.948" x2="124.454" y2="361.138" stroke="rgb(242,0,13)" stroke-width="2"/>
<line x1="124.454" y1="361.138" x2="263.477" y2="151.152" stroke="rgb(246,0,9)" stroke-width="2"/>
<line x1="263.477" y1="151.152" x2="16.6667" y2="16.6667" stroke="rgb(250,0,5)" stroke-width="2"/>
</g>
<g>
<circle cx="16.6667" cy="16.6667" r="8" fill="blue"/>
<text x="31.6667" y="21.6667" font-family="Arial" font-size="12" fill="black">0</text>
<circle cx="483.333" cy="16.6667" r="8" fill="blue"/>
<text x="498.333" y="21.6667" font-family="Arial" font-size="12" fill="black">1</text>
<circle cx="16.6667" cy="483.333" r="8" fill="blue"/>
<text x="31.6667" y="488.333" font-family="Arial" font-size="12" fill="black">2</text>
<circle cx="483.333" cy="483.333" r="8" fill="blue"/>
<text x="498.333" y="488.333" font-family="Arial" font-size="12" fill="black">3</text>
<circle cx="296.617" cy="80.4813" r="8" fill="blue"/>
<text x="311.617" y="85.4813" font-family="Arial" font-size="12" fill="black">4</text>
<circle cx="296.617" cy="84.7146" r="8" fill="blue"/>
<text x="311.617" y="89.7146" font-family="Arial" font-size="12" fill="black">5</text>
<circle cx="296.617" cy="88.948" r="8" fill="blue"/>
<text x="311.617" y="93.948" font-family="Arial" font-size="12" fill="black">6</text>
<circle cx="296.617" cy="93.1813" r="8" fill="blue"/>
<text x="311.617" y="98.1813" font-family="Arial" font-size="12" fill="black">7</text>
<circle cx="313.55" cy="80.4813" r="8" fill="blue"/>
<text x="328.55" y="85.4813" font-family="Arial" font-size="12" fill="black">8</text>
<circle cx="313.55" cy="84.7146" r="8" fill="blue"/>
<text x="328.55" y="89.7146" font-family="Arial" font-size="12" fill="black">9</text>
<circle cx="313.55" cy="88.948" r="8" fill="blue"/>
<text x="328.55" y="93.948" font-family="Arial" font-size="12" fill="black">10</text>
<circle cx="313.55" cy="93.1813" r="8" fill="blue"/>
<text x="328.55" y="98.1813" font-family="Arial" font-size="12" fill="black">11</text>
<circle cx="263.477" cy="100.352" r="8" fill="blue"/>
<text x="278.477" y="105.352" font-family="Arial" font-size="12" fill="black">12</text>
<circle cx="263.477" cy="108.819" r="8" fill="blue"/>
<text x="278.477" y="113.819" font-family="Arial" font-size="12" fill="black">13</text>
<circle cx="263.477" cy="117.286" r="8" fill="blue"/>
<text x="278.477" y="122.286" font-family="Arial" font-size="12" fill="black">14</text>
<circle cx="263.477" cy="125.752" r="8" fill="blue"/>
<text x="278.477" y="130.752" font-family="Arial" font-size="12" fill="black">15</text>
<circle cx="263.477" cy="134.219" r="8" fill="blue"/>
<text x="278.477" y="139.219" font-family="Arial" font-size="12" fill="black">16</text>
<circle cx="263.477" cy="142.686" r="8" fill="blue"/>
<text x="278.477" y="147.686" font-family="Arial" font-size="12" fill="black">17</text>
<circle cx="263.477" cy="151.152" r="8" fill="blue"/>
<text x="278.477" y="156.152" font-family="Arial" font-size="12" fill="black">18</text>
<circle cx="288.877" cy="100.352" r="8" fill="blue"/>
<text x="303.877" y="105.352" font-family="Arial" font-size="12" fill="black">19</text>
<circle cx="288.877" cy="108.819" r="8" fill="blue"/>
<text x="303.877" y="113.819" font-family="Arial" font-size="12" fill="black">20</text>
<circle cx="288.877" cy="117.286" r="8" fill="blue"/>
<text x="303.877" y="122.286" font-family="Arial" font-size="12" fill="black">21</text>
<circle cx="288.877" cy="125.752" r="8" fill="blue"/>
<text x="303.877" y="130.752" font-family="Arial" font-size="12" fill="black">22</text>
<circle cx="288.877" cy="134.219" r="8" fill="blue"/>
<text x="303.877" y="139.219" font-family="Arial" font-size="12" fill="black">23</text>
<circle cx="288.877" cy="142.686" r="8" fill="blue"/>
<text x="303.877" y="147.686" font-family="Arial" font-size="12" fill="black">24</text>
<circle cx="288.877" cy="151.152" r="8" fill="blue"/>
<text x="303.877" y="156.152" font-family="Arial" font-size="12" fill="black">25</text>
<circle cx="419.043" cy="246.893" r="8" fill="blue"/>
<text x="434.043" y="251.893" font-family="Arial" font-size="12" fill="black">26</text>
<circle cx="427.509" cy="246.893" r="8" fill="blue"/>
<text x="442.509" y="251.893" font-family="Arial" font-size="12" fill="black">27</text>
<circle cx="435.976" cy="246.893" r="8" fill="blue"/>
<text x="450.976" y="251.893" font-family="Arial" font-size="12" fill="black">28</text>
<circle cx="444.443" cy="246.893" r="8" fill="blue"/>
<text x="459.443" y="251.893" font-family="Arial" font-size="12" fill="black">29</text>
<circle cx="452.909" cy="246.893" r="8" fill="blue"/>
<text x="467.909" y="251.893" font-family="Arial" font-size="12" fill="black">30</text>
<circle cx="60.7873" cy="308.843" r="8" fill="blue"/>
<text x="75.7873" y="313.843" font-family="Arial" font-size="12" fill="black">31</text>
<circle cx="60.7873" cy="317.31" r="8" fill="blue"/>
<text x="75.7873" y="322.31" font-family="Arial" font-size="12" fill="black">32</text>
<circle cx="60.7873" cy="325.776" r="8" fill="blue"/>
<text x="75.7873" y="330.776" font-family="Arial" font-size="12" fill="black">33</text>
<circle cx="60.7873" cy="334.243" r="8" fill="blue"/>
<text x="75.7873" y="339.243" font-family="Arial" font-size="12" fill="black">34</text>
<circle cx="60.7873" cy="342.71" r="8" fill="blue"/>
<text x="75.7873" y="347.71" font-family="Arial" font-size="12" fill="black">35</text>
<circle cx="60.7873" cy="351.176" r="8" fill="blue"/>
<text x="75.7873" y="356.176" font-family="Arial" font-size="12" fill="black">36</text>
<circle cx="60.7873" cy="359.643" r="8" fill="blue"/>
<text x="75.7873" y="364.643" font-family="Arial" font-size="12" fill="black">37</text>
<circle cx="86.1873" cy="308.843" r="8" fill="blue"/>
<text x="101.187" y="313.843" font-family="Arial" font-size="12" fill="black">38</text>
<circle cx="86.1873" cy="317.31" r="8" fill="blue"/>
<text x="101.187" y="322.31" font-family="Arial" font-size="12" fill="black">39</text>
<circle cx="86.1873" cy="325.776" r="8" fill="blue"/>
<text x="101.187" y="330.776" font-family="Arial" font-size="12" fill="black">40</text>
<circle cx="86.1873" cy="334.243" r="8" fill="blue"/>
<text x="101.187" y="339.243" font-family="Arial" font-size="12" fill="black">41</text>
<circle cx="86.1873" cy="342.71" r="8" fill="blue"/>
<text x="101.187" y="347.71" font-family="Arial" font-size="12" fill="black">42</text>
<circle cx="86.1873" cy="351.176" r="8" fill="blue"/>
<text x="101.187" y="356.176" font-family="Arial" font-size="12" fill="black">43</text>
<circle cx="86.1873" cy="359.643" r="8" fill="blue"/>
<text x="101.187" y="364.643" font-family="Arial" font-size="12" fill="black">44</text>
<circle cx="99.0539" cy="310.338" r="8" fill="blue"/>
<text x="114.054" y="315.338" font-family="Arial" font-size="12" fill="black">45</text>
<circle cx="99.0539" cy="318.805" r="8" fill="blue"/>
<text x="114.054" y="323.805" font-family="Arial" font-size="12" fill="black">46</text>
<circle cx="99.0539" cy="327.272" r="8" fill="blue"/>
<text x="114.054" y="332.272" font-family="Arial" font-size="12" fill="black">47</text>
<circle cx="99.0539" cy="335.738" r="8" fill="blue"/>
<text x="114.054" y="340.738" font-family="Arial" font-size="12" fill="black">48</text>
<circle cx="99.0539" cy="344.205" r="8" fill="blue"/>
<text x="114.054" y="349.205" font-family="Arial" font-size="12" fill="black">49</text>
<circle cx="99.0539" cy="352.672" r="8" fill="blue"/>
<text x="114.054" y="357.672" font-family="Arial" font-size="12" fill="black">50</text>
<circle cx="99.0539" cy="361.138" r="8" fill="blue"/>
<text x="114.054" y="366.138" font-family="Arial" font-size="12" fill="black">51</text>
<circle cx="124.454" cy="310.338" r="8" fill="blue"/>
<text x="139.454" y="315.338" font-family="Arial" font-size="12" fill="black">52</text>
<circle cx="124.454" cy="318.805" r="8" fill="blue"/>
<text x="139.454" y="323.805" font-family="Arial" font-size="12" fill="black">53</text>
<circle cx="124.454" cy="327.272" r="8" fill="blue"/>
<text x="139.454" y="332.272" font-family="Arial" font-size="12" fill="black">54</text>
<circle cx="124.454" cy="335.738" r="8" fill="blue"/>
<text x="139.454" y="340.738" font-family="Arial" font-size="12" fill="black">55</text>
<circle cx="124.454" cy="344.205" r="8" fill="blue"/>
<text x="139.454" y="349.205" font-family="Arial" font-size="12" fill="black">56</text>
<circle cx="124.454" cy="352.672" r="8" fill="blue"/>
<text x="139.454" y="357.672" font-family="Arial" font-size="12" fill="black">57</text>
<circle cx="124.454" cy="361.138" r="8" fill="blue"/>
<text x="139.454" y="366.138" font-family="Arial" font-size="12" fill="black">58</text>
</g>
<text x="-125" y="-125" font-family="Arial" font-size="14.4" fill="black">Iteration: 0 Cost: 3625.71</text>
</svg>
