<?xml version="1.0" encoding="UTF-8" standalone="no"?>
<svg xmlns="http://www.w3.org/2000/svg" viewBox="-5 -5 85 85">
<rect x="-5" y="-5" width="85" height="85" fill="white"/>
<text x="0" y="10" font-family="Arial" font-size="10" fill="black">Iteration: 0 | Cost: 860.80</text>
<g>
<line x1="5.00" y1="5.00" x2="47.60" y2="62.15" stroke="rgb(0,0,255)" stroke-width="0.8"/>
<line x1="47.60" y1="62.15" x2="48.62" y2="54.03" stroke="rgb(9,0,246)" stroke-width="0.8"/>
<line x1="48.62" y1="54.03" x2="56.24" y2="56.57" stroke="rgb(18,0,237)" stroke-width="0.8"/>
<line x1="56.24" y1="56.57" x2="36.54" y2="10.84" stroke="rgb(27,0,228)" stroke-width="0.8"/>
<line x1="36.54" y1="10.84" x2="48.62" y2="59.11" stroke="rgb(36,0,219)" stroke-width="0.8"/>
<line x1="48.62" y1="59.11" x2="48.62" y2="56.57" stroke="rgb(45,0,210)" stroke-width="0.8"/>
<line x1="48.62" y1="56.57" x2="5.00" y2="70.00" stroke="rgb(54,0,201)" stroke-width="0.8"/>
<line x1="5.00" y1="70.00" x2="56.24" y2="59.11" stroke="rgb(63,0,192)" stroke-width="0.8"/>
<line x1="56.24" y1="59.11" x2="70.00" y2="5.00" stroke="rgb(72,0,183)" stroke-width="0.8"/>
<line x1="70.00" y1="5.00" x2="70.00" y2="70.00" stroke="rgb(81,0,174)" stroke-width="0.8"/>
<line x1="70.00" y1="70.00" x2="56.24" y2="43.87" stroke="rgb(91,0,164)" stroke-width="0.8"/>
<line x1="56.24" y1="43.87" x2="56.24" y2="54.03" stroke="rgb(100,0,155)" stroke-width="0.8"/>
<line x1="56.24" y1="54.03" x2="48.62" y2="51.49" stroke="rgb(109,0,146)" stroke-width="0.8"/>
<line x1="48.62" y1="51.49" x2="37.44" y2="62.15" stroke="rgb(118,0,137)" stroke-width="0.8"/>
<line x1="37.44" y1="62.15" x2="56.24" y2="46.41" stroke="rgb(127,0,128)" stroke-width="0.8"/>
<line x1="56.24" y1="46.41" x2="45.06" y2="62.15" stroke="rgb(136,0,119)" stroke-width="0.8"/>
<line x1="45.06" y1="62.15" x2="31.46" y2="10.84" stroke="rgb(145,0,110)" stroke-width="0.8"/>
<line x1="31.46" y1="10.84" x2="48.62" y2="46.41" stroke="rgb(154,0,101)" stroke-width="0.8"/>
<line x1="48.62" y1="46.41" x2="56.24" y2="51.49" stroke="rgb(163,0,92)" stroke-width="0.8"/>
<line x1="56.24" y1="51.49" x2="48.62" y2="43.87" stroke="rgb(173,0,82)" stroke-width="0.8"/>
<line x1="48.62" y1="43.87" x2="42.52" y2="62.15" stroke="rgb(182,0,73)" stroke-width="0.8"/>
<line x1="42.52" y1="62.15" x2="56.24" y2="48.95" stroke="rgb(191,0,64)" stroke-width="0.8"/>
<line x1="56.24" y1="48.95" x2="28.92" y2="10.84" stroke="rgb(200,0,55)" stroke-width="0.8"/>
<line x1="28.92" y1="10.84" x2="39.08" y2="10.84" stroke="rgb(209,0,46)" stroke-width="0.8"/>
<line x1="39.08" y1="10.84" x2="39.98" y2="62.15" stroke="rgb(218,0,37)" stroke-width="0.8"/>
<line x1="39.98" y1="62.15" x2="48.62" y2="48.95" stroke="rgb(227,0,28)" stroke-width="0.8"/>
<line x1="48.62" y1="48.95" x2="34.00" y2="10.84" stroke="rgb(236,0,19)" stroke-width="0.8"/>
<line x1="34.00" y1="10.84" x2="5.00" y2="5.00" stroke="rgb(245,0,10)" stroke-width="0.8"/>
</g>
<g>
<circle cx="5.00" cy="5.00" r="2" fill="blue"/>
<text x="7.50" y="5.00" font-family="Arial" font-size="5" fill="black">0</text>
<circle cx="70.00" cy="5.00" r="2" fill="blue"/>
<text x="72.50" y="5.00" font-family="Arial" font-size="5" fill="black">1</text>
<circle cx="5.00" cy="70.00" r="2" fill="blue"/>
<text x="7.50" y="70.00" font-family="Arial" font-size="5" fill="black">2</text>
<circle cx="70.00" cy="70.00" r="2" fill="blue"/>
<text x="72.50" y="70.00" font-family="Arial" font-size="5" fill="black">3</text>
<circle cx="37.44" cy="62.15" r="2" fill="blue"/>
<text x="39.94" y="62.15" font-family="Arial" font-size="5" fill="black">4</text>
<circle cx="39.98" cy="62.15" r="2" fill="blue"/>
<text x="42.48" y="62.15" font-family="Arial" font-size="5" fill="black">5</text>
<circle cx="42.52" cy="62.15" r="2" fill="blue"/>
<text x="45.02" y="62.15" font-family="Arial" font-size="5" fill="black">6</text>
<circle cx="45.06" cy="62.15" r="2" fill="blue"/>
<text x="47.56" y="62.15" font-family="Arial" font-size="5" fill="black">7</text>
<circle cx="47.60" cy="62.15" r="2" fill="blue"/>
<text x="50.10" y="62.15" font-family="Arial" font-size="5" fill="black">8</text>
<circle cx="28.92" cy="10.84" r="2" fill="blue"/>
<text x="31.42" y="10.84" font-family="Arial" font-size="5" fill="black">9</text>
<circle cx="31.46" cy="10.84" r="2" fill="blue"/>
<text x="33.96" y="10.84" font-family="Arial" font-size="5" fill="black">10</text>
<circle cx="34.00" cy="10.84" r="2" fill="blue"/>
<text x="36.50" y="10.84" font-family="Arial" font-size="5" fill="black">11</text>
<circle cx="36.54" cy="10.84" r="2" fill="blue"/>
<text x="39.04" y="10.84" font-family="Arial" font-size="5" fill="black">12</text>
<circle cx="39.08" cy="10.84" r="2" fill="blue"/>
<text x="41.58" y="10.84" font-family="Arial" font-size="5" fill="black">13</text>
<circle cx="48.62" cy="43.87" r="2" fill="blue"/>
<text x="51.12" y="43.87" font-family="Arial" font-size="5" fill="black">14</text>
<circle cx="48.62" cy="46.41" r="2" fill="blue"/>
<text x="51.12" y="46.41" font-family="Arial" font-size="5" fill="black">15</text>
<circle cx="48.62" cy="48.95" r="2" fill="blue"/>
<text x="51.12" y="48.95" font-family="Arial" font-size="5" fill="black">16</text>
<circle cx="48.62" cy="51.49" r="2" fill="blue"/>
<text x="51.12" y="51.49" font-family="Arial" font-size="5" fill="black">17</text>
<circle cx="48.62" cy="54.03" r="2" fill="blue"/>
<text x="51.12" y="54.03" font-family="Arial" font-size="5" fill="black">18</text>
<circle cx="48.62" cy="56.57" r="2" fill="blue"/>
<text x="51.12" y="56.57" font-family="Arial" font-size="5" fill="black">19</text>
<circle cx="48.62" cy="59.11" r="2" fill="blue"/>
<text x="51.12" y="59.11" font-family="Arial" font-size="5" fill="black">20</text>
<circle cx="56.24" cy="43.87" r="2" fill="blue"/>
<text x="58.74" y="43.87" font-family="Arial" font-size="5" fill="black">21</text>
<circle cx="56.24" cy="46.41" r="2" fill="blue"/>
<text x="58.74" y="46.41" font-family="Arial" font-size="5" fill="black">22</text>
<circle cx="56.24" cy="48.95" r="2" fill="blue"/>
<text x="58.74" y="48.95" font-family="Arial" font-size="5" fill="black">23</text>
<circle cx="56.24" cy="51.49" r="2" fill="blue"/>
<text x="58.74" y="51.49" font-family="Arial" font-size="5" fill="black">24</text>
<circle cx="56.24" cy="54.03" r="2" fill="blue"/>
<text x="58.74" y="54.03" font-family="Arial" font-size="5" fill="black">25</text>
<circle cx="56.24" cy="56.57" r="2" fill="blue"/>
<text x="58.74" y="56.57" font-family="Arial" font-size="5" fill="black">26</text>
<circle cx="56.24" cy="59.11" r="2" fill="blue"/>
<text x="58.74" y="59.11" font-family="Arial" font-size="5" fill="black">27</text>
</g>
</svg>
