<?xml version="1.0" encoding="UTF-8" standalone="no"?>
<svg xmlns="http://www.w3.org/2000/svg" width="1760" height="800" viewBox="-150 -150 1760 800">
<g transform="translate(0,0)">
<rect x="-150" y="-150" width="800" height="800" fill="white"/>
<g>
<line x1="16.6667" y1="16.6667" x2="54.7427" y2="279.022" stroke="rgb(128,0,127)" stroke-width="2"/>
<line x1="54.7427" y1="279.022" x2="482.378" y2="205.6" stroke="rgb(128,0,127)" stroke-width="2"/>
<line x1="482.378" y1="205.6" x2="17.4163" y2="369.558" stroke="rgb(128,0,127)" stroke-width="2"/>
<line x1="17.4163" y1="369.558" x2="482.378" y2="171.733" stroke="rgb(128,0,127)" stroke-width="2"/>
<line x1="482.378" y1="171.733" x2="114.282" y2="185.913" stroke="rgb(128,0,127)" stroke-width="2"/>
<line x1="114.282" y1="185.913" x2="139.682" y2="211.313" stroke="rgb(128,0,127)" stroke-width="2"/>
<line x1="139.682" y1="211.313" x2="191.284" y2="119.01" stroke="rgb(128,0,127)" stroke-width="2"/>
<line x1="191.284" y1="119.01" x2="482.378" y2="214.066" stroke="rgb(128,0,127)" stroke-width="2"/>
<line x1="482.378" y1="214.066" x2="34.3496" y2="369.558" stroke="rgb(128,0,127)" stroke-width="2"/>
<line x1="34.3496" y1="369.558" x2="80.1427" y2="279.022" stroke="rgb(128,0,127)" stroke-width="2"/>
<line x1="80.1427" y1="279.022" x2="216.684" y2="152.877" stroke="rgb(128,0,127)" stroke-width="2"/>
<line x1="216.684" y1="152.877" x2="191.284" y2="152.877" stroke="rgb(128,0,127)" stroke-width="2"/>
<line x1="191.284" y1="152.877" x2="216.684" y2="161.343" stroke="rgb(128,0,127)" stroke-width="2"/>
<line x1="216.684" y1="161.343" x2="139.682" y2="185.913" stroke="rgb(128,0,127)" stroke-width="2"/>
<line x1="139.682" y1="185.913" x2="114.282" y2="160.513" stroke="rgb(128,0,127)" stroke-width="2"/>
<line x1="114.282" y1="160.513" x2="456.978" y2="214.066" stroke="rgb(128,0,127)" stroke-width="2"/>
<line x1="456.978" y1="214.066" x2="191.284" y2="110.543" stroke="rgb(128,0,127)" stroke-width="2"/>
<line x1="191.284" y1="110.543" x2="216.684" y2="110.543" stroke="rgb(128,0,127)" stroke-width="2"/>
<line x1="216.684" y1="110.543" x2="216.684" y2="119.01" stroke="rgb(128,0,127)" stroke-width="2"/>
<line x1="216.684" y1="119.01" x2="456.978" y2="205.6" stroke="rgb(128,0,127)" stroke-width="2"/>
<line x1="456.978" y1="205.6" x2="456.978" y2="180.2" stroke="rgb(128,0,127)" stroke-width="2"/>
<line x1="456.978" y1="180.2" x2="34.3496" y2="378.024" stroke="rgb(128,0,127)" stroke-width="2"/>
<line x1="34.3496" y1="378.024" x2="71.676" y2="279.022" stroke="rgb(128,0,127)" stroke-width="2"/>
<line x1="71.676" y1="279.022" x2="17.4163" y2="378.024" stroke="rgb(128,0,127)" stroke-width="2"/>
<line x1="17.4163" y1="378.024" x2="456.978" y2="197.133" stroke="rgb(128,0,127)" stroke-width="2"/>
<line x1="456.978" y1="197.133" x2="482.378" y2="188.666" stroke="rgb(128,0,127)" stroke-width="2"/>
<line x1="482.378" y1="188.666" x2="139.682" y2="202.846" stroke="rgb(128,0,127)" stroke-width="2"/>
<line x1="139.682" y1="202.846" x2="191.284" y2="127.477" stroke="rgb(128,0,127)" stroke-width="2"/>
<line x1="191.284" y1="127.477" x2="17.4163" y2="373.791" stroke="rgb(128,0,127)" stroke-width="2"/>
<line x1="17.4163" y1="373.791" x2="17.4163" y2="365.324" stroke="rgb(128,0,127)" stroke-width="2"/>
<line x1="17.4163" y1="365.324" x2="216.684" y2="144.41" stroke="rgb(128,0,127)" stroke-width="2"/>
<line x1="216.684" y1="144.41" x2="114.282" y2="202.846" stroke="rgb(128,0,127)" stroke-width="2"/>
<line x1="114.282" y1="202.846" x2="482.378" y2="197.133" stroke="rgb(128,0,127)" stroke-width="2"/>
<line x1="482.378" y1="197.133" x2="63.2093" y2="279.022" stroke="rgb(128,0,127)" stroke-width="2"/>
<line x1="63.2093" y1="279.022" x2="139.682" y2="177.446" stroke="rgb(128,0,127)" stroke-width="2"/>
<line x1="139.682" y1="177.446" x2="456.978" y2="163.266" stroke="rgb(128,0,127)" stroke-width="2"/>
<line x1="456.978" y1="163.266" x2="483.333" y2="483.333" stroke="rgb(128,0,127)" stroke-width="2"/>
<line x1="483.333" y1="483.333" x2="139.682" y2="160.513" stroke="rgb(128,0,127)" stroke-width="2"/>
<line x1="139.682" y1="160.513" x2="139.682" y2="168.98" stroke="rgb(128,0,127)" stroke-width="2"/>
<line x1="139.682" y1="168.98" x2="191.284" y2="135.943" stroke="rgb(128,0,127)" stroke-width="2"/>
<line x1="191.284" y1="135.943" x2="16.6667" y2="483.333" stroke="rgb(128,0,127)" stroke-width="2"/>
<line x1="16.6667" y1="483.333" x2="216.684" y2="135.943" stroke="rgb(128,0,127)" stroke-width="2"/>
<line x1="216.684" y1="135.943" x2="483.333" y2="16.6667" stroke="rgb(128,0,127)" stroke-width="2"/>
<line x1="483.333" y1="16.6667" x2="34.3496" y2="373.791" stroke="rgb(128,0,127)" stroke-width="2"/>
<line x1="34.3496" y1="373.791" x2="114.282" y2="211.313" stroke="rgb(128,0,127)" stroke-width="2"/>
<line x1="114.282" y1="211.313" x2="139.682" y2="194.38" stroke="rgb(128,0,127)" stroke-width="2"/>
<line x1="139.682" y1="194.38" x2="191.284" y2="161.343" stroke="rgb(128,0,127)" stroke-width="2"/>
<line x1="191.284" y1="161.343" x2="482.378" y2="163.266" stroke="rgb(128,0,127)" stroke-width="2"/>
<line x1="482.378" y1="163.266" x2="456.978" y2="171.733" stroke="rgb(128,0,127)" stroke-width="2"/>
<line x1="456.978" y1="171.733" x2="482.378" y2="180.2" stroke="rgb(128,0,127)" stroke-width="2"/>
<line x1="482.378" y1="180.2" x2="456.978" y2="188.666" stroke="rgb(128,0,127)" stroke-width="2"/>
<line x1="456.978" y1="188.666" x2="114.282" y2="194.38" stroke="rgb(128,0,127)" stroke-width="2"/>
<line x1="114.282" y1="194.38" x2="216.684" y2="127.477" stroke="rgb(128,0,127)" stroke-width="2"/>
<line x1="216.684" y1="127.477" x2="114.282" y2="168.98" stroke="rgb(128,0,127)" stroke-width="2"/>
<line x1="114.282" y1="168.98" x2="191.284" y2="144.41" stroke="rgb(128,0,127)" stroke-width="2"/>
<line x1="191.284" y1="144.41" x2="34.3496" y2="365.324" stroke="rgb(128,0,127)" stroke-width="2"/>
<line x1="34.3496" y1="365.324" x2="114.282" y2="177.446" stroke="rgb(128,0,127)" stroke-width="2"/>
<line x1="114.282" y1="177.446" x2="88.6093" y2="279.022" stroke="rgb(128,0,127)" stroke-width="2"/>
<line x1="88.6093" y1="279.022" x2="16.6667" y2="16.6667" stroke="rgb(128,0,127)" stroke-width="2"/>
</g>
<g>
<circle cx="16.6667" cy="16.6667" r="8" fill="blue"/>
<text x="31.6667" y="21.6667" font-family="Arial" font-size="12" fill="black">0</text>
<circle cx="483.333" cy="16.6667" r="8" fill="blue"/>
<text x="498.333" y="21.6667" font-family="Arial" font-size="12" fill="black">1</text>
<circle cx="16.6667" cy="483.333" r="8" fill="blue"/>
<text x="31.6667" y="488.333" font-family="Arial" font-size="12" fill="black">2</text>
<circle cx="483.333" cy="483.333" r="8" fill="blue"/>
<text x="498.333" y="488.333" font-family="Arial" font-size="12" fill="black">3</text>
<circle cx="17.4163" cy="365.324" r="8" fill="blue"/>
<text x="32.4163" y="370.324" font-family="Arial" font-size="12" fill="black">4</text>
<circle cx="17.4163" cy="369.558" r="8" fill="blue"/>
<text x="32.4163" y="374.558" font-family="Arial" font-size="12" fill="black">5</text>
<circle cx="17.4163" cy="373.791" r="8" fill="blue"/>
<text x="32.4163" y="378.791" font-family="Arial" font-size="12" fill="black">6</text>
<circle cx="17.4163" cy="378.024" r="8" fill="blue"/>
<text x="32.4163" y="383.024" font-family="Arial" font-size="12" fill="black">7</text>
<circle cx="34.3496" cy="365.324" r="8" fill="blue"/>
<text x="49.3496" y="370.324" font-family="Arial" font-size="12" fill="black">8</text>
<circle cx="34.3496" cy="369.558" r="8" fill="blue"/>
<text x="49.3496" y="374.558" font-family="Arial" font-size="12" fill="black">9</text>
<circle cx="34.3496" cy="373.791" r="8" fill="blue"/>
<text x="49.3496" y="378.791" font-family="Arial" font-size="12" fill="black">10</text>
<circle cx="34.3496" cy="378.024" r="8" fill="blue"/>
<text x="49.3496" y="383.024" font-family="Arial" font-size="12" fill="black">11</text>
<circle cx="114.282" cy="160.513" r="8" fill="blue"/>
<text x="129.282" y="165.513" font-family="Arial" font-size="12" fill="black">12</text>
<circle cx="114.282" cy="168.98" r="8" fill="blue"/>
<text x="129.282" y="173.98" font-family="Arial" font-size="12" fill="black">13</text>
<circle cx="114.282" cy="177.446" r="8" fill="blue"/>
<text x="129.282" y="182.446" font-family="Arial" font-size="12" fill="black">14</text>
<circle cx="114.282" cy="185.913" r="8" fill="blue"/>
<text x="129.282" y="190.913" font-family="Arial" font-size="12" fill="black">15</text>
<circle cx="114.282" cy="194.38" r="8" fill="blue"/>
<text x="129.282" y="199.38" font-family="Arial" font-size="12" fill="black">16</text>
<circle cx="114.282" cy="202.846" r="8" fill="blue"/>
<text x="129.282" y="207.846" font-family="Arial" font-size="12" fill="black">17</text>
<circle cx="114.282" cy="211.313" r="8" fill="blue"/>
<text x="129.282" y="216.313" font-family="Arial" font-size="12" fill="black">18</text>
<circle cx="139.682" cy="160.513" r="8" fill="blue"/>
<text x="154.682" y="165.513" font-family="Arial" font-size="12" fill="black">19</text>
<circle cx="139.682" cy="168.98" r="8" fill="blue"/>
<text x="154.682" y="173.98" font-family="Arial" font-size="12" fill="black">20</text>
<circle cx="139.682" cy="177.446" r="8" fill="blue"/>
<text x="154.682" y="182.446" font-family="Arial" font-size="12" fill="black">21</text>
<circle cx="139.682" cy="185.913" r="8" fill="blue"/>
<text x="154.682" y="190.913" font-family="Arial" font-size="12" fill="black">22</text>
<circle cx="139.682" cy="194.38" r="8" fill="blue"/>
<text x="154.682" y="199.38" font-family="Arial" font-size="12" fill="black">23</text>
<circle cx="139.682" cy="202.846" r="8" fill="blue"/>
<text x="154.682" y="207.846" font-family="Arial" font-size="12" fill="black">24</text>
<circle cx="139.682" cy="211.313" r="8" fill="blue"/>
<text x="154.682" y="216.313" font-family="Arial" font-size="12" fill="black">25</text>
<circle cx="456.978" cy="163.266" r="8" fill="blue"/>
<text x="471.978" y="168.266" font-family="Arial" font-size="12" fill="black">26</text>
<circle cx="456.978" cy="171.733" r="8" fill="blue"/>
<text x="471.978" y="176.733" font-family="Arial" font-size="12" fill="black">27</text>
<circle cx="456.978" cy="180.2" r="8" fill="blue"/>
<text x="471.978" y="185.2" font-family="Arial" font-size="12" fill="black">28</text>
<circle cx="456.978" cy="188.666" r="8" fill="blue"/>
<text x="471.978" y="193.666" font-family="Arial" font-size="12" fill="black">29</text>
<circle cx="456.978" cy="197.133" r="8" fill="blue"/>
<text x="471.978" y="202.133" font-family="Arial" font-size="12" fill="black">30</text>
<circle cx="456.978" cy="205.6" r="8" fill="blue"/>
<text x="471.978" y="210.6" font-family="Arial" font-size="12" fill="black">31</text>
<circle cx="456.978" cy="214.066" r="8" fill="blue"/>
<text x="471.978" y="219.066" font-family="Arial" font-size="12" fill="black">32</text>
<circle cx="482.378" cy="163.266" r="8" fill="blue"/>
<text x="497.378" y="168.266" font-family="Arial" font-size="12" fill="black">33</text>
<circle cx="482.378" cy="171.733" r="8" fill="blue"/>
<text x="497.378" y="176.733" font-family="Arial" font-size="12" fill="black">34</text>
<circle cx="482.378" cy="180.2" r="8" fill="blue"/>
<text x="497.378" y="185.2" font-family="Arial" font-size="12" fill="black">35</text>
<circle cx="482.378" cy="188.666" r="8" fill="blue"/>
<text x="497.378" y="193.666" font-family="Arial" font-size="12" fill="black">36</text>
<circle cx="482.378" cy="197.133" r="8" fill="blue"/>
<text x="497.378" y="202.133" font-family="Arial" font-size="12" fill="black">37</text>
<circle cx="482.378" cy="205.6" r="8" fill="blue"/>
<text x="497.378" y="210.6" font-family="Arial" font-size="12" fill="black">38</text>
<circle cx="482.378" cy="214.066" r="8" fill="blue"/>
<text x="497.378" y="219.066" font-family="Arial" font-size="12" fill="black">39</text>
<circle cx="191.284" cy="110.543" r="8" fill="blue"/>
<text x="206.284" y="115.543" font-family="Arial" font-size="12" fill="black">40</text>
<circle cx="191.284" cy="119.01" r="8" fill="blue"/>
<text x="206.284" y="124.01" font-family="Arial" font-size="12" fill="black">41</text>
<circle cx="191.284" cy="127.477" r="8" fill="blue"/>
<text x="206.284" y="132.477" font-family="Arial" font-size="12" fill="black">42</text>
<circle cx="191.284" cy="135.943" r="8" fill="blue"/>
<text x="206.284" y="140.943" font-family="Arial" font-size="12" fill="black">43</text>
<circle cx="191.284" cy="144.41" r="8" fill="blue"/>
<text x="206.284" y="149.41" font-family="Arial" font-size="12" fill="black">44</text>
<circle cx="191.284" cy="152.877" r="8" fill="blue"/>
<text x="206.284" y="157.877" font-family="Arial" font-size="12" fill="black">45</text>
<circle cx="191.284" cy="161.343" r="8" fill="blue"/>
<text x="206.284" y="166.343" font-family="Arial" font-size="12" fill="black">46</text>
<circle cx="216.684" cy="110.543" r="8" fill="blue"/>
<text x="231.684" y="115.543" font-family="Arial" font-size="12" fill="black">47</text>
<circle cx="216.684" cy="119.01" r="8" fill="blue"/>
<text x="231.684" y="124.01" font-family="Arial" font-size="12" fill="black">48</text>
<circle cx="216.684" cy="127.477" r="8" fill="blue"/>
<text x="231.684" y="132.477" font-family="Arial" font-size="12" fill="black">49</text>
<circle cx="216.684" cy="135.943" r="8" fill="blue"/>
<text x="231.684" y="140.943" font-family="Arial" font-size="12" fill="black">50</text>
<circle cx="216.684" cy="144.41" r="8" fill="blue"/>
<text x="231.684" y="149.41" font-family="Arial" font-size="12" fill="black">51</text>
<circle cx="216.684" cy="152.877" r="8" fill="blue"/>
<text x="231.684" y="157.877" font-family="Arial" font-size="12" fill="black">52</text>
<circle cx="216.684" cy="161.343" r="8" fill="blue"/>
<text x="231.684" y="166.343" font-family="Arial" font-size="12" fill="black">53</text>
<circle cx="54.7427" cy="279.022" r="8" fill="blue"/>
<text x="69.7427" y="284.022" font-family="Arial" font-size="12" fill="black">54</text>
<circle cx="63.2093" cy="279.022" r="8" fill="blue"/>
<text x="78.2093" y="284.022" font-family="Arial" font-size="12" fill="black">55</text>
<circle cx="71.676" cy="279.022" r="8" fill="blue"/>
<text x="86.676" y="284.022" font-family="Arial" font-size="12" fill="black">56</text>
<circle cx="80.1427" cy="279.022" r="8" fill="blue"/>
<text x="95.1427" y="284.022" font-family="Arial" font-size="12" fill="black">57</text>
<circle cx="88.6093" cy="279.022" r="8" fill="blue"/>
<text x="103.609" y="284.022" font-family="Arial" font-size="12" fill="black">58</text>
</g>
<text x="-125" y="-125" font-family="Arial" font-size="14.4" fill="black"> Cost: 3794.53</text>
</g>
<g transform="translate(880.00,0)">
<rect x="-150.00" y="-150.00" width="800.00" height="800.00" fill="white"/>
<g>
<line x1="483.33" y1="483.33" x2="482.38" y2="214.07" stroke="rgb(128,0,127)" stroke-width="2.00"/>
<line x1="482.38" y1="214.07" x2="482.38" y2="205.60" stroke="rgb(128,0,127)" stroke-width="2.00"/>
<line x1="482.38" y1="205.60" x2="482.38" y2="197.13" stroke="rgb(128,0,127)" stroke-width="2.00"/>
<line x1="482.38" y1="197.13" x2="482.38" y2="188.67" stroke="rgb(128,0,127)" stroke-width="2.00"/>
<line x1="482.38" y1="188.67" x2="482.38" y2="180.20" stroke="rgb(128,0,127)" stroke-width="2.00"/>
<line x1="482.38" y1="180.20" x2="482.38" y2="171.73" stroke="rgb(128,0,127)" stroke-width="2.00"/>
<line x1="482.38" y1="171.73" x2="482.38" y2="163.27" stroke="rgb(128,0,127)" stroke-width="2.00"/>
<line x1="482.38" y1="163.27" x2="456.98" y2="214.07" stroke="rgb(128,0,127)" stroke-width="2.00"/>
<line x1="456.98" y1="214.07" x2="456.98" y2="205.60" stroke="rgb(128,0,127)" stroke-width="2.00"/>
<line x1="456.98" y1="205.60" x2="456.98" y2="197.13" stroke="rgb(128,0,127)" stroke-width="2.00"/>
<line x1="456.98" y1="197.13" x2="456.98" y2="188.67" stroke="rgb(128,0,127)" stroke-width="2.00"/>
<line x1="456.98" y1="188.67" x2="456.98" y2="180.20" stroke="rgb(128,0,127)" stroke-width="2.00"/>
<line x1="456.98" y1="180.20" x2="456.98" y2="171.73" stroke="rgb(128,0,127)" stroke-width="2.00"/>
<line x1="456.98" y1="171.73" x2="456.98" y2="163.27" stroke="rgb(128,0,127)" stroke-width="2.00"/>
<line x1="456.98" y1="163.27" x2="483.33" y2="16.67" stroke="rgb(128,0,127)" stroke-width="2.00"/>
<line x1="483.33" y1="16.67" x2="216.68" y2="110.54" stroke="rgb(128,0,127)" stroke-width="2.00"/>
<line x1="216.68" y1="110.54" x2="216.68" y2="119.01" stroke="rgb(128,0,127)" stroke-width="2.00"/>
<line x1="216.68" y1="119.01" x2="216.68" y2="127.48" stroke="rgb(128,0,127)" stroke-width="2.00"/>
<line x1="216.68" y1="127.48" x2="216.68" y2="135.94" stroke="rgb(128,0,127)" stroke-width="2.00"/>
<line x1="216.68" y1="135.94" x2="216.68" y2="144.41" stroke="rgb(128,0,127)" stroke-width="2.00"/>
<line x1="216.68" y1="144.41" x2="216.68" y2="152.88" stroke="rgb(128,0,127)" stroke-width="2.00"/>
<line x1="216.68" y1="152.88" x2="216.68" y2="161.34" stroke="rgb(128,0,127)" stroke-width="2.00"/>
<line x1="216.68" y1="161.34" x2="191.28" y2="161.34" stroke="rgb(128,0,127)" stroke-width="2.00"/>
<line x1="191.28" y1="161.34" x2="191.28" y2="152.88" stroke="rgb(128,0,127)" stroke-width="2.00"/>
<line x1="191.28" y1="152.88" x2="191.28" y2="144.41" stroke="rgb(128,0,127)" stroke-width="2.00"/>
<line x1="191.28" y1="144.41" x2="191.28" y2="135.94" stroke="rgb(128,0,127)" stroke-width="2.00"/>
<line x1="191.28" y1="135.94" x2="191.28" y2="127.48" stroke="rgb(128,0,127)" stroke-width="2.00"/>
<line x1="191.28" y1="127.48" x2="191.28" y2="119.01" stroke="rgb(128,0,127)" stroke-width="2.00"/>
<line x1="191.28" y1="119.01" x2="191.28" y2="110.54" stroke="rgb(128,0,127)" stroke-width="2.00"/>
<line x1="191.28" y1="110.54" x2="139.68" y2="160.51" stroke="rgb(128,0,127)" stroke-width="2.00"/>
<line x1="139.68" y1="160.51" x2="139.68" y2="168.98" stroke="rgb(128,0,127)" stroke-width="2.00"/>
<line x1="139.68" y1="168.98" x2="139.68" y2="177.45" stroke="rgb(128,0,127)" stroke-width="2.00"/>
<line x1="139.68" y1="177.45" x2="139.68" y2="185.91" stroke="rgb(128,0,127)" stroke-width="2.00"/>
<line x1="139.68" y1="185.91" x2="139.68" y2="194.38" stroke="rgb(128,0,127)" stroke-width="2.00"/>
<line x1="139.68" y1="194.38" x2="139.68" y2="202.85" stroke="rgb(128,0,127)" stroke-width="2.00"/>
<line x1="139.68" y1="202.85" x2="139.68" y2="211.31" stroke="rgb(128,0,127)" stroke-width="2.00"/>
<line x1="139.68" y1="211.31" x2="88.61" y2="279.02" stroke="rgb(128,0,127)" stroke-width="2.00"/>
<line x1="88.61" y1="279.02" x2="80.14" y2="279.02" stroke="rgb(128,0,127)" stroke-width="2.00"/>
<line x1="80.14" y1="279.02" x2="34.35" y2="365.32" stroke="rgb(128,0,127)" stroke-width="2.00"/>
<line x1="34.35" y1="365.32" x2="34.35" y2="369.56" stroke="rgb(128,0,127)" stroke-width="2.00"/>
<line x1="34.35" y1="369.56" x2="34.35" y2="373.79" stroke="rgb(128,0,127)" stroke-width="2.00"/>
<line x1="34.35" y1="373.79" x2="34.35" y2="378.02" stroke="rgb(128,0,127)" stroke-width="2.00"/>
<line x1="34.35" y1="378.02" x2="16.67" y2="483.33" stroke="rgb(128,0,127)" stroke-width="2.00"/>
<line x1="16.67" y1="483.33" x2="17.42" y2="378.02" stroke="rgb(128,0,127)" stroke-width="2.00"/>
<line x1="17.42" y1="378.02" x2="17.42" y2="373.79" stroke="rgb(128,0,127)" stroke-width="2.00"/>
<line x1="17.42" y1="373.79" x2="17.42" y2="369.56" stroke="rgb(128,0,127)" stroke-width="2.00"/>
<line x1="17.42" y1="369.56" x2="17.42" y2="365.32" stroke="rgb(128,0,127)" stroke-width="2.00"/>
<line x1="17.42" y1="365.32" x2="54.74" y2="279.02" stroke="rgb(128,0,127)" stroke-width="2.00"/>
<line x1="54.74" y1="279.02" x2="63.21" y2="279.02" stroke="rgb(128,0,127)" stroke-width="2.00"/>
<line x1="63.21" y1="279.02" x2="71.68" y2="279.02" stroke="rgb(128,0,127)" stroke-width="2.00"/>
<line x1="71.68" y1="279.02" x2="114.28" y2="211.31" stroke="rgb(128,0,127)" stroke-width="2.00"/>
<line x1="114.28" y1="211.31" x2="114.28" y2="202.85" stroke="rgb(128,0,127)" stroke-width="2.00"/>
<line x1="114.28" y1="202.85" x2="114.28" y2="194.38" stroke="rgb(128,0,127)" stroke-width="2.00"/>
<line x1="114.28" y1="194.38" x2="114.28" y2="185.91" stroke="rgb(128,0,127)" stroke-width="2.00"/>
<line x1="114.28" y1="185.91" x2="114.28" y2="177.45" stroke="rgb(128,0,127)" stroke-width="2.00"/>
<line x1="114.28" y1="177.45" x2="114.28" y2="168.98" stroke="rgb(128,0,127)" stroke-width="2.00"/>
<line x1="114.28" y1="168.98" x2="114.28" y2="160.51" stroke="rgb(128,0,127)" stroke-width="2.00"/>
<line x1="114.28" y1="160.51" x2="16.67" y2="16.67" stroke="rgb(128,0,127)" stroke-width="2.00"/>
<line x1="16.67" y1="16.67" x2="16.67" y2="16.67" stroke="rgb(128,0,127)" stroke-width="2.00"/>
</g>
<g>
<circle cx="16.67" cy="16.67" r="8.00" fill="blue"/>
<text x="31.67" y="21.67" font-family="Arial" font-size="12.00" fill="black">0</text>
<circle cx="483.33" cy="16.67" r="8.00" fill="blue"/>
<text x="498.33" y="21.67" font-family="Arial" font-size="12.00" fill="black">1</text>
<circle cx="16.67" cy="483.33" r="8.00" fill="blue"/>
<text x="31.67" y="488.33" font-family="Arial" font-size="12.00" fill="black">2</text>
<circle cx="483.33" cy="483.33" r="8.00" fill="blue"/>
<text x="498.33" y="488.33" font-family="Arial" font-size="12.00" fill="black">3</text>
<circle cx="17.42" cy="365.32" r="8.00" fill="blue"/>
<text x="32.42" y="370.32" font-family="Arial" font-size="12.00" fill="black">4</text>
<circle cx="17.42" cy="369.56" r="8.00" fill="blue"/>
<text x="32.42" y="374.56" font-family="Arial" font-size="12.00" fill="black">5</text>
<circle cx="17.42" cy="373.79" r="8.00" fill="blue"/>
<text x="32.42" y="378.79" font-family="Arial" font-size="12.00" fill="black">6</text>
<circle cx="17.42" cy="378.02" r="8.00" fill="blue"/>
<text x="32.42" y="383.02" font-family="Arial" font-size="12.00" fill="black">7</text>
<circle cx="34.35" cy="365.32" r="8.00" fill="blue"/>
<text x="49.35" y="370.32" font-family="Arial" font-size="12.00" fill="black">8</text>
<circle cx="34.35" cy="369.56" r="8.00" fill="blue"/>
<text x="49.35" y="374.56" font-family="Arial" font-size="12.00" fill="black">9</text>
<circle cx="34.35" cy="373.79" r="8.00" fill="blue"/>
<text x="49.35" y="378.79" font-family="Arial" font-size="12.00" fill="black">10</text>
<circle cx="34.35" cy="378.02" r="8.00" fill="blue"/>
<text x="49.35" y="383.02" font-family="Arial" font-size="12.00" fill="black">11</text>
<circle cx="114.28" cy="160.51" r="8.00" fill="blue"/>
<text x="129.28" y="165.51" font-family="Arial" font-size="12.00" fill="black">12</text>
<circle cx="114.28" cy="168.98" r="8.00" fill="blue"/>
<text x="129.28" y="173.98" font-family="Arial" font-size="12.00" fill="black">13</text>
<circle cx="114.28" cy="177.45" r="8.00" fill="blue"/>
<text x="129.28" y="182.45" font-family="Arial" font-size="12.00" fill="black">14</text>
<circle cx="114.28" cy="185.91" r="8.00" fill="blue"/>
<text x="129.28" y="190.91" font-family="Arial" font-size="12.00" fill="black">15</text>
<circle cx="114.28" cy="194.38" r="8.00" fill="blue"/>
<text x="129.28" y="199.38" font-family="Arial" font-size="12.00" fill="black">16</text>
<circle cx="114.28" cy="202.85" r="8.00" fill="blue"/>
<text x="129.28" y="207.85" font-family="Arial" font-size="12.00" fill="black">17</text>
<circle cx="114.28" cy="211.31" r="8.00" fill="blue"/>
<text x="129.28" y="216.31" font-family="Arial" font-size="12.00" fill="black">18</text>
<circle cx="139.68" cy="160.51" r="8.00" fill="blue"/>
<text x="154.68" y="165.51" font-family="Arial" font-size="12.00" fill="black">19</text>
<circle cx="139.68" cy="168.98" r="8.00" fill="blue"/>
<text x="154.68" y="173.98" font-family="Arial" font-size="12.00" fill="black">20</text>
<circle cx="139.68" cy="177.45" r="8.00" fill="blue"/>
<text x="154.68" y="182.45" font-family="Arial" font-size="12.00" fill="black">21</text>
<circle cx="139.68" cy="185.91" r="8.00" fill="blue"/>
<text x="154.68" y="190.91" font-family="Arial" font-size="12.00" fill="black">22</text>
<circle cx="139.68" cy="194.38" r="8.00" fill="blue"/>
<text x="154.68" y="199.38" font-family="Arial" font-size="12.00" fill="black">23</text>
<circle cx="139.68" cy="202.85" r="8.00" fill="blue"/>
<text x="154.68" y="207.85" font-family="Arial" font-size="12.00" fill="black">24</text>
<circle cx="139.68" cy="211.31" r="8.00" fill="blue"/>
<text x="154.68" y="216.31" font-family="Arial" font-size="12.00" fill="black">25</text>
<circle cx="456.98" cy="163.27" r="8.00" fill="blue"/>
<text x="471.98" y="168.27" font-family="Arial" font-size="12.00" fill="black">26</text>
<circle cx="456.98" cy="171.73" r="8.00" fill="blue"/>
<text x="471.98" y="176.73" font-family="Arial" font-size="12.00" fill="black">27</text>
<circle cx="456.98" cy="180.20" r="8.00" fill="blue"/>
<text x="471.98" y="185.20" font-family="Arial" font-size="12.00" fill="black">28</text>
<circle cx="456.98" cy="188.67" r="8.00" fill="blue"/>
<text x="471.98" y="193.67" font-family="Arial" font-size="12.00" fill="black">29</text>
<circle cx="456.98" cy="197.13" r="8.00" fill="blue"/>
<text x="471.98" y="202.13" font-family="Arial" font-size="12.00" fill="black">30</text>
<circle cx="456.98" cy="205.60" r="8.00" fill="blue"/>
<text x="471.98" y="210.60" font-family="Arial" font-size="12.00" fill="black">31</text>
<circle cx="456.98" cy="214.07" r="8.00" fill="blue"/>
<text x="471.98" y="219.07" font-family="Arial" font-size="12.00" fill="black">32</text>
<circle cx="482.38" cy="163.27" r="8.00" fill="blue"/>
<text x="497.38" y="168.27" font-family="Arial" font-size="12.00" fill="black">33</text>
<circle cx="482.38" cy="171.73" r="8.00" fill="blue"/>
<text x="497.38" y="176.73" font-family="Arial" font-size="12.00" fill="black">34</text>
<circle cx="482.38" cy="180.20" r="8.00" fill="blue"/>
<text x="497.38" y="185.20" font-family="Arial" font-size="12.00" fill="black">35</text>
<circle cx="482.38" cy="188.67" r="8.00" fill="blue"/>
<text x="497.38" y="193.67" font-family="Arial" font-size="12.00" fill="black">36</text>
<circle cx="482.38" cy="197.13" r="8.00" fill="blue"/>
<text x="497.38" y="202.13" font-family="Arial" font-size="12.00" fill="black">37</text>
<circle cx="482.38" cy="205.60" r="8.00" fill="blue"/>
<text x="497.38" y="210.60" font-family="Arial" font-size="12.00" fill="black">38</text>
<circle cx="482.38" cy="214.07" r="8.00" fill="blue"/>
<text x="497.38" y="219.07" font-family="Arial" font-size="12.00" fill="black">39</text>
<circle cx="191.28" cy="110.54" r="8.00" fill="blue"/>
<text x="206.28" y="115.54" font-family="Arial" font-size="12.00" fill="black">40</text>
<circle cx="191.28" cy="119.01" r="8.00" fill="blue"/>
<text x="206.28" y="124.01" font-family="Arial" font-size="12.00" fill="black">41</text>
<circle cx="191.28" cy="127.48" r="8.00" fill="blue"/>
<text x="206.28" y="132.48" font-family="Arial" font-size="12.00" fill="black">42</text>
<circle cx="191.28" cy="135.94" r="8.00" fill="blue"/>
<text x="206.28" y="140.94" font-family="Arial" font-size="12.00" fill="black">43</text>
<circle cx="191.28" cy="144.41" r="8.00" fill="blue"/>
<text x="206.28" y="149.41" font-family="Arial" font-size="12.00" fill="black">44</text>
<circle cx="191.28" cy="152.88" r="8.00" fill="blue"/>
<text x="206.28" y="157.88" font-family="Arial" font-size="12.00" fill="black">45</text>
<circle cx="191.28" cy="161.34" r="8.00" fill="blue"/>
<text x="206.28" y="166.34" font-family="Arial" font-size="12.00" fill="black">46</text>
<circle cx="216.68" cy="110.54" r="8.00" fill="blue"/>
<text x="231.68" y="115.54" font-family="Arial" font-size="12.00" fill="black">47</text>
<circle cx="216.68" cy="119.01" r="8.00" fill="blue"/>
<text x="231.68" y="124.01" font-family="Arial" font-size="12.00" fill="black">48</text>
<circle cx="216.68" cy="127.48" r="8.00" fill="blue"/>
<text x="231.68" y="132.48" font-family="Arial" font-size="12.00" fill="black">49</text>
<circle cx="216.68" cy="135.94" r="8.00" fill="blue"/>
<text x="231.68" y="140.94" font-family="Arial" font-size="12.00" fill="black">50</text>
<circle cx="216.68" cy="144.41" r="8.00" fill="blue"/>
<text x="231.68" y="149.41" font-family="Arial" font-size="12.00" fill="black">51</text>
<circle cx="216.68" cy="152.88" r="8.00" fill="blue"/>
<text x="231.68" y="157.88" font-family="Arial" font-size="12.00" fill="black">52</text>
<circle cx="216.68" cy="161.34" r="8.00" fill="blue"/>
<text x="231.68" y="166.34" font-family="Arial" font-size="12.00" fill="black">53</text>
<circle cx="54.74" cy="279.02" r="8.00" fill="blue"/>
<text x="69.74" y="284.02" font-family="Arial" font-size="12.00" fill="black">54</text>
<circle cx="63.21" cy="279.02" r="8.00" fill="blue"/>
<text x="78.21" y="284.02" font-family="Arial" font-size="12.00" fill="black">55</text>
<circle cx="71.68" cy="279.02" r="8.00" fill="blue"/>
<text x="86.68" y="284.02" font-family="Arial" font-size="12.00" fill="black">56</text>
<circle cx="80.14" cy="279.02" r="8.00" fill="blue"/>
<text x="95.14" y="284.02" font-family="Arial" font-size="12.00" fill="black">57</text>
<circle cx="88.61" cy="279.02" r="8.00" fill="blue"/>
<text x="103.61" y="284.02" font-family="Arial" font-size="12.00" fill="black">58</text>
</g>
<text x="-125.00" y="-125.00" font-family="Arial" font-size="14.40" fill="black"> Cost: 585.90</text>
</g>
</svg>
