<?xml version="1.0" encoding="UTF-8" standalone="no"?>
<svg xmlns="http://www.w3.org/2000/svg" viewBox="-5 -5 85 85">
<rect x="-5" y="-5" width="85" height="85" fill="white"/>
<g>
<circle cx="5" cy="5" r="2" fill="blue"/>
<text x="7.5" y="5" font-family="Arial" font-size="5" fill="black">0</text>
<circle cx="70" cy="5" r="2" fill="blue"/>
<text x="72.5" y="5" font-family="Arial" font-size="5" fill="black">1</text>
<circle cx="5" cy="70" r="2" fill="blue"/>
<text x="7.5" y="70" font-family="Arial" font-size="5" fill="black">2</text>
<circle cx="70" cy="70" r="2" fill="blue"/>
<text x="72.5" y="70" font-family="Arial" font-size="5" fill="black">3</text>
<circle cx="25.0218" cy="33.4428" r="2" fill="blue"/>
<text x="27.5218" y="33.4428" font-family="Arial" font-size="5" fill="black">4</text>
<circle cx="27.5618" cy="33.4428" r="2" fill="blue"/>
<text x="30.0618" y="33.4428" font-family="Arial" font-size="5" fill="black">5</text>
<circle cx="30.1018" cy="33.4428" r="2" fill="blue"/>
<text x="32.6018" y="33.4428" font-family="Arial" font-size="5" fill="black">6</text>
<circle cx="32.6418" cy="33.4428" r="2" fill="blue"/>
<text x="35.1418" y="33.4428" font-family="Arial" font-size="5" fill="black">7</text>
<circle cx="35.1818" cy="33.4428" r="2" fill="blue"/>
<text x="37.6818" y="33.4428" font-family="Arial" font-size="5" fill="black">8</text>
<circle cx="35.6751" cy="25.5223" r="2" fill="blue"/>
<text x="38.1751" y="25.5223" font-family="Arial" font-size="5" fill="black">9</text>
<circle cx="35.6751" cy="26.7923" r="2" fill="blue"/>
<text x="38.1751" y="26.7923" font-family="Arial" font-size="5" fill="black">10</text>
<circle cx="35.6751" cy="28.0623" r="2" fill="blue"/>
<text x="38.1751" y="28.0623" font-family="Arial" font-size="5" fill="black">11</text>
<circle cx="35.6751" cy="29.3323" r="2" fill="blue"/>
<text x="38.1751" y="29.3323" font-family="Arial" font-size="5" fill="black">12</text>
<circle cx="40.7551" cy="25.5223" r="2" fill="blue"/>
<text x="43.2551" y="25.5223" font-family="Arial" font-size="5" fill="black">13</text>
<circle cx="40.7551" cy="26.7923" r="2" fill="blue"/>
<text x="43.2551" y="26.7923" font-family="Arial" font-size="5" fill="black">14</text>
<circle cx="40.7551" cy="28.0623" r="2" fill="blue"/>
<text x="43.2551" y="28.0623" font-family="Arial" font-size="5" fill="black">15</text>
<circle cx="40.7551" cy="29.3323" r="2" fill="blue"/>
<text x="43.2551" y="29.3323" font-family="Arial" font-size="5" fill="black">16</text>
<circle cx="21.426" cy="44.5637" r="2" fill="blue"/>
<text x="23.926" y="44.5637" font-family="Arial" font-size="5" fill="black">17</text>
<circle cx="21.426" cy="45.8337" r="2" fill="blue"/>
<text x="23.926" y="45.8337" font-family="Arial" font-size="5" fill="black">18</text>
<circle cx="21.426" cy="47.1037" r="2" fill="blue"/>
<text x="23.926" y="47.1037" font-family="Arial" font-size="5" fill="black">19</text>
<circle cx="21.426" cy="48.3737" r="2" fill="blue"/>
<text x="23.926" y="48.3737" font-family="Arial" font-size="5" fill="black">20</text>
<circle cx="26.506" cy="44.5637" r="2" fill="blue"/>
<text x="29.006" y="44.5637" font-family="Arial" font-size="5" fill="black">21</text>
<circle cx="26.506" cy="45.8337" r="2" fill="blue"/>
<text x="29.006" y="45.8337" font-family="Arial" font-size="5" fill="black">22</text>
<circle cx="26.506" cy="47.1037" r="2" fill="blue"/>
<text x="29.006" y="47.1037" font-family="Arial" font-size="5" fill="black">23</text>
<circle cx="26.506" cy="48.3737" r="2" fill="blue"/>
<text x="29.006" y="48.3737" font-family="Arial" font-size="5" fill="black">24</text>
</g>
</svg>
