<?xml version="1.0" encoding="UTF-8" standalone="no"?>
<svg xmlns="http://www.w3.org/2000/svg" viewBox="-5 -5 135 135">
<rect x="-5" y="-5" width="135" height="135" fill="white"/>
<g>
<line x1="5" y1="5" x2="25.3749" y2="41.1087" stroke="rgb(0,0,255)" stroke-width="0.8"/>
<line x1="25.3749" y1="41.1087" x2="27.9149" y2="41.1087" stroke="rgb(8,0,247)" stroke-width="0.8"/>
<line x1="27.9149" y1="41.1087" x2="30.4549" y2="41.1087" stroke="rgb(17,0,238)" stroke-width="0.8"/>
<line x1="30.4549" y1="41.1087" x2="32.9949" y2="41.1087" stroke="rgb(25,0,230)" stroke-width="0.8"/>
<line x1="32.9949" y1="41.1087" x2="35.5349" y2="41.1087" stroke="rgb(34,0,221)" stroke-width="0.8"/>
<line x1="35.5349" y1="41.1087" x2="48.5423" y2="38.6399" stroke="rgb(42,0,213)" stroke-width="0.8"/>
<line x1="48.5423" y1="38.6399" x2="51.0823" y2="38.6399" stroke="rgb(51,0,204)" stroke-width="0.8"/>
<line x1="51.0823" y1="38.6399" x2="53.6223" y2="38.6399" stroke="rgb(59,0,196)" stroke-width="0.8"/>
<line x1="53.6223" y1="38.6399" x2="56.1623" y2="38.6399" stroke="rgb(68,0,187)" stroke-width="0.8"/>
<line x1="56.1623" y1="38.6399" x2="58.7023" y2="38.6399" stroke="rgb(76,0,179)" stroke-width="0.8"/>
<line x1="58.7023" y1="38.6399" x2="120" y2="5" stroke="rgb(85,0,170)" stroke-width="0.8"/>
<line x1="120" y1="5" x2="120" y2="120" stroke="rgb(93,0,162)" stroke-width="0.8"/>
<line x1="120" y1="120" x2="64.7848" y2="114.167" stroke="rgb(102,0,153)" stroke-width="0.8"/>
<line x1="64.7848" y1="114.167" x2="64.7848" y2="112.897" stroke="rgb(110,0,145)" stroke-width="0.8"/>
<line x1="64.7848" y1="112.897" x2="64.7848" y2="111.627" stroke="rgb(119,0,136)" stroke-width="0.8"/>
<line x1="64.7848" y1="111.627" x2="64.7848" y2="110.357" stroke="rgb(127,0,128)" stroke-width="0.8"/>
<line x1="64.7848" y1="110.357" x2="59.7048" y2="110.357" stroke="rgb(136,0,119)" stroke-width="0.8"/>
<line x1="59.7048" y1="110.357" x2="59.7048" y2="111.627" stroke="rgb(144,0,111)" stroke-width="0.8"/>
<line x1="59.7048" y1="111.627" x2="59.7048" y2="112.897" stroke="rgb(153,0,102)" stroke-width="0.8"/>
<line x1="59.7048" y1="112.897" x2="59.7048" y2="114.167" stroke="rgb(161,0,94)" stroke-width="0.8"/>
<line x1="59.7048" y1="114.167" x2="5" y2="120" stroke="rgb(170,0,85)" stroke-width="0.8"/>
<line x1="5" y1="120" x2="6.1773" y2="80.5077" stroke="rgb(178,0,77)" stroke-width="0.8"/>
<line x1="6.1773" y1="80.5077" x2="6.1773" y2="79.2377" stroke="rgb(187,0,68)" stroke-width="0.8"/>
<line x1="6.1773" y1="79.2377" x2="6.1773" y2="77.9677" stroke="rgb(195,0,60)" stroke-width="0.8"/>
<line x1="6.1773" y1="77.9677" x2="6.1773" y2="76.6977" stroke="rgb(204,0,51)" stroke-width="0.8"/>
<line x1="6.1773" y1="76.6977" x2="11.2573" y2="80.5077" stroke="rgb(212,0,43)" stroke-width="0.8"/>
<line x1="11.2573" y1="80.5077" x2="11.2573" y2="79.2377" stroke="rgb(221,0,34)" stroke-width="0.8"/>
<line x1="11.2573" y1="79.2377" x2="11.2573" y2="77.9677" stroke="rgb(229,0,26)" stroke-width="0.8"/>
<line x1="11.2573" y1="77.9677" x2="11.2573" y2="76.6977" stroke="rgb(238,0,17)" stroke-width="0.8"/>
<line x1="11.2573" y1="76.6977" x2="5" y2="5" stroke="rgb(246,0,9)" stroke-width="0.8"/>
</g>
<g>
<circle cx="5" cy="5" r="2" fill="blue"/>
<text x="7.5" y="5" font-family="Arial" font-size="5" fill="black">0</text>
<circle cx="120" cy="5" r="2" fill="blue"/>
<text x="122.5" y="5" font-family="Arial" font-size="5" fill="black">1</text>
<circle cx="5" cy="120" r="2" fill="blue"/>
<text x="7.5" y="120" font-family="Arial" font-size="5" fill="black">2</text>
<circle cx="120" cy="120" r="2" fill="blue"/>
<text x="122.5" y="120" font-family="Arial" font-size="5" fill="black">3</text>
<circle cx="59.7048" cy="110.357" r="2" fill="blue"/>
<text x="62.2048" y="110.357" font-family="Arial" font-size="5" fill="black">4</text>
<circle cx="59.7048" cy="111.627" r="2" fill="blue"/>
<text x="62.2048" y="111.627" font-family="Arial" font-size="5" fill="black">5</text>
<circle cx="59.7048" cy="112.897" r="2" fill="blue"/>
<text x="62.2048" y="112.897" font-family="Arial" font-size="5" fill="black">6</text>
<circle cx="59.7048" cy="114.167" r="2" fill="blue"/>
<text x="62.2048" y="114.167" font-family="Arial" font-size="5" fill="black">7</text>
<circle cx="64.7848" cy="110.357" r="2" fill="blue"/>
<text x="67.2848" y="110.357" font-family="Arial" font-size="5" fill="black">8</text>
<circle cx="64.7848" cy="111.627" r="2" fill="blue"/>
<text x="67.2848" y="111.627" font-family="Arial" font-size="5" fill="black">9</text>
<circle cx="64.7848" cy="112.897" r="2" fill="blue"/>
<text x="67.2848" y="112.897" font-family="Arial" font-size="5" fill="black">10</text>
<circle cx="64.7848" cy="114.167" r="2" fill="blue"/>
<text x="67.2848" y="114.167" font-family="Arial" font-size="5" fill="black">11</text>
<circle cx="48.5423" cy="38.6399" r="2" fill="blue"/>
<text x="51.0423" y="38.6399" font-family="Arial" font-size="5" fill="black">12</text>
<circle cx="51.0823" cy="38.6399" r="2" fill="blue"/>
<text x="53.5823" y="38.6399" font-family="Arial" font-size="5" fill="black">13</text>
<circle cx="53.6223" cy="38.6399" r="2" fill="blue"/>
<text x="56.1223" y="38.6399" font-family="Arial" font-size="5" fill="black">14</text>
<circle cx="56.1623" cy="38.6399" r="2" fill="blue"/>
<text x="58.6623" y="38.6399" font-family="Arial" font-size="5" fill="black">15</text>
<circle cx="58.7023" cy="38.6399" r="2" fill="blue"/>
<text x="61.2023" y="38.6399" font-family="Arial" font-size="5" fill="black">16</text>
<circle cx="25.3749" cy="41.1087" r="2" fill="blue"/>
<text x="27.8749" y="41.1087" font-family="Arial" font-size="5" fill="black">17</text>
<circle cx="27.9149" cy="41.1087" r="2" fill="blue"/>
<text x="30.4149" y="41.1087" font-family="Arial" font-size="5" fill="black">18</text>
<circle cx="30.4549" cy="41.1087" r="2" fill="blue"/>
<text x="32.9549" y="41.1087" font-family="Arial" font-size="5" fill="black">19</text>
<circle cx="32.9949" cy="41.1087" r="2" fill="blue"/>
<text x="35.4949" y="41.1087" font-family="Arial" font-size="5" fill="black">20</text>
<circle cx="35.5349" cy="41.1087" r="2" fill="blue"/>
<text x="38.0349" y="41.1087" font-family="Arial" font-size="5" fill="black">21</text>
<circle cx="6.1773" cy="76.6977" r="2" fill="blue"/>
<text x="8.6773" y="76.6977" font-family="Arial" font-size="5" fill="black">22</text>
<circle cx="6.1773" cy="77.9677" r="2" fill="blue"/>
<text x="8.6773" y="77.9677" font-family="Arial" font-size="5" fill="black">23</text>
<circle cx="6.1773" cy="79.2377" r="2" fill="blue"/>
<text x="8.6773" y="79.2377" font-family="Arial" font-size="5" fill="black">24</text>
<circle cx="6.1773" cy="80.5077" r="2" fill="blue"/>
<text x="8.6773" y="80.5077" font-family="Arial" font-size="5" fill="black">25</text>
<circle cx="11.2573" cy="76.6977" r="2" fill="blue"/>
<text x="13.7573" y="76.6977" font-family="Arial" font-size="5" fill="black">26</text>
<circle cx="11.2573" cy="77.9677" r="2" fill="blue"/>
<text x="13.7573" y="77.9677" font-family="Arial" font-size="5" fill="black">27</text>
<circle cx="11.2573" cy="79.2377" r="2" fill="blue"/>
<text x="13.7573" y="79.2377" font-family="Arial" font-size="5" fill="black">28</text>
<circle cx="11.2573" cy="80.5077" r="2" fill="blue"/>
<text x="13.7573" y="80.5077" font-family="Arial" font-size="5" fill="black">29</text>
</g>
</svg>
