<?xml version="1.0" encoding="UTF-8" standalone="no"?>
<svg xmlns="http://www.w3.org/2000/svg" width="1760" height="800" viewBox="-189.474 -189.474 1760 800">
<g transform="translate(0,0)">
<rect x="-189.474" y="-189.474" width="800" height="800" fill="white"/>
<g>
<line x1="21.0526" y1="21.0526" x2="246.186" y2="368.282" stroke="rgb(128,0,127)" stroke-width="2"/>
<line x1="246.186" y1="368.282" x2="327.416" y2="332.13" stroke="rgb(128,0,127)" stroke-width="2"/>
<line x1="327.416" y1="332.13" x2="327.416" y2="337.477" stroke="rgb(128,0,127)" stroke-width="2"/>
<line x1="327.416" y1="337.477" x2="327.416" y2="348.172" stroke="rgb(128,0,127)" stroke-width="2"/>
<line x1="327.416" y1="348.172" x2="348.806" y2="342.824" stroke="rgb(128,0,127)" stroke-width="2"/>
<line x1="348.806" y1="342.824" x2="54.4919" y2="96.9713" stroke="rgb(128,0,127)" stroke-width="2"/>
<line x1="54.4919" y1="96.9713" x2="348.806" y2="332.13" stroke="rgb(128,0,127)" stroke-width="2"/>
<line x1="348.806" y1="332.13" x2="214.102" y2="368.282" stroke="rgb(128,0,127)" stroke-width="2"/>
<line x1="214.102" y1="368.282" x2="86.5761" y2="107.666" stroke="rgb(128,0,127)" stroke-width="2"/>
<line x1="86.5761" y1="107.666" x2="54.4919" y2="107.666" stroke="rgb(128,0,127)" stroke-width="2"/>
<line x1="54.4919" y1="107.666" x2="348.806" y2="337.477" stroke="rgb(128,0,127)" stroke-width="2"/>
<line x1="348.806" y1="337.477" x2="54.4919" y2="75.5818" stroke="rgb(128,0,127)" stroke-width="2"/>
<line x1="54.4919" y1="75.5818" x2="86.5761" y2="96.9713" stroke="rgb(128,0,127)" stroke-width="2"/>
<line x1="86.5761" y1="96.9713" x2="86.5761" y2="86.2765" stroke="rgb(128,0,127)" stroke-width="2"/>
<line x1="86.5761" y1="86.2765" x2="348.806" y2="348.172" stroke="rgb(128,0,127)" stroke-width="2"/>
<line x1="348.806" y1="348.172" x2="400" y2="400" stroke="rgb(128,0,127)" stroke-width="2"/>
<line x1="400" y1="400" x2="86.5761" y2="139.75" stroke="rgb(128,0,127)" stroke-width="2"/>
<line x1="86.5761" y1="139.75" x2="86.5761" y2="118.361" stroke="rgb(128,0,127)" stroke-width="2"/>
<line x1="86.5761" y1="118.361" x2="256.881" y2="368.282" stroke="rgb(128,0,127)" stroke-width="2"/>
<line x1="256.881" y1="368.282" x2="86.5761" y2="129.055" stroke="rgb(128,0,127)" stroke-width="2"/>
<line x1="86.5761" y1="129.055" x2="224.796" y2="368.282" stroke="rgb(128,0,127)" stroke-width="2"/>
<line x1="224.796" y1="368.282" x2="86.5761" y2="75.5818" stroke="rgb(128,0,127)" stroke-width="2"/>
<line x1="86.5761" y1="75.5818" x2="54.4919" y2="118.361" stroke="rgb(128,0,127)" stroke-width="2"/>
<line x1="54.4919" y1="118.361" x2="400" y2="21.0526" stroke="rgb(128,0,127)" stroke-width="2"/>
<line x1="400" y1="21.0526" x2="327.416" y2="342.824" stroke="rgb(128,0,127)" stroke-width="2"/>
<line x1="327.416" y1="342.824" x2="54.4919" y2="86.2765" stroke="rgb(128,0,127)" stroke-width="2"/>
<line x1="54.4919" y1="86.2765" x2="21.0526" y2="400" stroke="rgb(128,0,127)" stroke-width="2"/>
<line x1="21.0526" y1="400" x2="54.4919" y2="129.055" stroke="rgb(128,0,127)" stroke-width="2"/>
<line x1="54.4919" y1="129.055" x2="235.491" y2="368.282" stroke="rgb(128,0,127)" stroke-width="2"/>
<line x1="235.491" y1="368.282" x2="54.4919" y2="139.75" stroke="rgb(128,0,127)" stroke-width="2"/>
<line x1="54.4919" y1="139.75" x2="21.0526" y2="21.0526" stroke="rgb(128,0,127)" stroke-width="2"/>
</g>
<g>
<circle cx="21.0526" cy="21.0526" r="8" fill="blue"/>
<text x="36.0526" y="26.0526" font-family="Arial" font-size="12" fill="black">0</text>
<circle cx="400" cy="21.0526" r="8" fill="blue"/>
<text x="415" y="26.0526" font-family="Arial" font-size="12" fill="black">1</text>
<circle cx="21.0526" cy="400" r="8" fill="blue"/>
<text x="36.0526" y="405" font-family="Arial" font-size="12" fill="black">2</text>
<circle cx="400" cy="400" r="8" fill="blue"/>
<text x="415" y="405" font-family="Arial" font-size="12" fill="black">3</text>
<circle cx="54.4919" cy="75.5818" r="8" fill="blue"/>
<text x="69.4919" y="80.5818" font-family="Arial" font-size="12" fill="black">4</text>
<circle cx="54.4919" cy="86.2765" r="8" fill="blue"/>
<text x="69.4919" y="91.2765" font-family="Arial" font-size="12" fill="black">5</text>
<circle cx="54.4919" cy="96.9713" r="8" fill="blue"/>
<text x="69.4919" y="101.971" font-family="Arial" font-size="12" fill="black">6</text>
<circle cx="54.4919" cy="107.666" r="8" fill="blue"/>
<text x="69.4919" y="112.666" font-family="Arial" font-size="12" fill="black">7</text>
<circle cx="54.4919" cy="118.361" r="8" fill="blue"/>
<text x="69.4919" y="123.361" font-family="Arial" font-size="12" fill="black">8</text>
<circle cx="54.4919" cy="129.055" r="8" fill="blue"/>
<text x="69.4919" y="134.055" font-family="Arial" font-size="12" fill="black">9</text>
<circle cx="54.4919" cy="139.75" r="8" fill="blue"/>
<text x="69.4919" y="144.75" font-family="Arial" font-size="12" fill="black">10</text>
<circle cx="86.5761" cy="75.5818" r="8" fill="blue"/>
<text x="101.576" y="80.5818" font-family="Arial" font-size="12" fill="black">11</text>
<circle cx="86.5761" cy="86.2765" r="8" fill="blue"/>
<text x="101.576" y="91.2765" font-family="Arial" font-size="12" fill="black">12</text>
<circle cx="86.5761" cy="96.9713" r="8" fill="blue"/>
<text x="101.576" y="101.971" font-family="Arial" font-size="12" fill="black">13</text>
<circle cx="86.5761" cy="107.666" r="8" fill="blue"/>
<text x="101.576" y="112.666" font-family="Arial" font-size="12" fill="black">14</text>
<circle cx="86.5761" cy="118.361" r="8" fill="blue"/>
<text x="101.576" y="123.361" font-family="Arial" font-size="12" fill="black">15</text>
<circle cx="86.5761" cy="129.055" r="8" fill="blue"/>
<text x="101.576" y="134.055" font-family="Arial" font-size="12" fill="black">16</text>
<circle cx="86.5761" cy="139.75" r="8" fill="blue"/>
<text x="101.576" y="144.75" font-family="Arial" font-size="12" fill="black">17</text>
<circle cx="327.416" cy="332.13" r="8" fill="blue"/>
<text x="342.416" y="337.13" font-family="Arial" font-size="12" fill="black">18</text>
<circle cx="327.416" cy="337.477" r="8" fill="blue"/>
<text x="342.416" y="342.477" font-family="Arial" font-size="12" fill="black">19</text>
<circle cx="327.416" cy="342.824" r="8" fill="blue"/>
<text x="342.416" y="347.824" font-family="Arial" font-size="12" fill="black">20</text>
<circle cx="327.416" cy="348.172" r="8" fill="blue"/>
<text x="342.416" y="353.172" font-family="Arial" font-size="12" fill="black">21</text>
<circle cx="348.806" cy="332.13" r="8" fill="blue"/>
<text x="363.806" y="337.13" font-family="Arial" font-size="12" fill="black">22</text>
<circle cx="348.806" cy="337.477" r="8" fill="blue"/>
<text x="363.806" y="342.477" font-family="Arial" font-size="12" fill="black">23</text>
<circle cx="348.806" cy="342.824" r="8" fill="blue"/>
<text x="363.806" y="347.824" font-family="Arial" font-size="12" fill="black">24</text>
<circle cx="348.806" cy="348.172" r="8" fill="blue"/>
<text x="363.806" y="353.172" font-family="Arial" font-size="12" fill="black">25</text>
<circle cx="214.102" cy="368.282" r="8" fill="blue"/>
<text x="229.102" y="373.282" font-family="Arial" font-size="12" fill="black">26</text>
<circle cx="224.796" cy="368.282" r="8" fill="blue"/>
<text x="239.796" y="373.282" font-family="Arial" font-size="12" fill="black">27</text>
<circle cx="235.491" cy="368.282" r="8" fill="blue"/>
<text x="250.491" y="373.282" font-family="Arial" font-size="12" fill="black">28</text>
<circle cx="246.186" cy="368.282" r="8" fill="blue"/>
<text x="261.186" y="373.282" font-family="Arial" font-size="12" fill="black">29</text>
<circle cx="256.881" cy="368.282" r="8" fill="blue"/>
<text x="271.881" y="373.282" font-family="Arial" font-size="12" fill="black">30</text>
</g>
<text x="-164.474" y="-164.474" font-family="Arial" font-size="14.4" fill="black"> Cost: 1678.62</text>
</g>
<g transform="translate(880.00,0)">
<rect x="-189.47" y="-189.47" width="800.00" height="800.00" fill="white"/>
<g>
<line x1="348.81" y1="332.13" x2="348.81" y2="337.48" stroke="rgb(128,0,127)" stroke-width="2.00"/>
<line x1="348.81" y1="337.48" x2="348.81" y2="342.82" stroke="rgb(128,0,127)" stroke-width="2.00"/>
<line x1="348.81" y1="342.82" x2="400.00" y2="400.00" stroke="rgb(128,0,127)" stroke-width="2.00"/>
<line x1="400.00" y1="400.00" x2="348.81" y2="348.17" stroke="rgb(128,0,127)" stroke-width="2.00"/>
<line x1="348.81" y1="348.17" x2="327.42" y2="332.13" stroke="rgb(128,0,127)" stroke-width="2.00"/>
<line x1="327.42" y1="332.13" x2="327.42" y2="337.48" stroke="rgb(128,0,127)" stroke-width="2.00"/>
<line x1="327.42" y1="337.48" x2="327.42" y2="342.82" stroke="rgb(128,0,127)" stroke-width="2.00"/>
<line x1="327.42" y1="342.82" x2="327.42" y2="348.17" stroke="rgb(128,0,127)" stroke-width="2.00"/>
<line x1="327.42" y1="348.17" x2="256.88" y2="368.28" stroke="rgb(128,0,127)" stroke-width="2.00"/>
<line x1="256.88" y1="368.28" x2="246.19" y2="368.28" stroke="rgb(128,0,127)" stroke-width="2.00"/>
<line x1="246.19" y1="368.28" x2="235.49" y2="368.28" stroke="rgb(128,0,127)" stroke-width="2.00"/>
<line x1="235.49" y1="368.28" x2="224.80" y2="368.28" stroke="rgb(128,0,127)" stroke-width="2.00"/>
<line x1="224.80" y1="368.28" x2="214.10" y2="368.28" stroke="rgb(128,0,127)" stroke-width="2.00"/>
<line x1="214.10" y1="368.28" x2="21.05" y2="400.00" stroke="rgb(128,0,127)" stroke-width="2.00"/>
<line x1="21.05" y1="400.00" x2="400.00" y2="21.05" stroke="rgb(128,0,127)" stroke-width="2.00"/>
<line x1="400.00" y1="21.05" x2="86.58" y2="75.58" stroke="rgb(128,0,127)" stroke-width="2.00"/>
<line x1="86.58" y1="75.58" x2="86.58" y2="86.28" stroke="rgb(128,0,127)" stroke-width="2.00"/>
<line x1="86.58" y1="86.28" x2="86.58" y2="96.97" stroke="rgb(128,0,127)" stroke-width="2.00"/>
<line x1="86.58" y1="96.97" x2="86.58" y2="107.67" stroke="rgb(128,0,127)" stroke-width="2.00"/>
<line x1="86.58" y1="107.67" x2="86.58" y2="118.36" stroke="rgb(128,0,127)" stroke-width="2.00"/>
<line x1="86.58" y1="118.36" x2="86.58" y2="129.06" stroke="rgb(128,0,127)" stroke-width="2.00"/>
<line x1="86.58" y1="129.06" x2="86.58" y2="139.75" stroke="rgb(128,0,127)" stroke-width="2.00"/>
<line x1="86.58" y1="139.75" x2="54.49" y2="139.75" stroke="rgb(128,0,127)" stroke-width="2.00"/>
<line x1="54.49" y1="139.75" x2="54.49" y2="129.06" stroke="rgb(128,0,127)" stroke-width="2.00"/>
<line x1="54.49" y1="129.06" x2="54.49" y2="118.36" stroke="rgb(128,0,127)" stroke-width="2.00"/>
<line x1="54.49" y1="118.36" x2="54.49" y2="107.67" stroke="rgb(128,0,127)" stroke-width="2.00"/>
<line x1="54.49" y1="107.67" x2="54.49" y2="96.97" stroke="rgb(128,0,127)" stroke-width="2.00"/>
<line x1="54.49" y1="96.97" x2="54.49" y2="86.28" stroke="rgb(128,0,127)" stroke-width="2.00"/>
<line x1="54.49" y1="86.28" x2="54.49" y2="75.58" stroke="rgb(128,0,127)" stroke-width="2.00"/>
<line x1="54.49" y1="75.58" x2="21.05" y2="21.05" stroke="rgb(128,0,127)" stroke-width="2.00"/>
<line x1="21.05" y1="21.05" x2="21.05" y2="21.05" stroke="rgb(128,0,127)" stroke-width="2.00"/>
</g>
<g>
<circle cx="21.05" cy="21.05" r="8.00" fill="blue"/>
<text x="36.05" y="26.05" font-family="Arial" font-size="12.00" fill="black">0</text>
<circle cx="400.00" cy="21.05" r="8.00" fill="blue"/>
<text x="415.00" y="26.05" font-family="Arial" font-size="12.00" fill="black">1</text>
<circle cx="21.05" cy="400.00" r="8.00" fill="blue"/>
<text x="36.05" y="405.00" font-family="Arial" font-size="12.00" fill="black">2</text>
<circle cx="400.00" cy="400.00" r="8.00" fill="blue"/>
<text x="415.00" y="405.00" font-family="Arial" font-size="12.00" fill="black">3</text>
<circle cx="54.49" cy="75.58" r="8.00" fill="blue"/>
<text x="69.49" y="80.58" font-family="Arial" font-size="12.00" fill="black">4</text>
<circle cx="54.49" cy="86.28" r="8.00" fill="blue"/>
<text x="69.49" y="91.28" font-family="Arial" font-size="12.00" fill="black">5</text>
<circle cx="54.49" cy="96.97" r="8.00" fill="blue"/>
<text x="69.49" y="101.97" font-family="Arial" font-size="12.00" fill="black">6</text>
<circle cx="54.49" cy="107.67" r="8.00" fill="blue"/>
<text x="69.49" y="112.67" font-family="Arial" font-size="12.00" fill="black">7</text>
<circle cx="54.49" cy="118.36" r="8.00" fill="blue"/>
<text x="69.49" y="123.36" font-family="Arial" font-size="12.00" fill="black">8</text>
<circle cx="54.49" cy="129.06" r="8.00" fill="blue"/>
<text x="69.49" y="134.06" font-family="Arial" font-size="12.00" fill="black">9</text>
<circle cx="54.49" cy="139.75" r="8.00" fill="blue"/>
<text x="69.49" y="144.75" font-family="Arial" font-size="12.00" fill="black">10</text>
<circle cx="86.58" cy="75.58" r="8.00" fill="blue"/>
<text x="101.58" y="80.58" font-family="Arial" font-size="12.00" fill="black">11</text>
<circle cx="86.58" cy="86.28" r="8.00" fill="blue"/>
<text x="101.58" y="91.28" font-family="Arial" font-size="12.00" fill="black">12</text>
<circle cx="86.58" cy="96.97" r="8.00" fill="blue"/>
<text x="101.58" y="101.97" font-family="Arial" font-size="12.00" fill="black">13</text>
<circle cx="86.58" cy="107.67" r="8.00" fill="blue"/>
<text x="101.58" y="112.67" font-family="Arial" font-size="12.00" fill="black">14</text>
<circle cx="86.58" cy="118.36" r="8.00" fill="blue"/>
<text x="101.58" y="123.36" font-family="Arial" font-size="12.00" fill="black">15</text>
<circle cx="86.58" cy="129.06" r="8.00" fill="blue"/>
<text x="101.58" y="134.06" font-family="Arial" font-size="12.00" fill="black">16</text>
<circle cx="86.58" cy="139.75" r="8.00" fill="blue"/>
<text x="101.58" y="144.75" font-family="Arial" font-size="12.00" fill="black">17</text>
<circle cx="327.42" cy="332.13" r="8.00" fill="blue"/>
<text x="342.42" y="337.13" font-family="Arial" font-size="12.00" fill="black">18</text>
<circle cx="327.42" cy="337.48" r="8.00" fill="blue"/>
<text x="342.42" y="342.48" font-family="Arial" font-size="12.00" fill="black">19</text>
<circle cx="327.42" cy="342.82" r="8.00" fill="blue"/>
<text x="342.42" y="347.82" font-family="Arial" font-size="12.00" fill="black">20</text>
<circle cx="327.42" cy="348.17" r="8.00" fill="blue"/>
<text x="342.42" y="353.17" font-family="Arial" font-size="12.00" fill="black">21</text>
<circle cx="348.81" cy="332.13" r="8.00" fill="blue"/>
<text x="363.81" y="337.13" font-family="Arial" font-size="12.00" fill="black">22</text>
<circle cx="348.81" cy="337.48" r="8.00" fill="blue"/>
<text x="363.81" y="342.48" font-family="Arial" font-size="12.00" fill="black">23</text>
<circle cx="348.81" cy="342.82" r="8.00" fill="blue"/>
<text x="363.81" y="347.82" font-family="Arial" font-size="12.00" fill="black">24</text>
<circle cx="348.81" cy="348.17" r="8.00" fill="blue"/>
<text x="363.81" y="353.17" font-family="Arial" font-size="12.00" fill="black">25</text>
<circle cx="214.10" cy="368.28" r="8.00" fill="blue"/>
<text x="229.10" y="373.28" font-family="Arial" font-size="12.00" fill="black">26</text>
<circle cx="224.80" cy="368.28" r="8.00" fill="blue"/>
<text x="239.80" y="373.28" font-family="Arial" font-size="12.00" fill="black">27</text>
<circle cx="235.49" cy="368.28" r="8.00" fill="blue"/>
<text x="250.49" y="373.28" font-family="Arial" font-size="12.00" fill="black">28</text>
<circle cx="246.19" cy="368.28" r="8.00" fill="blue"/>
<text x="261.19" y="373.28" font-family="Arial" font-size="12.00" fill="black">29</text>
<circle cx="256.88" cy="368.28" r="8.00" fill="blue"/>
<text x="271.88" y="373.28" font-family="Arial" font-size="12.00" fill="black">30</text>
</g>
<text x="-164.47" y="-164.47" font-family="Arial" font-size="14.40" fill="black"> Cost: 378.40</text>
</g>
</svg>
