<?xml version="1.0" encoding="UTF-8" standalone="no"?>
<svg xmlns="http://www.w3.org/2000/svg" width="800" height="800" viewBox="-167.442 -167.442 800 800">
<rect x="-167.442" y="-167.442" width="800" height="800" fill="white"/>
<g>
<line x1="446.512" y1="18.6047" x2="362.824" y2="323.846" stroke="rgb(0,0,255)" stroke-width="2"/>
<line x1="362.824" y1="323.846" x2="362.824" y2="328.572" stroke="rgb(6,0,249)" stroke-width="2"/>
<line x1="362.824" y1="328.572" x2="362.824" y2="333.298" stroke="rgb(13,0,242)" stroke-width="2"/>
<line x1="362.824" y1="333.298" x2="362.824" y2="338.023" stroke="rgb(19,0,236)" stroke-width="2"/>
<line x1="362.824" y1="338.023" x2="381.726" y2="323.846" stroke="rgb(26,0,229)" stroke-width="2"/>
<line x1="381.726" y1="323.846" x2="381.726" y2="328.572" stroke="rgb(32,0,223)" stroke-width="2"/>
<line x1="381.726" y1="328.572" x2="381.726" y2="333.298" stroke="rgb(39,0,216)" stroke-width="2"/>
<line x1="381.726" y1="333.298" x2="381.726" y2="338.023" stroke="rgb(45,0,210)" stroke-width="2"/>
<line x1="381.726" y1="338.023" x2="446.512" y2="446.512" stroke="rgb(52,0,203)" stroke-width="2"/>
<line x1="446.512" y1="446.512" x2="271.622" y2="366.813" stroke="rgb(58,0,197)" stroke-width="2"/>
<line x1="271.622" y1="366.813" x2="271.622" y2="362.088" stroke="rgb(65,0,190)" stroke-width="2"/>
<line x1="271.622" y1="362.088" x2="271.622" y2="357.362" stroke="rgb(71,0,184)" stroke-width="2"/>
<line x1="271.622" y1="357.362" x2="271.622" y2="352.637" stroke="rgb(78,0,177)" stroke-width="2"/>
<line x1="271.622" y1="352.637" x2="252.72" y2="366.813" stroke="rgb(85,0,170)" stroke-width="2"/>
<line x1="252.72" y1="366.813" x2="252.72" y2="362.088" stroke="rgb(91,0,164)" stroke-width="2"/>
<line x1="252.72" y1="362.088" x2="252.72" y2="357.362" stroke="rgb(98,0,157)" stroke-width="2"/>
<line x1="252.72" y1="357.362" x2="252.72" y2="352.637" stroke="rgb(104,0,151)" stroke-width="2"/>
<line x1="252.72" y1="352.637" x2="215.57" y2="273.541" stroke="rgb(111,0,144)" stroke-width="2"/>
<line x1="215.57" y1="273.541" x2="215.57" y2="264.09" stroke="rgb(117,0,138)" stroke-width="2"/>
<line x1="215.57" y1="264.09" x2="215.57" y2="254.639" stroke="rgb(124,0,131)" stroke-width="2"/>
<line x1="215.57" y1="254.639" x2="215.57" y2="245.188" stroke="rgb(130,0,125)" stroke-width="2"/>
<line x1="215.57" y1="245.188" x2="215.57" y2="235.737" stroke="rgb(137,0,118)" stroke-width="2"/>
<line x1="215.57" y1="235.737" x2="215.57" y2="226.286" stroke="rgb(143,0,112)" stroke-width="2"/>
<line x1="215.57" y1="226.286" x2="215.57" y2="216.834" stroke="rgb(150,0,105)" stroke-width="2"/>
<line x1="215.57" y1="216.834" x2="187.216" y2="216.834" stroke="rgb(156,0,99)" stroke-width="2"/>
<line x1="187.216" y1="216.834" x2="187.216" y2="226.286" stroke="rgb(163,0,92)" stroke-width="2"/>
<line x1="187.216" y1="226.286" x2="187.216" y2="235.737" stroke="rgb(170,0,85)" stroke-width="2"/>
<line x1="187.216" y1="235.737" x2="187.216" y2="245.188" stroke="rgb(176,0,79)" stroke-width="2"/>
<line x1="187.216" y1="245.188" x2="187.216" y2="254.639" stroke="rgb(183,0,72)" stroke-width="2"/>
<line x1="187.216" y1="254.639" x2="187.216" y2="264.09" stroke="rgb(189,0,66)" stroke-width="2"/>
<line x1="187.216" y1="264.09" x2="187.216" y2="273.541" stroke="rgb(196,0,59)" stroke-width="2"/>
<line x1="187.216" y1="273.541" x2="18.6047" y2="446.512" stroke="rgb(202,0,53)" stroke-width="2"/>
<line x1="18.6047" y1="446.512" x2="69.9165" y2="268.59" stroke="rgb(209,0,46)" stroke-width="2"/>
<line x1="69.9165" y1="268.59" x2="79.3676" y2="268.59" stroke="rgb(215,0,40)" stroke-width="2"/>
<line x1="79.3676" y1="268.59" x2="88.8188" y2="268.59" stroke="rgb(222,0,33)" stroke-width="2"/>
<line x1="88.8188" y1="268.59" x2="98.2699" y2="268.59" stroke="rgb(228,0,27)" stroke-width="2"/>
<line x1="98.2699" y1="268.59" x2="107.721" y2="268.59" stroke="rgb(235,0,20)" stroke-width="2"/>
<line x1="107.721" y1="268.59" x2="18.6047" y2="18.6047" stroke="rgb(241,0,14)" stroke-width="2"/>
<line x1="18.6047" y1="18.6047" x2="18.6047" y2="18.6047" stroke="rgb(248,0,7)" stroke-width="2"/>
</g>
<g>
<circle cx="18.6047" cy="18.6047" r="8" fill="blue"/>
<text x="33.6047" y="23.6047" font-family="Arial" font-size="12" fill="black">0</text>
<circle cx="446.512" cy="18.6047" r="8" fill="blue"/>
<text x="461.512" y="23.6047" font-family="Arial" font-size="12" fill="black">1</text>
<circle cx="18.6047" cy="446.512" r="8" fill="blue"/>
<text x="33.6047" y="451.512" font-family="Arial" font-size="12" fill="black">2</text>
<circle cx="446.512" cy="446.512" r="8" fill="blue"/>
<text x="461.512" y="451.512" font-family="Arial" font-size="12" fill="black">3</text>
<circle cx="187.216" cy="216.834" r="8" fill="blue"/>
<text x="202.216" y="221.834" font-family="Arial" font-size="12" fill="black">4</text>
<circle cx="187.216" cy="226.286" r="8" fill="blue"/>
<text x="202.216" y="231.286" font-family="Arial" font-size="12" fill="black">5</text>
<circle cx="187.216" cy="235.737" r="8" fill="blue"/>
<text x="202.216" y="240.737" font-family="Arial" font-size="12" fill="black">6</text>
<circle cx="187.216" cy="245.188" r="8" fill="blue"/>
<text x="202.216" y="250.188" font-family="Arial" font-size="12" fill="black">7</text>
<circle cx="187.216" cy="254.639" r="8" fill="blue"/>
<text x="202.216" y="259.639" font-family="Arial" font-size="12" fill="black">8</text>
<circle cx="187.216" cy="264.09" r="8" fill="blue"/>
<text x="202.216" y="269.09" font-family="Arial" font-size="12" fill="black">9</text>
<circle cx="187.216" cy="273.541" r="8" fill="blue"/>
<text x="202.216" y="278.541" font-family="Arial" font-size="12" fill="black">10</text>
<circle cx="215.57" cy="216.834" r="8" fill="blue"/>
<text x="230.57" y="221.834" font-family="Arial" font-size="12" fill="black">11</text>
<circle cx="215.57" cy="226.286" r="8" fill="blue"/>
<text x="230.57" y="231.286" font-family="Arial" font-size="12" fill="black">12</text>
<circle cx="215.57" cy="235.737" r="8" fill="blue"/>
<text x="230.57" y="240.737" font-family="Arial" font-size="12" fill="black">13</text>
<circle cx="215.57" cy="245.188" r="8" fill="blue"/>
<text x="230.57" y="250.188" font-family="Arial" font-size="12" fill="black">14</text>
<circle cx="215.57" cy="254.639" r="8" fill="blue"/>
<text x="230.57" y="259.639" font-family="Arial" font-size="12" fill="black">15</text>
<circle cx="215.57" cy="264.09" r="8" fill="blue"/>
<text x="230.57" y="269.09" font-family="Arial" font-size="12" fill="black">16</text>
<circle cx="215.57" cy="273.541" r="8" fill="blue"/>
<text x="230.57" y="278.541" font-family="Arial" font-size="12" fill="black">17</text>
<circle cx="69.9165" cy="268.59" r="8" fill="blue"/>
<text x="84.9165" y="273.59" font-family="Arial" font-size="12" fill="black">18</text>
<circle cx="79.3676" cy="268.59" r="8" fill="blue"/>
<text x="94.3676" y="273.59" font-family="Arial" font-size="12" fill="black">19</text>
<circle cx="88.8188" cy="268.59" r="8" fill="blue"/>
<text x="103.819" y="273.59" font-family="Arial" font-size="12" fill="black">20</text>
<circle cx="98.2699" cy="268.59" r="8" fill="blue"/>
<text x="113.27" y="273.59" font-family="Arial" font-size="12" fill="black">21</text>
<circle cx="107.721" cy="268.59" r="8" fill="blue"/>
<text x="122.721" y="273.59" font-family="Arial" font-size="12" fill="black">22</text>
<circle cx="362.824" cy="323.846" r="8" fill="blue"/>
<text x="377.824" y="328.846" font-family="Arial" font-size="12" fill="black">23</text>
<circle cx="362.824" cy="328.572" r="8" fill="blue"/>
<text x="377.824" y="333.572" font-family="Arial" font-size="12" fill="black">24</text>
<circle cx="362.824" cy="333.298" r="8" fill="blue"/>
<text x="377.824" y="338.298" font-family="Arial" font-size="12" fill="black">25</text>
<circle cx="362.824" cy="338.023" r="8" fill="blue"/>
<text x="377.824" y="343.023" font-family="Arial" font-size="12" fill="black">26</text>
<circle cx="381.726" cy="323.846" r="8" fill="blue"/>
<text x="396.726" y="328.846" font-family="Arial" font-size="12" fill="black">27</text>
<circle cx="381.726" cy="328.572" r="8" fill="blue"/>
<text x="396.726" y="333.572" font-family="Arial" font-size="12" fill="black">28</text>
<circle cx="381.726" cy="333.298" r="8" fill="blue"/>
<text x="396.726" y="338.298" font-family="Arial" font-size="12" fill="black">29</text>
<circle cx="381.726" cy="338.023" r="8" fill="blue"/>
<text x="396.726" y="343.023" font-family="Arial" font-size="12" fill="black">30</text>
<circle cx="252.72" cy="352.637" r="8" fill="blue"/>
<text x="267.72" y="357.637" font-family="Arial" font-size="12" fill="black">31</text>
<circle cx="252.72" cy="357.362" r="8" fill="blue"/>
<text x="267.72" y="362.362" font-family="Arial" font-size="12" fill="black">32</text>
<circle cx="252.72" cy="362.088" r="8" fill="blue"/>
<text x="267.72" y="367.088" font-family="Arial" font-size="12" fill="black">33</text>
<circle cx="252.72" cy="366.813" r="8" fill="blue"/>
<text x="267.72" y="371.813" font-family="Arial" font-size="12" fill="black">34</text>
<circle cx="271.622" cy="352.637" r="8" fill="blue"/>
<text x="286.622" y="357.637" font-family="Arial" font-size="12" fill="black">35</text>
<circle cx="271.622" cy="357.362" r="8" fill="blue"/>
<text x="286.622" y="362.362" font-family="Arial" font-size="12" fill="black">36</text>
<circle cx="271.622" cy="362.088" r="8" fill="blue"/>
<text x="286.622" y="367.088" font-family="Arial" font-size="12" fill="black">37</text>
<circle cx="271.622" cy="366.813" r="8" fill="blue"/>
<text x="286.622" y="371.813" font-family="Arial" font-size="12" fill="black">38</text>
</g>
<text x="-142.442" y="-142.442" font-family="Arial" font-size="14.4" fill="black"> Cost: 456.36</text>
</svg>
