<?xml version="1.0" encoding="UTF-8" standalone="no"?>
<svg xmlns="http://www.w3.org/2000/svg" viewBox="-5 -5 60 60">
<rect x="-5" y="-5" width="60" height="60" fill="white"/>
<g>
<line x1="5" y1="5" x2="18.5019" y2="15.6434" stroke="rgb(0,0,255)" stroke-width="0.8"/>
<line x1="18.5019" y1="15.6434" x2="18.5019" y2="18.1834" stroke="rgb(7,0,248)" stroke-width="0.8"/>
<line x1="18.5019" y1="18.1834" x2="18.5019" y2="20.7234" stroke="rgb(15,0,240)" stroke-width="0.8"/>
<line x1="18.5019" y1="20.7234" x2="45" y2="5" stroke="rgb(23,0,232)" stroke-width="0.8"/>
<line x1="45" y1="5" x2="45" y2="45" stroke="rgb(31,0,224)" stroke-width="0.8"/>
<line x1="45" y1="45" x2="18.5019" y2="30.8834" stroke="rgb(39,0,216)" stroke-width="0.8"/>
<line x1="18.5019" y1="30.8834" x2="18.5019" y2="28.3434" stroke="rgb(47,0,208)" stroke-width="0.8"/>
<line x1="18.5019" y1="28.3434" x2="18.5019" y2="25.8034" stroke="rgb(55,0,200)" stroke-width="0.8"/>
<line x1="18.5019" y1="25.8034" x2="18.5019" y2="23.2634" stroke="rgb(63,0,192)" stroke-width="0.8"/>
<line x1="18.5019" y1="23.2634" x2="13.3296" y2="24.8351" stroke="rgb(71,0,184)" stroke-width="0.8"/>
<line x1="13.3296" y1="24.8351" x2="13.3296" y2="27.3751" stroke="rgb(79,0,176)" stroke-width="0.8"/>
<line x1="13.3296" y1="27.3751" x2="10.8819" y2="28.3434" stroke="rgb(87,0,168)" stroke-width="0.8"/>
<line x1="10.8819" y1="28.3434" x2="10.8819" y2="30.8834" stroke="rgb(95,0,160)" stroke-width="0.8"/>
<line x1="10.8819" y1="30.8834" x2="13.3296" y2="29.9151" stroke="rgb(103,0,152)" stroke-width="0.8"/>
<line x1="13.3296" y1="29.9151" x2="13.3296" y2="32.4551" stroke="rgb(111,0,144)" stroke-width="0.8"/>
<line x1="13.3296" y1="32.4551" x2="13.3296" y2="34.9951" stroke="rgb(119,0,136)" stroke-width="0.8"/>
<line x1="13.3296" y1="34.9951" x2="13.3296" y2="37.5351" stroke="rgb(127,0,128)" stroke-width="0.8"/>
<line x1="13.3296" y1="37.5351" x2="13.3296" y2="40.0751" stroke="rgb(135,0,120)" stroke-width="0.8"/>
<line x1="13.3296" y1="40.0751" x2="5" y2="45" stroke="rgb(143,0,112)" stroke-width="0.8"/>
<line x1="5" y1="45" x2="5.70958" y2="40.0751" stroke="rgb(151,0,104)" stroke-width="0.8"/>
<line x1="5.70958" y1="40.0751" x2="5.70958" y2="37.5351" stroke="rgb(159,0,96)" stroke-width="0.8"/>
<line x1="5.70958" y1="37.5351" x2="5.70958" y2="34.9951" stroke="rgb(167,0,88)" stroke-width="0.8"/>
<line x1="5.70958" y1="34.9951" x2="5.70958" y2="32.4551" stroke="rgb(175,0,80)" stroke-width="0.8"/>
<line x1="5.70958" y1="32.4551" x2="5.70958" y2="29.9151" stroke="rgb(183,0,72)" stroke-width="0.8"/>
<line x1="5.70958" y1="29.9151" x2="5.70958" y2="27.3751" stroke="rgb(191,0,64)" stroke-width="0.8"/>
<line x1="5.70958" y1="27.3751" x2="5.70958" y2="24.8351" stroke="rgb(199,0,56)" stroke-width="0.8"/>
<line x1="5.70958" y1="24.8351" x2="10.8819" y2="25.8034" stroke="rgb(207,0,48)" stroke-width="0.8"/>
<line x1="10.8819" y1="25.8034" x2="10.8819" y2="23.2634" stroke="rgb(215,0,40)" stroke-width="0.8"/>
<line x1="10.8819" y1="23.2634" x2="10.8819" y2="20.7234" stroke="rgb(223,0,32)" stroke-width="0.8"/>
<line x1="10.8819" y1="20.7234" x2="10.8819" y2="18.1834" stroke="rgb(231,0,24)" stroke-width="0.8"/>
<line x1="10.8819" y1="18.1834" x2="10.8819" y2="15.6434" stroke="rgb(239,0,16)" stroke-width="0.8"/>
<line x1="10.8819" y1="15.6434" x2="5" y2="5" stroke="rgb(247,0,8)" stroke-width="0.8"/>
</g>
<g>
<circle cx="5" cy="5" r="2" fill="blue"/>
<text x="7.5" y="5" font-family="Arial" font-size="5" fill="black">0</text>
<circle cx="45" cy="5" r="2" fill="blue"/>
<text x="47.5" y="5" font-family="Arial" font-size="5" fill="black">1</text>
<circle cx="5" cy="45" r="2" fill="blue"/>
<text x="7.5" y="45" font-family="Arial" font-size="5" fill="black">2</text>
<circle cx="45" cy="45" r="2" fill="blue"/>
<text x="47.5" y="45" font-family="Arial" font-size="5" fill="black">3</text>
<circle cx="10.8819" cy="15.6434" r="2" fill="blue"/>
<text x="13.3819" y="15.6434" font-family="Arial" font-size="5" fill="black">4</text>
<circle cx="10.8819" cy="18.1834" r="2" fill="blue"/>
<text x="13.3819" y="18.1834" font-family="Arial" font-size="5" fill="black">5</text>
<circle cx="10.8819" cy="20.7234" r="2" fill="blue"/>
<text x="13.3819" y="20.7234" font-family="Arial" font-size="5" fill="black">6</text>
<circle cx="10.8819" cy="23.2634" r="2" fill="blue"/>
<text x="13.3819" y="23.2634" font-family="Arial" font-size="5" fill="black">7</text>
<circle cx="10.8819" cy="25.8034" r="2" fill="blue"/>
<text x="13.3819" y="25.8034" font-family="Arial" font-size="5" fill="black">8</text>
<circle cx="10.8819" cy="28.3434" r="2" fill="blue"/>
<text x="13.3819" y="28.3434" font-family="Arial" font-size="5" fill="black">9</text>
<circle cx="10.8819" cy="30.8834" r="2" fill="blue"/>
<text x="13.3819" y="30.8834" font-family="Arial" font-size="5" fill="black">10</text>
<circle cx="18.5019" cy="15.6434" r="2" fill="blue"/>
<text x="21.0019" y="15.6434" font-family="Arial" font-size="5" fill="black">11</text>
<circle cx="18.5019" cy="18.1834" r="2" fill="blue"/>
<text x="21.0019" y="18.1834" font-family="Arial" font-size="5" fill="black">12</text>
<circle cx="18.5019" cy="20.7234" r="2" fill="blue"/>
<text x="21.0019" y="20.7234" font-family="Arial" font-size="5" fill="black">13</text>
<circle cx="18.5019" cy="23.2634" r="2" fill="blue"/>
<text x="21.0019" y="23.2634" font-family="Arial" font-size="5" fill="black">14</text>
<circle cx="18.5019" cy="25.8034" r="2" fill="blue"/>
<text x="21.0019" y="25.8034" font-family="Arial" font-size="5" fill="black">15</text>
<circle cx="18.5019" cy="28.3434" r="2" fill="blue"/>
<text x="21.0019" y="28.3434" font-family="Arial" font-size="5" fill="black">16</text>
<circle cx="18.5019" cy="30.8834" r="2" fill="blue"/>
<text x="21.0019" y="30.8834" font-family="Arial" font-size="5" fill="black">17</text>
<circle cx="5.70958" cy="24.8351" r="2" fill="blue"/>
<text x="8.20958" y="24.8351" font-family="Arial" font-size="5" fill="black">18</text>
<circle cx="5.70958" cy="27.3751" r="2" fill="blue"/>
<text x="8.20958" y="27.3751" font-family="Arial" font-size="5" fill="black">19</text>
<circle cx="5.70958" cy="29.9151" r="2" fill="blue"/>
<text x="8.20958" y="29.9151" font-family="Arial" font-size="5" fill="black">20</text>
<circle cx="5.70958" cy="32.4551" r="2" fill="blue"/>
<text x="8.20958" y="32.4551" font-family="Arial" font-size="5" fill="black">21</text>
<circle cx="5.70958" cy="34.9951" r="2" fill="blue"/>
<text x="8.20958" y="34.9951" font-family="Arial" font-size="5" fill="black">22</text>
<circle cx="5.70958" cy="37.5351" r="2" fill="blue"/>
<text x="8.20958" y="37.5351" font-family="Arial" font-size="5" fill="black">23</text>
<circle cx="5.70958" cy="40.0751" r="2" fill="blue"/>
<text x="8.20958" y="40.0751" font-family="Arial" font-size="5" fill="black">24</text>
<circle cx="13.3296" cy="24.8351" r="2" fill="blue"/>
<text x="15.8296" y="24.8351" font-family="Arial" font-size="5" fill="black">25</text>
<circle cx="13.3296" cy="27.3751" r="2" fill="blue"/>
<text x="15.8296" y="27.3751" font-family="Arial" font-size="5" fill="black">26</text>
<circle cx="13.3296" cy="29.9151" r="2" fill="blue"/>
<text x="15.8296" y="29.9151" font-family="Arial" font-size="5" fill="black">27</text>
<circle cx="13.3296" cy="32.4551" r="2" fill="blue"/>
<text x="15.8296" y="32.4551" font-family="Arial" font-size="5" fill="black">28</text>
<circle cx="13.3296" cy="34.9951" r="2" fill="blue"/>
<text x="15.8296" y="34.9951" font-family="Arial" font-size="5" fill="black">29</text>
<circle cx="13.3296" cy="37.5351" r="2" fill="blue"/>
<text x="15.8296" y="37.5351" font-family="Arial" font-size="5" fill="black">30</text>
<circle cx="13.3296" cy="40.0751" r="2" fill="blue"/>
<text x="15.8296" y="40.0751" font-family="Arial" font-size="5" fill="black">31</text>
</g>
</svg>
