<?xml version="1.0" encoding="UTF-8" standalone="no"?>
<svg xmlns="http://www.w3.org/2000/svg" viewBox="-5 -5 110 110">
<rect x="-5" y="-5" width="110" height="110" fill="white"/>
<g>
<line x1="5" y1="5" x2="95" y2="5" stroke="rgb(0,0,255)" stroke-width="0.8"/>
<line x1="95" y1="5" x2="86.1565" y2="69.7528" stroke="rgb(6,0,249)" stroke-width="0.8"/>
<line x1="86.1565" y1="69.7528" x2="86.1565" y2="72.2928" stroke="rgb(13,0,242)" stroke-width="0.8"/>
<line x1="86.1565" y1="72.2928" x2="86.1565" y2="74.8328" stroke="rgb(20,0,235)" stroke-width="0.8"/>
<line x1="86.1565" y1="74.8328" x2="86.1565" y2="77.3728" stroke="rgb(27,0,228)" stroke-width="0.8"/>
<line x1="86.1565" y1="77.3728" x2="86.1565" y2="79.9128" stroke="rgb(34,0,221)" stroke-width="0.8"/>
<line x1="86.1565" y1="79.9128" x2="86.1565" y2="82.4528" stroke="rgb(41,0,214)" stroke-width="0.8"/>
<line x1="86.1565" y1="82.4528" x2="86.1565" y2="84.9928" stroke="rgb(48,0,207)" stroke-width="0.8"/>
<line x1="86.1565" y1="84.9928" x2="95" y2="95" stroke="rgb(55,0,200)" stroke-width="0.8"/>
<line x1="95" y1="95" x2="78.5365" y2="84.9928" stroke="rgb(62,0,193)" stroke-width="0.8"/>
<line x1="78.5365" y1="84.9928" x2="78.5365" y2="82.4528" stroke="rgb(68,0,187)" stroke-width="0.8"/>
<line x1="78.5365" y1="82.4528" x2="78.5365" y2="79.9128" stroke="rgb(75,0,180)" stroke-width="0.8"/>
<line x1="78.5365" y1="79.9128" x2="78.5365" y2="77.3728" stroke="rgb(82,0,173)" stroke-width="0.8"/>
<line x1="78.5365" y1="77.3728" x2="78.5365" y2="74.8328" stroke="rgb(89,0,166)" stroke-width="0.8"/>
<line x1="78.5365" y1="74.8328" x2="78.5365" y2="72.2928" stroke="rgb(96,0,159)" stroke-width="0.8"/>
<line x1="78.5365" y1="72.2928" x2="78.5365" y2="69.7528" stroke="rgb(103,0,152)" stroke-width="0.8"/>
<line x1="78.5365" y1="69.7528" x2="47.7051" y2="54.9534" stroke="rgb(110,0,145)" stroke-width="0.8"/>
<line x1="47.7051" y1="54.9534" x2="45.1651" y2="54.9534" stroke="rgb(117,0,138)" stroke-width="0.8"/>
<line x1="45.1651" y1="54.9534" x2="42.6251" y2="54.9534" stroke="rgb(124,0,131)" stroke-width="0.8"/>
<line x1="42.6251" y1="54.9534" x2="40.0851" y2="54.9534" stroke="rgb(130,0,125)" stroke-width="0.8"/>
<line x1="40.0851" y1="54.9534" x2="37.5451" y2="54.9534" stroke="rgb(137,0,118)" stroke-width="0.8"/>
<line x1="37.5451" y1="54.9534" x2="21.3343" y2="44.4098" stroke="rgb(144,0,111)" stroke-width="0.8"/>
<line x1="21.3343" y1="44.4098" x2="21.3343" y2="46.9498" stroke="rgb(151,0,104)" stroke-width="0.8"/>
<line x1="21.3343" y1="46.9498" x2="21.3343" y2="49.4898" stroke="rgb(158,0,97)" stroke-width="0.8"/>
<line x1="21.3343" y1="49.4898" x2="21.3343" y2="52.0298" stroke="rgb(165,0,90)" stroke-width="0.8"/>
<line x1="21.3343" y1="52.0298" x2="21.3343" y2="54.5698" stroke="rgb(172,0,83)" stroke-width="0.8"/>
<line x1="21.3343" y1="54.5698" x2="21.3343" y2="57.1098" stroke="rgb(179,0,76)" stroke-width="0.8"/>
<line x1="21.3343" y1="57.1098" x2="21.3343" y2="59.6498" stroke="rgb(186,0,69)" stroke-width="0.8"/>
<line x1="21.3343" y1="59.6498" x2="5" y2="95" stroke="rgb(192,0,63)" stroke-width="0.8"/>
<line x1="5" y1="95" x2="13.7143" y2="59.6498" stroke="rgb(199,0,56)" stroke-width="0.8"/>
<line x1="13.7143" y1="59.6498" x2="13.7143" y2="57.1098" stroke="rgb(206,0,49)" stroke-width="0.8"/>
<line x1="13.7143" y1="57.1098" x2="13.7143" y2="54.5698" stroke="rgb(213,0,42)" stroke-width="0.8"/>
<line x1="13.7143" y1="54.5698" x2="13.7143" y2="52.0298" stroke="rgb(220,0,35)" stroke-width="0.8"/>
<line x1="13.7143" y1="52.0298" x2="13.7143" y2="49.4898" stroke="rgb(227,0,28)" stroke-width="0.8"/>
<line x1="13.7143" y1="49.4898" x2="13.7143" y2="46.9498" stroke="rgb(234,0,21)" stroke-width="0.8"/>
<line x1="13.7143" y1="46.9498" x2="13.7143" y2="44.4098" stroke="rgb(241,0,14)" stroke-width="0.8"/>
<line x1="13.7143" y1="44.4098" x2="5" y2="5" stroke="rgb(248,0,7)" stroke-width="0.8"/>
</g>
<g>
<circle cx="5" cy="5" r="2" fill="blue"/>
<text x="7.5" y="5" font-family="Arial" font-size="5" fill="black">0</text>
<circle cx="95" cy="5" r="2" fill="blue"/>
<text x="97.5" y="5" font-family="Arial" font-size="5" fill="black">1</text>
<circle cx="5" cy="95" r="2" fill="blue"/>
<text x="7.5" y="95" font-family="Arial" font-size="5" fill="black">2</text>
<circle cx="95" cy="95" r="2" fill="blue"/>
<text x="97.5" y="95" font-family="Arial" font-size="5" fill="black">3</text>
<circle cx="78.5365" cy="69.7528" r="2" fill="blue"/>
<text x="81.0365" y="69.7528" font-family="Arial" font-size="5" fill="black">4</text>
<circle cx="78.5365" cy="72.2928" r="2" fill="blue"/>
<text x="81.0365" y="72.2928" font-family="Arial" font-size="5" fill="black">5</text>
<circle cx="78.5365" cy="74.8328" r="2" fill="blue"/>
<text x="81.0365" y="74.8328" font-family="Arial" font-size="5" fill="black">6</text>
<circle cx="78.5365" cy="77.3728" r="2" fill="blue"/>
<text x="81.0365" y="77.3728" font-family="Arial" font-size="5" fill="black">7</text>
<circle cx="78.5365" cy="79.9128" r="2" fill="blue"/>
<text x="81.0365" y="79.9128" font-family="Arial" font-size="5" fill="black">8</text>
<circle cx="78.5365" cy="82.4528" r="2" fill="blue"/>
<text x="81.0365" y="82.4528" font-family="Arial" font-size="5" fill="black">9</text>
<circle cx="78.5365" cy="84.9928" r="2" fill="blue"/>
<text x="81.0365" y="84.9928" font-family="Arial" font-size="5" fill="black">10</text>
<circle cx="86.1565" cy="69.7528" r="2" fill="blue"/>
<text x="88.6565" y="69.7528" font-family="Arial" font-size="5" fill="black">11</text>
<circle cx="86.1565" cy="72.2928" r="2" fill="blue"/>
<text x="88.6565" y="72.2928" font-family="Arial" font-size="5" fill="black">12</text>
<circle cx="86.1565" cy="74.8328" r="2" fill="blue"/>
<text x="88.6565" y="74.8328" font-family="Arial" font-size="5" fill="black">13</text>
<circle cx="86.1565" cy="77.3728" r="2" fill="blue"/>
<text x="88.6565" y="77.3728" font-family="Arial" font-size="5" fill="black">14</text>
<circle cx="86.1565" cy="79.9128" r="2" fill="blue"/>
<text x="88.6565" y="79.9128" font-family="Arial" font-size="5" fill="black">15</text>
<circle cx="86.1565" cy="82.4528" r="2" fill="blue"/>
<text x="88.6565" y="82.4528" font-family="Arial" font-size="5" fill="black">16</text>
<circle cx="86.1565" cy="84.9928" r="2" fill="blue"/>
<text x="88.6565" y="84.9928" font-family="Arial" font-size="5" fill="black">17</text>
<circle cx="37.5451" cy="54.9534" r="2" fill="blue"/>
<text x="40.0451" y="54.9534" font-family="Arial" font-size="5" fill="black">18</text>
<circle cx="40.0851" cy="54.9534" r="2" fill="blue"/>
<text x="42.5851" y="54.9534" font-family="Arial" font-size="5" fill="black">19</text>
<circle cx="42.6251" cy="54.9534" r="2" fill="blue"/>
<text x="45.1251" y="54.9534" font-family="Arial" font-size="5" fill="black">20</text>
<circle cx="45.1651" cy="54.9534" r="2" fill="blue"/>
<text x="47.6651" y="54.9534" font-family="Arial" font-size="5" fill="black">21</text>
<circle cx="47.7051" cy="54.9534" r="2" fill="blue"/>
<text x="50.2051" y="54.9534" font-family="Arial" font-size="5" fill="black">22</text>
<circle cx="13.7143" cy="44.4098" r="2" fill="blue"/>
<text x="16.2143" y="44.4098" font-family="Arial" font-size="5" fill="black">23</text>
<circle cx="13.7143" cy="46.9498" r="2" fill="blue"/>
<text x="16.2143" y="46.9498" font-family="Arial" font-size="5" fill="black">24</text>
<circle cx="13.7143" cy="49.4898" r="2" fill="blue"/>
<text x="16.2143" y="49.4898" font-family="Arial" font-size="5" fill="black">25</text>
<circle cx="13.7143" cy="52.0298" r="2" fill="blue"/>
<text x="16.2143" y="52.0298" font-family="Arial" font-size="5" fill="black">26</text>
<circle cx="13.7143" cy="54.5698" r="2" fill="blue"/>
<text x="16.2143" y="54.5698" font-family="Arial" font-size="5" fill="black">27</text>
<circle cx="13.7143" cy="57.1098" r="2" fill="blue"/>
<text x="16.2143" y="57.1098" font-family="Arial" font-size="5" fill="black">28</text>
<circle cx="13.7143" cy="59.6498" r="2" fill="blue"/>
<text x="16.2143" y="59.6498" font-family="Arial" font-size="5" fill="black">29</text>
<circle cx="21.3343" cy="44.4098" r="2" fill="blue"/>
<text x="23.8343" y="44.4098" font-family="Arial" font-size="5" fill="black">30</text>
<circle cx="21.3343" cy="46.9498" r="2" fill="blue"/>
<text x="23.8343" y="46.9498" font-family="Arial" font-size="5" fill="black">31</text>
<circle cx="21.3343" cy="49.4898" r="2" fill="blue"/>
<text x="23.8343" y="49.4898" font-family="Arial" font-size="5" fill="black">32</text>
<circle cx="21.3343" cy="52.0298" r="2" fill="blue"/>
<text x="23.8343" y="52.0298" font-family="Arial" font-size="5" fill="black">33</text>
<circle cx="21.3343" cy="54.5698" r="2" fill="blue"/>
<text x="23.8343" y="54.5698" font-family="Arial" font-size="5" fill="black">34</text>
<circle cx="21.3343" cy="57.1098" r="2" fill="blue"/>
<text x="23.8343" y="57.1098" font-family="Arial" font-size="5" fill="black">35</text>
<circle cx="21.3343" cy="59.6498" r="2" fill="blue"/>
<text x="23.8343" y="59.6498" font-family="Arial" font-size="5" fill="black">36</text>
</g>
</svg>
