<?xml version="1.0" encoding="UTF-8" standalone="no"?>
<svg xmlns="http://www.w3.org/2000/svg" viewBox="-5 -5 160 160">
<rect x="-5" y="-5" width="160" height="160" fill="white"/>
<g>
<circle cx="5" cy="5" r="2" fill="blue"/>
<text x="7.5" y="5" font-family="Arial" font-size="5" fill="black">0</text>
<circle cx="145" cy="5" r="2" fill="blue"/>
<text x="147.5" y="5" font-family="Arial" font-size="5" fill="black">1</text>
<circle cx="5" cy="145" r="2" fill="blue"/>
<text x="7.5" y="145" font-family="Arial" font-size="5" fill="black">2</text>
<circle cx="145" cy="145" r="2" fill="blue"/>
<text x="147.5" y="145" font-family="Arial" font-size="5" fill="black">3</text>
<circle cx="57.8226" cy="115.834" r="2" fill="blue"/>
<text x="60.3226" y="115.834" font-family="Arial" font-size="5" fill="black">4</text>
<circle cx="57.8226" cy="117.104" r="2" fill="blue"/>
<text x="60.3226" y="117.104" font-family="Arial" font-size="5" fill="black">5</text>
<circle cx="57.8226" cy="118.374" r="2" fill="blue"/>
<text x="60.3226" y="118.374" font-family="Arial" font-size="5" fill="black">6</text>
<circle cx="57.8226" cy="119.644" r="2" fill="blue"/>
<text x="60.3226" y="119.644" font-family="Arial" font-size="5" fill="black">7</text>
<circle cx="62.9026" cy="115.834" r="2" fill="blue"/>
<text x="65.4026" y="115.834" font-family="Arial" font-size="5" fill="black">8</text>
<circle cx="62.9026" cy="117.104" r="2" fill="blue"/>
<text x="65.4026" y="117.104" font-family="Arial" font-size="5" fill="black">9</text>
<circle cx="62.9026" cy="118.374" r="2" fill="blue"/>
<text x="65.4026" y="118.374" font-family="Arial" font-size="5" fill="black">10</text>
<circle cx="62.9026" cy="119.644" r="2" fill="blue"/>
<text x="65.4026" y="119.644" font-family="Arial" font-size="5" fill="black">11</text>
<circle cx="78.5153" cy="19.7888" r="2" fill="blue"/>
<text x="81.0153" y="19.7888" font-family="Arial" font-size="5" fill="black">12</text>
<circle cx="78.5153" cy="22.3288" r="2" fill="blue"/>
<text x="81.0153" y="22.3288" font-family="Arial" font-size="5" fill="black">13</text>
<circle cx="78.5153" cy="24.8688" r="2" fill="blue"/>
<text x="81.0153" y="24.8688" font-family="Arial" font-size="5" fill="black">14</text>
<circle cx="78.5153" cy="27.4088" r="2" fill="blue"/>
<text x="81.0153" y="27.4088" font-family="Arial" font-size="5" fill="black">15</text>
<circle cx="78.5153" cy="29.9488" r="2" fill="blue"/>
<text x="81.0153" y="29.9488" font-family="Arial" font-size="5" fill="black">16</text>
<circle cx="78.5153" cy="32.4888" r="2" fill="blue"/>
<text x="81.0153" y="32.4888" font-family="Arial" font-size="5" fill="black">17</text>
<circle cx="78.5153" cy="35.0288" r="2" fill="blue"/>
<text x="81.0153" y="35.0288" font-family="Arial" font-size="5" fill="black">18</text>
<circle cx="86.1353" cy="19.7888" r="2" fill="blue"/>
<text x="88.6353" y="19.7888" font-family="Arial" font-size="5" fill="black">19</text>
<circle cx="86.1353" cy="22.3288" r="2" fill="blue"/>
<text x="88.6353" y="22.3288" font-family="Arial" font-size="5" fill="black">20</text>
<circle cx="86.1353" cy="24.8688" r="2" fill="blue"/>
<text x="88.6353" y="24.8688" font-family="Arial" font-size="5" fill="black">21</text>
<circle cx="86.1353" cy="27.4088" r="2" fill="blue"/>
<text x="88.6353" y="27.4088" font-family="Arial" font-size="5" fill="black">22</text>
<circle cx="86.1353" cy="29.9488" r="2" fill="blue"/>
<text x="88.6353" y="29.9488" font-family="Arial" font-size="5" fill="black">23</text>
<circle cx="86.1353" cy="32.4888" r="2" fill="blue"/>
<text x="88.6353" y="32.4888" font-family="Arial" font-size="5" fill="black">24</text>
<circle cx="86.1353" cy="35.0288" r="2" fill="blue"/>
<text x="88.6353" y="35.0288" font-family="Arial" font-size="5" fill="black">25</text>
<circle cx="45.9884" cy="131.156" r="2" fill="blue"/>
<text x="48.4884" y="131.156" font-family="Arial" font-size="5" fill="black">26</text>
<circle cx="45.9884" cy="132.426" r="2" fill="blue"/>
<text x="48.4884" y="132.426" font-family="Arial" font-size="5" fill="black">27</text>
<circle cx="45.9884" cy="133.696" r="2" fill="blue"/>
<text x="48.4884" y="133.696" font-family="Arial" font-size="5" fill="black">28</text>
<circle cx="45.9884" cy="134.966" r="2" fill="blue"/>
<text x="48.4884" y="134.966" font-family="Arial" font-size="5" fill="black">29</text>
<circle cx="51.0684" cy="131.156" r="2" fill="blue"/>
<text x="53.5684" y="131.156" font-family="Arial" font-size="5" fill="black">30</text>
<circle cx="51.0684" cy="132.426" r="2" fill="blue"/>
<text x="53.5684" y="132.426" font-family="Arial" font-size="5" fill="black">31</text>
<circle cx="51.0684" cy="133.696" r="2" fill="blue"/>
<text x="53.5684" y="133.696" font-family="Arial" font-size="5" fill="black">32</text>
<circle cx="51.0684" cy="134.966" r="2" fill="blue"/>
<text x="53.5684" y="134.966" font-family="Arial" font-size="5" fill="black">33</text>
<circle cx="137.028" cy="60.5446" r="2" fill="blue"/>
<text x="139.528" y="60.5446" font-family="Arial" font-size="5" fill="black">34</text>
<circle cx="137.028" cy="63.0846" r="2" fill="blue"/>
<text x="139.528" y="63.0846" font-family="Arial" font-size="5" fill="black">35</text>
<circle cx="137.028" cy="65.6246" r="2" fill="blue"/>
<text x="139.528" y="65.6246" font-family="Arial" font-size="5" fill="black">36</text>
<circle cx="137.028" cy="68.1646" r="2" fill="blue"/>
<text x="139.528" y="68.1646" font-family="Arial" font-size="5" fill="black">37</text>
<circle cx="137.028" cy="70.7046" r="2" fill="blue"/>
<text x="139.528" y="70.7046" font-family="Arial" font-size="5" fill="black">38</text>
<circle cx="137.028" cy="73.2446" r="2" fill="blue"/>
<text x="139.528" y="73.2446" font-family="Arial" font-size="5" fill="black">39</text>
<circle cx="137.028" cy="75.7846" r="2" fill="blue"/>
<text x="139.528" y="75.7846" font-family="Arial" font-size="5" fill="black">40</text>
<circle cx="144.648" cy="60.5446" r="2" fill="blue"/>
<text x="147.148" y="60.5446" font-family="Arial" font-size="5" fill="black">41</text>
<circle cx="144.648" cy="63.0846" r="2" fill="blue"/>
<text x="147.148" y="63.0846" font-family="Arial" font-size="5" fill="black">42</text>
<circle cx="144.648" cy="65.6246" r="2" fill="blue"/>
<text x="147.148" y="65.6246" font-family="Arial" font-size="5" fill="black">43</text>
<circle cx="144.648" cy="68.1646" r="2" fill="blue"/>
<text x="147.148" y="68.1646" font-family="Arial" font-size="5" fill="black">44</text>
<circle cx="144.648" cy="70.7046" r="2" fill="blue"/>
<text x="147.148" y="70.7046" font-family="Arial" font-size="5" fill="black">45</text>
<circle cx="144.648" cy="73.2446" r="2" fill="blue"/>
<text x="147.148" y="73.2446" font-family="Arial" font-size="5" fill="black">46</text>
<circle cx="144.648" cy="75.7846" r="2" fill="blue"/>
<text x="147.148" y="75.7846" font-family="Arial" font-size="5" fill="black">47</text>
<circle cx="27.4644" cy="31.1493" r="2" fill="blue"/>
<text x="29.9644" y="31.1493" font-family="Arial" font-size="5" fill="black">48</text>
<circle cx="27.4644" cy="33.6893" r="2" fill="blue"/>
<text x="29.9644" y="33.6893" font-family="Arial" font-size="5" fill="black">49</text>
<circle cx="27.4644" cy="36.2293" r="2" fill="blue"/>
<text x="29.9644" y="36.2293" font-family="Arial" font-size="5" fill="black">50</text>
<circle cx="27.4644" cy="38.7693" r="2" fill="blue"/>
<text x="29.9644" y="38.7693" font-family="Arial" font-size="5" fill="black">51</text>
<circle cx="27.4644" cy="41.3093" r="2" fill="blue"/>
<text x="29.9644" y="41.3093" font-family="Arial" font-size="5" fill="black">52</text>
<circle cx="27.4644" cy="43.8493" r="2" fill="blue"/>
<text x="29.9644" y="43.8493" font-family="Arial" font-size="5" fill="black">53</text>
<circle cx="27.4644" cy="46.3893" r="2" fill="blue"/>
<text x="29.9644" y="46.3893" font-family="Arial" font-size="5" fill="black">54</text>
<circle cx="35.0844" cy="31.1493" r="2" fill="blue"/>
<text x="37.5844" y="31.1493" font-family="Arial" font-size="5" fill="black">55</text>
<circle cx="35.0844" cy="33.6893" r="2" fill="blue"/>
<text x="37.5844" y="33.6893" font-family="Arial" font-size="5" fill="black">56</text>
<circle cx="35.0844" cy="36.2293" r="2" fill="blue"/>
<text x="37.5844" y="36.2293" font-family="Arial" font-size="5" fill="black">57</text>
<circle cx="35.0844" cy="38.7693" r="2" fill="blue"/>
<text x="37.5844" y="38.7693" font-family="Arial" font-size="5" fill="black">58</text>
<circle cx="35.0844" cy="41.3093" r="2" fill="blue"/>
<text x="37.5844" y="41.3093" font-family="Arial" font-size="5" fill="black">59</text>
<circle cx="35.0844" cy="43.8493" r="2" fill="blue"/>
<text x="37.5844" y="43.8493" font-family="Arial" font-size="5" fill="black">60</text>
<circle cx="35.0844" cy="46.3893" r="2" fill="blue"/>
<text x="37.5844" y="46.3893" font-family="Arial" font-size="5" fill="black">61</text>
</g>
</svg>
