<?xml version="1.0" encoding="UTF-8" standalone="no"?>
<svg xmlns="http://www.w3.org/2000/svg" width="1760" height="800" viewBox="-257.143 -257.143 1760 800">
<g transform="translate(0,0)">
<rect x="-257.143" y="-257.143" width="800" height="800" fill="white"/>
<g>
<line x1="28.5714" y1="28.5714" x2="202.299" y2="220.519" stroke="rgb(128,0,127)" stroke-width="2"/>
<line x1="202.299" y1="220.519" x2="187.785" y2="220.519" stroke="rgb(128,0,127)" stroke-width="2"/>
<line x1="187.785" y1="220.519" x2="173.27" y2="220.519" stroke="rgb(128,0,127)" stroke-width="2"/>
<line x1="173.27" y1="220.519" x2="163.001" y2="256.039" stroke="rgb(128,0,127)" stroke-width="2"/>
<line x1="163.001" y1="256.039" x2="148.487" y2="256.039" stroke="rgb(128,0,127)" stroke-width="2"/>
<line x1="148.487" y1="256.039" x2="104.944" y2="256.039" stroke="rgb(128,0,127)" stroke-width="2"/>
<line x1="104.944" y1="256.039" x2="158.756" y2="220.519" stroke="rgb(128,0,127)" stroke-width="2"/>
<line x1="158.756" y1="220.519" x2="216.813" y2="220.519" stroke="rgb(128,0,127)" stroke-width="2"/>
<line x1="216.813" y1="220.519" x2="119.458" y2="256.039" stroke="rgb(128,0,127)" stroke-width="2"/>
<line x1="119.458" y1="256.039" x2="28.5714" y2="257.143" stroke="rgb(128,0,127)" stroke-width="2"/>
<line x1="28.5714" y1="257.143" x2="257.143" y2="28.5714" stroke="rgb(128,0,127)" stroke-width="2"/>
<line x1="257.143" y1="28.5714" x2="133.972" y2="256.039" stroke="rgb(128,0,127)" stroke-width="2"/>
<line x1="133.972" y1="256.039" x2="257.143" y2="257.143" stroke="rgb(128,0,127)" stroke-width="2"/>
<line x1="257.143" y1="257.143" x2="28.5714" y2="28.5714" stroke="rgb(128,0,127)" stroke-width="2"/>
</g>
<g>
<circle cx="28.5714" cy="28.5714" r="8" fill="blue"/>
<text x="43.5714" y="33.5714" font-family="Arial" font-size="12" fill="black">0</text>
<circle cx="257.143" cy="28.5714" r="8" fill="blue"/>
<text x="272.143" y="33.5714" font-family="Arial" font-size="12" fill="black">1</text>
<circle cx="28.5714" cy="257.143" r="8" fill="blue"/>
<text x="43.5714" y="262.143" font-family="Arial" font-size="12" fill="black">2</text>
<circle cx="257.143" cy="257.143" r="8" fill="blue"/>
<text x="272.143" y="262.143" font-family="Arial" font-size="12" fill="black">3</text>
<circle cx="158.756" cy="220.519" r="8" fill="blue"/>
<text x="173.756" y="225.519" font-family="Arial" font-size="12" fill="black">4</text>
<circle cx="173.27" cy="220.519" r="8" fill="blue"/>
<text x="188.27" y="225.519" font-family="Arial" font-size="12" fill="black">5</text>
<circle cx="187.785" cy="220.519" r="8" fill="blue"/>
<text x="202.785" y="225.519" font-family="Arial" font-size="12" fill="black">6</text>
<circle cx="202.299" cy="220.519" r="8" fill="blue"/>
<text x="217.299" y="225.519" font-family="Arial" font-size="12" fill="black">7</text>
<circle cx="216.813" cy="220.519" r="8" fill="blue"/>
<text x="231.813" y="225.519" font-family="Arial" font-size="12" fill="black">8</text>
<circle cx="104.944" cy="256.039" r="8" fill="blue"/>
<text x="119.944" y="261.039" font-family="Arial" font-size="12" fill="black">9</text>
<circle cx="119.458" cy="256.039" r="8" fill="blue"/>
<text x="134.458" y="261.039" font-family="Arial" font-size="12" fill="black">10</text>
<circle cx="133.972" cy="256.039" r="8" fill="blue"/>
<text x="148.972" y="261.039" font-family="Arial" font-size="12" fill="black">11</text>
<circle cx="148.487" cy="256.039" r="8" fill="blue"/>
<text x="163.487" y="261.039" font-family="Arial" font-size="12" fill="black">12</text>
<circle cx="163.001" cy="256.039" r="8" fill="blue"/>
<text x="178.001" y="261.039" font-family="Arial" font-size="12" fill="black">13</text>
</g>
<text x="-232.143" y="-232.143" font-family="Arial" font-size="14.4" fill="black"> Cost: 302.46</text>
</g>
<g transform="translate(880.00,0)">
<rect x="-257.14" y="-257.14" width="800.00" height="800.00" fill="white"/>
<g>
<line x1="257.14" y1="28.57" x2="257.14" y2="257.14" stroke="rgb(128,0,127)" stroke-width="2.00"/>
<line x1="257.14" y1="257.14" x2="216.81" y2="220.52" stroke="rgb(128,0,127)" stroke-width="2.00"/>
<line x1="216.81" y1="220.52" x2="202.30" y2="220.52" stroke="rgb(128,0,127)" stroke-width="2.00"/>
<line x1="202.30" y1="220.52" x2="187.78" y2="220.52" stroke="rgb(128,0,127)" stroke-width="2.00"/>
<line x1="187.78" y1="220.52" x2="173.27" y2="220.52" stroke="rgb(128,0,127)" stroke-width="2.00"/>
<line x1="173.27" y1="220.52" x2="158.76" y2="220.52" stroke="rgb(128,0,127)" stroke-width="2.00"/>
<line x1="158.76" y1="220.52" x2="163.00" y2="256.04" stroke="rgb(128,0,127)" stroke-width="2.00"/>
<line x1="163.00" y1="256.04" x2="148.49" y2="256.04" stroke="rgb(128,0,127)" stroke-width="2.00"/>
<line x1="148.49" y1="256.04" x2="133.97" y2="256.04" stroke="rgb(128,0,127)" stroke-width="2.00"/>
<line x1="133.97" y1="256.04" x2="119.46" y2="256.04" stroke="rgb(128,0,127)" stroke-width="2.00"/>
<line x1="119.46" y1="256.04" x2="104.94" y2="256.04" stroke="rgb(128,0,127)" stroke-width="2.00"/>
<line x1="104.94" y1="256.04" x2="28.57" y2="257.14" stroke="rgb(128,0,127)" stroke-width="2.00"/>
<line x1="28.57" y1="257.14" x2="28.57" y2="28.57" stroke="rgb(128,0,127)" stroke-width="2.00"/>
<line x1="28.57" y1="28.57" x2="28.57" y2="28.57" stroke="rgb(128,0,127)" stroke-width="2.00"/>
</g>
<g>
<circle cx="28.57" cy="28.57" r="8.00" fill="blue"/>
<text x="43.57" y="33.57" font-family="Arial" font-size="12.00" fill="black">0</text>
<circle cx="257.14" cy="28.57" r="8.00" fill="blue"/>
<text x="272.14" y="33.57" font-family="Arial" font-size="12.00" fill="black">1</text>
<circle cx="28.57" cy="257.14" r="8.00" fill="blue"/>
<text x="43.57" y="262.14" font-family="Arial" font-size="12.00" fill="black">2</text>
<circle cx="257.14" cy="257.14" r="8.00" fill="blue"/>
<text x="272.14" y="262.14" font-family="Arial" font-size="12.00" fill="black">3</text>
<circle cx="158.76" cy="220.52" r="8.00" fill="blue"/>
<text x="173.76" y="225.52" font-family="Arial" font-size="12.00" fill="black">4</text>
<circle cx="173.27" cy="220.52" r="8.00" fill="blue"/>
<text x="188.27" y="225.52" font-family="Arial" font-size="12.00" fill="black">5</text>
<circle cx="187.78" cy="220.52" r="8.00" fill="blue"/>
<text x="202.78" y="225.52" font-family="Arial" font-size="12.00" fill="black">6</text>
<circle cx="202.30" cy="220.52" r="8.00" fill="blue"/>
<text x="217.30" y="225.52" font-family="Arial" font-size="12.00" fill="black">7</text>
<circle cx="216.81" cy="220.52" r="8.00" fill="blue"/>
<text x="231.81" y="225.52" font-family="Arial" font-size="12.00" fill="black">8</text>
<circle cx="104.94" cy="256.04" r="8.00" fill="blue"/>
<text x="119.94" y="261.04" font-family="Arial" font-size="12.00" fill="black">9</text>
<circle cx="119.46" cy="256.04" r="8.00" fill="blue"/>
<text x="134.46" y="261.04" font-family="Arial" font-size="12.00" fill="black">10</text>
<circle cx="133.97" cy="256.04" r="8.00" fill="blue"/>
<text x="148.97" y="261.04" font-family="Arial" font-size="12.00" fill="black">11</text>
<circle cx="148.49" cy="256.04" r="8.00" fill="blue"/>
<text x="163.49" y="261.04" font-family="Arial" font-size="12.00" fill="black">12</text>
<circle cx="163.00" cy="256.04" r="8.00" fill="blue"/>
<text x="178.00" y="261.04" font-family="Arial" font-size="12.00" fill="black">13</text>
</g>
<text x="-232.14" y="-232.14" font-family="Arial" font-size="14.40" fill="black"> Cost: 129.48</text>
</g>
</svg>
