<?xml version="1.0" encoding="UTF-8" standalone="no"?>
<svg xmlns="http://www.w3.org/2000/svg" viewBox="-5 -5 135 135">
<rect x="-5" y="-5" width="135" height="135" fill="white"/>
<text x="0" y="10" font-family="Arial" font-size="10" fill="black">Iteration: 0 | Cost: 2352.29</text>
<g>
<line x1="5.00" y1="5.00" x2="18.11" y2="19.19" stroke="rgb(0,0,255)" stroke-width="0.8"/>
<line x1="18.11" y1="19.19" x2="96.33" y2="107.12" stroke="rgb(7,0,248)" stroke-width="0.8"/>
<line x1="96.33" y1="107.12" x2="88.71" y2="102.04" stroke="rgb(14,0,241)" stroke-width="0.8"/>
<line x1="88.71" y1="102.04" x2="15.60" y2="103.07" stroke="rgb(21,0,234)" stroke-width="0.8"/>
<line x1="15.60" y1="103.07" x2="23.19" y2="20.46" stroke="rgb(28,0,227)" stroke-width="0.8"/>
<line x1="23.19" y1="20.46" x2="23.19" y2="21.73" stroke="rgb(35,0,220)" stroke-width="0.8"/>
<line x1="23.19" y1="21.73" x2="18.14" y2="103.07" stroke="rgb(42,0,213)" stroke-width="0.8"/>
<line x1="18.14" y1="103.07" x2="96.33" y2="102.04" stroke="rgb(49,0,206)" stroke-width="0.8"/>
<line x1="96.33" y1="102.04" x2="120.00" y2="5.00" stroke="rgb(56,0,199)" stroke-width="0.8"/>
<line x1="120.00" y1="5.00" x2="18.11" y2="21.73" stroke="rgb(63,0,192)" stroke-width="0.8"/>
<line x1="18.11" y1="21.73" x2="88.71" y2="104.58" stroke="rgb(70,0,185)" stroke-width="0.8"/>
<line x1="88.71" y1="104.58" x2="75.17" y2="79.08" stroke="rgb(77,0,178)" stroke-width="0.8"/>
<line x1="75.17" y1="79.08" x2="18.11" y2="20.46" stroke="rgb(85,0,170)" stroke-width="0.8"/>
<line x1="18.11" y1="20.46" x2="120.00" y2="120.00" stroke="rgb(92,0,163)" stroke-width="0.8"/>
<line x1="120.00" y1="120.00" x2="70.09" y2="79.08" stroke="rgb(99,0,156)" stroke-width="0.8"/>
<line x1="70.09" y1="79.08" x2="23.19" y2="19.19" stroke="rgb(106,0,149)" stroke-width="0.8"/>
<line x1="23.19" y1="19.19" x2="20.68" y2="103.07" stroke="rgb(113,0,142)" stroke-width="0.8"/>
<line x1="20.68" y1="103.07" x2="88.71" y2="94.42" stroke="rgb(120,0,135)" stroke-width="0.8"/>
<line x1="88.71" y1="94.42" x2="23.22" y2="103.07" stroke="rgb(127,0,128)" stroke-width="0.8"/>
<line x1="23.22" y1="103.07" x2="18.11" y2="17.92" stroke="rgb(134,0,121)" stroke-width="0.8"/>
<line x1="18.11" y1="17.92" x2="96.33" y2="99.50" stroke="rgb(141,0,114)" stroke-width="0.8"/>
<line x1="96.33" y1="99.50" x2="23.19" y2="17.92" stroke="rgb(148,0,107)" stroke-width="0.8"/>
<line x1="23.19" y1="17.92" x2="25.76" y2="103.07" stroke="rgb(155,0,100)" stroke-width="0.8"/>
<line x1="25.76" y1="103.07" x2="96.33" y2="96.96" stroke="rgb(162,0,93)" stroke-width="0.8"/>
<line x1="96.33" y1="96.96" x2="96.33" y2="109.66" stroke="rgb(170,0,85)" stroke-width="0.8"/>
<line x1="96.33" y1="109.66" x2="72.63" y2="79.08" stroke="rgb(177,0,78)" stroke-width="0.8"/>
<line x1="72.63" y1="79.08" x2="96.33" y2="104.58" stroke="rgb(184,0,71)" stroke-width="0.8"/>
<line x1="96.33" y1="104.58" x2="88.71" y2="109.66" stroke="rgb(191,0,64)" stroke-width="0.8"/>
<line x1="88.71" y1="109.66" x2="77.71" y2="79.08" stroke="rgb(198,0,57)" stroke-width="0.8"/>
<line x1="77.71" y1="79.08" x2="88.71" y2="107.12" stroke="rgb(205,0,50)" stroke-width="0.8"/>
<line x1="88.71" y1="107.12" x2="96.33" y2="94.42" stroke="rgb(212,0,43)" stroke-width="0.8"/>
<line x1="96.33" y1="94.42" x2="88.71" y2="99.50" stroke="rgb(219,0,36)" stroke-width="0.8"/>
<line x1="88.71" y1="99.50" x2="80.25" y2="79.08" stroke="rgb(226,0,29)" stroke-width="0.8"/>
<line x1="80.25" y1="79.08" x2="5.00" y2="120.00" stroke="rgb(233,0,22)" stroke-width="0.8"/>
<line x1="5.00" y1="120.00" x2="88.71" y2="96.96" stroke="rgb(240,0,15)" stroke-width="0.8"/>
<line x1="88.71" y1="96.96" x2="5.00" y2="5.00" stroke="rgb(247,0,8)" stroke-width="0.8"/>
</g>
<g>
<circle cx="5.00" cy="5.00" r="2" fill="blue"/>
<text x="7.50" y="5.00" font-family="Arial" font-size="5" fill="black">0</text>
<circle cx="120.00" cy="5.00" r="2" fill="blue"/>
<text x="122.50" y="5.00" font-family="Arial" font-size="5" fill="black">1</text>
<circle cx="5.00" cy="120.00" r="2" fill="blue"/>
<text x="7.50" y="120.00" font-family="Arial" font-size="5" fill="black">2</text>
<circle cx="120.00" cy="120.00" r="2" fill="blue"/>
<text x="122.50" y="120.00" font-family="Arial" font-size="5" fill="black">3</text>
<circle cx="88.71" cy="94.42" r="2" fill="blue"/>
<text x="91.21" y="94.42" font-family="Arial" font-size="5" fill="black">4</text>
<circle cx="88.71" cy="96.96" r="2" fill="blue"/>
<text x="91.21" y="96.96" font-family="Arial" font-size="5" fill="black">5</text>
<circle cx="88.71" cy="99.50" r="2" fill="blue"/>
<text x="91.21" y="99.50" font-family="Arial" font-size="5" fill="black">6</text>
<circle cx="88.71" cy="102.04" r="2" fill="blue"/>
<text x="91.21" y="102.04" font-family="Arial" font-size="5" fill="black">7</text>
<circle cx="88.71" cy="104.58" r="2" fill="blue"/>
<text x="91.21" y="104.58" font-family="Arial" font-size="5" fill="black">8</text>
<circle cx="88.71" cy="107.12" r="2" fill="blue"/>
<text x="91.21" y="107.12" font-family="Arial" font-size="5" fill="black">9</text>
<circle cx="88.71" cy="109.66" r="2" fill="blue"/>
<text x="91.21" y="109.66" font-family="Arial" font-size="5" fill="black">10</text>
<circle cx="96.33" cy="94.42" r="2" fill="blue"/>
<text x="98.83" y="94.42" font-family="Arial" font-size="5" fill="black">11</text>
<circle cx="96.33" cy="96.96" r="2" fill="blue"/>
<text x="98.83" y="96.96" font-family="Arial" font-size="5" fill="black">12</text>
<circle cx="96.33" cy="99.50" r="2" fill="blue"/>
<text x="98.83" y="99.50" font-family="Arial" font-size="5" fill="black">13</text>
<circle cx="96.33" cy="102.04" r="2" fill="blue"/>
<text x="98.83" y="102.04" font-family="Arial" font-size="5" fill="black">14</text>
<circle cx="96.33" cy="104.58" r="2" fill="blue"/>
<text x="98.83" y="104.58" font-family="Arial" font-size="5" fill="black">15</text>
<circle cx="96.33" cy="107.12" r="2" fill="blue"/>
<text x="98.83" y="107.12" font-family="Arial" font-size="5" fill="black">16</text>
<circle cx="96.33" cy="109.66" r="2" fill="blue"/>
<text x="98.83" y="109.66" font-family="Arial" font-size="5" fill="black">17</text>
<circle cx="70.09" cy="79.08" r="2" fill="blue"/>
<text x="72.59" y="79.08" font-family="Arial" font-size="5" fill="black">18</text>
<circle cx="72.63" cy="79.08" r="2" fill="blue"/>
<text x="75.13" y="79.08" font-family="Arial" font-size="5" fill="black">19</text>
<circle cx="75.17" cy="79.08" r="2" fill="blue"/>
<text x="77.67" y="79.08" font-family="Arial" font-size="5" fill="black">20</text>
<circle cx="77.71" cy="79.08" r="2" fill="blue"/>
<text x="80.21" y="79.08" font-family="Arial" font-size="5" fill="black">21</text>
<circle cx="80.25" cy="79.08" r="2" fill="blue"/>
<text x="82.75" y="79.08" font-family="Arial" font-size="5" fill="black">22</text>
<circle cx="15.60" cy="103.07" r="2" fill="blue"/>
<text x="18.10" y="103.07" font-family="Arial" font-size="5" fill="black">23</text>
<circle cx="18.14" cy="103.07" r="2" fill="blue"/>
<text x="20.64" y="103.07" font-family="Arial" font-size="5" fill="black">24</text>
<circle cx="20.68" cy="103.07" r="2" fill="blue"/>
<text x="23.18" y="103.07" font-family="Arial" font-size="5" fill="black">25</text>
<circle cx="23.22" cy="103.07" r="2" fill="blue"/>
<text x="25.72" y="103.07" font-family="Arial" font-size="5" fill="black">26</text>
<circle cx="25.76" cy="103.07" r="2" fill="blue"/>
<text x="28.26" y="103.07" font-family="Arial" font-size="5" fill="black">27</text>
<circle cx="18.11" cy="17.92" r="2" fill="blue"/>
<text x="20.61" y="17.92" font-family="Arial" font-size="5" fill="black">28</text>
<circle cx="18.11" cy="19.19" r="2" fill="blue"/>
<text x="20.61" y="19.19" font-family="Arial" font-size="5" fill="black">29</text>
<circle cx="18.11" cy="20.46" r="2" fill="blue"/>
<text x="20.61" y="20.46" font-family="Arial" font-size="5" fill="black">30</text>
<circle cx="18.11" cy="21.73" r="2" fill="blue"/>
<text x="20.61" y="21.73" font-family="Arial" font-size="5" fill="black">31</text>
<circle cx="23.19" cy="17.92" r="2" fill="blue"/>
<text x="25.69" y="17.92" font-family="Arial" font-size="5" fill="black">32</text>
<circle cx="23.19" cy="19.19" r="2" fill="blue"/>
<text x="25.69" y="19.19" font-family="Arial" font-size="5" fill="black">33</text>
<circle cx="23.19" cy="20.46" r="2" fill="blue"/>
<text x="25.69" y="20.46" font-family="Arial" font-size="5" fill="black">34</text>
<circle cx="23.19" cy="21.73" r="2" fill="blue"/>
<text x="25.69" y="21.73" font-family="Arial" font-size="5" fill="black">35</text>
</g>
</svg>
