<?xml version="1.0" encoding="UTF-8" standalone="no"?>
<svg xmlns="http://www.w3.org/2000/svg" viewBox="-5 -5 135 135">
<rect x="-5" y="-5" width="135" height="135" fill="white"/>
<g>
<line x1="5" y1="5" x2="27.9809" y2="83.4844" stroke="rgb(0,0,255)" stroke-width="0.8"/>
<line x1="27.9809" y1="83.4844" x2="27.9809" y2="84.7544" stroke="rgb(8,0,247)" stroke-width="0.8"/>
<line x1="27.9809" y1="84.7544" x2="27.9809" y2="86.0244" stroke="rgb(17,0,238)" stroke-width="0.8"/>
<line x1="27.9809" y1="86.0244" x2="27.9809" y2="87.2944" stroke="rgb(25,0,230)" stroke-width="0.8"/>
<line x1="27.9809" y1="87.2944" x2="22.9009" y2="83.4844" stroke="rgb(34,0,221)" stroke-width="0.8"/>
<line x1="22.9009" y1="83.4844" x2="22.9009" y2="84.7544" stroke="rgb(42,0,213)" stroke-width="0.8"/>
<line x1="22.9009" y1="84.7544" x2="22.9009" y2="86.0244" stroke="rgb(51,0,204)" stroke-width="0.8"/>
<line x1="22.9009" y1="86.0244" x2="22.9009" y2="87.2944" stroke="rgb(59,0,196)" stroke-width="0.8"/>
<line x1="22.9009" y1="87.2944" x2="5" y2="120" stroke="rgb(68,0,187)" stroke-width="0.8"/>
<line x1="5" y1="120" x2="107.43" y2="102.309" stroke="rgb(76,0,179)" stroke-width="0.8"/>
<line x1="107.43" y1="102.309" x2="109.97" y2="102.309" stroke="rgb(85,0,170)" stroke-width="0.8"/>
<line x1="109.97" y1="102.309" x2="112.51" y2="102.309" stroke="rgb(93,0,162)" stroke-width="0.8"/>
<line x1="112.51" y1="102.309" x2="115.05" y2="102.309" stroke="rgb(102,0,153)" stroke-width="0.8"/>
<line x1="115.05" y1="102.309" x2="120" y2="120" stroke="rgb(110,0,145)" stroke-width="0.8"/>
<line x1="120" y1="120" x2="117.59" y2="102.309" stroke="rgb(119,0,136)" stroke-width="0.8"/>
<line x1="117.59" y1="102.309" x2="113.549" y2="39.6112" stroke="rgb(127,0,128)" stroke-width="0.8"/>
<line x1="113.549" y1="39.6112" x2="113.549" y2="38.3412" stroke="rgb(136,0,119)" stroke-width="0.8"/>
<line x1="113.549" y1="38.3412" x2="113.549" y2="37.0712" stroke="rgb(144,0,111)" stroke-width="0.8"/>
<line x1="113.549" y1="37.0712" x2="113.549" y2="35.8012" stroke="rgb(153,0,102)" stroke-width="0.8"/>
<line x1="113.549" y1="35.8012" x2="118.629" y2="39.6112" stroke="rgb(161,0,94)" stroke-width="0.8"/>
<line x1="118.629" y1="39.6112" x2="118.629" y2="38.3412" stroke="rgb(170,0,85)" stroke-width="0.8"/>
<line x1="118.629" y1="38.3412" x2="118.629" y2="37.0712" stroke="rgb(178,0,77)" stroke-width="0.8"/>
<line x1="118.629" y1="37.0712" x2="118.629" y2="35.8012" stroke="rgb(187,0,68)" stroke-width="0.8"/>
<line x1="118.629" y1="35.8012" x2="120" y2="5" stroke="rgb(195,0,60)" stroke-width="0.8"/>
<line x1="120" y1="5" x2="55.8978" y2="42.5299" stroke="rgb(204,0,51)" stroke-width="0.8"/>
<line x1="55.8978" y1="42.5299" x2="53.3578" y2="42.5299" stroke="rgb(212,0,43)" stroke-width="0.8"/>
<line x1="53.3578" y1="42.5299" x2="50.8178" y2="42.5299" stroke="rgb(221,0,34)" stroke-width="0.8"/>
<line x1="50.8178" y1="42.5299" x2="48.2778" y2="42.5299" stroke="rgb(229,0,26)" stroke-width="0.8"/>
<line x1="48.2778" y1="42.5299" x2="45.7378" y2="42.5299" stroke="rgb(238,0,17)" stroke-width="0.8"/>
<line x1="45.7378" y1="42.5299" x2="5" y2="5" stroke="rgb(246,0,9)" stroke-width="0.8"/>
</g>
<g>
<circle cx="5" cy="5" r="2" fill="blue"/>
<text x="7.5" y="5" font-family="Arial" font-size="5" fill="black">0</text>
<circle cx="120" cy="5" r="2" fill="blue"/>
<text x="122.5" y="5" font-family="Arial" font-size="5" fill="black">1</text>
<circle cx="5" cy="120" r="2" fill="blue"/>
<text x="7.5" y="120" font-family="Arial" font-size="5" fill="black">2</text>
<circle cx="120" cy="120" r="2" fill="blue"/>
<text x="122.5" y="120" font-family="Arial" font-size="5" fill="black">3</text>
<circle cx="45.7378" cy="42.5299" r="2" fill="blue"/>
<text x="48.2378" y="42.5299" font-family="Arial" font-size="5" fill="black">4</text>
<circle cx="48.2778" cy="42.5299" r="2" fill="blue"/>
<text x="50.7778" y="42.5299" font-family="Arial" font-size="5" fill="black">5</text>
<circle cx="50.8178" cy="42.5299" r="2" fill="blue"/>
<text x="53.3178" y="42.5299" font-family="Arial" font-size="5" fill="black">6</text>
<circle cx="53.3578" cy="42.5299" r="2" fill="blue"/>
<text x="55.8578" y="42.5299" font-family="Arial" font-size="5" fill="black">7</text>
<circle cx="55.8978" cy="42.5299" r="2" fill="blue"/>
<text x="58.3978" y="42.5299" font-family="Arial" font-size="5" fill="black">8</text>
<circle cx="107.43" cy="102.309" r="2" fill="blue"/>
<text x="109.93" y="102.309" font-family="Arial" font-size="5" fill="black">9</text>
<circle cx="109.97" cy="102.309" r="2" fill="blue"/>
<text x="112.47" y="102.309" font-family="Arial" font-size="5" fill="black">10</text>
<circle cx="112.51" cy="102.309" r="2" fill="blue"/>
<text x="115.01" y="102.309" font-family="Arial" font-size="5" fill="black">11</text>
<circle cx="115.05" cy="102.309" r="2" fill="blue"/>
<text x="117.55" y="102.309" font-family="Arial" font-size="5" fill="black">12</text>
<circle cx="117.59" cy="102.309" r="2" fill="blue"/>
<text x="120.09" y="102.309" font-family="Arial" font-size="5" fill="black">13</text>
<circle cx="113.549" cy="35.8012" r="2" fill="blue"/>
<text x="116.049" y="35.8012" font-family="Arial" font-size="5" fill="black">14</text>
<circle cx="113.549" cy="37.0712" r="2" fill="blue"/>
<text x="116.049" y="37.0712" font-family="Arial" font-size="5" fill="black">15</text>
<circle cx="113.549" cy="38.3412" r="2" fill="blue"/>
<text x="116.049" y="38.3412" font-family="Arial" font-size="5" fill="black">16</text>
<circle cx="113.549" cy="39.6112" r="2" fill="blue"/>
<text x="116.049" y="39.6112" font-family="Arial" font-size="5" fill="black">17</text>
<circle cx="118.629" cy="35.8012" r="2" fill="blue"/>
<text x="121.129" y="35.8012" font-family="Arial" font-size="5" fill="black">18</text>
<circle cx="118.629" cy="37.0712" r="2" fill="blue"/>
<text x="121.129" y="37.0712" font-family="Arial" font-size="5" fill="black">19</text>
<circle cx="118.629" cy="38.3412" r="2" fill="blue"/>
<text x="121.129" y="38.3412" font-family="Arial" font-size="5" fill="black">20</text>
<circle cx="118.629" cy="39.6112" r="2" fill="blue"/>
<text x="121.129" y="39.6112" font-family="Arial" font-size="5" fill="black">21</text>
<circle cx="22.9009" cy="83.4844" r="2" fill="blue"/>
<text x="25.4009" y="83.4844" font-family="Arial" font-size="5" fill="black">22</text>
<circle cx="22.9009" cy="84.7544" r="2" fill="blue"/>
<text x="25.4009" y="84.7544" font-family="Arial" font-size="5" fill="black">23</text>
<circle cx="22.9009" cy="86.0244" r="2" fill="blue"/>
<text x="25.4009" y="86.0244" font-family="Arial" font-size="5" fill="black">24</text>
<circle cx="22.9009" cy="87.2944" r="2" fill="blue"/>
<text x="25.4009" y="87.2944" font-family="Arial" font-size="5" fill="black">25</text>
<circle cx="27.9809" cy="83.4844" r="2" fill="blue"/>
<text x="30.4809" y="83.4844" font-family="Arial" font-size="5" fill="black">26</text>
<circle cx="27.9809" cy="84.7544" r="2" fill="blue"/>
<text x="30.4809" y="84.7544" font-family="Arial" font-size="5" fill="black">27</text>
<circle cx="27.9809" cy="86.0244" r="2" fill="blue"/>
<text x="30.4809" y="86.0244" font-family="Arial" font-size="5" fill="black">28</text>
<circle cx="27.9809" cy="87.2944" r="2" fill="blue"/>
<text x="30.4809" y="87.2944" font-family="Arial" font-size="5" fill="black">29</text>
</g>
</svg>
