<?xml version="1.0" encoding="UTF-8" standalone="no"?>
<svg xmlns="http://www.w3.org/2000/svg" viewBox="-5 -5 60 60">
<rect x="-5" y="-5" width="60" height="60" fill="white"/>
<g>
<line x1="5" y1="5" x2="5" y2="45" stroke="rgb(0,0,255)" stroke-width="0.8"/>
<line x1="5" y1="45" x2="30.3261" y2="33.2833" stroke="rgb(11,0,244)" stroke-width="0.8"/>
<line x1="30.3261" y1="33.2833" x2="32.8661" y2="33.2833" stroke="rgb(22,0,233)" stroke-width="0.8"/>
<line x1="32.8661" y1="33.2833" x2="35.4061" y2="33.2833" stroke="rgb(33,0,222)" stroke-width="0.8"/>
<line x1="35.4061" y1="33.2833" x2="37.9461" y2="33.2833" stroke="rgb(44,0,211)" stroke-width="0.8"/>
<line x1="37.9461" y1="33.2833" x2="45" y2="45" stroke="rgb(55,0,200)" stroke-width="0.8"/>
<line x1="45" y1="45" x2="40.4861" y2="33.2833" stroke="rgb(66,0,189)" stroke-width="0.8"/>
<line x1="40.4861" y1="33.2833" x2="35.4017" y2="25.1194" stroke="rgb(77,0,178)" stroke-width="0.8"/>
<line x1="35.4017" y1="25.1194" x2="35.4017" y2="22.5794" stroke="rgb(88,0,167)" stroke-width="0.8"/>
<line x1="35.4017" y1="22.5794" x2="35.4017" y2="20.0394" stroke="rgb(99,0,156)" stroke-width="0.8"/>
<line x1="35.4017" y1="20.0394" x2="35.4017" y2="17.4994" stroke="rgb(110,0,145)" stroke-width="0.8"/>
<line x1="35.4017" y1="17.4994" x2="35.4017" y2="14.9594" stroke="rgb(121,0,134)" stroke-width="0.8"/>
<line x1="35.4017" y1="14.9594" x2="35.4017" y2="12.4194" stroke="rgb(133,0,122)" stroke-width="0.8"/>
<line x1="35.4017" y1="12.4194" x2="45" y2="5" stroke="rgb(144,0,111)" stroke-width="0.8"/>
<line x1="45" y1="5" x2="35.4017" y2="9.87942" stroke="rgb(155,0,100)" stroke-width="0.8"/>
<line x1="35.4017" y1="9.87942" x2="27.7817" y2="9.87942" stroke="rgb(166,0,89)" stroke-width="0.8"/>
<line x1="27.7817" y1="9.87942" x2="27.7817" y2="12.4194" stroke="rgb(177,0,78)" stroke-width="0.8"/>
<line x1="27.7817" y1="12.4194" x2="27.7817" y2="14.9594" stroke="rgb(188,0,67)" stroke-width="0.8"/>
<line x1="27.7817" y1="14.9594" x2="27.7817" y2="17.4994" stroke="rgb(199,0,56)" stroke-width="0.8"/>
<line x1="27.7817" y1="17.4994" x2="27.7817" y2="20.0394" stroke="rgb(210,0,45)" stroke-width="0.8"/>
<line x1="27.7817" y1="20.0394" x2="27.7817" y2="22.5794" stroke="rgb(221,0,34)" stroke-width="0.8"/>
<line x1="27.7817" y1="22.5794" x2="27.7817" y2="25.1194" stroke="rgb(232,0,23)" stroke-width="0.8"/>
<line x1="27.7817" y1="25.1194" x2="5" y2="5" stroke="rgb(243,0,12)" stroke-width="0.8"/>
</g>
<g>
<circle cx="5" cy="5" r="2" fill="blue"/>
<text x="7.5" y="5" font-family="Arial" font-size="5" fill="black">0</text>
<circle cx="45" cy="5" r="2" fill="blue"/>
<text x="47.5" y="5" font-family="Arial" font-size="5" fill="black">1</text>
<circle cx="5" cy="45" r="2" fill="blue"/>
<text x="7.5" y="45" font-family="Arial" font-size="5" fill="black">2</text>
<circle cx="45" cy="45" r="2" fill="blue"/>
<text x="47.5" y="45" font-family="Arial" font-size="5" fill="black">3</text>
<circle cx="27.7817" cy="9.87942" r="2" fill="blue"/>
<text x="30.2817" y="9.87942" font-family="Arial" font-size="5" fill="black">4</text>
<circle cx="27.7817" cy="12.4194" r="2" fill="blue"/>
<text x="30.2817" y="12.4194" font-family="Arial" font-size="5" fill="black">5</text>
<circle cx="27.7817" cy="14.9594" r="2" fill="blue"/>
<text x="30.2817" y="14.9594" font-family="Arial" font-size="5" fill="black">6</text>
<circle cx="27.7817" cy="17.4994" r="2" fill="blue"/>
<text x="30.2817" y="17.4994" font-family="Arial" font-size="5" fill="black">7</text>
<circle cx="27.7817" cy="20.0394" r="2" fill="blue"/>
<text x="30.2817" y="20.0394" font-family="Arial" font-size="5" fill="black">8</text>
<circle cx="27.7817" cy="22.5794" r="2" fill="blue"/>
<text x="30.2817" y="22.5794" font-family="Arial" font-size="5" fill="black">9</text>
<circle cx="27.7817" cy="25.1194" r="2" fill="blue"/>
<text x="30.2817" y="25.1194" font-family="Arial" font-size="5" fill="black">10</text>
<circle cx="35.4017" cy="9.87942" r="2" fill="blue"/>
<text x="37.9017" y="9.87942" font-family="Arial" font-size="5" fill="black">11</text>
<circle cx="35.4017" cy="12.4194" r="2" fill="blue"/>
<text x="37.9017" y="12.4194" font-family="Arial" font-size="5" fill="black">12</text>
<circle cx="35.4017" cy="14.9594" r="2" fill="blue"/>
<text x="37.9017" y="14.9594" font-family="Arial" font-size="5" fill="black">13</text>
<circle cx="35.4017" cy="17.4994" r="2" fill="blue"/>
<text x="37.9017" y="17.4994" font-family="Arial" font-size="5" fill="black">14</text>
<circle cx="35.4017" cy="20.0394" r="2" fill="blue"/>
<text x="37.9017" y="20.0394" font-family="Arial" font-size="5" fill="black">15</text>
<circle cx="35.4017" cy="22.5794" r="2" fill="blue"/>
<text x="37.9017" y="22.5794" font-family="Arial" font-size="5" fill="black">16</text>
<circle cx="35.4017" cy="25.1194" r="2" fill="blue"/>
<text x="37.9017" y="25.1194" font-family="Arial" font-size="5" fill="black">17</text>
<circle cx="30.3261" cy="33.2833" r="2" fill="blue"/>
<text x="32.8261" y="33.2833" font-family="Arial" font-size="5" fill="black">18</text>
<circle cx="32.8661" cy="33.2833" r="2" fill="blue"/>
<text x="35.3661" y="33.2833" font-family="Arial" font-size="5" fill="black">19</text>
<circle cx="35.4061" cy="33.2833" r="2" fill="blue"/>
<text x="37.9061" y="33.2833" font-family="Arial" font-size="5" fill="black">20</text>
<circle cx="37.9461" cy="33.2833" r="2" fill="blue"/>
<text x="40.4461" y="33.2833" font-family="Arial" font-size="5" fill="black">21</text>
<circle cx="40.4861" cy="33.2833" r="2" fill="blue"/>
<text x="42.9861" y="33.2833" font-family="Arial" font-size="5" fill="black">22</text>
</g>
</svg>
