<?xml version="1.0" encoding="UTF-8" standalone="no"?>
<svg xmlns="http://www.w3.org/2000/svg" viewBox="-5 -5 135 135">
<rect x="-5" y="-5" width="135" height="135" fill="white"/>
<g>
<line x1="5" y1="5" x2="40.8237" y2="48.6164" stroke="rgb(0,0,255)" stroke-width="0.8"/>
<line x1="40.8237" y1="48.6164" x2="43.3637" y2="48.6164" stroke="rgb(7,0,248)" stroke-width="0.8"/>
<line x1="43.3637" y1="48.6164" x2="45.9037" y2="48.6164" stroke="rgb(14,0,241)" stroke-width="0.8"/>
<line x1="45.9037" y1="48.6164" x2="48.4437" y2="48.6164" stroke="rgb(21,0,234)" stroke-width="0.8"/>
<line x1="48.4437" y1="48.6164" x2="50.9837" y2="48.6164" stroke="rgb(28,0,227)" stroke-width="0.8"/>
<line x1="50.9837" y1="48.6164" x2="120" y2="5" stroke="rgb(35,0,220)" stroke-width="0.8"/>
<line x1="120" y1="5" x2="120" y2="120" stroke="rgb(42,0,213)" stroke-width="0.8"/>
<line x1="120" y1="120" x2="75.0507" y2="98.1865" stroke="rgb(49,0,206)" stroke-width="0.8"/>
<line x1="75.0507" y1="98.1865" x2="72.5107" y2="98.1865" stroke="rgb(56,0,199)" stroke-width="0.8"/>
<line x1="72.5107" y1="98.1865" x2="69.9707" y2="98.1865" stroke="rgb(63,0,192)" stroke-width="0.8"/>
<line x1="69.9707" y1="98.1865" x2="67.4307" y2="98.1865" stroke="rgb(70,0,185)" stroke-width="0.8"/>
<line x1="67.4307" y1="98.1865" x2="64.8907" y2="98.1865" stroke="rgb(77,0,178)" stroke-width="0.8"/>
<line x1="64.8907" y1="98.1865" x2="45.7099" y2="106.424" stroke="rgb(85,0,170)" stroke-width="0.8"/>
<line x1="45.7099" y1="106.424" x2="45.7099" y2="105.154" stroke="rgb(92,0,163)" stroke-width="0.8"/>
<line x1="45.7099" y1="105.154" x2="45.7099" y2="103.884" stroke="rgb(99,0,156)" stroke-width="0.8"/>
<line x1="45.7099" y1="103.884" x2="45.7099" y2="102.614" stroke="rgb(106,0,149)" stroke-width="0.8"/>
<line x1="45.7099" y1="102.614" x2="40.6299" y2="102.614" stroke="rgb(113,0,142)" stroke-width="0.8"/>
<line x1="40.6299" y1="102.614" x2="40.6299" y2="103.884" stroke="rgb(120,0,135)" stroke-width="0.8"/>
<line x1="40.6299" y1="103.884" x2="40.6299" y2="105.154" stroke="rgb(127,0,128)" stroke-width="0.8"/>
<line x1="40.6299" y1="105.154" x2="40.6299" y2="106.424" stroke="rgb(134,0,121)" stroke-width="0.8"/>
<line x1="40.6299" y1="106.424" x2="5" y2="120" stroke="rgb(141,0,114)" stroke-width="0.8"/>
<line x1="5" y1="120" x2="14.041" y2="89.0288" stroke="rgb(148,0,107)" stroke-width="0.8"/>
<line x1="14.041" y1="89.0288" x2="14.041" y2="86.4888" stroke="rgb(155,0,100)" stroke-width="0.8"/>
<line x1="14.041" y1="86.4888" x2="14.041" y2="83.9488" stroke="rgb(162,0,93)" stroke-width="0.8"/>
<line x1="14.041" y1="83.9488" x2="14.041" y2="81.4088" stroke="rgb(170,0,85)" stroke-width="0.8"/>
<line x1="14.041" y1="81.4088" x2="14.041" y2="78.8688" stroke="rgb(177,0,78)" stroke-width="0.8"/>
<line x1="14.041" y1="78.8688" x2="14.041" y2="76.3288" stroke="rgb(184,0,71)" stroke-width="0.8"/>
<line x1="14.041" y1="76.3288" x2="14.041" y2="73.7888" stroke="rgb(191,0,64)" stroke-width="0.8"/>
<line x1="14.041" y1="73.7888" x2="21.661" y2="89.0288" stroke="rgb(198,0,57)" stroke-width="0.8"/>
<line x1="21.661" y1="89.0288" x2="21.661" y2="86.4888" stroke="rgb(205,0,50)" stroke-width="0.8"/>
<line x1="21.661" y1="86.4888" x2="21.661" y2="83.9488" stroke="rgb(212,0,43)" stroke-width="0.8"/>
<line x1="21.661" y1="83.9488" x2="21.661" y2="81.4088" stroke="rgb(219,0,36)" stroke-width="0.8"/>
<line x1="21.661" y1="81.4088" x2="21.661" y2="78.8688" stroke="rgb(226,0,29)" stroke-width="0.8"/>
<line x1="21.661" y1="78.8688" x2="21.661" y2="76.3288" stroke="rgb(233,0,22)" stroke-width="0.8"/>
<line x1="21.661" y1="76.3288" x2="21.661" y2="73.7888" stroke="rgb(240,0,15)" stroke-width="0.8"/>
<line x1="21.661" y1="73.7888" x2="5" y2="5" stroke="rgb(247,0,8)" stroke-width="0.8"/>
</g>
<g>
<circle cx="5" cy="5" r="2" fill="blue"/>
<text x="7.5" y="5" font-family="Arial" font-size="5" fill="black">0</text>
<circle cx="120" cy="5" r="2" fill="blue"/>
<text x="122.5" y="5" font-family="Arial" font-size="5" fill="black">1</text>
<circle cx="5" cy="120" r="2" fill="blue"/>
<text x="7.5" y="120" font-family="Arial" font-size="5" fill="black">2</text>
<circle cx="120" cy="120" r="2" fill="blue"/>
<text x="122.5" y="120" font-family="Arial" font-size="5" fill="black">3</text>
<circle cx="40.8237" cy="48.6164" r="2" fill="blue"/>
<text x="43.3237" y="48.6164" font-family="Arial" font-size="5" fill="black">4</text>
<circle cx="43.3637" cy="48.6164" r="2" fill="blue"/>
<text x="45.8637" y="48.6164" font-family="Arial" font-size="5" fill="black">5</text>
<circle cx="45.9037" cy="48.6164" r="2" fill="blue"/>
<text x="48.4037" y="48.6164" font-family="Arial" font-size="5" fill="black">6</text>
<circle cx="48.4437" cy="48.6164" r="2" fill="blue"/>
<text x="50.9437" y="48.6164" font-family="Arial" font-size="5" fill="black">7</text>
<circle cx="50.9837" cy="48.6164" r="2" fill="blue"/>
<text x="53.4837" y="48.6164" font-family="Arial" font-size="5" fill="black">8</text>
<circle cx="14.041" cy="73.7888" r="2" fill="blue"/>
<text x="16.541" y="73.7888" font-family="Arial" font-size="5" fill="black">9</text>
<circle cx="14.041" cy="76.3288" r="2" fill="blue"/>
<text x="16.541" y="76.3288" font-family="Arial" font-size="5" fill="black">10</text>
<circle cx="14.041" cy="78.8688" r="2" fill="blue"/>
<text x="16.541" y="78.8688" font-family="Arial" font-size="5" fill="black">11</text>
<circle cx="14.041" cy="81.4088" r="2" fill="blue"/>
<text x="16.541" y="81.4088" font-family="Arial" font-size="5" fill="black">12</text>
<circle cx="14.041" cy="83.9488" r="2" fill="blue"/>
<text x="16.541" y="83.9488" font-family="Arial" font-size="5" fill="black">13</text>
<circle cx="14.041" cy="86.4888" r="2" fill="blue"/>
<text x="16.541" y="86.4888" font-family="Arial" font-size="5" fill="black">14</text>
<circle cx="14.041" cy="89.0288" r="2" fill="blue"/>
<text x="16.541" y="89.0288" font-family="Arial" font-size="5" fill="black">15</text>
<circle cx="21.661" cy="73.7888" r="2" fill="blue"/>
<text x="24.161" y="73.7888" font-family="Arial" font-size="5" fill="black">16</text>
<circle cx="21.661" cy="76.3288" r="2" fill="blue"/>
<text x="24.161" y="76.3288" font-family="Arial" font-size="5" fill="black">17</text>
<circle cx="21.661" cy="78.8688" r="2" fill="blue"/>
<text x="24.161" y="78.8688" font-family="Arial" font-size="5" fill="black">18</text>
<circle cx="21.661" cy="81.4088" r="2" fill="blue"/>
<text x="24.161" y="81.4088" font-family="Arial" font-size="5" fill="black">19</text>
<circle cx="21.661" cy="83.9488" r="2" fill="blue"/>
<text x="24.161" y="83.9488" font-family="Arial" font-size="5" fill="black">20</text>
<circle cx="21.661" cy="86.4888" r="2" fill="blue"/>
<text x="24.161" y="86.4888" font-family="Arial" font-size="5" fill="black">21</text>
<circle cx="21.661" cy="89.0288" r="2" fill="blue"/>
<text x="24.161" y="89.0288" font-family="Arial" font-size="5" fill="black">22</text>
<circle cx="40.6299" cy="102.614" r="2" fill="blue"/>
<text x="43.1299" y="102.614" font-family="Arial" font-size="5" fill="black">23</text>
<circle cx="40.6299" cy="103.884" r="2" fill="blue"/>
<text x="43.1299" y="103.884" font-family="Arial" font-size="5" fill="black">24</text>
<circle cx="40.6299" cy="105.154" r="2" fill="blue"/>
<text x="43.1299" y="105.154" font-family="Arial" font-size="5" fill="black">25</text>
<circle cx="40.6299" cy="106.424" r="2" fill="blue"/>
<text x="43.1299" y="106.424" font-family="Arial" font-size="5" fill="black">26</text>
<circle cx="45.7099" cy="102.614" r="2" fill="blue"/>
<text x="48.2099" y="102.614" font-family="Arial" font-size="5" fill="black">27</text>
<circle cx="45.7099" cy="103.884" r="2" fill="blue"/>
<text x="48.2099" y="103.884" font-family="Arial" font-size="5" fill="black">28</text>
<circle cx="45.7099" cy="105.154" r="2" fill="blue"/>
<text x="48.2099" y="105.154" font-family="Arial" font-size="5" fill="black">29</text>
<circle cx="45.7099" cy="106.424" r="2" fill="blue"/>
<text x="48.2099" y="106.424" font-family="Arial" font-size="5" fill="black">30</text>
<circle cx="64.8907" cy="98.1865" r="2" fill="blue"/>
<text x="67.3907" y="98.1865" font-family="Arial" font-size="5" fill="black">31</text>
<circle cx="67.4307" cy="98.1865" r="2" fill="blue"/>
<text x="69.9307" y="98.1865" font-family="Arial" font-size="5" fill="black">32</text>
<circle cx="69.9707" cy="98.1865" r="2" fill="blue"/>
<text x="72.4707" y="98.1865" font-family="Arial" font-size="5" fill="black">33</text>
<circle cx="72.5107" cy="98.1865" r="2" fill="blue"/>
<text x="75.0107" y="98.1865" font-family="Arial" font-size="5" fill="black">34</text>
<circle cx="75.0507" cy="98.1865" r="2" fill="blue"/>
<text x="77.5507" y="98.1865" font-family="Arial" font-size="5" fill="black">35</text>
</g>
</svg>
