<?xml version="1.0" encoding="UTF-8" standalone="no"?>
<svg xmlns="http://www.w3.org/2000/svg" viewBox="-5 -5 60 60">
<rect x="-5" y="-5" width="60" height="60" fill="white"/>
<g>
<line x1="30.9167" y1="8.60849" x2="30.9167" y2="9.87849" stroke="rgb(0,0,255)" stroke-width="0.8"/>
<line x1="30.9167" y1="9.87849" x2="30.9167" y2="11.1485" stroke="rgb(15,0,240)" stroke-width="0.8"/>
<line x1="30.9167" y1="11.1485" x2="30.9167" y2="12.4185" stroke="rgb(30,0,225)" stroke-width="0.8"/>
<line x1="30.9167" y1="12.4185" x2="35.9967" y2="12.4185" stroke="rgb(45,0,210)" stroke-width="0.8"/>
<line x1="35.9967" y1="12.4185" x2="35.9967" y2="11.1485" stroke="rgb(60,0,195)" stroke-width="0.8"/>
<line x1="35.9967" y1="11.1485" x2="35.9967" y2="9.87849" stroke="rgb(75,0,180)" stroke-width="0.8"/>
<line x1="35.9967" y1="9.87849" x2="35.9967" y2="8.60849" stroke="rgb(90,0,165)" stroke-width="0.8"/>
<line x1="35.9967" y1="8.60849" x2="45" y2="5" stroke="rgb(105,0,150)" stroke-width="0.8"/>
<line x1="45" y1="5" x2="45" y2="45" stroke="rgb(120,0,135)" stroke-width="0.8"/>
<line x1="45" y1="45" x2="34.5952" y2="37.1497" stroke="rgb(135,0,120)" stroke-width="0.8"/>
<line x1="34.5952" y1="37.1497" x2="32.0552" y2="37.1497" stroke="rgb(150,0,105)" stroke-width="0.8"/>
<line x1="32.0552" y1="37.1497" x2="29.5152" y2="37.1497" stroke="rgb(165,0,90)" stroke-width="0.8"/>
<line x1="29.5152" y1="37.1497" x2="26.9752" y2="37.1497" stroke="rgb(180,0,75)" stroke-width="0.8"/>
<line x1="26.9752" y1="37.1497" x2="24.4352" y2="37.1497" stroke="rgb(195,0,60)" stroke-width="0.8"/>
<line x1="24.4352" y1="37.1497" x2="5" y2="45" stroke="rgb(210,0,45)" stroke-width="0.8"/>
<line x1="5" y1="45" x2="5" y2="5" stroke="rgb(225,0,30)" stroke-width="0.8"/>
<line x1="5" y1="5" x2="5" y2="5" stroke="rgb(240,0,15)" stroke-width="0.8"/>
</g>
<g>
<circle cx="5" cy="5" r="2" fill="blue"/>
<text x="7.5" y="5" font-family="Arial" font-size="5" fill="black">0</text>
<circle cx="45" cy="5" r="2" fill="blue"/>
<text x="47.5" y="5" font-family="Arial" font-size="5" fill="black">1</text>
<circle cx="5" cy="45" r="2" fill="blue"/>
<text x="7.5" y="45" font-family="Arial" font-size="5" fill="black">2</text>
<circle cx="45" cy="45" r="2" fill="blue"/>
<text x="47.5" y="45" font-family="Arial" font-size="5" fill="black">3</text>
<circle cx="30.9167" cy="8.60849" r="2" fill="blue"/>
<text x="33.4167" y="8.60849" font-family="Arial" font-size="5" fill="black">4</text>
<circle cx="30.9167" cy="9.87849" r="2" fill="blue"/>
<text x="33.4167" y="9.87849" font-family="Arial" font-size="5" fill="black">5</text>
<circle cx="30.9167" cy="11.1485" r="2" fill="blue"/>
<text x="33.4167" y="11.1485" font-family="Arial" font-size="5" fill="black">6</text>
<circle cx="30.9167" cy="12.4185" r="2" fill="blue"/>
<text x="33.4167" y="12.4185" font-family="Arial" font-size="5" fill="black">7</text>
<circle cx="35.9967" cy="8.60849" r="2" fill="blue"/>
<text x="38.4967" y="8.60849" font-family="Arial" font-size="5" fill="black">8</text>
<circle cx="35.9967" cy="9.87849" r="2" fill="blue"/>
<text x="38.4967" y="9.87849" font-family="Arial" font-size="5" fill="black">9</text>
<circle cx="35.9967" cy="11.1485" r="2" fill="blue"/>
<text x="38.4967" y="11.1485" font-family="Arial" font-size="5" fill="black">10</text>
<circle cx="35.9967" cy="12.4185" r="2" fill="blue"/>
<text x="38.4967" y="12.4185" font-family="Arial" font-size="5" fill="black">11</text>
<circle cx="24.4352" cy="37.1497" r="2" fill="blue"/>
<text x="26.9352" y="37.1497" font-family="Arial" font-size="5" fill="black">12</text>
<circle cx="26.9752" cy="37.1497" r="2" fill="blue"/>
<text x="29.4752" y="37.1497" font-family="Arial" font-size="5" fill="black">13</text>
<circle cx="29.5152" cy="37.1497" r="2" fill="blue"/>
<text x="32.0152" y="37.1497" font-family="Arial" font-size="5" fill="black">14</text>
<circle cx="32.0552" cy="37.1497" r="2" fill="blue"/>
<text x="34.5552" y="37.1497" font-family="Arial" font-size="5" fill="black">15</text>
<circle cx="34.5952" cy="37.1497" r="2" fill="blue"/>
<text x="37.0952" y="37.1497" font-family="Arial" font-size="5" fill="black">16</text>
</g>
</svg>
