<?xml version="1.0" encoding="UTF-8" standalone="no"?>
<svg xmlns="http://www.w3.org/2000/svg" viewBox="-5 -5 352 160">
<g transform="translate(0,0)">
<rect x="-5" y="-5" width="160" height="160" fill="white"/>
<g>
<line x1="5" y1="5" x2="144.317" y2="86.7462" stroke="rgb(128,0,127)" stroke-width="0.8"/>
<line x1="144.317" y1="86.7462" x2="129.343" y2="135.656" stroke="rgb(128,0,127)" stroke-width="0.8"/>
<line x1="129.343" y1="135.656" x2="136.697" y2="94.3662" stroke="rgb(128,0,127)" stroke-width="0.8"/>
<line x1="136.697" y1="94.3662" x2="129.343" y2="133.116" stroke="rgb(128,0,127)" stroke-width="0.8"/>
<line x1="129.343" y1="133.116" x2="33.807" y2="71.3897" stroke="rgb(128,0,127)" stroke-width="0.8"/>
<line x1="33.807" y1="71.3897" x2="126.144" y2="49.2713" stroke="rgb(128,0,127)" stroke-width="0.8"/>
<line x1="126.144" y1="49.2713" x2="129.343" y2="136.926" stroke="rgb(128,0,127)" stroke-width="0.8"/>
<line x1="129.343" y1="136.926" x2="136.697" y2="81.6662" stroke="rgb(128,0,127)" stroke-width="0.8"/>
<line x1="136.697" y1="81.6662" x2="33.807" y2="70.1197" stroke="rgb(128,0,127)" stroke-width="0.8"/>
<line x1="33.807" y1="70.1197" x2="124.263" y2="135.656" stroke="rgb(128,0,127)" stroke-width="0.8"/>
<line x1="124.263" y1="135.656" x2="144.317" y2="94.3662" stroke="rgb(128,0,127)" stroke-width="0.8"/>
<line x1="144.317" y1="94.3662" x2="38.887" y2="72.6597" stroke="rgb(128,0,127)" stroke-width="0.8"/>
<line x1="38.887" y1="72.6597" x2="38.887" y2="70.1197" stroke="rgb(128,0,127)" stroke-width="0.8"/>
<line x1="38.887" y1="70.1197" x2="144.317" y2="84.2062" stroke="rgb(128,0,127)" stroke-width="0.8"/>
<line x1="144.317" y1="84.2062" x2="144.317" y2="91.8262" stroke="rgb(128,0,127)" stroke-width="0.8"/>
<line x1="144.317" y1="91.8262" x2="43.8529" y2="102.595" stroke="rgb(128,0,127)" stroke-width="0.8"/>
<line x1="43.8529" y1="102.595" x2="136.697" y2="86.7462" stroke="rgb(128,0,127)" stroke-width="0.8"/>
<line x1="136.697" y1="86.7462" x2="48.9329" y2="102.595" stroke="rgb(128,0,127)" stroke-width="0.8"/>
<line x1="48.9329" y1="102.595" x2="144.317" y2="89.2862" stroke="rgb(128,0,127)" stroke-width="0.8"/>
<line x1="144.317" y1="89.2862" x2="124.263" y2="136.926" stroke="rgb(128,0,127)" stroke-width="0.8"/>
<line x1="124.263" y1="136.926" x2="145" y2="145" stroke="rgb(128,0,127)" stroke-width="0.8"/>
<line x1="145" y1="145" x2="124.263" y2="133.116" stroke="rgb(128,0,127)" stroke-width="0.8"/>
<line x1="124.263" y1="133.116" x2="43.8529" y2="105.135" stroke="rgb(128,0,127)" stroke-width="0.8"/>
<line x1="43.8529" y1="105.135" x2="136.697" y2="84.2062" stroke="rgb(128,0,127)" stroke-width="0.8"/>
<line x1="136.697" y1="84.2062" x2="48.9329" y2="103.865" stroke="rgb(128,0,127)" stroke-width="0.8"/>
<line x1="48.9329" y1="103.865" x2="136.697" y2="91.8262" stroke="rgb(128,0,127)" stroke-width="0.8"/>
<line x1="136.697" y1="91.8262" x2="136.697" y2="96.9062" stroke="rgb(128,0,127)" stroke-width="0.8"/>
<line x1="136.697" y1="96.9062" x2="136.697" y2="89.2862" stroke="rgb(128,0,127)" stroke-width="0.8"/>
<line x1="136.697" y1="89.2862" x2="48.9329" y2="105.135" stroke="rgb(128,0,127)" stroke-width="0.8"/>
<line x1="48.9329" y1="105.135" x2="43.8529" y2="103.865" stroke="rgb(128,0,127)" stroke-width="0.8"/>
<line x1="43.8529" y1="103.865" x2="124.263" y2="134.386" stroke="rgb(128,0,127)" stroke-width="0.8"/>
<line x1="124.263" y1="134.386" x2="38.887" y2="71.3897" stroke="rgb(128,0,127)" stroke-width="0.8"/>
<line x1="38.887" y1="71.3897" x2="121.064" y2="51.8113" stroke="rgb(128,0,127)" stroke-width="0.8"/>
<line x1="121.064" y1="51.8113" x2="129.343" y2="134.386" stroke="rgb(128,0,127)" stroke-width="0.8"/>
<line x1="129.343" y1="134.386" x2="126.144" y2="51.8113" stroke="rgb(128,0,127)" stroke-width="0.8"/>
<line x1="126.144" y1="51.8113" x2="38.887" y2="68.8497" stroke="rgb(128,0,127)" stroke-width="0.8"/>
<line x1="38.887" y1="68.8497" x2="126.144" y2="53.0813" stroke="rgb(128,0,127)" stroke-width="0.8"/>
<line x1="126.144" y1="53.0813" x2="126.144" y2="50.5413" stroke="rgb(128,0,127)" stroke-width="0.8"/>
<line x1="126.144" y1="50.5413" x2="121.064" y2="50.5413" stroke="rgb(128,0,127)" stroke-width="0.8"/>
<line x1="121.064" y1="50.5413" x2="33.807" y2="68.8497" stroke="rgb(128,0,127)" stroke-width="0.8"/>
<line x1="33.807" y1="68.8497" x2="48.9329" y2="106.405" stroke="rgb(128,0,127)" stroke-width="0.8"/>
<line x1="48.9329" y1="106.405" x2="33.807" y2="72.6597" stroke="rgb(128,0,127)" stroke-width="0.8"/>
<line x1="33.807" y1="72.6597" x2="144.317" y2="96.9062" stroke="rgb(128,0,127)" stroke-width="0.8"/>
<line x1="144.317" y1="96.9062" x2="5" y2="145" stroke="rgb(128,0,127)" stroke-width="0.8"/>
<line x1="5" y1="145" x2="145" y2="5" stroke="rgb(128,0,127)" stroke-width="0.8"/>
<line x1="145" y1="5" x2="43.8529" y2="106.405" stroke="rgb(128,0,127)" stroke-width="0.8"/>
<line x1="43.8529" y1="106.405" x2="121.064" y2="49.2713" stroke="rgb(128,0,127)" stroke-width="0.8"/>
<line x1="121.064" y1="49.2713" x2="121.064" y2="53.0813" stroke="rgb(128,0,127)" stroke-width="0.8"/>
<line x1="121.064" y1="53.0813" x2="144.317" y2="81.6662" stroke="rgb(128,0,127)" stroke-width="0.8"/>
<line x1="144.317" y1="81.6662" x2="5" y2="5" stroke="rgb(128,0,127)" stroke-width="0.8"/>
</g>
<text x="0" y="10" font-family="Arial" font-size="10">Initial Solution (Cost: 3767.55)</text>
</g>
<g transform="translate(176.00,0)">
<rect x="-5.00" y="-5.00" width="160.00" height="160.00" fill="white"/>
<g>
<line x1="121.06" y1="50.54" x2="121.06" y2="49.27" stroke="rgb(128,0,127)" stroke-width="0.8"/>
<line x1="121.06" y1="49.27" x2="121.06" y2="51.81" stroke="rgb(128,0,127)" stroke-width="0.8"/>
<line x1="121.06" y1="51.81" x2="121.06" y2="53.08" stroke="rgb(128,0,127)" stroke-width="0.8"/>
<line x1="121.06" y1="53.08" x2="126.14" y2="53.08" stroke="rgb(128,0,127)" stroke-width="0.8"/>
<line x1="126.14" y1="53.08" x2="126.14" y2="51.81" stroke="rgb(128,0,127)" stroke-width="0.8"/>
<line x1="126.14" y1="51.81" x2="126.14" y2="50.54" stroke="rgb(128,0,127)" stroke-width="0.8"/>
<line x1="126.14" y1="50.54" x2="126.14" y2="49.27" stroke="rgb(128,0,127)" stroke-width="0.8"/>
<line x1="126.14" y1="49.27" x2="145.00" y2="5.00" stroke="rgb(128,0,127)" stroke-width="0.8"/>
<line x1="145.00" y1="5.00" x2="144.32" y2="81.67" stroke="rgb(128,0,127)" stroke-width="0.8"/>
<line x1="144.32" y1="81.67" x2="144.32" y2="84.21" stroke="rgb(128,0,127)" stroke-width="0.8"/>
<line x1="144.32" y1="84.21" x2="144.32" y2="86.75" stroke="rgb(128,0,127)" stroke-width="0.8"/>
<line x1="144.32" y1="86.75" x2="144.32" y2="89.29" stroke="rgb(128,0,127)" stroke-width="0.8"/>
<line x1="144.32" y1="89.29" x2="136.70" y2="81.67" stroke="rgb(128,0,127)" stroke-width="0.8"/>
<line x1="136.70" y1="81.67" x2="136.70" y2="84.21" stroke="rgb(128,0,127)" stroke-width="0.8"/>
<line x1="136.70" y1="84.21" x2="136.70" y2="86.75" stroke="rgb(128,0,127)" stroke-width="0.8"/>
<line x1="136.70" y1="86.75" x2="136.70" y2="89.29" stroke="rgb(128,0,127)" stroke-width="0.8"/>
<line x1="136.70" y1="89.29" x2="136.70" y2="91.83" stroke="rgb(128,0,127)" stroke-width="0.8"/>
<line x1="136.70" y1="91.83" x2="136.70" y2="94.37" stroke="rgb(128,0,127)" stroke-width="0.8"/>
<line x1="136.70" y1="94.37" x2="136.70" y2="96.91" stroke="rgb(128,0,127)" stroke-width="0.8"/>
<line x1="136.70" y1="96.91" x2="144.32" y2="91.83" stroke="rgb(128,0,127)" stroke-width="0.8"/>
<line x1="144.32" y1="91.83" x2="144.32" y2="94.37" stroke="rgb(128,0,127)" stroke-width="0.8"/>
<line x1="144.32" y1="94.37" x2="144.32" y2="96.91" stroke="rgb(128,0,127)" stroke-width="0.8"/>
<line x1="144.32" y1="96.91" x2="145.00" y2="145.00" stroke="rgb(128,0,127)" stroke-width="0.8"/>
<line x1="145.00" y1="145.00" x2="129.34" y2="136.93" stroke="rgb(128,0,127)" stroke-width="0.8"/>
<line x1="129.34" y1="136.93" x2="129.34" y2="135.66" stroke="rgb(128,0,127)" stroke-width="0.8"/>
<line x1="129.34" y1="135.66" x2="129.34" y2="134.39" stroke="rgb(128,0,127)" stroke-width="0.8"/>
<line x1="129.34" y1="134.39" x2="129.34" y2="133.12" stroke="rgb(128,0,127)" stroke-width="0.8"/>
<line x1="129.34" y1="133.12" x2="124.26" y2="133.12" stroke="rgb(128,0,127)" stroke-width="0.8"/>
<line x1="124.26" y1="133.12" x2="124.26" y2="134.39" stroke="rgb(128,0,127)" stroke-width="0.8"/>
<line x1="124.26" y1="134.39" x2="124.26" y2="135.66" stroke="rgb(128,0,127)" stroke-width="0.8"/>
<line x1="124.26" y1="135.66" x2="124.26" y2="136.93" stroke="rgb(128,0,127)" stroke-width="0.8"/>
<line x1="124.26" y1="136.93" x2="5.00" y2="145.00" stroke="rgb(128,0,127)" stroke-width="0.8"/>
<line x1="5.00" y1="145.00" x2="43.85" y2="106.41" stroke="rgb(128,0,127)" stroke-width="0.8"/>
<line x1="43.85" y1="106.41" x2="43.85" y2="105.14" stroke="rgb(128,0,127)" stroke-width="0.8"/>
<line x1="43.85" y1="105.14" x2="43.85" y2="103.87" stroke="rgb(128,0,127)" stroke-width="0.8"/>
<line x1="43.85" y1="103.87" x2="43.85" y2="102.60" stroke="rgb(128,0,127)" stroke-width="0.8"/>
<line x1="43.85" y1="102.60" x2="48.93" y2="106.41" stroke="rgb(128,0,127)" stroke-width="0.8"/>
<line x1="48.93" y1="106.41" x2="48.93" y2="105.14" stroke="rgb(128,0,127)" stroke-width="0.8"/>
<line x1="48.93" y1="105.14" x2="48.93" y2="103.87" stroke="rgb(128,0,127)" stroke-width="0.8"/>
<line x1="48.93" y1="103.87" x2="48.93" y2="102.60" stroke="rgb(128,0,127)" stroke-width="0.8"/>
<line x1="48.93" y1="102.60" x2="38.89" y2="72.66" stroke="rgb(128,0,127)" stroke-width="0.8"/>
<line x1="38.89" y1="72.66" x2="38.89" y2="71.39" stroke="rgb(128,0,127)" stroke-width="0.8"/>
<line x1="38.89" y1="71.39" x2="38.89" y2="70.12" stroke="rgb(128,0,127)" stroke-width="0.8"/>
<line x1="38.89" y1="70.12" x2="38.89" y2="68.85" stroke="rgb(128,0,127)" stroke-width="0.8"/>
<line x1="38.89" y1="68.85" x2="33.81" y2="72.66" stroke="rgb(128,0,127)" stroke-width="0.8"/>
<line x1="33.81" y1="72.66" x2="33.81" y2="71.39" stroke="rgb(128,0,127)" stroke-width="0.8"/>
<line x1="33.81" y1="71.39" x2="33.81" y2="70.12" stroke="rgb(128,0,127)" stroke-width="0.8"/>
<line x1="33.81" y1="70.12" x2="33.81" y2="68.85" stroke="rgb(128,0,127)" stroke-width="0.8"/>
<line x1="33.81" y1="68.85" x2="5.00" y2="5.00" stroke="rgb(128,0,127)" stroke-width="0.8"/>
<line x1="5.00" y1="5.00" x2="5.00" y2="5.00" stroke="rgb(128,0,127)" stroke-width="0.8"/>
</g>
<text x="0.00" y="10.00" font-family="Arial" font-size="10">Final Solution (Cost: 568.91)</text>
</g>
</svg>
