<?xml version="1.0" encoding="UTF-8" standalone="no"?>
<svg xmlns="http://www.w3.org/2000/svg" viewBox="-5 -5 60 60">
<rect x="-5" y="-5" width="60" height="60" fill="white"/>
<g>
<circle cx="5" cy="5" r="2" fill="blue"/>
<text x="7.5" y="5" font-family="Arial" font-size="5" fill="black">0</text>
<circle cx="45" cy="5" r="2" fill="blue"/>
<text x="47.5" y="5" font-family="Arial" font-size="5" fill="black">1</text>
<circle cx="5" cy="45" r="2" fill="blue"/>
<text x="7.5" y="45" font-family="Arial" font-size="5" fill="black">2</text>
<circle cx="45" cy="45" r="2" fill="blue"/>
<text x="47.5" y="45" font-family="Arial" font-size="5" fill="black">3</text>
<circle cx="26.442" cy="25.7858" r="2" fill="blue"/>
<text x="28.942" y="25.7858" font-family="Arial" font-size="5" fill="black">4</text>
<circle cx="28.982" cy="25.7858" r="2" fill="blue"/>
<text x="31.482" y="25.7858" font-family="Arial" font-size="5" fill="black">5</text>
<circle cx="31.522" cy="25.7858" r="2" fill="blue"/>
<text x="34.022" y="25.7858" font-family="Arial" font-size="5" fill="black">6</text>
<circle cx="34.062" cy="25.7858" r="2" fill="blue"/>
<text x="36.562" y="25.7858" font-family="Arial" font-size="5" fill="black">7</text>
<circle cx="36.602" cy="25.7858" r="2" fill="blue"/>
<text x="39.102" y="25.7858" font-family="Arial" font-size="5" fill="black">8</text>
<circle cx="29.9667" cy="44.6652" r="2" fill="blue"/>
<text x="32.4667" y="44.6652" font-family="Arial" font-size="5" fill="black">9</text>
<circle cx="32.5067" cy="44.6652" r="2" fill="blue"/>
<text x="35.0067" y="44.6652" font-family="Arial" font-size="5" fill="black">10</text>
<circle cx="35.0467" cy="44.6652" r="2" fill="blue"/>
<text x="37.5467" y="44.6652" font-family="Arial" font-size="5" fill="black">11</text>
<circle cx="37.5867" cy="44.6652" r="2" fill="blue"/>
<text x="40.0867" y="44.6652" font-family="Arial" font-size="5" fill="black">12</text>
<circle cx="40.1267" cy="44.6652" r="2" fill="blue"/>
<text x="42.6267" y="44.6652" font-family="Arial" font-size="5" fill="black">13</text>
</g>
</svg>
