<?xml version="1.0" encoding="UTF-8" standalone="no"?>
<svg xmlns="http://www.w3.org/2000/svg" viewBox="-5 -5 110 110">
<rect x="-5" y="-5" width="110" height="110" fill="white"/>
<g>
<circle cx="5" cy="5" r="2" fill="blue"/>
<text x="7.5" y="5" font-family="Arial" font-size="5" fill="black">0</text>
<circle cx="95" cy="5" r="2" fill="blue"/>
<text x="97.5" y="5" font-family="Arial" font-size="5" fill="black">1</text>
<circle cx="5" cy="95" r="2" fill="blue"/>
<text x="7.5" y="95" font-family="Arial" font-size="5" fill="black">2</text>
<circle cx="95" cy="95" r="2" fill="blue"/>
<text x="97.5" y="95" font-family="Arial" font-size="5" fill="black">3</text>
<circle cx="59.7919" cy="40.9656" r="2" fill="blue"/>
<text x="62.2919" y="40.9656" font-family="Arial" font-size="5" fill="black">4</text>
<circle cx="59.7919" cy="43.5056" r="2" fill="blue"/>
<text x="62.2919" y="43.5056" font-family="Arial" font-size="5" fill="black">5</text>
<circle cx="59.7919" cy="46.0456" r="2" fill="blue"/>
<text x="62.2919" y="46.0456" font-family="Arial" font-size="5" fill="black">6</text>
<circle cx="59.7919" cy="48.5856" r="2" fill="blue"/>
<text x="62.2919" y="48.5856" font-family="Arial" font-size="5" fill="black">7</text>
<circle cx="59.7919" cy="51.1256" r="2" fill="blue"/>
<text x="62.2919" y="51.1256" font-family="Arial" font-size="5" fill="black">8</text>
<circle cx="59.7919" cy="53.6656" r="2" fill="blue"/>
<text x="62.2919" y="53.6656" font-family="Arial" font-size="5" fill="black">9</text>
<circle cx="59.7919" cy="56.2056" r="2" fill="blue"/>
<text x="62.2919" y="56.2056" font-family="Arial" font-size="5" fill="black">10</text>
<circle cx="67.4119" cy="40.9656" r="2" fill="blue"/>
<text x="69.9119" y="40.9656" font-family="Arial" font-size="5" fill="black">11</text>
<circle cx="67.4119" cy="43.5056" r="2" fill="blue"/>
<text x="69.9119" y="43.5056" font-family="Arial" font-size="5" fill="black">12</text>
<circle cx="67.4119" cy="46.0456" r="2" fill="blue"/>
<text x="69.9119" y="46.0456" font-family="Arial" font-size="5" fill="black">13</text>
<circle cx="67.4119" cy="48.5856" r="2" fill="blue"/>
<text x="69.9119" y="48.5856" font-family="Arial" font-size="5" fill="black">14</text>
<circle cx="67.4119" cy="51.1256" r="2" fill="blue"/>
<text x="69.9119" y="51.1256" font-family="Arial" font-size="5" fill="black">15</text>
<circle cx="67.4119" cy="53.6656" r="2" fill="blue"/>
<text x="69.9119" y="53.6656" font-family="Arial" font-size="5" fill="black">16</text>
<circle cx="67.4119" cy="56.2056" r="2" fill="blue"/>
<text x="69.9119" y="56.2056" font-family="Arial" font-size="5" fill="black">17</text>
<circle cx="85.8239" cy="71.0528" r="2" fill="blue"/>
<text x="88.3239" y="71.0528" font-family="Arial" font-size="5" fill="black">18</text>
<circle cx="85.8239" cy="72.3228" r="2" fill="blue"/>
<text x="88.3239" y="72.3228" font-family="Arial" font-size="5" fill="black">19</text>
<circle cx="85.8239" cy="73.5928" r="2" fill="blue"/>
<text x="88.3239" y="73.5928" font-family="Arial" font-size="5" fill="black">20</text>
<circle cx="85.8239" cy="74.8628" r="2" fill="blue"/>
<text x="88.3239" y="74.8628" font-family="Arial" font-size="5" fill="black">21</text>
<circle cx="90.9039" cy="71.0528" r="2" fill="blue"/>
<text x="93.4039" y="71.0528" font-family="Arial" font-size="5" fill="black">22</text>
<circle cx="90.9039" cy="72.3228" r="2" fill="blue"/>
<text x="93.4039" y="72.3228" font-family="Arial" font-size="5" fill="black">23</text>
<circle cx="90.9039" cy="73.5928" r="2" fill="blue"/>
<text x="93.4039" y="73.5928" font-family="Arial" font-size="5" fill="black">24</text>
<circle cx="90.9039" cy="74.8628" r="2" fill="blue"/>
<text x="93.4039" y="74.8628" font-family="Arial" font-size="5" fill="black">25</text>
<circle cx="81.0376" cy="17.2347" r="2" fill="blue"/>
<text x="83.5376" y="17.2347" font-family="Arial" font-size="5" fill="black">26</text>
<circle cx="81.0376" cy="19.7747" r="2" fill="blue"/>
<text x="83.5376" y="19.7747" font-family="Arial" font-size="5" fill="black">27</text>
<circle cx="81.0376" cy="22.3147" r="2" fill="blue"/>
<text x="83.5376" y="22.3147" font-family="Arial" font-size="5" fill="black">28</text>
<circle cx="81.0376" cy="24.8547" r="2" fill="blue"/>
<text x="83.5376" y="24.8547" font-family="Arial" font-size="5" fill="black">29</text>
<circle cx="81.0376" cy="27.3947" r="2" fill="blue"/>
<text x="83.5376" y="27.3947" font-family="Arial" font-size="5" fill="black">30</text>
<circle cx="81.0376" cy="29.9347" r="2" fill="blue"/>
<text x="83.5376" y="29.9347" font-family="Arial" font-size="5" fill="black">31</text>
<circle cx="81.0376" cy="32.4747" r="2" fill="blue"/>
<text x="83.5376" y="32.4747" font-family="Arial" font-size="5" fill="black">32</text>
<circle cx="88.6576" cy="17.2347" r="2" fill="blue"/>
<text x="91.1576" y="17.2347" font-family="Arial" font-size="5" fill="black">33</text>
<circle cx="88.6576" cy="19.7747" r="2" fill="blue"/>
<text x="91.1576" y="19.7747" font-family="Arial" font-size="5" fill="black">34</text>
<circle cx="88.6576" cy="22.3147" r="2" fill="blue"/>
<text x="91.1576" y="22.3147" font-family="Arial" font-size="5" fill="black">35</text>
<circle cx="88.6576" cy="24.8547" r="2" fill="blue"/>
<text x="91.1576" y="24.8547" font-family="Arial" font-size="5" fill="black">36</text>
<circle cx="88.6576" cy="27.3947" r="2" fill="blue"/>
<text x="91.1576" y="27.3947" font-family="Arial" font-size="5" fill="black">37</text>
<circle cx="88.6576" cy="29.9347" r="2" fill="blue"/>
<text x="91.1576" y="29.9347" font-family="Arial" font-size="5" fill="black">38</text>
<circle cx="88.6576" cy="32.4747" r="2" fill="blue"/>
<text x="91.1576" y="32.4747" font-family="Arial" font-size="5" fill="black">39</text>
</g>
</svg>
