<?xml version="1.0" encoding="UTF-8" standalone="no"?>
<svg xmlns="http://www.w3.org/2000/svg" viewBox="-5 -5 242 110">
<g transform="translate(0,0)">
<rect x="-5" y="-5" width="110" height="110" fill="white"/>
<g>
<line x1="5" y1="5" x2="89.3949" y2="29.0541" stroke="rgb(128,0,127)" stroke-width="0.8"/>
<line x1="89.3949" y1="29.0541" x2="82.6482" y2="47.8109" stroke="rgb(128,0,127)" stroke-width="0.8"/>
<line x1="82.6482" y1="47.8109" x2="5" y2="95" stroke="rgb(128,0,127)" stroke-width="0.8"/>
<line x1="5" y1="95" x2="82.6482" y2="50.3509" stroke="rgb(128,0,127)" stroke-width="0.8"/>
<line x1="82.6482" y1="50.3509" x2="94.4749" y2="30.3241" stroke="rgb(128,0,127)" stroke-width="0.8"/>
<line x1="94.4749" y1="30.3241" x2="87.7282" y2="50.3509" stroke="rgb(128,0,127)" stroke-width="0.8"/>
<line x1="87.7282" y1="50.3509" x2="30.5641" y2="18.5048" stroke="rgb(128,0,127)" stroke-width="0.8"/>
<line x1="30.5641" y1="18.5048" x2="87.7282" y2="51.6209" stroke="rgb(128,0,127)" stroke-width="0.8"/>
<line x1="87.7282" y1="51.6209" x2="89.3949" y2="30.3241" stroke="rgb(128,0,127)" stroke-width="0.8"/>
<line x1="89.3949" y1="30.3241" x2="82.6482" y2="49.0809" stroke="rgb(128,0,127)" stroke-width="0.8"/>
<line x1="82.6482" y1="49.0809" x2="25.4841" y2="18.5048" stroke="rgb(128,0,127)" stroke-width="0.8"/>
<line x1="25.4841" y1="18.5048" x2="87.7282" y2="47.8109" stroke="rgb(128,0,127)" stroke-width="0.8"/>
<line x1="87.7282" y1="47.8109" x2="95" y2="95" stroke="rgb(128,0,127)" stroke-width="0.8"/>
<line x1="95" y1="95" x2="87.7282" y2="49.0809" stroke="rgb(128,0,127)" stroke-width="0.8"/>
<line x1="87.7282" y1="49.0809" x2="82.6482" y2="51.6209" stroke="rgb(128,0,127)" stroke-width="0.8"/>
<line x1="82.6482" y1="51.6209" x2="33.1041" y2="18.5048" stroke="rgb(128,0,127)" stroke-width="0.8"/>
<line x1="33.1041" y1="18.5048" x2="89.3949" y2="32.8641" stroke="rgb(128,0,127)" stroke-width="0.8"/>
<line x1="89.3949" y1="32.8641" x2="22.9441" y2="18.5048" stroke="rgb(128,0,127)" stroke-width="0.8"/>
<line x1="22.9441" y1="18.5048" x2="89.3949" y2="31.5941" stroke="rgb(128,0,127)" stroke-width="0.8"/>
<line x1="89.3949" y1="31.5941" x2="94.4749" y2="32.8641" stroke="rgb(128,0,127)" stroke-width="0.8"/>
<line x1="94.4749" y1="32.8641" x2="94.4749" y2="29.0541" stroke="rgb(128,0,127)" stroke-width="0.8"/>
<line x1="94.4749" y1="29.0541" x2="94.4749" y2="31.5941" stroke="rgb(128,0,127)" stroke-width="0.8"/>
<line x1="94.4749" y1="31.5941" x2="28.0241" y2="18.5048" stroke="rgb(128,0,127)" stroke-width="0.8"/>
<line x1="28.0241" y1="18.5048" x2="95" y2="5" stroke="rgb(128,0,127)" stroke-width="0.8"/>
<line x1="95" y1="5" x2="5" y2="5" stroke="rgb(128,0,127)" stroke-width="0.8"/>
</g>
<text x="0" y="10" font-family="Arial" font-size="10">Initial Solution (Cost: 1229.89)</text>
</g>
<g transform="translate(121.00,0)">
<rect x="-5.00" y="-5.00" width="110.00" height="110.00" fill="white"/>
<g>
<line x1="95.00" y1="5.00" x2="94.47" y2="29.05" stroke="rgb(128,0,127)" stroke-width="0.8"/>
<line x1="94.47" y1="29.05" x2="94.47" y2="30.32" stroke="rgb(128,0,127)" stroke-width="0.8"/>
<line x1="94.47" y1="30.32" x2="94.47" y2="31.59" stroke="rgb(128,0,127)" stroke-width="0.8"/>
<line x1="94.47" y1="31.59" x2="94.47" y2="32.86" stroke="rgb(128,0,127)" stroke-width="0.8"/>
<line x1="94.47" y1="32.86" x2="89.39" y2="29.05" stroke="rgb(128,0,127)" stroke-width="0.8"/>
<line x1="89.39" y1="29.05" x2="89.39" y2="30.32" stroke="rgb(128,0,127)" stroke-width="0.8"/>
<line x1="89.39" y1="30.32" x2="89.39" y2="31.59" stroke="rgb(128,0,127)" stroke-width="0.8"/>
<line x1="89.39" y1="31.59" x2="89.39" y2="32.86" stroke="rgb(128,0,127)" stroke-width="0.8"/>
<line x1="89.39" y1="32.86" x2="87.73" y2="47.81" stroke="rgb(128,0,127)" stroke-width="0.8"/>
<line x1="87.73" y1="47.81" x2="87.73" y2="49.08" stroke="rgb(128,0,127)" stroke-width="0.8"/>
<line x1="87.73" y1="49.08" x2="87.73" y2="50.35" stroke="rgb(128,0,127)" stroke-width="0.8"/>
<line x1="87.73" y1="50.35" x2="87.73" y2="51.62" stroke="rgb(128,0,127)" stroke-width="0.8"/>
<line x1="87.73" y1="51.62" x2="82.65" y2="47.81" stroke="rgb(128,0,127)" stroke-width="0.8"/>
<line x1="82.65" y1="47.81" x2="82.65" y2="49.08" stroke="rgb(128,0,127)" stroke-width="0.8"/>
<line x1="82.65" y1="49.08" x2="82.65" y2="50.35" stroke="rgb(128,0,127)" stroke-width="0.8"/>
<line x1="82.65" y1="50.35" x2="82.65" y2="51.62" stroke="rgb(128,0,127)" stroke-width="0.8"/>
<line x1="82.65" y1="51.62" x2="95.00" y2="95.00" stroke="rgb(128,0,127)" stroke-width="0.8"/>
<line x1="95.00" y1="95.00" x2="5.00" y2="95.00" stroke="rgb(128,0,127)" stroke-width="0.8"/>
<line x1="5.00" y1="95.00" x2="33.10" y2="18.50" stroke="rgb(128,0,127)" stroke-width="0.8"/>
<line x1="33.10" y1="18.50" x2="30.56" y2="18.50" stroke="rgb(128,0,127)" stroke-width="0.8"/>
<line x1="30.56" y1="18.50" x2="28.02" y2="18.50" stroke="rgb(128,0,127)" stroke-width="0.8"/>
<line x1="28.02" y1="18.50" x2="25.48" y2="18.50" stroke="rgb(128,0,127)" stroke-width="0.8"/>
<line x1="25.48" y1="18.50" x2="22.94" y2="18.50" stroke="rgb(128,0,127)" stroke-width="0.8"/>
<line x1="22.94" y1="18.50" x2="5.00" y2="5.00" stroke="rgb(128,0,127)" stroke-width="0.8"/>
<line x1="5.00" y1="5.00" x2="5.00" y2="5.00" stroke="rgb(128,0,127)" stroke-width="0.8"/>
</g>
<text x="0.00" y="10.00" font-family="Arial" font-size="10">Final Solution (Cost: 316.26)</text>
</g>
</svg>
