<?xml version="1.0" encoding="UTF-8" standalone="no"?>
<svg xmlns="http://www.w3.org/2000/svg" width="800" height="800" viewBox="-167.442 -167.442 800 800">
<rect x="-167.442" y="-167.442" width="800" height="800" fill="white"/>
<g>
<line x1="446.512" y1="446.512" x2="380.509" y2="433.757" stroke="rgb(0,0,255)" stroke-width="2"/>
<line x1="380.509" y1="433.757" x2="380.509" y2="424.306" stroke="rgb(5,0,250)" stroke-width="2"/>
<line x1="380.509" y1="424.306" x2="380.509" y2="414.855" stroke="rgb(10,0,245)" stroke-width="2"/>
<line x1="380.509" y1="414.855" x2="380.509" y2="405.404" stroke="rgb(15,0,240)" stroke-width="2"/>
<line x1="380.509" y1="405.404" x2="380.509" y2="395.953" stroke="rgb(21,0,234)" stroke-width="2"/>
<line x1="380.509" y1="395.953" x2="380.509" y2="386.502" stroke="rgb(26,0,229)" stroke-width="2"/>
<line x1="380.509" y1="386.502" x2="380.509" y2="377.05" stroke="rgb(31,0,224)" stroke-width="2"/>
<line x1="380.509" y1="377.05" x2="352.155" y2="377.05" stroke="rgb(37,0,218)" stroke-width="2"/>
<line x1="352.155" y1="377.05" x2="352.155" y2="386.502" stroke="rgb(42,0,213)" stroke-width="2"/>
<line x1="352.155" y1="386.502" x2="352.155" y2="395.953" stroke="rgb(47,0,208)" stroke-width="2"/>
<line x1="352.155" y1="395.953" x2="352.155" y2="405.404" stroke="rgb(53,0,202)" stroke-width="2"/>
<line x1="352.155" y1="405.404" x2="352.155" y2="414.855" stroke="rgb(58,0,197)" stroke-width="2"/>
<line x1="352.155" y1="414.855" x2="352.155" y2="424.306" stroke="rgb(63,0,192)" stroke-width="2"/>
<line x1="352.155" y1="424.306" x2="352.155" y2="433.757" stroke="rgb(69,0,186)" stroke-width="2"/>
<line x1="352.155" y1="433.757" x2="144.491" y2="394.807" stroke="rgb(74,0,181)" stroke-width="2"/>
<line x1="144.491" y1="394.807" x2="144.491" y2="390.081" stroke="rgb(79,0,176)" stroke-width="2"/>
<line x1="144.491" y1="390.081" x2="144.491" y2="385.356" stroke="rgb(85,0,170)" stroke-width="2"/>
<line x1="144.491" y1="385.356" x2="144.491" y2="380.63" stroke="rgb(90,0,165)" stroke-width="2"/>
<line x1="144.491" y1="380.63" x2="125.589" y2="380.63" stroke="rgb(95,0,160)" stroke-width="2"/>
<line x1="125.589" y1="380.63" x2="125.589" y2="385.356" stroke="rgb(100,0,155)" stroke-width="2"/>
<line x1="125.589" y1="385.356" x2="125.589" y2="390.081" stroke="rgb(106,0,149)" stroke-width="2"/>
<line x1="125.589" y1="390.081" x2="125.589" y2="394.807" stroke="rgb(111,0,144)" stroke-width="2"/>
<line x1="125.589" y1="394.807" x2="18.6047" y2="446.512" stroke="rgb(116,0,139)" stroke-width="2"/>
<line x1="18.6047" y1="446.512" x2="191.417" y2="256.587" stroke="rgb(122,0,133)" stroke-width="2"/>
<line x1="191.417" y1="256.587" x2="191.417" y2="251.861" stroke="rgb(127,0,128)" stroke-width="2"/>
<line x1="191.417" y1="251.861" x2="191.417" y2="247.136" stroke="rgb(132,0,123)" stroke-width="2"/>
<line x1="191.417" y1="247.136" x2="191.417" y2="242.41" stroke="rgb(138,0,117)" stroke-width="2"/>
<line x1="191.417" y1="242.41" x2="210.32" y2="256.587" stroke="rgb(143,0,112)" stroke-width="2"/>
<line x1="210.32" y1="256.587" x2="210.32" y2="251.861" stroke="rgb(148,0,107)" stroke-width="2"/>
<line x1="210.32" y1="251.861" x2="210.32" y2="247.136" stroke="rgb(154,0,101)" stroke-width="2"/>
<line x1="210.32" y1="247.136" x2="210.32" y2="242.41" stroke="rgb(159,0,96)" stroke-width="2"/>
<line x1="210.32" y1="242.41" x2="446.512" y2="18.6047" stroke="rgb(164,0,91)" stroke-width="2"/>
<line x1="446.512" y1="18.6047" x2="193.113" y2="78.2941" stroke="rgb(170,0,85)" stroke-width="2"/>
<line x1="193.113" y1="78.2941" x2="193.113" y2="87.7453" stroke="rgb(175,0,80)" stroke-width="2"/>
<line x1="193.113" y1="87.7453" x2="193.113" y2="97.1964" stroke="rgb(180,0,75)" stroke-width="2"/>
<line x1="193.113" y1="97.1964" x2="193.113" y2="106.648" stroke="rgb(185,0,70)" stroke-width="2"/>
<line x1="193.113" y1="106.648" x2="193.113" y2="116.099" stroke="rgb(191,0,64)" stroke-width="2"/>
<line x1="193.113" y1="116.099" x2="193.113" y2="125.55" stroke="rgb(196,0,59)" stroke-width="2"/>
<line x1="193.113" y1="125.55" x2="193.113" y2="135.001" stroke="rgb(201,0,54)" stroke-width="2"/>
<line x1="193.113" y1="135.001" x2="164.759" y2="135.001" stroke="rgb(207,0,48)" stroke-width="2"/>
<line x1="164.759" y1="135.001" x2="164.759" y2="125.55" stroke="rgb(212,0,43)" stroke-width="2"/>
<line x1="164.759" y1="125.55" x2="164.759" y2="116.099" stroke="rgb(217,0,38)" stroke-width="2"/>
<line x1="164.759" y1="116.099" x2="164.759" y2="106.648" stroke="rgb(223,0,32)" stroke-width="2"/>
<line x1="164.759" y1="106.648" x2="164.759" y2="97.1964" stroke="rgb(228,0,27)" stroke-width="2"/>
<line x1="164.759" y1="97.1964" x2="164.759" y2="87.7453" stroke="rgb(233,0,22)" stroke-width="2"/>
<line x1="164.759" y1="87.7453" x2="164.759" y2="78.2941" stroke="rgb(239,0,16)" stroke-width="2"/>
<line x1="164.759" y1="78.2941" x2="18.6047" y2="18.6047" stroke="rgb(244,0,11)" stroke-width="2"/>
<line x1="18.6047" y1="18.6047" x2="18.6047" y2="18.6047" stroke="rgb(249,0,6)" stroke-width="2"/>
</g>
<g>
<circle cx="18.6047" cy="18.6047" r="8" fill="blue"/>
<text x="33.6047" y="23.6047" font-family="Arial" font-size="12" fill="black">0</text>
<circle cx="446.512" cy="18.6047" r="8" fill="blue"/>
<text x="461.512" y="23.6047" font-family="Arial" font-size="12" fill="black">1</text>
<circle cx="18.6047" cy="446.512" r="8" fill="blue"/>
<text x="33.6047" y="451.512" font-family="Arial" font-size="12" fill="black">2</text>
<circle cx="446.512" cy="446.512" r="8" fill="blue"/>
<text x="461.512" y="451.512" font-family="Arial" font-size="12" fill="black">3</text>
<circle cx="352.155" cy="377.05" r="8" fill="blue"/>
<text x="367.155" y="382.05" font-family="Arial" font-size="12" fill="black">4</text>
<circle cx="352.155" cy="386.502" r="8" fill="blue"/>
<text x="367.155" y="391.502" font-family="Arial" font-size="12" fill="black">5</text>
<circle cx="352.155" cy="395.953" r="8" fill="blue"/>
<text x="367.155" y="400.953" font-family="Arial" font-size="12" fill="black">6</text>
<circle cx="352.155" cy="405.404" r="8" fill="blue"/>
<text x="367.155" y="410.404" font-family="Arial" font-size="12" fill="black">7</text>
<circle cx="352.155" cy="414.855" r="8" fill="blue"/>
<text x="367.155" y="419.855" font-family="Arial" font-size="12" fill="black">8</text>
<circle cx="352.155" cy="424.306" r="8" fill="blue"/>
<text x="367.155" y="429.306" font-family="Arial" font-size="12" fill="black">9</text>
<circle cx="352.155" cy="433.757" r="8" fill="blue"/>
<text x="367.155" y="438.757" font-family="Arial" font-size="12" fill="black">10</text>
<circle cx="380.509" cy="377.05" r="8" fill="blue"/>
<text x="395.509" y="382.05" font-family="Arial" font-size="12" fill="black">11</text>
<circle cx="380.509" cy="386.502" r="8" fill="blue"/>
<text x="395.509" y="391.502" font-family="Arial" font-size="12" fill="black">12</text>
<circle cx="380.509" cy="395.953" r="8" fill="blue"/>
<text x="395.509" y="400.953" font-family="Arial" font-size="12" fill="black">13</text>
<circle cx="380.509" cy="405.404" r="8" fill="blue"/>
<text x="395.509" y="410.404" font-family="Arial" font-size="12" fill="black">14</text>
<circle cx="380.509" cy="414.855" r="8" fill="blue"/>
<text x="395.509" y="419.855" font-family="Arial" font-size="12" fill="black">15</text>
<circle cx="380.509" cy="424.306" r="8" fill="blue"/>
<text x="395.509" y="429.306" font-family="Arial" font-size="12" fill="black">16</text>
<circle cx="380.509" cy="433.757" r="8" fill="blue"/>
<text x="395.509" y="438.757" font-family="Arial" font-size="12" fill="black">17</text>
<circle cx="164.759" cy="78.2941" r="8" fill="blue"/>
<text x="179.759" y="83.2941" font-family="Arial" font-size="12" fill="black">18</text>
<circle cx="164.759" cy="87.7453" r="8" fill="blue"/>
<text x="179.759" y="92.7453" font-family="Arial" font-size="12" fill="black">19</text>
<circle cx="164.759" cy="97.1964" r="8" fill="blue"/>
<text x="179.759" y="102.196" font-family="Arial" font-size="12" fill="black">20</text>
<circle cx="164.759" cy="106.648" r="8" fill="blue"/>
<text x="179.759" y="111.648" font-family="Arial" font-size="12" fill="black">21</text>
<circle cx="164.759" cy="116.099" r="8" fill="blue"/>
<text x="179.759" y="121.099" font-family="Arial" font-size="12" fill="black">22</text>
<circle cx="164.759" cy="125.55" r="8" fill="blue"/>
<text x="179.759" y="130.55" font-family="Arial" font-size="12" fill="black">23</text>
<circle cx="164.759" cy="135.001" r="8" fill="blue"/>
<text x="179.759" y="140.001" font-family="Arial" font-size="12" fill="black">24</text>
<circle cx="193.113" cy="78.2941" r="8" fill="blue"/>
<text x="208.113" y="83.2941" font-family="Arial" font-size="12" fill="black">25</text>
<circle cx="193.113" cy="87.7453" r="8" fill="blue"/>
<text x="208.113" y="92.7453" font-family="Arial" font-size="12" fill="black">26</text>
<circle cx="193.113" cy="97.1964" r="8" fill="blue"/>
<text x="208.113" y="102.196" font-family="Arial" font-size="12" fill="black">27</text>
<circle cx="193.113" cy="106.648" r="8" fill="blue"/>
<text x="208.113" y="111.648" font-family="Arial" font-size="12" fill="black">28</text>
<circle cx="193.113" cy="116.099" r="8" fill="blue"/>
<text x="208.113" y="121.099" font-family="Arial" font-size="12" fill="black">29</text>
<circle cx="193.113" cy="125.55" r="8" fill="blue"/>
<text x="208.113" y="130.55" font-family="Arial" font-size="12" fill="black">30</text>
<circle cx="193.113" cy="135.001" r="8" fill="blue"/>
<text x="208.113" y="140.001" font-family="Arial" font-size="12" fill="black">31</text>
<circle cx="191.417" cy="242.41" r="8" fill="blue"/>
<text x="206.417" y="247.41" font-family="Arial" font-size="12" fill="black">32</text>
<circle cx="191.417" cy="247.136" r="8" fill="blue"/>
<text x="206.417" y="252.136" font-family="Arial" font-size="12" fill="black">33</text>
<circle cx="191.417" cy="251.861" r="8" fill="blue"/>
<text x="206.417" y="256.861" font-family="Arial" font-size="12" fill="black">34</text>
<circle cx="191.417" cy="256.587" r="8" fill="blue"/>
<text x="206.417" y="261.587" font-family="Arial" font-size="12" fill="black">35</text>
<circle cx="210.32" cy="242.41" r="8" fill="blue"/>
<text x="225.32" y="247.41" font-family="Arial" font-size="12" fill="black">36</text>
<circle cx="210.32" cy="247.136" r="8" fill="blue"/>
<text x="225.32" y="252.136" font-family="Arial" font-size="12" fill="black">37</text>
<circle cx="210.32" cy="251.861" r="8" fill="blue"/>
<text x="225.32" y="256.861" font-family="Arial" font-size="12" fill="black">38</text>
<circle cx="210.32" cy="256.587" r="8" fill="blue"/>
<text x="225.32" y="261.587" font-family="Arial" font-size="12" fill="black">39</text>
<circle cx="125.589" cy="380.63" r="8" fill="blue"/>
<text x="140.589" y="385.63" font-family="Arial" font-size="12" fill="black">40</text>
<circle cx="125.589" cy="385.356" r="8" fill="blue"/>
<text x="140.589" y="390.356" font-family="Arial" font-size="12" fill="black">41</text>
<circle cx="125.589" cy="390.081" r="8" fill="blue"/>
<text x="140.589" y="395.081" font-family="Arial" font-size="12" fill="black">42</text>
<circle cx="125.589" cy="394.807" r="8" fill="blue"/>
<text x="140.589" y="399.807" font-family="Arial" font-size="12" fill="black">43</text>
<circle cx="144.491" cy="380.63" r="8" fill="blue"/>
<text x="159.491" y="385.63" font-family="Arial" font-size="12" fill="black">44</text>
<circle cx="144.491" cy="385.356" r="8" fill="blue"/>
<text x="159.491" y="390.356" font-family="Arial" font-size="12" fill="black">45</text>
<circle cx="144.491" cy="390.081" r="8" fill="blue"/>
<text x="159.491" y="395.081" font-family="Arial" font-size="12" fill="black">46</text>
<circle cx="144.491" cy="394.807" r="8" fill="blue"/>
<text x="159.491" y="399.807" font-family="Arial" font-size="12" fill="black">47</text>
</g>
<text x="-142.442" y="-142.442" font-family="Arial" font-size="14.4" fill="black"> Cost: 478.50</text>
</svg>
