<?xml version="1.0" encoding="UTF-8" standalone="no"?>
<svg xmlns="http://www.w3.org/2000/svg" viewBox="-5 -5 135 135">
<rect x="-5" y="-5" width="135" height="135" fill="white"/>
<g>
<circle cx="5" cy="5" r="2" fill="blue"/>
<text x="7.5" y="5" font-family="Arial" font-size="5" fill="black">0</text>
<circle cx="120" cy="5" r="2" fill="blue"/>
<text x="122.5" y="5" font-family="Arial" font-size="5" fill="black">1</text>
<circle cx="5" cy="120" r="2" fill="blue"/>
<text x="7.5" y="120" font-family="Arial" font-size="5" fill="black">2</text>
<circle cx="120" cy="120" r="2" fill="blue"/>
<text x="122.5" y="120" font-family="Arial" font-size="5" fill="black">3</text>
<circle cx="59.7048" cy="110.357" r="2" fill="blue"/>
<text x="62.2048" y="110.357" font-family="Arial" font-size="5" fill="black">4</text>
<circle cx="59.7048" cy="111.627" r="2" fill="blue"/>
<text x="62.2048" y="111.627" font-family="Arial" font-size="5" fill="black">5</text>
<circle cx="59.7048" cy="112.897" r="2" fill="blue"/>
<text x="62.2048" y="112.897" font-family="Arial" font-size="5" fill="black">6</text>
<circle cx="59.7048" cy="114.167" r="2" fill="blue"/>
<text x="62.2048" y="114.167" font-family="Arial" font-size="5" fill="black">7</text>
<circle cx="64.7848" cy="110.357" r="2" fill="blue"/>
<text x="67.2848" y="110.357" font-family="Arial" font-size="5" fill="black">8</text>
<circle cx="64.7848" cy="111.627" r="2" fill="blue"/>
<text x="67.2848" y="111.627" font-family="Arial" font-size="5" fill="black">9</text>
<circle cx="64.7848" cy="112.897" r="2" fill="blue"/>
<text x="67.2848" y="112.897" font-family="Arial" font-size="5" fill="black">10</text>
<circle cx="64.7848" cy="114.167" r="2" fill="blue"/>
<text x="67.2848" y="114.167" font-family="Arial" font-size="5" fill="black">11</text>
<circle cx="48.5423" cy="38.6399" r="2" fill="blue"/>
<text x="51.0423" y="38.6399" font-family="Arial" font-size="5" fill="black">12</text>
<circle cx="51.0823" cy="38.6399" r="2" fill="blue"/>
<text x="53.5823" y="38.6399" font-family="Arial" font-size="5" fill="black">13</text>
<circle cx="53.6223" cy="38.6399" r="2" fill="blue"/>
<text x="56.1223" y="38.6399" font-family="Arial" font-size="5" fill="black">14</text>
<circle cx="56.1623" cy="38.6399" r="2" fill="blue"/>
<text x="58.6623" y="38.6399" font-family="Arial" font-size="5" fill="black">15</text>
<circle cx="58.7023" cy="38.6399" r="2" fill="blue"/>
<text x="61.2023" y="38.6399" font-family="Arial" font-size="5" fill="black">16</text>
<circle cx="25.3749" cy="41.1087" r="2" fill="blue"/>
<text x="27.8749" y="41.1087" font-family="Arial" font-size="5" fill="black">17</text>
<circle cx="27.9149" cy="41.1087" r="2" fill="blue"/>
<text x="30.4149" y="41.1087" font-family="Arial" font-size="5" fill="black">18</text>
<circle cx="30.4549" cy="41.1087" r="2" fill="blue"/>
<text x="32.9549" y="41.1087" font-family="Arial" font-size="5" fill="black">19</text>
<circle cx="32.9949" cy="41.1087" r="2" fill="blue"/>
<text x="35.4949" y="41.1087" font-family="Arial" font-size="5" fill="black">20</text>
<circle cx="35.5349" cy="41.1087" r="2" fill="blue"/>
<text x="38.0349" y="41.1087" font-family="Arial" font-size="5" fill="black">21</text>
<circle cx="6.1773" cy="76.6977" r="2" fill="blue"/>
<text x="8.6773" y="76.6977" font-family="Arial" font-size="5" fill="black">22</text>
<circle cx="6.1773" cy="77.9677" r="2" fill="blue"/>
<text x="8.6773" y="77.9677" font-family="Arial" font-size="5" fill="black">23</text>
<circle cx="6.1773" cy="79.2377" r="2" fill="blue"/>
<text x="8.6773" y="79.2377" font-family="Arial" font-size="5" fill="black">24</text>
<circle cx="6.1773" cy="80.5077" r="2" fill="blue"/>
<text x="8.6773" y="80.5077" font-family="Arial" font-size="5" fill="black">25</text>
<circle cx="11.2573" cy="76.6977" r="2" fill="blue"/>
<text x="13.7573" y="76.6977" font-family="Arial" font-size="5" fill="black">26</text>
<circle cx="11.2573" cy="77.9677" r="2" fill="blue"/>
<text x="13.7573" y="77.9677" font-family="Arial" font-size="5" fill="black">27</text>
<circle cx="11.2573" cy="79.2377" r="2" fill="blue"/>
<text x="13.7573" y="79.2377" font-family="Arial" font-size="5" fill="black">28</text>
<circle cx="11.2573" cy="80.5077" r="2" fill="blue"/>
<text x="13.7573" y="80.5077" font-family="Arial" font-size="5" fill="black">29</text>
</g>
</svg>
