<?xml version="1.0" encoding="UTF-8" standalone="no"?>
<svg xmlns="http://www.w3.org/2000/svg" viewBox="-5 -5 85 85">
<rect x="-5" y="-5" width="85" height="85" fill="white"/>
<g>
<line x1="5" y1="5" x2="19.4346" y2="17.7678" stroke="rgb(0,0,255)" stroke-width="0.8"/>
<line x1="19.4346" y1="17.7678" x2="19.4346" y2="20.3078" stroke="rgb(6,0,249)" stroke-width="0.8"/>
<line x1="19.4346" y1="20.3078" x2="19.4346" y2="22.8478" stroke="rgb(12,0,243)" stroke-width="0.8"/>
<line x1="19.4346" y1="22.8478" x2="19.4346" y2="25.3878" stroke="rgb(19,0,236)" stroke-width="0.8"/>
<line x1="19.4346" y1="25.3878" x2="19.4346" y2="27.9278" stroke="rgb(25,0,230)" stroke-width="0.8"/>
<line x1="19.4346" y1="27.9278" x2="33.9671" y2="23.27" stroke="rgb(31,0,224)" stroke-width="0.8"/>
<line x1="33.9671" y1="23.27" x2="33.9671" y2="20.73" stroke="rgb(38,0,217)" stroke-width="0.8"/>
<line x1="33.9671" y1="20.73" x2="33.9671" y2="18.19" stroke="rgb(44,0,211)" stroke-width="0.8"/>
<line x1="33.9671" y1="18.19" x2="33.9671" y2="15.65" stroke="rgb(51,0,204)" stroke-width="0.8"/>
<line x1="33.9671" y1="15.65" x2="33.9671" y2="13.11" stroke="rgb(57,0,198)" stroke-width="0.8"/>
<line x1="33.9671" y1="13.11" x2="33.9671" y2="10.57" stroke="rgb(63,0,192)" stroke-width="0.8"/>
<line x1="33.9671" y1="10.57" x2="33.9671" y2="8.03004" stroke="rgb(70,0,185)" stroke-width="0.8"/>
<line x1="33.9671" y1="8.03004" x2="41.5871" y2="8.03004" stroke="rgb(76,0,179)" stroke-width="0.8"/>
<line x1="41.5871" y1="8.03004" x2="70" y2="5" stroke="rgb(82,0,173)" stroke-width="0.8"/>
<line x1="70" y1="5" x2="41.5871" y2="10.57" stroke="rgb(89,0,166)" stroke-width="0.8"/>
<line x1="41.5871" y1="10.57" x2="41.5871" y2="13.11" stroke="rgb(95,0,160)" stroke-width="0.8"/>
<line x1="41.5871" y1="13.11" x2="41.5871" y2="15.65" stroke="rgb(102,0,153)" stroke-width="0.8"/>
<line x1="41.5871" y1="15.65" x2="41.5871" y2="18.19" stroke="rgb(108,0,147)" stroke-width="0.8"/>
<line x1="41.5871" y1="18.19" x2="41.5871" y2="20.73" stroke="rgb(114,0,141)" stroke-width="0.8"/>
<line x1="41.5871" y1="20.73" x2="41.5871" y2="23.27" stroke="rgb(121,0,134)" stroke-width="0.8"/>
<line x1="41.5871" y1="23.27" x2="34.0775" y2="34.1002" stroke="rgb(127,0,128)" stroke-width="0.8"/>
<line x1="34.0775" y1="34.1002" x2="34.0775" y2="35.3702" stroke="rgb(133,0,122)" stroke-width="0.8"/>
<line x1="34.0775" y1="35.3702" x2="34.0775" y2="36.6402" stroke="rgb(140,0,115)" stroke-width="0.8"/>
<line x1="34.0775" y1="36.6402" x2="34.0775" y2="37.9102" stroke="rgb(146,0,109)" stroke-width="0.8"/>
<line x1="34.0775" y1="37.9102" x2="39.1575" y2="34.1002" stroke="rgb(153,0,102)" stroke-width="0.8"/>
<line x1="39.1575" y1="34.1002" x2="39.1575" y2="35.3702" stroke="rgb(159,0,96)" stroke-width="0.8"/>
<line x1="39.1575" y1="35.3702" x2="39.1575" y2="36.6402" stroke="rgb(165,0,90)" stroke-width="0.8"/>
<line x1="39.1575" y1="36.6402" x2="39.1575" y2="37.9102" stroke="rgb(172,0,83)" stroke-width="0.8"/>
<line x1="39.1575" y1="37.9102" x2="70" y2="70" stroke="rgb(178,0,77)" stroke-width="0.8"/>
<line x1="70" y1="70" x2="5" y2="70" stroke="rgb(184,0,71)" stroke-width="0.8"/>
<line x1="5" y1="70" x2="19.4346" y2="33.0078" stroke="rgb(191,0,64)" stroke-width="0.8"/>
<line x1="19.4346" y1="33.0078" x2="19.4346" y2="30.4678" stroke="rgb(197,0,58)" stroke-width="0.8"/>
<line x1="19.4346" y1="30.4678" x2="11.8146" y2="33.0078" stroke="rgb(204,0,51)" stroke-width="0.8"/>
<line x1="11.8146" y1="33.0078" x2="11.8146" y2="30.4678" stroke="rgb(210,0,45)" stroke-width="0.8"/>
<line x1="11.8146" y1="30.4678" x2="11.8146" y2="27.9278" stroke="rgb(216,0,39)" stroke-width="0.8"/>
<line x1="11.8146" y1="27.9278" x2="11.8146" y2="25.3878" stroke="rgb(223,0,32)" stroke-width="0.8"/>
<line x1="11.8146" y1="25.3878" x2="11.8146" y2="22.8478" stroke="rgb(229,0,26)" stroke-width="0.8"/>
<line x1="11.8146" y1="22.8478" x2="11.8146" y2="20.3078" stroke="rgb(235,0,20)" stroke-width="0.8"/>
<line x1="11.8146" y1="20.3078" x2="11.8146" y2="17.7678" stroke="rgb(242,0,13)" stroke-width="0.8"/>
<line x1="11.8146" y1="17.7678" x2="5" y2="5" stroke="rgb(248,0,7)" stroke-width="0.8"/>
</g>
<g>
<circle cx="5" cy="5" r="2" fill="blue"/>
<text x="7.5" y="5" font-family="Arial" font-size="5" fill="black">0</text>
<circle cx="70" cy="5" r="2" fill="blue"/>
<text x="72.5" y="5" font-family="Arial" font-size="5" fill="black">1</text>
<circle cx="5" cy="70" r="2" fill="blue"/>
<text x="7.5" y="70" font-family="Arial" font-size="5" fill="black">2</text>
<circle cx="70" cy="70" r="2" fill="blue"/>
<text x="72.5" y="70" font-family="Arial" font-size="5" fill="black">3</text>
<circle cx="34.0775" cy="34.1002" r="2" fill="blue"/>
<text x="36.5775" y="34.1002" font-family="Arial" font-size="5" fill="black">4</text>
<circle cx="34.0775" cy="35.3702" r="2" fill="blue"/>
<text x="36.5775" y="35.3702" font-family="Arial" font-size="5" fill="black">5</text>
<circle cx="34.0775" cy="36.6402" r="2" fill="blue"/>
<text x="36.5775" y="36.6402" font-family="Arial" font-size="5" fill="black">6</text>
<circle cx="34.0775" cy="37.9102" r="2" fill="blue"/>
<text x="36.5775" y="37.9102" font-family="Arial" font-size="5" fill="black">7</text>
<circle cx="39.1575" cy="34.1002" r="2" fill="blue"/>
<text x="41.6575" y="34.1002" font-family="Arial" font-size="5" fill="black">8</text>
<circle cx="39.1575" cy="35.3702" r="2" fill="blue"/>
<text x="41.6575" y="35.3702" font-family="Arial" font-size="5" fill="black">9</text>
<circle cx="39.1575" cy="36.6402" r="2" fill="blue"/>
<text x="41.6575" y="36.6402" font-family="Arial" font-size="5" fill="black">10</text>
<circle cx="39.1575" cy="37.9102" r="2" fill="blue"/>
<text x="41.6575" y="37.9102" font-family="Arial" font-size="5" fill="black">11</text>
<circle cx="33.9671" cy="8.03004" r="2" fill="blue"/>
<text x="36.4671" y="8.03004" font-family="Arial" font-size="5" fill="black">12</text>
<circle cx="33.9671" cy="10.57" r="2" fill="blue"/>
<text x="36.4671" y="10.57" font-family="Arial" font-size="5" fill="black">13</text>
<circle cx="33.9671" cy="13.11" r="2" fill="blue"/>
<text x="36.4671" y="13.11" font-family="Arial" font-size="5" fill="black">14</text>
<circle cx="33.9671" cy="15.65" r="2" fill="blue"/>
<text x="36.4671" y="15.65" font-family="Arial" font-size="5" fill="black">15</text>
<circle cx="33.9671" cy="18.19" r="2" fill="blue"/>
<text x="36.4671" y="18.19" font-family="Arial" font-size="5" fill="black">16</text>
<circle cx="33.9671" cy="20.73" r="2" fill="blue"/>
<text x="36.4671" y="20.73" font-family="Arial" font-size="5" fill="black">17</text>
<circle cx="33.9671" cy="23.27" r="2" fill="blue"/>
<text x="36.4671" y="23.27" font-family="Arial" font-size="5" fill="black">18</text>
<circle cx="41.5871" cy="8.03004" r="2" fill="blue"/>
<text x="44.0871" y="8.03004" font-family="Arial" font-size="5" fill="black">19</text>
<circle cx="41.5871" cy="10.57" r="2" fill="blue"/>
<text x="44.0871" y="10.57" font-family="Arial" font-size="5" fill="black">20</text>
<circle cx="41.5871" cy="13.11" r="2" fill="blue"/>
<text x="44.0871" y="13.11" font-family="Arial" font-size="5" fill="black">21</text>
<circle cx="41.5871" cy="15.65" r="2" fill="blue"/>
<text x="44.0871" y="15.65" font-family="Arial" font-size="5" fill="black">22</text>
<circle cx="41.5871" cy="18.19" r="2" fill="blue"/>
<text x="44.0871" y="18.19" font-family="Arial" font-size="5" fill="black">23</text>
<circle cx="41.5871" cy="20.73" r="2" fill="blue"/>
<text x="44.0871" y="20.73" font-family="Arial" font-size="5" fill="black">24</text>
<circle cx="41.5871" cy="23.27" r="2" fill="blue"/>
<text x="44.0871" y="23.27" font-family="Arial" font-size="5" fill="black">25</text>
<circle cx="11.8146" cy="17.7678" r="2" fill="blue"/>
<text x="14.3146" y="17.7678" font-family="Arial" font-size="5" fill="black">26</text>
<circle cx="11.8146" cy="20.3078" r="2" fill="blue"/>
<text x="14.3146" y="20.3078" font-family="Arial" font-size="5" fill="black">27</text>
<circle cx="11.8146" cy="22.8478" r="2" fill="blue"/>
<text x="14.3146" y="22.8478" font-family="Arial" font-size="5" fill="black">28</text>
<circle cx="11.8146" cy="25.3878" r="2" fill="blue"/>
<text x="14.3146" y="25.3878" font-family="Arial" font-size="5" fill="black">29</text>
<circle cx="11.8146" cy="27.9278" r="2" fill="blue"/>
<text x="14.3146" y="27.9278" font-family="Arial" font-size="5" fill="black">30</text>
<circle cx="11.8146" cy="30.4678" r="2" fill="blue"/>
<text x="14.3146" y="30.4678" font-family="Arial" font-size="5" fill="black">31</text>
<circle cx="11.8146" cy="33.0078" r="2" fill="blue"/>
<text x="14.3146" y="33.0078" font-family="Arial" font-size="5" fill="black">32</text>
<circle cx="19.4346" cy="17.7678" r="2" fill="blue"/>
<text x="21.9346" y="17.7678" font-family="Arial" font-size="5" fill="black">33</text>
<circle cx="19.4346" cy="20.3078" r="2" fill="blue"/>
<text x="21.9346" y="20.3078" font-family="Arial" font-size="5" fill="black">34</text>
<circle cx="19.4346" cy="22.8478" r="2" fill="blue"/>
<text x="21.9346" y="22.8478" font-family="Arial" font-size="5" fill="black">35</text>
<circle cx="19.4346" cy="25.3878" r="2" fill="blue"/>
<text x="21.9346" y="25.3878" font-family="Arial" font-size="5" fill="black">36</text>
<circle cx="19.4346" cy="27.9278" r="2" fill="blue"/>
<text x="21.9346" y="27.9278" font-family="Arial" font-size="5" fill="black">37</text>
<circle cx="19.4346" cy="30.4678" r="2" fill="blue"/>
<text x="21.9346" y="30.4678" font-family="Arial" font-size="5" fill="black">38</text>
<circle cx="19.4346" cy="33.0078" r="2" fill="blue"/>
<text x="21.9346" y="33.0078" font-family="Arial" font-size="5" fill="black">39</text>
</g>
</svg>
