<?xml version="1.0" encoding="UTF-8" standalone="no"?>
<svg xmlns="http://www.w3.org/2000/svg" viewBox="-5 -5 297 135">
<g transform="translate(0,0)">
<rect x="-5" y="-5" width="135" height="135" fill="white"/>
<g>
<line x1="5" y1="5" x2="18.1062" y2="19.187" stroke="rgb(128,0,127)" stroke-width="0.8"/>
<line x1="18.1062" y1="19.187" x2="96.326" y2="107.123" stroke="rgb(128,0,127)" stroke-width="0.8"/>
<line x1="96.326" y1="107.123" x2="88.706" y2="102.043" stroke="rgb(128,0,127)" stroke-width="0.8"/>
<line x1="88.706" y1="102.043" x2="15.599" y2="103.071" stroke="rgb(128,0,127)" stroke-width="0.8"/>
<line x1="15.599" y1="103.071" x2="23.1862" y2="20.457" stroke="rgb(128,0,127)" stroke-width="0.8"/>
<line x1="23.1862" y1="20.457" x2="23.1862" y2="21.727" stroke="rgb(128,0,127)" stroke-width="0.8"/>
<line x1="23.1862" y1="21.727" x2="18.139" y2="103.071" stroke="rgb(128,0,127)" stroke-width="0.8"/>
<line x1="18.139" y1="103.071" x2="96.326" y2="102.043" stroke="rgb(128,0,127)" stroke-width="0.8"/>
<line x1="96.326" y1="102.043" x2="120" y2="5" stroke="rgb(128,0,127)" stroke-width="0.8"/>
<line x1="120" y1="5" x2="18.1062" y2="21.727" stroke="rgb(128,0,127)" stroke-width="0.8"/>
<line x1="18.1062" y1="21.727" x2="88.706" y2="104.583" stroke="rgb(128,0,127)" stroke-width="0.8"/>
<line x1="88.706" y1="104.583" x2="75.168" y2="79.0845" stroke="rgb(128,0,127)" stroke-width="0.8"/>
<line x1="75.168" y1="79.0845" x2="18.1062" y2="20.457" stroke="rgb(128,0,127)" stroke-width="0.8"/>
<line x1="18.1062" y1="20.457" x2="120" y2="120" stroke="rgb(128,0,127)" stroke-width="0.8"/>
<line x1="120" y1="120" x2="70.088" y2="79.0845" stroke="rgb(128,0,127)" stroke-width="0.8"/>
<line x1="70.088" y1="79.0845" x2="23.1862" y2="19.187" stroke="rgb(128,0,127)" stroke-width="0.8"/>
<line x1="23.1862" y1="19.187" x2="20.679" y2="103.071" stroke="rgb(128,0,127)" stroke-width="0.8"/>
<line x1="20.679" y1="103.071" x2="88.706" y2="94.4227" stroke="rgb(128,0,127)" stroke-width="0.8"/>
<line x1="88.706" y1="94.4227" x2="23.219" y2="103.071" stroke="rgb(128,0,127)" stroke-width="0.8"/>
<line x1="23.219" y1="103.071" x2="18.1062" y2="17.917" stroke="rgb(128,0,127)" stroke-width="0.8"/>
<line x1="18.1062" y1="17.917" x2="96.326" y2="99.5027" stroke="rgb(128,0,127)" stroke-width="0.8"/>
<line x1="96.326" y1="99.5027" x2="23.1862" y2="17.917" stroke="rgb(128,0,127)" stroke-width="0.8"/>
<line x1="23.1862" y1="17.917" x2="25.759" y2="103.071" stroke="rgb(128,0,127)" stroke-width="0.8"/>
<line x1="25.759" y1="103.071" x2="96.326" y2="96.9627" stroke="rgb(128,0,127)" stroke-width="0.8"/>
<line x1="96.326" y1="96.9627" x2="96.326" y2="109.663" stroke="rgb(128,0,127)" stroke-width="0.8"/>
<line x1="96.326" y1="109.663" x2="72.628" y2="79.0845" stroke="rgb(128,0,127)" stroke-width="0.8"/>
<line x1="72.628" y1="79.0845" x2="96.326" y2="104.583" stroke="rgb(128,0,127)" stroke-width="0.8"/>
<line x1="96.326" y1="104.583" x2="88.706" y2="109.663" stroke="rgb(128,0,127)" stroke-width="0.8"/>
<line x1="88.706" y1="109.663" x2="77.708" y2="79.0845" stroke="rgb(128,0,127)" stroke-width="0.8"/>
<line x1="77.708" y1="79.0845" x2="88.706" y2="107.123" stroke="rgb(128,0,127)" stroke-width="0.8"/>
<line x1="88.706" y1="107.123" x2="96.326" y2="94.4227" stroke="rgb(128,0,127)" stroke-width="0.8"/>
<line x1="96.326" y1="94.4227" x2="88.706" y2="99.5027" stroke="rgb(128,0,127)" stroke-width="0.8"/>
<line x1="88.706" y1="99.5027" x2="80.248" y2="79.0845" stroke="rgb(128,0,127)" stroke-width="0.8"/>
<line x1="80.248" y1="79.0845" x2="5" y2="120" stroke="rgb(128,0,127)" stroke-width="0.8"/>
<line x1="5" y1="120" x2="88.706" y2="96.9627" stroke="rgb(128,0,127)" stroke-width="0.8"/>
<line x1="88.706" y1="96.9627" x2="5" y2="5" stroke="rgb(128,0,127)" stroke-width="0.8"/>
</g>
<text x="0" y="10" font-family="Arial" font-size="10">Initial Solution (Cost: 2352.29)</text>
</g>
<g transform="translate(148.50,0)">
<rect x="-5.00" y="-5.00" width="135.00" height="135.00" fill="white"/>
<g>
<line x1="15.60" y1="103.07" x2="5.00" y2="120.00" stroke="rgb(128,0,127)" stroke-width="0.8"/>
<line x1="5.00" y1="120.00" x2="18.14" y2="103.07" stroke="rgb(128,0,127)" stroke-width="0.8"/>
<line x1="18.14" y1="103.07" x2="20.68" y2="103.07" stroke="rgb(128,0,127)" stroke-width="0.8"/>
<line x1="20.68" y1="103.07" x2="23.22" y2="103.07" stroke="rgb(128,0,127)" stroke-width="0.8"/>
<line x1="23.22" y1="103.07" x2="25.76" y2="103.07" stroke="rgb(128,0,127)" stroke-width="0.8"/>
<line x1="25.76" y1="103.07" x2="70.09" y2="79.08" stroke="rgb(128,0,127)" stroke-width="0.8"/>
<line x1="70.09" y1="79.08" x2="72.63" y2="79.08" stroke="rgb(128,0,127)" stroke-width="0.8"/>
<line x1="72.63" y1="79.08" x2="75.17" y2="79.08" stroke="rgb(128,0,127)" stroke-width="0.8"/>
<line x1="75.17" y1="79.08" x2="77.71" y2="79.08" stroke="rgb(128,0,127)" stroke-width="0.8"/>
<line x1="77.71" y1="79.08" x2="80.25" y2="79.08" stroke="rgb(128,0,127)" stroke-width="0.8"/>
<line x1="80.25" y1="79.08" x2="88.71" y2="94.42" stroke="rgb(128,0,127)" stroke-width="0.8"/>
<line x1="88.71" y1="94.42" x2="88.71" y2="96.96" stroke="rgb(128,0,127)" stroke-width="0.8"/>
<line x1="88.71" y1="96.96" x2="88.71" y2="99.50" stroke="rgb(128,0,127)" stroke-width="0.8"/>
<line x1="88.71" y1="99.50" x2="88.71" y2="102.04" stroke="rgb(128,0,127)" stroke-width="0.8"/>
<line x1="88.71" y1="102.04" x2="88.71" y2="104.58" stroke="rgb(128,0,127)" stroke-width="0.8"/>
<line x1="88.71" y1="104.58" x2="88.71" y2="107.12" stroke="rgb(128,0,127)" stroke-width="0.8"/>
<line x1="88.71" y1="107.12" x2="88.71" y2="109.66" stroke="rgb(128,0,127)" stroke-width="0.8"/>
<line x1="88.71" y1="109.66" x2="96.33" y2="109.66" stroke="rgb(128,0,127)" stroke-width="0.8"/>
<line x1="96.33" y1="109.66" x2="120.00" y2="120.00" stroke="rgb(128,0,127)" stroke-width="0.8"/>
<line x1="120.00" y1="120.00" x2="96.33" y2="107.12" stroke="rgb(128,0,127)" stroke-width="0.8"/>
<line x1="96.33" y1="107.12" x2="96.33" y2="104.58" stroke="rgb(128,0,127)" stroke-width="0.8"/>
<line x1="96.33" y1="104.58" x2="96.33" y2="102.04" stroke="rgb(128,0,127)" stroke-width="0.8"/>
<line x1="96.33" y1="102.04" x2="96.33" y2="99.50" stroke="rgb(128,0,127)" stroke-width="0.8"/>
<line x1="96.33" y1="99.50" x2="96.33" y2="96.96" stroke="rgb(128,0,127)" stroke-width="0.8"/>
<line x1="96.33" y1="96.96" x2="96.33" y2="94.42" stroke="rgb(128,0,127)" stroke-width="0.8"/>
<line x1="96.33" y1="94.42" x2="120.00" y2="5.00" stroke="rgb(128,0,127)" stroke-width="0.8"/>
<line x1="120.00" y1="5.00" x2="23.19" y2="17.92" stroke="rgb(128,0,127)" stroke-width="0.8"/>
<line x1="23.19" y1="17.92" x2="23.19" y2="19.19" stroke="rgb(128,0,127)" stroke-width="0.8"/>
<line x1="23.19" y1="19.19" x2="23.19" y2="20.46" stroke="rgb(128,0,127)" stroke-width="0.8"/>
<line x1="23.19" y1="20.46" x2="23.19" y2="21.73" stroke="rgb(128,0,127)" stroke-width="0.8"/>
<line x1="23.19" y1="21.73" x2="18.11" y2="21.73" stroke="rgb(128,0,127)" stroke-width="0.8"/>
<line x1="18.11" y1="21.73" x2="18.11" y2="20.46" stroke="rgb(128,0,127)" stroke-width="0.8"/>
<line x1="18.11" y1="20.46" x2="18.11" y2="19.19" stroke="rgb(128,0,127)" stroke-width="0.8"/>
<line x1="18.11" y1="19.19" x2="18.11" y2="17.92" stroke="rgb(128,0,127)" stroke-width="0.8"/>
<line x1="18.11" y1="17.92" x2="5.00" y2="5.00" stroke="rgb(128,0,127)" stroke-width="0.8"/>
<line x1="5.00" y1="5.00" x2="5.00" y2="5.00" stroke="rgb(128,0,127)" stroke-width="0.8"/>
</g>
<text x="0.00" y="10.00" font-family="Arial" font-size="10">Final Solution (Cost: 436.72)</text>
</g>
</svg>
