<?xml version="1.0" encoding="UTF-8" standalone="no"?>
<svg xmlns="http://www.w3.org/2000/svg" width="800" height="800" viewBox="-257.143 -257.143 800 800">
<rect x="-257.143" y="-257.143" width="800" height="800" fill="white"/>
<g>
<line x1="257.143" y1="28.5714" x2="231.013" y2="126.353" stroke="rgb(0,0,255)" stroke-width="2"/>
<line x1="231.013" y1="126.353" x2="231.013" y2="140.867" stroke="rgb(11,0,244)" stroke-width="2"/>
<line x1="231.013" y1="140.867" x2="231.013" y2="155.381" stroke="rgb(22,0,233)" stroke-width="2"/>
<line x1="231.013" y1="155.381" x2="231.013" y2="169.896" stroke="rgb(33,0,222)" stroke-width="2"/>
<line x1="231.013" y1="169.896" x2="231.013" y2="184.41" stroke="rgb(44,0,211)" stroke-width="2"/>
<line x1="231.013" y1="184.41" x2="231.013" y2="198.924" stroke="rgb(55,0,200)" stroke-width="2"/>
<line x1="231.013" y1="198.924" x2="231.013" y2="213.439" stroke="rgb(66,0,189)" stroke-width="2"/>
<line x1="231.013" y1="213.439" x2="257.143" y2="257.143" stroke="rgb(77,0,178)" stroke-width="2"/>
<line x1="257.143" y1="257.143" x2="187.47" y2="213.439" stroke="rgb(88,0,167)" stroke-width="2"/>
<line x1="187.47" y1="213.439" x2="187.47" y2="198.924" stroke="rgb(99,0,156)" stroke-width="2"/>
<line x1="187.47" y1="198.924" x2="187.47" y2="184.41" stroke="rgb(110,0,145)" stroke-width="2"/>
<line x1="187.47" y1="184.41" x2="187.47" y2="169.896" stroke="rgb(121,0,134)" stroke-width="2"/>
<line x1="187.47" y1="169.896" x2="187.47" y2="155.381" stroke="rgb(133,0,122)" stroke-width="2"/>
<line x1="187.47" y1="155.381" x2="187.47" y2="140.867" stroke="rgb(144,0,111)" stroke-width="2"/>
<line x1="187.47" y1="140.867" x2="187.47" y2="126.353" stroke="rgb(155,0,100)" stroke-width="2"/>
<line x1="187.47" y1="126.353" x2="110.359" y2="165.19" stroke="rgb(166,0,89)" stroke-width="2"/>
<line x1="110.359" y1="165.19" x2="95.8444" y2="165.19" stroke="rgb(177,0,78)" stroke-width="2"/>
<line x1="95.8444" y1="165.19" x2="81.3301" y2="165.19" stroke="rgb(188,0,67)" stroke-width="2"/>
<line x1="81.3301" y1="165.19" x2="66.8158" y2="165.19" stroke="rgb(199,0,56)" stroke-width="2"/>
<line x1="66.8158" y1="165.19" x2="52.3015" y2="165.19" stroke="rgb(210,0,45)" stroke-width="2"/>
<line x1="52.3015" y1="165.19" x2="28.5714" y2="257.143" stroke="rgb(221,0,34)" stroke-width="2"/>
<line x1="28.5714" y1="257.143" x2="28.5714" y2="28.5714" stroke="rgb(232,0,23)" stroke-width="2"/>
<line x1="28.5714" y1="28.5714" x2="28.5714" y2="28.5714" stroke="rgb(243,0,12)" stroke-width="2"/>
</g>
<g>
<circle cx="28.5714" cy="28.5714" r="8" fill="blue"/>
<text x="43.5714" y="33.5714" font-family="Arial" font-size="12" fill="black">0</text>
<circle cx="257.143" cy="28.5714" r="8" fill="blue"/>
<text x="272.143" y="33.5714" font-family="Arial" font-size="12" fill="black">1</text>
<circle cx="28.5714" cy="257.143" r="8" fill="blue"/>
<text x="43.5714" y="262.143" font-family="Arial" font-size="12" fill="black">2</text>
<circle cx="257.143" cy="257.143" r="8" fill="blue"/>
<text x="272.143" y="262.143" font-family="Arial" font-size="12" fill="black">3</text>
<circle cx="187.47" cy="126.353" r="8" fill="blue"/>
<text x="202.47" y="131.353" font-family="Arial" font-size="12" fill="black">4</text>
<circle cx="187.47" cy="140.867" r="8" fill="blue"/>
<text x="202.47" y="145.867" font-family="Arial" font-size="12" fill="black">5</text>
<circle cx="187.47" cy="155.381" r="8" fill="blue"/>
<text x="202.47" y="160.381" font-family="Arial" font-size="12" fill="black">6</text>
<circle cx="187.47" cy="169.896" r="8" fill="blue"/>
<text x="202.47" y="174.896" font-family="Arial" font-size="12" fill="black">7</text>
<circle cx="187.47" cy="184.41" r="8" fill="blue"/>
<text x="202.47" y="189.41" font-family="Arial" font-size="12" fill="black">8</text>
<circle cx="187.47" cy="198.924" r="8" fill="blue"/>
<text x="202.47" y="203.924" font-family="Arial" font-size="12" fill="black">9</text>
<circle cx="187.47" cy="213.439" r="8" fill="blue"/>
<text x="202.47" y="218.439" font-family="Arial" font-size="12" fill="black">10</text>
<circle cx="231.013" cy="126.353" r="8" fill="blue"/>
<text x="246.013" y="131.353" font-family="Arial" font-size="12" fill="black">11</text>
<circle cx="231.013" cy="140.867" r="8" fill="blue"/>
<text x="246.013" y="145.867" font-family="Arial" font-size="12" fill="black">12</text>
<circle cx="231.013" cy="155.381" r="8" fill="blue"/>
<text x="246.013" y="160.381" font-family="Arial" font-size="12" fill="black">13</text>
<circle cx="231.013" cy="169.896" r="8" fill="blue"/>
<text x="246.013" y="174.896" font-family="Arial" font-size="12" fill="black">14</text>
<circle cx="231.013" cy="184.41" r="8" fill="blue"/>
<text x="246.013" y="189.41" font-family="Arial" font-size="12" fill="black">15</text>
<circle cx="231.013" cy="198.924" r="8" fill="blue"/>
<text x="246.013" y="203.924" font-family="Arial" font-size="12" fill="black">16</text>
<circle cx="231.013" cy="213.439" r="8" fill="blue"/>
<text x="246.013" y="218.439" font-family="Arial" font-size="12" fill="black">17</text>
<circle cx="52.3015" cy="165.19" r="8" fill="blue"/>
<text x="67.3015" y="170.19" font-family="Arial" font-size="12" fill="black">18</text>
<circle cx="66.8158" cy="165.19" r="8" fill="blue"/>
<text x="81.8158" y="170.19" font-family="Arial" font-size="12" fill="black">19</text>
<circle cx="81.3301" cy="165.19" r="8" fill="blue"/>
<text x="96.3301" y="170.19" font-family="Arial" font-size="12" fill="black">20</text>
<circle cx="95.8444" cy="165.19" r="8" fill="blue"/>
<text x="110.844" y="170.19" font-family="Arial" font-size="12" fill="black">21</text>
<circle cx="110.359" cy="165.19" r="8" fill="blue"/>
<text x="125.359" y="170.19" font-family="Arial" font-size="12" fill="black">22</text>
</g>
<text x="-232.143" y="-232.143" font-family="Arial" font-size="14.4" fill="black"> Cost: 153.38</text>
</svg>
