<?xml version="1.0" encoding="UTF-8" standalone="no"?>
<svg xmlns="http://www.w3.org/2000/svg" viewBox="-5 -5 187 85">
<g transform="translate(0,0)">
<rect x="-5" y="-5" width="85" height="85" fill="white"/>
<g>
<line x1="5" y1="5" x2="47.1546" y2="23.3924" stroke="rgb(128,0,127)" stroke-width="0.8"/>
<line x1="47.1546" y1="23.3924" x2="39.5346" y2="36.0924" stroke="rgb(128,0,127)" stroke-width="0.8"/>
<line x1="39.5346" y1="36.0924" x2="39.5346" y2="28.4724" stroke="rgb(128,0,127)" stroke-width="0.8"/>
<line x1="39.5346" y1="28.4724" x2="39.5346" y2="25.9324" stroke="rgb(128,0,127)" stroke-width="0.8"/>
<line x1="39.5346" y1="25.9324" x2="47.1546" y2="31.0124" stroke="rgb(128,0,127)" stroke-width="0.8"/>
<line x1="47.1546" y1="31.0124" x2="12.5541" y2="9.6734" stroke="rgb(128,0,127)" stroke-width="0.8"/>
<line x1="12.5541" y1="9.6734" x2="62.7672" y2="35.3786" stroke="rgb(128,0,127)" stroke-width="0.8"/>
<line x1="62.7672" y1="35.3786" x2="47.1546" y2="25.9324" stroke="rgb(128,0,127)" stroke-width="0.8"/>
<line x1="47.1546" y1="25.9324" x2="17.6341" y2="10.9434" stroke="rgb(128,0,127)" stroke-width="0.8"/>
<line x1="17.6341" y1="10.9434" x2="17.6341" y2="12.2134" stroke="rgb(128,0,127)" stroke-width="0.8"/>
<line x1="17.6341" y1="12.2134" x2="47.1546" y2="28.4724" stroke="rgb(128,0,127)" stroke-width="0.8"/>
<line x1="47.1546" y1="28.4724" x2="39.5346" y2="38.6324" stroke="rgb(128,0,127)" stroke-width="0.8"/>
<line x1="39.5346" y1="38.6324" x2="47.1546" y2="38.6324" stroke="rgb(128,0,127)" stroke-width="0.8"/>
<line x1="47.1546" y1="38.6324" x2="70" y2="5" stroke="rgb(128,0,127)" stroke-width="0.8"/>
<line x1="70" y1="5" x2="57.6872" y2="35.3786" stroke="rgb(128,0,127)" stroke-width="0.8"/>
<line x1="57.6872" y1="35.3786" x2="12.5541" y2="10.9434" stroke="rgb(128,0,127)" stroke-width="0.8"/>
<line x1="12.5541" y1="10.9434" x2="52.6072" y2="35.3786" stroke="rgb(128,0,127)" stroke-width="0.8"/>
<line x1="52.6072" y1="35.3786" x2="17.6341" y2="9.6734" stroke="rgb(128,0,127)" stroke-width="0.8"/>
<line x1="17.6341" y1="9.6734" x2="17.6341" y2="8.4034" stroke="rgb(128,0,127)" stroke-width="0.8"/>
<line x1="17.6341" y1="8.4034" x2="5" y2="70" stroke="rgb(128,0,127)" stroke-width="0.8"/>
<line x1="5" y1="70" x2="55.1472" y2="35.3786" stroke="rgb(128,0,127)" stroke-width="0.8"/>
<line x1="55.1472" y1="35.3786" x2="39.5346" y2="31.0124" stroke="rgb(128,0,127)" stroke-width="0.8"/>
<line x1="39.5346" y1="31.0124" x2="39.5346" y2="33.5524" stroke="rgb(128,0,127)" stroke-width="0.8"/>
<line x1="39.5346" y1="33.5524" x2="12.5541" y2="12.2134" stroke="rgb(128,0,127)" stroke-width="0.8"/>
<line x1="12.5541" y1="12.2134" x2="47.1546" y2="33.5524" stroke="rgb(128,0,127)" stroke-width="0.8"/>
<line x1="47.1546" y1="33.5524" x2="39.5346" y2="23.3924" stroke="rgb(128,0,127)" stroke-width="0.8"/>
<line x1="39.5346" y1="23.3924" x2="12.5541" y2="8.4034" stroke="rgb(128,0,127)" stroke-width="0.8"/>
<line x1="12.5541" y1="8.4034" x2="70" y2="70" stroke="rgb(128,0,127)" stroke-width="0.8"/>
<line x1="70" y1="70" x2="47.1546" y2="36.0924" stroke="rgb(128,0,127)" stroke-width="0.8"/>
<line x1="47.1546" y1="36.0924" x2="60.2272" y2="35.3786" stroke="rgb(128,0,127)" stroke-width="0.8"/>
<line x1="60.2272" y1="35.3786" x2="5" y2="5" stroke="rgb(128,0,127)" stroke-width="0.8"/>
</g>
<text x="0" y="10" font-family="Arial" font-size="10">Initial Solution (Cost: 962.60)</text>
</g>
<g transform="translate(93.50,0)">
<rect x="-5.00" y="-5.00" width="85.00" height="85.00" fill="white"/>
<g>
<line x1="5.00" y1="70.00" x2="70.00" y2="70.00" stroke="rgb(128,0,127)" stroke-width="0.8"/>
<line x1="70.00" y1="70.00" x2="62.77" y2="35.38" stroke="rgb(128,0,127)" stroke-width="0.8"/>
<line x1="62.77" y1="35.38" x2="60.23" y2="35.38" stroke="rgb(128,0,127)" stroke-width="0.8"/>
<line x1="60.23" y1="35.38" x2="57.69" y2="35.38" stroke="rgb(128,0,127)" stroke-width="0.8"/>
<line x1="57.69" y1="35.38" x2="55.15" y2="35.38" stroke="rgb(128,0,127)" stroke-width="0.8"/>
<line x1="55.15" y1="35.38" x2="52.61" y2="35.38" stroke="rgb(128,0,127)" stroke-width="0.8"/>
<line x1="52.61" y1="35.38" x2="70.00" y2="5.00" stroke="rgb(128,0,127)" stroke-width="0.8"/>
<line x1="70.00" y1="5.00" x2="47.15" y2="23.39" stroke="rgb(128,0,127)" stroke-width="0.8"/>
<line x1="47.15" y1="23.39" x2="47.15" y2="25.93" stroke="rgb(128,0,127)" stroke-width="0.8"/>
<line x1="47.15" y1="25.93" x2="47.15" y2="28.47" stroke="rgb(128,0,127)" stroke-width="0.8"/>
<line x1="47.15" y1="28.47" x2="47.15" y2="31.01" stroke="rgb(128,0,127)" stroke-width="0.8"/>
<line x1="47.15" y1="31.01" x2="47.15" y2="33.55" stroke="rgb(128,0,127)" stroke-width="0.8"/>
<line x1="47.15" y1="33.55" x2="47.15" y2="36.09" stroke="rgb(128,0,127)" stroke-width="0.8"/>
<line x1="47.15" y1="36.09" x2="47.15" y2="38.63" stroke="rgb(128,0,127)" stroke-width="0.8"/>
<line x1="47.15" y1="38.63" x2="39.53" y2="38.63" stroke="rgb(128,0,127)" stroke-width="0.8"/>
<line x1="39.53" y1="38.63" x2="39.53" y2="36.09" stroke="rgb(128,0,127)" stroke-width="0.8"/>
<line x1="39.53" y1="36.09" x2="39.53" y2="33.55" stroke="rgb(128,0,127)" stroke-width="0.8"/>
<line x1="39.53" y1="33.55" x2="39.53" y2="31.01" stroke="rgb(128,0,127)" stroke-width="0.8"/>
<line x1="39.53" y1="31.01" x2="39.53" y2="28.47" stroke="rgb(128,0,127)" stroke-width="0.8"/>
<line x1="39.53" y1="28.47" x2="39.53" y2="25.93" stroke="rgb(128,0,127)" stroke-width="0.8"/>
<line x1="39.53" y1="25.93" x2="39.53" y2="23.39" stroke="rgb(128,0,127)" stroke-width="0.8"/>
<line x1="39.53" y1="23.39" x2="17.63" y2="12.21" stroke="rgb(128,0,127)" stroke-width="0.8"/>
<line x1="17.63" y1="12.21" x2="17.63" y2="10.94" stroke="rgb(128,0,127)" stroke-width="0.8"/>
<line x1="17.63" y1="10.94" x2="17.63" y2="9.67" stroke="rgb(128,0,127)" stroke-width="0.8"/>
<line x1="17.63" y1="9.67" x2="17.63" y2="8.40" stroke="rgb(128,0,127)" stroke-width="0.8"/>
<line x1="17.63" y1="8.40" x2="12.55" y2="12.21" stroke="rgb(128,0,127)" stroke-width="0.8"/>
<line x1="12.55" y1="12.21" x2="12.55" y2="10.94" stroke="rgb(128,0,127)" stroke-width="0.8"/>
<line x1="12.55" y1="10.94" x2="12.55" y2="9.67" stroke="rgb(128,0,127)" stroke-width="0.8"/>
<line x1="12.55" y1="9.67" x2="12.55" y2="8.40" stroke="rgb(128,0,127)" stroke-width="0.8"/>
<line x1="12.55" y1="8.40" x2="5.00" y2="5.00" stroke="rgb(128,0,127)" stroke-width="0.8"/>
<line x1="5.00" y1="5.00" x2="5.00" y2="5.00" stroke="rgb(128,0,127)" stroke-width="0.8"/>
</g>
<text x="0.00" y="10.00" font-family="Arial" font-size="10">Final Solution (Cost: 259.81)</text>
</g>
</svg>
