<?xml version="1.0" encoding="UTF-8" standalone="no"?>
<svg xmlns="http://www.w3.org/2000/svg" width="1760" height="800" viewBox="-218.182 -218.182 1760 800">
<g transform="translate(0,0)">
<rect x="-218.182" y="-218.182" width="800" height="800" fill="white"/>
<g>
<line x1="24.2424" y1="24.2424" x2="242.165" y2="324.201" stroke="rgb(128,0,127)" stroke-width="2"/>
<line x1="242.165" y1="324.201" x2="234.293" y2="54.7027" stroke="rgb(128,0,127)" stroke-width="2"/>
<line x1="234.293" y1="54.7027" x2="339.394" y2="24.2424" stroke="rgb(128,0,127)" stroke-width="2"/>
<line x1="339.394" y1="24.2424" x2="242.165" y2="311.886" stroke="rgb(128,0,127)" stroke-width="2"/>
<line x1="242.165" y1="311.886" x2="215.822" y2="288.003" stroke="rgb(128,0,127)" stroke-width="2"/>
<line x1="215.822" y1="288.003" x2="240.453" y2="288.003" stroke="rgb(128,0,127)" stroke-width="2"/>
<line x1="240.453" y1="288.003" x2="24.2424" y2="339.394" stroke="rgb(128,0,127)" stroke-width="2"/>
<line x1="24.2424" y1="339.394" x2="228.138" y2="288.003" stroke="rgb(128,0,127)" stroke-width="2"/>
<line x1="228.138" y1="288.003" x2="271.238" y2="54.7027" stroke="rgb(128,0,127)" stroke-width="2"/>
<line x1="271.238" y1="54.7027" x2="191.192" y2="288.003" stroke="rgb(128,0,127)" stroke-width="2"/>
<line x1="191.192" y1="288.003" x2="258.923" y2="54.7027" stroke="rgb(128,0,127)" stroke-width="2"/>
<line x1="258.923" y1="54.7027" x2="242.165" y2="330.359" stroke="rgb(128,0,127)" stroke-width="2"/>
<line x1="242.165" y1="330.359" x2="217.534" y2="311.886" stroke="rgb(128,0,127)" stroke-width="2"/>
<line x1="217.534" y1="311.886" x2="339.394" y2="339.394" stroke="rgb(128,0,127)" stroke-width="2"/>
<line x1="339.394" y1="339.394" x2="242.165" y2="318.044" stroke="rgb(128,0,127)" stroke-width="2"/>
<line x1="242.165" y1="318.044" x2="203.507" y2="288.003" stroke="rgb(128,0,127)" stroke-width="2"/>
<line x1="203.507" y1="288.003" x2="217.534" y2="330.359" stroke="rgb(128,0,127)" stroke-width="2"/>
<line x1="217.534" y1="330.359" x2="217.534" y2="324.201" stroke="rgb(128,0,127)" stroke-width="2"/>
<line x1="217.534" y1="324.201" x2="246.608" y2="54.7027" stroke="rgb(128,0,127)" stroke-width="2"/>
<line x1="246.608" y1="54.7027" x2="221.977" y2="54.7027" stroke="rgb(128,0,127)" stroke-width="2"/>
<line x1="221.977" y1="54.7027" x2="217.534" y2="318.044" stroke="rgb(128,0,127)" stroke-width="2"/>
<line x1="217.534" y1="318.044" x2="24.2424" y2="24.2424" stroke="rgb(128,0,127)" stroke-width="2"/>
</g>
<g>
<circle cx="24.2424" cy="24.2424" r="8" fill="blue"/>
<text x="39.2424" y="29.2424" font-family="Arial" font-size="12" fill="black">0</text>
<circle cx="339.394" cy="24.2424" r="8" fill="blue"/>
<text x="354.394" y="29.2424" font-family="Arial" font-size="12" fill="black">1</text>
<circle cx="24.2424" cy="339.394" r="8" fill="blue"/>
<text x="39.2424" y="344.394" font-family="Arial" font-size="12" fill="black">2</text>
<circle cx="339.394" cy="339.394" r="8" fill="blue"/>
<text x="354.394" y="344.394" font-family="Arial" font-size="12" fill="black">3</text>
<circle cx="221.977" cy="54.7027" r="8" fill="blue"/>
<text x="236.977" y="59.7027" font-family="Arial" font-size="12" fill="black">4</text>
<circle cx="234.293" cy="54.7027" r="8" fill="blue"/>
<text x="249.293" y="59.7027" font-family="Arial" font-size="12" fill="black">5</text>
<circle cx="246.608" cy="54.7027" r="8" fill="blue"/>
<text x="261.608" y="59.7027" font-family="Arial" font-size="12" fill="black">6</text>
<circle cx="258.923" cy="54.7027" r="8" fill="blue"/>
<text x="273.923" y="59.7027" font-family="Arial" font-size="12" fill="black">7</text>
<circle cx="271.238" cy="54.7027" r="8" fill="blue"/>
<text x="286.238" y="59.7027" font-family="Arial" font-size="12" fill="black">8</text>
<circle cx="217.534" cy="311.886" r="8" fill="blue"/>
<text x="232.534" y="316.886" font-family="Arial" font-size="12" fill="black">9</text>
<circle cx="217.534" cy="318.044" r="8" fill="blue"/>
<text x="232.534" y="323.044" font-family="Arial" font-size="12" fill="black">10</text>
<circle cx="217.534" cy="324.201" r="8" fill="blue"/>
<text x="232.534" y="329.201" font-family="Arial" font-size="12" fill="black">11</text>
<circle cx="217.534" cy="330.359" r="8" fill="blue"/>
<text x="232.534" y="335.359" font-family="Arial" font-size="12" fill="black">12</text>
<circle cx="242.165" cy="311.886" r="8" fill="blue"/>
<text x="257.165" y="316.886" font-family="Arial" font-size="12" fill="black">13</text>
<circle cx="242.165" cy="318.044" r="8" fill="blue"/>
<text x="257.165" y="323.044" font-family="Arial" font-size="12" fill="black">14</text>
<circle cx="242.165" cy="324.201" r="8" fill="blue"/>
<text x="257.165" y="329.201" font-family="Arial" font-size="12" fill="black">15</text>
<circle cx="242.165" cy="330.359" r="8" fill="blue"/>
<text x="257.165" y="335.359" font-family="Arial" font-size="12" fill="black">16</text>
<circle cx="191.192" cy="288.003" r="8" fill="blue"/>
<text x="206.192" y="293.003" font-family="Arial" font-size="12" fill="black">17</text>
<circle cx="203.507" cy="288.003" r="8" fill="blue"/>
<text x="218.507" y="293.003" font-family="Arial" font-size="12" fill="black">18</text>
<circle cx="215.822" cy="288.003" r="8" fill="blue"/>
<text x="230.822" y="293.003" font-family="Arial" font-size="12" fill="black">19</text>
<circle cx="228.138" cy="288.003" r="8" fill="blue"/>
<text x="243.138" y="293.003" font-family="Arial" font-size="12" fill="black">20</text>
<circle cx="240.453" cy="288.003" r="8" fill="blue"/>
<text x="255.453" y="293.003" font-family="Arial" font-size="12" fill="black">21</text>
</g>
<text x="-193.182" y="-193.182" font-family="Arial" font-size="14.4" fill="black"> Cost: 786.82</text>
</g>
<g transform="translate(880.00,0)">
<rect x="-218.18" y="-218.18" width="800.00" height="800.00" fill="white"/>
<g>
<line x1="24.24" y1="24.24" x2="221.98" y2="54.70" stroke="rgb(128,0,127)" stroke-width="2.00"/>
<line x1="221.98" y1="54.70" x2="234.29" y2="54.70" stroke="rgb(128,0,127)" stroke-width="2.00"/>
<line x1="234.29" y1="54.70" x2="246.61" y2="54.70" stroke="rgb(128,0,127)" stroke-width="2.00"/>
<line x1="246.61" y1="54.70" x2="258.92" y2="54.70" stroke="rgb(128,0,127)" stroke-width="2.00"/>
<line x1="258.92" y1="54.70" x2="271.24" y2="54.70" stroke="rgb(128,0,127)" stroke-width="2.00"/>
<line x1="271.24" y1="54.70" x2="339.39" y2="24.24" stroke="rgb(128,0,127)" stroke-width="2.00"/>
<line x1="339.39" y1="24.24" x2="339.39" y2="339.39" stroke="rgb(128,0,127)" stroke-width="2.00"/>
<line x1="339.39" y1="339.39" x2="242.16" y2="311.89" stroke="rgb(128,0,127)" stroke-width="2.00"/>
<line x1="242.16" y1="311.89" x2="242.16" y2="318.04" stroke="rgb(128,0,127)" stroke-width="2.00"/>
<line x1="242.16" y1="318.04" x2="242.16" y2="324.20" stroke="rgb(128,0,127)" stroke-width="2.00"/>
<line x1="242.16" y1="324.20" x2="242.16" y2="330.36" stroke="rgb(128,0,127)" stroke-width="2.00"/>
<line x1="242.16" y1="330.36" x2="217.53" y2="330.36" stroke="rgb(128,0,127)" stroke-width="2.00"/>
<line x1="217.53" y1="330.36" x2="217.53" y2="324.20" stroke="rgb(128,0,127)" stroke-width="2.00"/>
<line x1="217.53" y1="324.20" x2="217.53" y2="318.04" stroke="rgb(128,0,127)" stroke-width="2.00"/>
<line x1="217.53" y1="318.04" x2="217.53" y2="311.89" stroke="rgb(128,0,127)" stroke-width="2.00"/>
<line x1="217.53" y1="311.89" x2="240.45" y2="288.00" stroke="rgb(128,0,127)" stroke-width="2.00"/>
<line x1="240.45" y1="288.00" x2="228.14" y2="288.00" stroke="rgb(128,0,127)" stroke-width="2.00"/>
<line x1="228.14" y1="288.00" x2="215.82" y2="288.00" stroke="rgb(128,0,127)" stroke-width="2.00"/>
<line x1="215.82" y1="288.00" x2="203.51" y2="288.00" stroke="rgb(128,0,127)" stroke-width="2.00"/>
<line x1="203.51" y1="288.00" x2="191.19" y2="288.00" stroke="rgb(128,0,127)" stroke-width="2.00"/>
<line x1="191.19" y1="288.00" x2="24.24" y2="339.39" stroke="rgb(128,0,127)" stroke-width="2.00"/>
<line x1="24.24" y1="339.39" x2="24.24" y2="24.24" stroke="rgb(128,0,127)" stroke-width="2.00"/>
</g>
<g>
<circle cx="24.24" cy="24.24" r="8.00" fill="blue"/>
<text x="39.24" y="29.24" font-family="Arial" font-size="12.00" fill="black">0</text>
<circle cx="339.39" cy="24.24" r="8.00" fill="blue"/>
<text x="354.39" y="29.24" font-family="Arial" font-size="12.00" fill="black">1</text>
<circle cx="24.24" cy="339.39" r="8.00" fill="blue"/>
<text x="39.24" y="344.39" font-family="Arial" font-size="12.00" fill="black">2</text>
<circle cx="339.39" cy="339.39" r="8.00" fill="blue"/>
<text x="354.39" y="344.39" font-family="Arial" font-size="12.00" fill="black">3</text>
<circle cx="221.98" cy="54.70" r="8.00" fill="blue"/>
<text x="236.98" y="59.70" font-family="Arial" font-size="12.00" fill="black">4</text>
<circle cx="234.29" cy="54.70" r="8.00" fill="blue"/>
<text x="249.29" y="59.70" font-family="Arial" font-size="12.00" fill="black">5</text>
<circle cx="246.61" cy="54.70" r="8.00" fill="blue"/>
<text x="261.61" y="59.70" font-family="Arial" font-size="12.00" fill="black">6</text>
<circle cx="258.92" cy="54.70" r="8.00" fill="blue"/>
<text x="273.92" y="59.70" font-family="Arial" font-size="12.00" fill="black">7</text>
<circle cx="271.24" cy="54.70" r="8.00" fill="blue"/>
<text x="286.24" y="59.70" font-family="Arial" font-size="12.00" fill="black">8</text>
<circle cx="217.53" cy="311.89" r="8.00" fill="blue"/>
<text x="232.53" y="316.89" font-family="Arial" font-size="12.00" fill="black">9</text>
<circle cx="217.53" cy="318.04" r="8.00" fill="blue"/>
<text x="232.53" y="323.04" font-family="Arial" font-size="12.00" fill="black">10</text>
<circle cx="217.53" cy="324.20" r="8.00" fill="blue"/>
<text x="232.53" y="329.20" font-family="Arial" font-size="12.00" fill="black">11</text>
<circle cx="217.53" cy="330.36" r="8.00" fill="blue"/>
<text x="232.53" y="335.36" font-family="Arial" font-size="12.00" fill="black">12</text>
<circle cx="242.16" cy="311.89" r="8.00" fill="blue"/>
<text x="257.16" y="316.89" font-family="Arial" font-size="12.00" fill="black">13</text>
<circle cx="242.16" cy="318.04" r="8.00" fill="blue"/>
<text x="257.16" y="323.04" font-family="Arial" font-size="12.00" fill="black">14</text>
<circle cx="242.16" cy="324.20" r="8.00" fill="blue"/>
<text x="257.16" y="329.20" font-family="Arial" font-size="12.00" fill="black">15</text>
<circle cx="242.16" cy="330.36" r="8.00" fill="blue"/>
<text x="257.16" y="335.36" font-family="Arial" font-size="12.00" fill="black">16</text>
<circle cx="191.19" cy="288.00" r="8.00" fill="blue"/>
<text x="206.19" y="293.00" font-family="Arial" font-size="12.00" fill="black">17</text>
<circle cx="203.51" cy="288.00" r="8.00" fill="blue"/>
<text x="218.51" y="293.00" font-family="Arial" font-size="12.00" fill="black">18</text>
<circle cx="215.82" cy="288.00" r="8.00" fill="blue"/>
<text x="230.82" y="293.00" font-family="Arial" font-size="12.00" fill="black">19</text>
<circle cx="228.14" cy="288.00" r="8.00" fill="blue"/>
<text x="243.14" y="293.00" font-family="Arial" font-size="12.00" fill="black">20</text>
<circle cx="240.45" cy="288.00" r="8.00" fill="blue"/>
<text x="255.45" y="293.00" font-family="Arial" font-size="12.00" fill="black">21</text>
</g>
<text x="-193.18" y="-193.18" font-family="Arial" font-size="14.40" fill="black"> Cost: 283.38</text>
</g>
</svg>
