<?xml version="1.0" encoding="UTF-8" standalone="no"?>
<svg xmlns="http://www.w3.org/2000/svg" width="800" height="800" viewBox="-150 -150 800 800">
<rect x="-150" y="-150" width="800" height="800" fill="white"/>
<g>
<line x1="147.9" y1="477.135" x2="164.833" y2="477.135" stroke="rgb(0,0,255)" stroke-width="2"/>
<line x1="164.833" y1="477.135" x2="164.833" y2="472.901" stroke="rgb(5,0,250)" stroke-width="2"/>
<line x1="164.833" y1="472.901" x2="164.833" y2="468.668" stroke="rgb(11,0,244)" stroke-width="2"/>
<line x1="164.833" y1="468.668" x2="164.833" y2="464.435" stroke="rgb(17,0,238)" stroke-width="2"/>
<line x1="164.833" y1="464.435" x2="147.9" y2="464.435" stroke="rgb(23,0,232)" stroke-width="2"/>
<line x1="147.9" y1="464.435" x2="147.9" y2="468.668" stroke="rgb(28,0,227)" stroke-width="2"/>
<line x1="147.9" y1="468.668" x2="147.9" y2="472.901" stroke="rgb(34,0,221)" stroke-width="2"/>
<line x1="147.9" y1="472.901" x2="16.6667" y2="483.333" stroke="rgb(40,0,215)" stroke-width="2"/>
<line x1="16.6667" y1="483.333" x2="157.247" y2="228.533" stroke="rgb(46,0,209)" stroke-width="2"/>
<line x1="157.247" y1="228.533" x2="165.714" y2="228.533" stroke="rgb(52,0,203)" stroke-width="2"/>
<line x1="165.714" y1="228.533" x2="174.18" y2="228.533" stroke="rgb(57,0,198)" stroke-width="2"/>
<line x1="174.18" y1="228.533" x2="182.647" y2="228.533" stroke="rgb(63,0,192)" stroke-width="2"/>
<line x1="182.647" y1="228.533" x2="191.114" y2="228.533" stroke="rgb(69,0,186)" stroke-width="2"/>
<line x1="191.114" y1="228.533" x2="273.732" y2="330.154" stroke="rgb(75,0,180)" stroke-width="2"/>
<line x1="273.732" y1="330.154" x2="282.199" y2="330.154" stroke="rgb(81,0,174)" stroke-width="2"/>
<line x1="282.199" y1="330.154" x2="290.666" y2="330.154" stroke="rgb(86,0,169)" stroke-width="2"/>
<line x1="290.666" y1="330.154" x2="299.132" y2="330.154" stroke="rgb(92,0,163)" stroke-width="2"/>
<line x1="299.132" y1="330.154" x2="307.599" y2="330.154" stroke="rgb(98,0,157)" stroke-width="2"/>
<line x1="307.599" y1="330.154" x2="483.333" y2="483.333" stroke="rgb(104,0,151)" stroke-width="2"/>
<line x1="483.333" y1="483.333" x2="483.333" y2="16.6667" stroke="rgb(110,0,145)" stroke-width="2"/>
<line x1="483.333" y1="16.6667" x2="354.991" y2="88.8389" stroke="rgb(115,0,140)" stroke-width="2"/>
<line x1="354.991" y1="88.8389" x2="354.991" y2="97.3056" stroke="rgb(121,0,134)" stroke-width="2"/>
<line x1="354.991" y1="97.3056" x2="354.991" y2="105.772" stroke="rgb(127,0,128)" stroke-width="2"/>
<line x1="354.991" y1="105.772" x2="354.991" y2="114.239" stroke="rgb(133,0,122)" stroke-width="2"/>
<line x1="354.991" y1="114.239" x2="354.991" y2="122.706" stroke="rgb(139,0,116)" stroke-width="2"/>
<line x1="354.991" y1="122.706" x2="354.991" y2="131.172" stroke="rgb(144,0,111)" stroke-width="2"/>
<line x1="354.991" y1="131.172" x2="354.991" y2="139.639" stroke="rgb(150,0,105)" stroke-width="2"/>
<line x1="354.991" y1="139.639" x2="329.591" y2="139.639" stroke="rgb(156,0,99)" stroke-width="2"/>
<line x1="329.591" y1="139.639" x2="329.591" y2="131.172" stroke="rgb(162,0,93)" stroke-width="2"/>
<line x1="329.591" y1="131.172" x2="329.591" y2="122.706" stroke="rgb(168,0,87)" stroke-width="2"/>
<line x1="329.591" y1="122.706" x2="329.591" y2="114.239" stroke="rgb(173,0,82)" stroke-width="2"/>
<line x1="329.591" y1="114.239" x2="329.591" y2="105.772" stroke="rgb(179,0,76)" stroke-width="2"/>
<line x1="329.591" y1="105.772" x2="329.591" y2="97.3056" stroke="rgb(185,0,70)" stroke-width="2"/>
<line x1="329.591" y1="97.3056" x2="329.591" y2="88.8389" stroke="rgb(191,0,64)" stroke-width="2"/>
<line x1="329.591" y1="88.8389" x2="257.675" y2="32.0326" stroke="rgb(197,0,58)" stroke-width="2"/>
<line x1="257.675" y1="32.0326" x2="257.675" y2="27.7993" stroke="rgb(202,0,53)" stroke-width="2"/>
<line x1="257.675" y1="27.7993" x2="257.675" y2="23.566" stroke="rgb(208,0,47)" stroke-width="2"/>
<line x1="257.675" y1="23.566" x2="257.675" y2="19.3326" stroke="rgb(214,0,41)" stroke-width="2"/>
<line x1="257.675" y1="19.3326" x2="240.742" y2="32.0326" stroke="rgb(220,0,35)" stroke-width="2"/>
<line x1="240.742" y1="32.0326" x2="240.742" y2="27.7993" stroke="rgb(226,0,29)" stroke-width="2"/>
<line x1="240.742" y1="27.7993" x2="240.742" y2="23.566" stroke="rgb(231,0,24)" stroke-width="2"/>
<line x1="240.742" y1="23.566" x2="240.742" y2="19.3326" stroke="rgb(237,0,18)" stroke-width="2"/>
<line x1="240.742" y1="19.3326" x2="16.6667" y2="16.6667" stroke="rgb(243,0,12)" stroke-width="2"/>
<line x1="16.6667" y1="16.6667" x2="16.6667" y2="16.6667" stroke="rgb(249,0,6)" stroke-width="2"/>
</g>
<g>
<circle cx="16.6667" cy="16.6667" r="8" fill="blue"/>
<text x="31.6667" y="21.6667" font-family="Arial" font-size="12" fill="black">0</text>
<circle cx="483.333" cy="16.6667" r="8" fill="blue"/>
<text x="498.333" y="21.6667" font-family="Arial" font-size="12" fill="black">1</text>
<circle cx="16.6667" cy="483.333" r="8" fill="blue"/>
<text x="31.6667" y="488.333" font-family="Arial" font-size="12" fill="black">2</text>
<circle cx="483.333" cy="483.333" r="8" fill="blue"/>
<text x="498.333" y="488.333" font-family="Arial" font-size="12" fill="black">3</text>
<circle cx="273.732" cy="330.154" r="8" fill="blue"/>
<text x="288.732" y="335.154" font-family="Arial" font-size="12" fill="black">4</text>
<circle cx="282.199" cy="330.154" r="8" fill="blue"/>
<text x="297.199" y="335.154" font-family="Arial" font-size="12" fill="black">5</text>
<circle cx="290.666" cy="330.154" r="8" fill="blue"/>
<text x="305.666" y="335.154" font-family="Arial" font-size="12" fill="black">6</text>
<circle cx="299.132" cy="330.154" r="8" fill="blue"/>
<text x="314.132" y="335.154" font-family="Arial" font-size="12" fill="black">7</text>
<circle cx="307.599" cy="330.154" r="8" fill="blue"/>
<text x="322.599" y="335.154" font-family="Arial" font-size="12" fill="black">8</text>
<circle cx="157.247" cy="228.533" r="8" fill="blue"/>
<text x="172.247" y="233.533" font-family="Arial" font-size="12" fill="black">9</text>
<circle cx="165.714" cy="228.533" r="8" fill="blue"/>
<text x="180.714" y="233.533" font-family="Arial" font-size="12" fill="black">10</text>
<circle cx="174.18" cy="228.533" r="8" fill="blue"/>
<text x="189.18" y="233.533" font-family="Arial" font-size="12" fill="black">11</text>
<circle cx="182.647" cy="228.533" r="8" fill="blue"/>
<text x="197.647" y="233.533" font-family="Arial" font-size="12" fill="black">12</text>
<circle cx="191.114" cy="228.533" r="8" fill="blue"/>
<text x="206.114" y="233.533" font-family="Arial" font-size="12" fill="black">13</text>
<circle cx="329.591" cy="88.8389" r="8" fill="blue"/>
<text x="344.591" y="93.8389" font-family="Arial" font-size="12" fill="black">14</text>
<circle cx="329.591" cy="97.3056" r="8" fill="blue"/>
<text x="344.591" y="102.306" font-family="Arial" font-size="12" fill="black">15</text>
<circle cx="329.591" cy="105.772" r="8" fill="blue"/>
<text x="344.591" y="110.772" font-family="Arial" font-size="12" fill="black">16</text>
<circle cx="329.591" cy="114.239" r="8" fill="blue"/>
<text x="344.591" y="119.239" font-family="Arial" font-size="12" fill="black">17</text>
<circle cx="329.591" cy="122.706" r="8" fill="blue"/>
<text x="344.591" y="127.706" font-family="Arial" font-size="12" fill="black">18</text>
<circle cx="329.591" cy="131.172" r="8" fill="blue"/>
<text x="344.591" y="136.172" font-family="Arial" font-size="12" fill="black">19</text>
<circle cx="329.591" cy="139.639" r="8" fill="blue"/>
<text x="344.591" y="144.639" font-family="Arial" font-size="12" fill="black">20</text>
<circle cx="354.991" cy="88.8389" r="8" fill="blue"/>
<text x="369.991" y="93.8389" font-family="Arial" font-size="12" fill="black">21</text>
<circle cx="354.991" cy="97.3056" r="8" fill="blue"/>
<text x="369.991" y="102.306" font-family="Arial" font-size="12" fill="black">22</text>
<circle cx="354.991" cy="105.772" r="8" fill="blue"/>
<text x="369.991" y="110.772" font-family="Arial" font-size="12" fill="black">23</text>
<circle cx="354.991" cy="114.239" r="8" fill="blue"/>
<text x="369.991" y="119.239" font-family="Arial" font-size="12" fill="black">24</text>
<circle cx="354.991" cy="122.706" r="8" fill="blue"/>
<text x="369.991" y="127.706" font-family="Arial" font-size="12" fill="black">25</text>
<circle cx="354.991" cy="131.172" r="8" fill="blue"/>
<text x="369.991" y="136.172" font-family="Arial" font-size="12" fill="black">26</text>
<circle cx="354.991" cy="139.639" r="8" fill="blue"/>
<text x="369.991" y="144.639" font-family="Arial" font-size="12" fill="black">27</text>
<circle cx="147.9" cy="464.435" r="8" fill="blue"/>
<text x="162.9" y="469.435" font-family="Arial" font-size="12" fill="black">28</text>
<circle cx="147.9" cy="468.668" r="8" fill="blue"/>
<text x="162.9" y="473.668" font-family="Arial" font-size="12" fill="black">29</text>
<circle cx="147.9" cy="472.901" r="8" fill="blue"/>
<text x="162.9" y="477.901" font-family="Arial" font-size="12" fill="black">30</text>
<circle cx="147.9" cy="477.135" r="8" fill="blue"/>
<text x="162.9" y="482.135" font-family="Arial" font-size="12" fill="black">31</text>
<circle cx="164.833" cy="464.435" r="8" fill="blue"/>
<text x="179.833" y="469.435" font-family="Arial" font-size="12" fill="black">32</text>
<circle cx="164.833" cy="468.668" r="8" fill="blue"/>
<text x="179.833" y="473.668" font-family="Arial" font-size="12" fill="black">33</text>
<circle cx="164.833" cy="472.901" r="8" fill="blue"/>
<text x="179.833" y="477.901" font-family="Arial" font-size="12" fill="black">34</text>
<circle cx="164.833" cy="477.135" r="8" fill="blue"/>
<text x="179.833" y="482.135" font-family="Arial" font-size="12" fill="black">35</text>
<circle cx="240.742" cy="19.3326" r="8" fill="blue"/>
<text x="255.742" y="24.3326" font-family="Arial" font-size="12" fill="black">36</text>
<circle cx="240.742" cy="23.566" r="8" fill="blue"/>
<text x="255.742" y="28.566" font-family="Arial" font-size="12" fill="black">37</text>
<circle cx="240.742" cy="27.7993" r="8" fill="blue"/>
<text x="255.742" y="32.7993" font-family="Arial" font-size="12" fill="black">38</text>
<circle cx="240.742" cy="32.0326" r="8" fill="blue"/>
<text x="255.742" y="37.0326" font-family="Arial" font-size="12" fill="black">39</text>
<circle cx="257.675" cy="19.3326" r="8" fill="blue"/>
<text x="272.675" y="24.3326" font-family="Arial" font-size="12" fill="black">40</text>
<circle cx="257.675" cy="23.566" r="8" fill="blue"/>
<text x="272.675" y="28.566" font-family="Arial" font-size="12" fill="black">41</text>
<circle cx="257.675" cy="27.7993" r="8" fill="blue"/>
<text x="272.675" y="32.7993" font-family="Arial" font-size="12" fill="black">42</text>
<circle cx="257.675" cy="32.0326" r="8" fill="blue"/>
<text x="272.675" y="37.0326" font-family="Arial" font-size="12" fill="black">43</text>
</g>
<text x="-125" y="-125" font-family="Arial" font-size="14.4" fill="black"> Cost: 603.82</text>
</svg>
