<?xml version="1.0" encoding="UTF-8" standalone="no"?>
<svg xmlns="http://www.w3.org/2000/svg" viewBox="-5 -5 160 160">
<rect x="-5" y="-5" width="160" height="160" fill="white"/>
<g>
<line x1="5" y1="5" x2="23.6395" y2="67.4382" stroke="rgb(0,0,255)" stroke-width="0.8"/>
<line x1="23.6395" y1="67.4382" x2="23.6395" y2="68.7082" stroke="rgb(6,0,249)" stroke-width="0.8"/>
<line x1="23.6395" y1="68.7082" x2="23.6395" y2="69.9782" stroke="rgb(13,0,242)" stroke-width="0.8"/>
<line x1="23.6395" y1="69.9782" x2="23.6395" y2="71.2482" stroke="rgb(20,0,235)" stroke-width="0.8"/>
<line x1="23.6395" y1="71.2482" x2="28.7195" y2="67.4382" stroke="rgb(26,0,229)" stroke-width="0.8"/>
<line x1="28.7195" y1="67.4382" x2="28.7195" y2="68.7082" stroke="rgb(33,0,222)" stroke-width="0.8"/>
<line x1="28.7195" y1="68.7082" x2="28.7195" y2="69.9782" stroke="rgb(40,0,215)" stroke-width="0.8"/>
<line x1="28.7195" y1="69.9782" x2="28.7195" y2="71.2482" stroke="rgb(46,0,209)" stroke-width="0.8"/>
<line x1="28.7195" y1="71.2482" x2="5" y2="145" stroke="rgb(53,0,202)" stroke-width="0.8"/>
<line x1="5" y1="145" x2="39.8923" y2="129.746" stroke="rgb(60,0,195)" stroke-width="0.8"/>
<line x1="39.8923" y1="129.746" x2="42.4323" y2="129.746" stroke="rgb(67,0,188)" stroke-width="0.8"/>
<line x1="42.4323" y1="129.746" x2="44.9723" y2="129.746" stroke="rgb(73,0,182)" stroke-width="0.8"/>
<line x1="44.9723" y1="129.746" x2="47.5123" y2="129.746" stroke="rgb(80,0,175)" stroke-width="0.8"/>
<line x1="47.5123" y1="129.746" x2="50.0523" y2="129.746" stroke="rgb(87,0,168)" stroke-width="0.8"/>
<line x1="50.0523" y1="129.746" x2="49.4941" y2="111.857" stroke="rgb(93,0,162)" stroke-width="0.8"/>
<line x1="49.4941" y1="111.857" x2="49.4941" y2="110.587" stroke="rgb(100,0,155)" stroke-width="0.8"/>
<line x1="49.4941" y1="110.587" x2="49.4941" y2="109.317" stroke="rgb(107,0,148)" stroke-width="0.8"/>
<line x1="49.4941" y1="109.317" x2="49.4941" y2="108.047" stroke="rgb(114,0,141)" stroke-width="0.8"/>
<line x1="49.4941" y1="108.047" x2="54.5741" y2="108.047" stroke="rgb(120,0,135)" stroke-width="0.8"/>
<line x1="54.5741" y1="108.047" x2="54.5741" y2="109.317" stroke="rgb(127,0,128)" stroke-width="0.8"/>
<line x1="54.5741" y1="109.317" x2="54.5741" y2="110.587" stroke="rgb(134,0,121)" stroke-width="0.8"/>
<line x1="54.5741" y1="110.587" x2="54.5741" y2="111.857" stroke="rgb(140,0,115)" stroke-width="0.8"/>
<line x1="54.5741" y1="111.857" x2="145" y2="145" stroke="rgb(147,0,108)" stroke-width="0.8"/>
<line x1="145" y1="145" x2="136.603" y2="91.6514" stroke="rgb(154,0,101)" stroke-width="0.8"/>
<line x1="136.603" y1="91.6514" x2="134.063" y2="91.6514" stroke="rgb(161,0,94)" stroke-width="0.8"/>
<line x1="134.063" y1="91.6514" x2="131.523" y2="91.6514" stroke="rgb(167,0,88)" stroke-width="0.8"/>
<line x1="131.523" y1="91.6514" x2="128.983" y2="91.6514" stroke="rgb(174,0,81)" stroke-width="0.8"/>
<line x1="128.983" y1="91.6514" x2="126.443" y2="91.6514" stroke="rgb(181,0,74)" stroke-width="0.8"/>
<line x1="126.443" y1="91.6514" x2="138.785" y2="10.6253" stroke="rgb(187,0,68)" stroke-width="0.8"/>
<line x1="138.785" y1="10.6253" x2="138.785" y2="9.35532" stroke="rgb(194,0,61)" stroke-width="0.8"/>
<line x1="138.785" y1="9.35532" x2="138.785" y2="8.08532" stroke="rgb(201,0,54)" stroke-width="0.8"/>
<line x1="138.785" y1="8.08532" x2="145" y2="5" stroke="rgb(208,0,47)" stroke-width="0.8"/>
<line x1="145" y1="5" x2="138.785" y2="6.81532" stroke="rgb(214,0,41)" stroke-width="0.8"/>
<line x1="138.785" y1="6.81532" x2="133.705" y2="6.81532" stroke="rgb(221,0,34)" stroke-width="0.8"/>
<line x1="133.705" y1="6.81532" x2="133.705" y2="8.08532" stroke="rgb(228,0,27)" stroke-width="0.8"/>
<line x1="133.705" y1="8.08532" x2="133.705" y2="9.35532" stroke="rgb(234,0,21)" stroke-width="0.8"/>
<line x1="133.705" y1="9.35532" x2="133.705" y2="10.6253" stroke="rgb(241,0,14)" stroke-width="0.8"/>
<line x1="133.705" y1="10.6253" x2="5" y2="5" stroke="rgb(248,0,7)" stroke-width="0.8"/>
</g>
<g>
<circle cx="5" cy="5" r="2" fill="blue"/>
<text x="7.5" y="5" font-family="Arial" font-size="5" fill="black">0</text>
<circle cx="145" cy="5" r="2" fill="blue"/>
<text x="147.5" y="5" font-family="Arial" font-size="5" fill="black">1</text>
<circle cx="5" cy="145" r="2" fill="blue"/>
<text x="7.5" y="145" font-family="Arial" font-size="5" fill="black">2</text>
<circle cx="145" cy="145" r="2" fill="blue"/>
<text x="147.5" y="145" font-family="Arial" font-size="5" fill="black">3</text>
<circle cx="133.705" cy="6.81532" r="2" fill="blue"/>
<text x="136.205" y="6.81532" font-family="Arial" font-size="5" fill="black">4</text>
<circle cx="133.705" cy="8.08532" r="2" fill="blue"/>
<text x="136.205" y="8.08532" font-family="Arial" font-size="5" fill="black">5</text>
<circle cx="133.705" cy="9.35532" r="2" fill="blue"/>
<text x="136.205" y="9.35532" font-family="Arial" font-size="5" fill="black">6</text>
<circle cx="133.705" cy="10.6253" r="2" fill="blue"/>
<text x="136.205" y="10.6253" font-family="Arial" font-size="5" fill="black">7</text>
<circle cx="138.785" cy="6.81532" r="2" fill="blue"/>
<text x="141.285" y="6.81532" font-family="Arial" font-size="5" fill="black">8</text>
<circle cx="138.785" cy="8.08532" r="2" fill="blue"/>
<text x="141.285" y="8.08532" font-family="Arial" font-size="5" fill="black">9</text>
<circle cx="138.785" cy="9.35532" r="2" fill="blue"/>
<text x="141.285" y="9.35532" font-family="Arial" font-size="5" fill="black">10</text>
<circle cx="138.785" cy="10.6253" r="2" fill="blue"/>
<text x="141.285" y="10.6253" font-family="Arial" font-size="5" fill="black">11</text>
<circle cx="126.443" cy="91.6514" r="2" fill="blue"/>
<text x="128.943" y="91.6514" font-family="Arial" font-size="5" fill="black">12</text>
<circle cx="128.983" cy="91.6514" r="2" fill="blue"/>
<text x="131.483" y="91.6514" font-family="Arial" font-size="5" fill="black">13</text>
<circle cx="131.523" cy="91.6514" r="2" fill="blue"/>
<text x="134.023" y="91.6514" font-family="Arial" font-size="5" fill="black">14</text>
<circle cx="134.063" cy="91.6514" r="2" fill="blue"/>
<text x="136.563" y="91.6514" font-family="Arial" font-size="5" fill="black">15</text>
<circle cx="136.603" cy="91.6514" r="2" fill="blue"/>
<text x="139.103" y="91.6514" font-family="Arial" font-size="5" fill="black">16</text>
<circle cx="23.6395" cy="67.4382" r="2" fill="blue"/>
<text x="26.1395" y="67.4382" font-family="Arial" font-size="5" fill="black">17</text>
<circle cx="23.6395" cy="68.7082" r="2" fill="blue"/>
<text x="26.1395" y="68.7082" font-family="Arial" font-size="5" fill="black">18</text>
<circle cx="23.6395" cy="69.9782" r="2" fill="blue"/>
<text x="26.1395" y="69.9782" font-family="Arial" font-size="5" fill="black">19</text>
<circle cx="23.6395" cy="71.2482" r="2" fill="blue"/>
<text x="26.1395" y="71.2482" font-family="Arial" font-size="5" fill="black">20</text>
<circle cx="28.7195" cy="67.4382" r="2" fill="blue"/>
<text x="31.2195" y="67.4382" font-family="Arial" font-size="5" fill="black">21</text>
<circle cx="28.7195" cy="68.7082" r="2" fill="blue"/>
<text x="31.2195" y="68.7082" font-family="Arial" font-size="5" fill="black">22</text>
<circle cx="28.7195" cy="69.9782" r="2" fill="blue"/>
<text x="31.2195" y="69.9782" font-family="Arial" font-size="5" fill="black">23</text>
<circle cx="28.7195" cy="71.2482" r="2" fill="blue"/>
<text x="31.2195" y="71.2482" font-family="Arial" font-size="5" fill="black">24</text>
<circle cx="49.4941" cy="108.047" r="2" fill="blue"/>
<text x="51.9941" y="108.047" font-family="Arial" font-size="5" fill="black">25</text>
<circle cx="49.4941" cy="109.317" r="2" fill="blue"/>
<text x="51.9941" y="109.317" font-family="Arial" font-size="5" fill="black">26</text>
<circle cx="49.4941" cy="110.587" r="2" fill="blue"/>
<text x="51.9941" y="110.587" font-family="Arial" font-size="5" fill="black">27</text>
<circle cx="49.4941" cy="111.857" r="2" fill="blue"/>
<text x="51.9941" y="111.857" font-family="Arial" font-size="5" fill="black">28</text>
<circle cx="54.5741" cy="108.047" r="2" fill="blue"/>
<text x="57.0741" y="108.047" font-family="Arial" font-size="5" fill="black">29</text>
<circle cx="54.5741" cy="109.317" r="2" fill="blue"/>
<text x="57.0741" y="109.317" font-family="Arial" font-size="5" fill="black">30</text>
<circle cx="54.5741" cy="110.587" r="2" fill="blue"/>
<text x="57.0741" y="110.587" font-family="Arial" font-size="5" fill="black">31</text>
<circle cx="54.5741" cy="111.857" r="2" fill="blue"/>
<text x="57.0741" y="111.857" font-family="Arial" font-size="5" fill="black">32</text>
<circle cx="39.8923" cy="129.746" r="2" fill="blue"/>
<text x="42.3923" y="129.746" font-family="Arial" font-size="5" fill="black">33</text>
<circle cx="42.4323" cy="129.746" r="2" fill="blue"/>
<text x="44.9323" y="129.746" font-family="Arial" font-size="5" fill="black">34</text>
<circle cx="44.9723" cy="129.746" r="2" fill="blue"/>
<text x="47.4723" y="129.746" font-family="Arial" font-size="5" fill="black">35</text>
<circle cx="47.5123" cy="129.746" r="2" fill="blue"/>
<text x="50.0123" y="129.746" font-family="Arial" font-size="5" fill="black">36</text>
<circle cx="50.0523" cy="129.746" r="2" fill="blue"/>
<text x="52.5523" y="129.746" font-family="Arial" font-size="5" fill="black">37</text>
</g>
</svg>
