<?xml version="1.0" encoding="UTF-8" standalone="no"?>
<svg xmlns="http://www.w3.org/2000/svg" width="1760" height="800" viewBox="-218.182 -218.182 1760 800">
<g transform="translate(0,0)">
<rect x="-218.182" y="-218.182" width="800" height="800" fill="white"/>
<g>
<line x1="24.2424" y1="24.2424" x2="147.184" y2="47.4431" stroke="rgb(128,0,127)" stroke-width="2"/>
<line x1="147.184" y1="47.4431" x2="157.622" y2="266.19" stroke="rgb(128,0,127)" stroke-width="2"/>
<line x1="157.622" y1="266.19" x2="299.65" y2="171.769" stroke="rgb(128,0,127)" stroke-width="2"/>
<line x1="299.65" y1="171.769" x2="110.239" y2="47.4431" stroke="rgb(128,0,127)" stroke-width="2"/>
<line x1="110.239" y1="47.4431" x2="132.992" y2="266.19" stroke="rgb(128,0,127)" stroke-width="2"/>
<line x1="132.992" y1="266.19" x2="157.622" y2="260.033" stroke="rgb(128,0,127)" stroke-width="2"/>
<line x1="157.622" y1="260.033" x2="336.596" y2="171.769" stroke="rgb(128,0,127)" stroke-width="2"/>
<line x1="336.596" y1="171.769" x2="339.394" y2="24.2424" stroke="rgb(128,0,127)" stroke-width="2"/>
<line x1="339.394" y1="24.2424" x2="287.335" y2="171.769" stroke="rgb(128,0,127)" stroke-width="2"/>
<line x1="287.335" y1="171.769" x2="339.394" y2="339.394" stroke="rgb(128,0,127)" stroke-width="2"/>
<line x1="339.394" y1="339.394" x2="132.992" y2="272.348" stroke="rgb(128,0,127)" stroke-width="2"/>
<line x1="132.992" y1="272.348" x2="134.869" y2="47.4431" stroke="rgb(128,0,127)" stroke-width="2"/>
<line x1="134.869" y1="47.4431" x2="157.622" y2="272.348" stroke="rgb(128,0,127)" stroke-width="2"/>
<line x1="157.622" y1="272.348" x2="157.622" y2="253.875" stroke="rgb(128,0,127)" stroke-width="2"/>
<line x1="157.622" y1="253.875" x2="324.281" y2="171.769" stroke="rgb(128,0,127)" stroke-width="2"/>
<line x1="324.281" y1="171.769" x2="97.9236" y2="47.4431" stroke="rgb(128,0,127)" stroke-width="2"/>
<line x1="97.9236" y1="47.4431" x2="132.992" y2="253.875" stroke="rgb(128,0,127)" stroke-width="2"/>
<line x1="132.992" y1="253.875" x2="24.2424" y2="339.394" stroke="rgb(128,0,127)" stroke-width="2"/>
<line x1="24.2424" y1="339.394" x2="132.992" y2="260.033" stroke="rgb(128,0,127)" stroke-width="2"/>
<line x1="132.992" y1="260.033" x2="311.965" y2="171.769" stroke="rgb(128,0,127)" stroke-width="2"/>
<line x1="311.965" y1="171.769" x2="122.554" y2="47.4431" stroke="rgb(128,0,127)" stroke-width="2"/>
<line x1="122.554" y1="47.4431" x2="24.2424" y2="24.2424" stroke="rgb(128,0,127)" stroke-width="2"/>
</g>
<g>
<circle cx="24.2424" cy="24.2424" r="8" fill="blue"/>
<text x="39.2424" y="29.2424" font-family="Arial" font-size="12" fill="black">0</text>
<circle cx="339.394" cy="24.2424" r="8" fill="blue"/>
<text x="354.394" y="29.2424" font-family="Arial" font-size="12" fill="black">1</text>
<circle cx="24.2424" cy="339.394" r="8" fill="blue"/>
<text x="39.2424" y="344.394" font-family="Arial" font-size="12" fill="black">2</text>
<circle cx="339.394" cy="339.394" r="8" fill="blue"/>
<text x="354.394" y="344.394" font-family="Arial" font-size="12" fill="black">3</text>
<circle cx="132.992" cy="253.875" r="8" fill="blue"/>
<text x="147.992" y="258.875" font-family="Arial" font-size="12" fill="black">4</text>
<circle cx="132.992" cy="260.033" r="8" fill="blue"/>
<text x="147.992" y="265.033" font-family="Arial" font-size="12" fill="black">5</text>
<circle cx="132.992" cy="266.19" r="8" fill="blue"/>
<text x="147.992" y="271.19" font-family="Arial" font-size="12" fill="black">6</text>
<circle cx="132.992" cy="272.348" r="8" fill="blue"/>
<text x="147.992" y="277.348" font-family="Arial" font-size="12" fill="black">7</text>
<circle cx="157.622" cy="253.875" r="8" fill="blue"/>
<text x="172.622" y="258.875" font-family="Arial" font-size="12" fill="black">8</text>
<circle cx="157.622" cy="260.033" r="8" fill="blue"/>
<text x="172.622" y="265.033" font-family="Arial" font-size="12" fill="black">9</text>
<circle cx="157.622" cy="266.19" r="8" fill="blue"/>
<text x="172.622" y="271.19" font-family="Arial" font-size="12" fill="black">10</text>
<circle cx="157.622" cy="272.348" r="8" fill="blue"/>
<text x="172.622" y="277.348" font-family="Arial" font-size="12" fill="black">11</text>
<circle cx="97.9236" cy="47.4431" r="8" fill="blue"/>
<text x="112.924" y="52.4431" font-family="Arial" font-size="12" fill="black">12</text>
<circle cx="110.239" cy="47.4431" r="8" fill="blue"/>
<text x="125.239" y="52.4431" font-family="Arial" font-size="12" fill="black">13</text>
<circle cx="122.554" cy="47.4431" r="8" fill="blue"/>
<text x="137.554" y="52.4431" font-family="Arial" font-size="12" fill="black">14</text>
<circle cx="134.869" cy="47.4431" r="8" fill="blue"/>
<text x="149.869" y="52.4431" font-family="Arial" font-size="12" fill="black">15</text>
<circle cx="147.184" cy="47.4431" r="8" fill="blue"/>
<text x="162.184" y="52.4431" font-family="Arial" font-size="12" fill="black">16</text>
<circle cx="287.335" cy="171.769" r="8" fill="blue"/>
<text x="302.335" y="176.769" font-family="Arial" font-size="12" fill="black">17</text>
<circle cx="299.65" cy="171.769" r="8" fill="blue"/>
<text x="314.65" y="176.769" font-family="Arial" font-size="12" fill="black">18</text>
<circle cx="311.965" cy="171.769" r="8" fill="blue"/>
<text x="326.965" y="176.769" font-family="Arial" font-size="12" fill="black">19</text>
<circle cx="324.281" cy="171.769" r="8" fill="blue"/>
<text x="339.281" y="176.769" font-family="Arial" font-size="12" fill="black">20</text>
<circle cx="336.596" cy="171.769" r="8" fill="blue"/>
<text x="351.596" y="176.769" font-family="Arial" font-size="12" fill="black">21</text>
</g>
<text x="-193.182" y="-193.182" font-family="Arial" font-size="14.4" fill="black"> Cost: 784.91</text>
</g>
<g transform="translate(880.00,0)">
<rect x="-218.18" y="-218.18" width="800.00" height="800.00" fill="white"/>
<g>
<line x1="24.24" y1="339.39" x2="132.99" y2="272.35" stroke="rgb(128,0,127)" stroke-width="2.00"/>
<line x1="132.99" y1="272.35" x2="132.99" y2="266.19" stroke="rgb(128,0,127)" stroke-width="2.00"/>
<line x1="132.99" y1="266.19" x2="132.99" y2="260.03" stroke="rgb(128,0,127)" stroke-width="2.00"/>
<line x1="132.99" y1="260.03" x2="132.99" y2="253.88" stroke="rgb(128,0,127)" stroke-width="2.00"/>
<line x1="132.99" y1="253.88" x2="157.62" y2="253.88" stroke="rgb(128,0,127)" stroke-width="2.00"/>
<line x1="157.62" y1="253.88" x2="157.62" y2="260.03" stroke="rgb(128,0,127)" stroke-width="2.00"/>
<line x1="157.62" y1="260.03" x2="157.62" y2="266.19" stroke="rgb(128,0,127)" stroke-width="2.00"/>
<line x1="157.62" y1="266.19" x2="157.62" y2="272.35" stroke="rgb(128,0,127)" stroke-width="2.00"/>
<line x1="157.62" y1="272.35" x2="339.39" y2="339.39" stroke="rgb(128,0,127)" stroke-width="2.00"/>
<line x1="339.39" y1="339.39" x2="287.34" y2="171.77" stroke="rgb(128,0,127)" stroke-width="2.00"/>
<line x1="287.34" y1="171.77" x2="299.65" y2="171.77" stroke="rgb(128,0,127)" stroke-width="2.00"/>
<line x1="299.65" y1="171.77" x2="311.97" y2="171.77" stroke="rgb(128,0,127)" stroke-width="2.00"/>
<line x1="311.97" y1="171.77" x2="324.28" y2="171.77" stroke="rgb(128,0,127)" stroke-width="2.00"/>
<line x1="324.28" y1="171.77" x2="336.60" y2="171.77" stroke="rgb(128,0,127)" stroke-width="2.00"/>
<line x1="336.60" y1="171.77" x2="339.39" y2="24.24" stroke="rgb(128,0,127)" stroke-width="2.00"/>
<line x1="339.39" y1="24.24" x2="147.18" y2="47.44" stroke="rgb(128,0,127)" stroke-width="2.00"/>
<line x1="147.18" y1="47.44" x2="134.87" y2="47.44" stroke="rgb(128,0,127)" stroke-width="2.00"/>
<line x1="134.87" y1="47.44" x2="122.55" y2="47.44" stroke="rgb(128,0,127)" stroke-width="2.00"/>
<line x1="122.55" y1="47.44" x2="110.24" y2="47.44" stroke="rgb(128,0,127)" stroke-width="2.00"/>
<line x1="110.24" y1="47.44" x2="97.92" y2="47.44" stroke="rgb(128,0,127)" stroke-width="2.00"/>
<line x1="97.92" y1="47.44" x2="24.24" y2="24.24" stroke="rgb(128,0,127)" stroke-width="2.00"/>
<line x1="24.24" y1="24.24" x2="24.24" y2="24.24" stroke="rgb(128,0,127)" stroke-width="2.00"/>
</g>
<g>
<circle cx="24.24" cy="24.24" r="8.00" fill="blue"/>
<text x="39.24" y="29.24" font-family="Arial" font-size="12.00" fill="black">0</text>
<circle cx="339.39" cy="24.24" r="8.00" fill="blue"/>
<text x="354.39" y="29.24" font-family="Arial" font-size="12.00" fill="black">1</text>
<circle cx="24.24" cy="339.39" r="8.00" fill="blue"/>
<text x="39.24" y="344.39" font-family="Arial" font-size="12.00" fill="black">2</text>
<circle cx="339.39" cy="339.39" r="8.00" fill="blue"/>
<text x="354.39" y="344.39" font-family="Arial" font-size="12.00" fill="black">3</text>
<circle cx="132.99" cy="253.88" r="8.00" fill="blue"/>
<text x="147.99" y="258.88" font-family="Arial" font-size="12.00" fill="black">4</text>
<circle cx="132.99" cy="260.03" r="8.00" fill="blue"/>
<text x="147.99" y="265.03" font-family="Arial" font-size="12.00" fill="black">5</text>
<circle cx="132.99" cy="266.19" r="8.00" fill="blue"/>
<text x="147.99" y="271.19" font-family="Arial" font-size="12.00" fill="black">6</text>
<circle cx="132.99" cy="272.35" r="8.00" fill="blue"/>
<text x="147.99" y="277.35" font-family="Arial" font-size="12.00" fill="black">7</text>
<circle cx="157.62" cy="253.88" r="8.00" fill="blue"/>
<text x="172.62" y="258.88" font-family="Arial" font-size="12.00" fill="black">8</text>
<circle cx="157.62" cy="260.03" r="8.00" fill="blue"/>
<text x="172.62" y="265.03" font-family="Arial" font-size="12.00" fill="black">9</text>
<circle cx="157.62" cy="266.19" r="8.00" fill="blue"/>
<text x="172.62" y="271.19" font-family="Arial" font-size="12.00" fill="black">10</text>
<circle cx="157.62" cy="272.35" r="8.00" fill="blue"/>
<text x="172.62" y="277.35" font-family="Arial" font-size="12.00" fill="black">11</text>
<circle cx="97.92" cy="47.44" r="8.00" fill="blue"/>
<text x="112.92" y="52.44" font-family="Arial" font-size="12.00" fill="black">12</text>
<circle cx="110.24" cy="47.44" r="8.00" fill="blue"/>
<text x="125.24" y="52.44" font-family="Arial" font-size="12.00" fill="black">13</text>
<circle cx="122.55" cy="47.44" r="8.00" fill="blue"/>
<text x="137.55" y="52.44" font-family="Arial" font-size="12.00" fill="black">14</text>
<circle cx="134.87" cy="47.44" r="8.00" fill="blue"/>
<text x="149.87" y="52.44" font-family="Arial" font-size="12.00" fill="black">15</text>
<circle cx="147.18" cy="47.44" r="8.00" fill="blue"/>
<text x="162.18" y="52.44" font-family="Arial" font-size="12.00" fill="black">16</text>
<circle cx="287.34" cy="171.77" r="8.00" fill="blue"/>
<text x="302.34" y="176.77" font-family="Arial" font-size="12.00" fill="black">17</text>
<circle cx="299.65" cy="171.77" r="8.00" fill="blue"/>
<text x="314.65" y="176.77" font-family="Arial" font-size="12.00" fill="black">18</text>
<circle cx="311.97" cy="171.77" r="8.00" fill="blue"/>
<text x="326.97" y="176.77" font-family="Arial" font-size="12.00" fill="black">19</text>
<circle cx="324.28" cy="171.77" r="8.00" fill="blue"/>
<text x="339.28" y="176.77" font-family="Arial" font-size="12.00" fill="black">20</text>
<circle cx="336.60" cy="171.77" r="8.00" fill="blue"/>
<text x="351.60" y="176.77" font-family="Arial" font-size="12.00" fill="black">21</text>
</g>
<text x="-193.18" y="-193.18" font-family="Arial" font-size="14.40" fill="black"> Cost: 221.83</text>
</g>
</svg>
