<?xml version="1.0" encoding="UTF-8" standalone="no"?>
<svg xmlns="http://www.w3.org/2000/svg" viewBox="-5 -5 110 110">
<rect x="-5" y="-5" width="110" height="110" fill="white"/>
<g>
<circle cx="5" cy="5" r="2" fill="blue"/>
<text x="7.5" y="5" font-family="Arial" font-size="5" fill="black">0</text>
<circle cx="95" cy="5" r="2" fill="blue"/>
<text x="97.5" y="5" font-family="Arial" font-size="5" fill="black">1</text>
<circle cx="5" cy="95" r="2" fill="blue"/>
<text x="7.5" y="95" font-family="Arial" font-size="5" fill="black">2</text>
<circle cx="95" cy="95" r="2" fill="blue"/>
<text x="97.5" y="95" font-family="Arial" font-size="5" fill="black">3</text>
<circle cx="36.4006" cy="55.8337" r="2" fill="blue"/>
<text x="38.9006" y="55.8337" font-family="Arial" font-size="5" fill="black">4</text>
<circle cx="36.4006" cy="58.3737" r="2" fill="blue"/>
<text x="38.9006" y="58.3737" font-family="Arial" font-size="5" fill="black">5</text>
<circle cx="36.4006" cy="60.9137" r="2" fill="blue"/>
<text x="38.9006" y="60.9137" font-family="Arial" font-size="5" fill="black">6</text>
<circle cx="36.4006" cy="63.4537" r="2" fill="blue"/>
<text x="38.9006" y="63.4537" font-family="Arial" font-size="5" fill="black">7</text>
<circle cx="36.4006" cy="65.9937" r="2" fill="blue"/>
<text x="38.9006" y="65.9937" font-family="Arial" font-size="5" fill="black">8</text>
<circle cx="36.4006" cy="68.5337" r="2" fill="blue"/>
<text x="38.9006" y="68.5337" font-family="Arial" font-size="5" fill="black">9</text>
<circle cx="36.4006" cy="71.0737" r="2" fill="blue"/>
<text x="38.9006" y="71.0737" font-family="Arial" font-size="5" fill="black">10</text>
<circle cx="44.0206" cy="55.8337" r="2" fill="blue"/>
<text x="46.5206" y="55.8337" font-family="Arial" font-size="5" fill="black">11</text>
<circle cx="44.0206" cy="58.3737" r="2" fill="blue"/>
<text x="46.5206" y="58.3737" font-family="Arial" font-size="5" fill="black">12</text>
<circle cx="44.0206" cy="60.9137" r="2" fill="blue"/>
<text x="46.5206" y="60.9137" font-family="Arial" font-size="5" fill="black">13</text>
<circle cx="44.0206" cy="63.4537" r="2" fill="blue"/>
<text x="46.5206" y="63.4537" font-family="Arial" font-size="5" fill="black">14</text>
<circle cx="44.0206" cy="65.9937" r="2" fill="blue"/>
<text x="46.5206" y="65.9937" font-family="Arial" font-size="5" fill="black">15</text>
<circle cx="44.0206" cy="68.5337" r="2" fill="blue"/>
<text x="46.5206" y="68.5337" font-family="Arial" font-size="5" fill="black">16</text>
<circle cx="44.0206" cy="71.0737" r="2" fill="blue"/>
<text x="46.5206" y="71.0737" font-family="Arial" font-size="5" fill="black">17</text>
<circle cx="14.57" cy="32.3644" r="2" fill="blue"/>
<text x="17.07" y="32.3644" font-family="Arial" font-size="5" fill="black">18</text>
<circle cx="17.11" cy="32.3644" r="2" fill="blue"/>
<text x="19.61" y="32.3644" font-family="Arial" font-size="5" fill="black">19</text>
<circle cx="19.65" cy="32.3644" r="2" fill="blue"/>
<text x="22.15" y="32.3644" font-family="Arial" font-size="5" fill="black">20</text>
<circle cx="22.19" cy="32.3644" r="2" fill="blue"/>
<text x="24.69" y="32.3644" font-family="Arial" font-size="5" fill="black">21</text>
<circle cx="24.73" cy="32.3644" r="2" fill="blue"/>
<text x="27.23" y="32.3644" font-family="Arial" font-size="5" fill="black">22</text>
<circle cx="5.72715" cy="53.23" r="2" fill="blue"/>
<text x="8.22715" y="53.23" font-family="Arial" font-size="5" fill="black">23</text>
<circle cx="5.72715" cy="55.77" r="2" fill="blue"/>
<text x="8.22715" y="55.77" font-family="Arial" font-size="5" fill="black">24</text>
<circle cx="5.72715" cy="58.31" r="2" fill="blue"/>
<text x="8.22715" y="58.31" font-family="Arial" font-size="5" fill="black">25</text>
<circle cx="5.72715" cy="60.85" r="2" fill="blue"/>
<text x="8.22715" y="60.85" font-family="Arial" font-size="5" fill="black">26</text>
<circle cx="5.72715" cy="63.39" r="2" fill="blue"/>
<text x="8.22715" y="63.39" font-family="Arial" font-size="5" fill="black">27</text>
<circle cx="5.72715" cy="65.93" r="2" fill="blue"/>
<text x="8.22715" y="65.93" font-family="Arial" font-size="5" fill="black">28</text>
<circle cx="5.72715" cy="68.47" r="2" fill="blue"/>
<text x="8.22715" y="68.47" font-family="Arial" font-size="5" fill="black">29</text>
<circle cx="13.3471" cy="53.23" r="2" fill="blue"/>
<text x="15.8471" y="53.23" font-family="Arial" font-size="5" fill="black">30</text>
<circle cx="13.3471" cy="55.77" r="2" fill="blue"/>
<text x="15.8471" y="55.77" font-family="Arial" font-size="5" fill="black">31</text>
<circle cx="13.3471" cy="58.31" r="2" fill="blue"/>
<text x="15.8471" y="58.31" font-family="Arial" font-size="5" fill="black">32</text>
<circle cx="13.3471" cy="60.85" r="2" fill="blue"/>
<text x="15.8471" y="60.85" font-family="Arial" font-size="5" fill="black">33</text>
<circle cx="13.3471" cy="63.39" r="2" fill="blue"/>
<text x="15.8471" y="63.39" font-family="Arial" font-size="5" fill="black">34</text>
<circle cx="13.3471" cy="65.93" r="2" fill="blue"/>
<text x="15.8471" y="65.93" font-family="Arial" font-size="5" fill="black">35</text>
<circle cx="13.3471" cy="68.47" r="2" fill="blue"/>
<text x="15.8471" y="68.47" font-family="Arial" font-size="5" fill="black">36</text>
</g>
</svg>
