<?xml version="1.0" encoding="UTF-8" standalone="no"?>
<svg xmlns="http://www.w3.org/2000/svg" viewBox="-5 -5 242 110">
<g transform="translate(0,0)">
<rect x="-5" y="-5" width="110" height="110" fill="white"/>
<g>
<line x1="5" y1="5" x2="63.3904" y2="80.6296" stroke="rgb(128,0,127)" stroke-width="0.8"/>
<line x1="63.3904" y1="80.6296" x2="85.346" y2="35.072" stroke="rgb(128,0,127)" stroke-width="0.8"/>
<line x1="85.346" y1="35.072" x2="63.3904" y2="78.0896" stroke="rgb(128,0,127)" stroke-width="0.8"/>
<line x1="63.3904" y1="78.0896" x2="68.4704" y2="78.0896" stroke="rgb(128,0,127)" stroke-width="0.8"/>
<line x1="68.4704" y1="78.0896" x2="63.3904" y2="79.3596" stroke="rgb(128,0,127)" stroke-width="0.8"/>
<line x1="63.3904" y1="79.3596" x2="90.426" y2="36.342" stroke="rgb(128,0,127)" stroke-width="0.8"/>
<line x1="90.426" y1="36.342" x2="63.3904" y2="76.8196" stroke="rgb(128,0,127)" stroke-width="0.8"/>
<line x1="63.3904" y1="76.8196" x2="90.426" y2="35.072" stroke="rgb(128,0,127)" stroke-width="0.8"/>
<line x1="90.426" y1="35.072" x2="68.4704" y2="80.6296" stroke="rgb(128,0,127)" stroke-width="0.8"/>
<line x1="68.4704" y1="80.6296" x2="68.4704" y2="79.3596" stroke="rgb(128,0,127)" stroke-width="0.8"/>
<line x1="68.4704" y1="79.3596" x2="70.9856" y2="29.8742" stroke="rgb(128,0,127)" stroke-width="0.8"/>
<line x1="70.9856" y1="29.8742" x2="85.346" y2="38.882" stroke="rgb(128,0,127)" stroke-width="0.8"/>
<line x1="85.346" y1="38.882" x2="90.426" y2="38.882" stroke="rgb(128,0,127)" stroke-width="0.8"/>
<line x1="90.426" y1="38.882" x2="65.9056" y2="31.1442" stroke="rgb(128,0,127)" stroke-width="0.8"/>
<line x1="65.9056" y1="31.1442" x2="70.9856" y2="31.1442" stroke="rgb(128,0,127)" stroke-width="0.8"/>
<line x1="70.9856" y1="31.1442" x2="70.9856" y2="28.6042" stroke="rgb(128,0,127)" stroke-width="0.8"/>
<line x1="70.9856" y1="28.6042" x2="65.9056" y2="29.8742" stroke="rgb(128,0,127)" stroke-width="0.8"/>
<line x1="65.9056" y1="29.8742" x2="68.4704" y2="76.8196" stroke="rgb(128,0,127)" stroke-width="0.8"/>
<line x1="68.4704" y1="76.8196" x2="85.346" y2="37.612" stroke="rgb(128,0,127)" stroke-width="0.8"/>
<line x1="85.346" y1="37.612" x2="95" y2="95" stroke="rgb(128,0,127)" stroke-width="0.8"/>
<line x1="95" y1="95" x2="95" y2="5" stroke="rgb(128,0,127)" stroke-width="0.8"/>
<line x1="95" y1="5" x2="5" y2="95" stroke="rgb(128,0,127)" stroke-width="0.8"/>
<line x1="5" y1="95" x2="70.9856" y2="27.3342" stroke="rgb(128,0,127)" stroke-width="0.8"/>
<line x1="70.9856" y1="27.3342" x2="90.426" y2="37.612" stroke="rgb(128,0,127)" stroke-width="0.8"/>
<line x1="90.426" y1="37.612" x2="85.346" y2="36.342" stroke="rgb(128,0,127)" stroke-width="0.8"/>
<line x1="85.346" y1="36.342" x2="65.9056" y2="27.3342" stroke="rgb(128,0,127)" stroke-width="0.8"/>
<line x1="65.9056" y1="27.3342" x2="65.9056" y2="28.6042" stroke="rgb(128,0,127)" stroke-width="0.8"/>
<line x1="65.9056" y1="28.6042" x2="5" y2="5" stroke="rgb(128,0,127)" stroke-width="0.8"/>
</g>
<text x="0" y="10" font-family="Arial" font-size="10">Initial Solution (Cost: 1090.87)</text>
</g>
<g transform="translate(121.00,0)">
<rect x="-5.00" y="-5.00" width="110.00" height="110.00" fill="white"/>
<g>
<line x1="65.91" y1="27.33" x2="65.91" y2="28.60" stroke="rgb(128,0,127)" stroke-width="0.8"/>
<line x1="65.91" y1="28.60" x2="65.91" y2="29.87" stroke="rgb(128,0,127)" stroke-width="0.8"/>
<line x1="65.91" y1="29.87" x2="65.91" y2="31.14" stroke="rgb(128,0,127)" stroke-width="0.8"/>
<line x1="65.91" y1="31.14" x2="70.99" y2="31.14" stroke="rgb(128,0,127)" stroke-width="0.8"/>
<line x1="70.99" y1="31.14" x2="70.99" y2="29.87" stroke="rgb(128,0,127)" stroke-width="0.8"/>
<line x1="70.99" y1="29.87" x2="70.99" y2="28.60" stroke="rgb(128,0,127)" stroke-width="0.8"/>
<line x1="70.99" y1="28.60" x2="70.99" y2="27.33" stroke="rgb(128,0,127)" stroke-width="0.8"/>
<line x1="70.99" y1="27.33" x2="95.00" y2="5.00" stroke="rgb(128,0,127)" stroke-width="0.8"/>
<line x1="95.00" y1="5.00" x2="90.43" y2="35.07" stroke="rgb(128,0,127)" stroke-width="0.8"/>
<line x1="90.43" y1="35.07" x2="90.43" y2="36.34" stroke="rgb(128,0,127)" stroke-width="0.8"/>
<line x1="90.43" y1="36.34" x2="90.43" y2="37.61" stroke="rgb(128,0,127)" stroke-width="0.8"/>
<line x1="90.43" y1="37.61" x2="90.43" y2="38.88" stroke="rgb(128,0,127)" stroke-width="0.8"/>
<line x1="90.43" y1="38.88" x2="85.35" y2="35.07" stroke="rgb(128,0,127)" stroke-width="0.8"/>
<line x1="85.35" y1="35.07" x2="85.35" y2="36.34" stroke="rgb(128,0,127)" stroke-width="0.8"/>
<line x1="85.35" y1="36.34" x2="85.35" y2="37.61" stroke="rgb(128,0,127)" stroke-width="0.8"/>
<line x1="85.35" y1="37.61" x2="85.35" y2="38.88" stroke="rgb(128,0,127)" stroke-width="0.8"/>
<line x1="85.35" y1="38.88" x2="95.00" y2="95.00" stroke="rgb(128,0,127)" stroke-width="0.8"/>
<line x1="95.00" y1="95.00" x2="68.47" y2="80.63" stroke="rgb(128,0,127)" stroke-width="0.8"/>
<line x1="68.47" y1="80.63" x2="68.47" y2="79.36" stroke="rgb(128,0,127)" stroke-width="0.8"/>
<line x1="68.47" y1="79.36" x2="68.47" y2="78.09" stroke="rgb(128,0,127)" stroke-width="0.8"/>
<line x1="68.47" y1="78.09" x2="68.47" y2="76.82" stroke="rgb(128,0,127)" stroke-width="0.8"/>
<line x1="68.47" y1="76.82" x2="63.39" y2="76.82" stroke="rgb(128,0,127)" stroke-width="0.8"/>
<line x1="63.39" y1="76.82" x2="63.39" y2="78.09" stroke="rgb(128,0,127)" stroke-width="0.8"/>
<line x1="63.39" y1="78.09" x2="63.39" y2="79.36" stroke="rgb(128,0,127)" stroke-width="0.8"/>
<line x1="63.39" y1="79.36" x2="63.39" y2="80.63" stroke="rgb(128,0,127)" stroke-width="0.8"/>
<line x1="63.39" y1="80.63" x2="5.00" y2="95.00" stroke="rgb(128,0,127)" stroke-width="0.8"/>
<line x1="5.00" y1="95.00" x2="5.00" y2="5.00" stroke="rgb(128,0,127)" stroke-width="0.8"/>
<line x1="5.00" y1="5.00" x2="5.00" y2="5.00" stroke="rgb(128,0,127)" stroke-width="0.8"/>
</g>
<text x="0.00" y="10.00" font-family="Arial" font-size="10">Final Solution (Cost: 339.83)</text>
</g>
</svg>
