<?xml version="1.0" encoding="UTF-8" standalone="no"?>
<svg xmlns="http://www.w3.org/2000/svg" viewBox="-5 -5 135 135">
<rect x="-5" y="-5" width="135" height="135" fill="white"/>
<text x="0" y="10" font-family="Arial" font-size="10" fill="black">Iteration: 0 | Cost: 1940.66</text>
<g>
<line x1="5.00" y1="5.00" x2="118.63" y2="35.80" stroke="rgb(0,0,255)" stroke-width="0.8"/>
<line x1="118.63" y1="35.80" x2="107.43" y2="102.31" stroke="rgb(8,0,247)" stroke-width="0.8"/>
<line x1="107.43" y1="102.31" x2="48.28" y2="42.53" stroke="rgb(17,0,238)" stroke-width="0.8"/>
<line x1="48.28" y1="42.53" x2="109.97" y2="102.31" stroke="rgb(25,0,230)" stroke-width="0.8"/>
<line x1="109.97" y1="102.31" x2="112.51" y2="102.31" stroke="rgb(34,0,221)" stroke-width="0.8"/>
<line x1="112.51" y1="102.31" x2="118.63" y2="38.34" stroke="rgb(42,0,213)" stroke-width="0.8"/>
<line x1="118.63" y1="38.34" x2="115.05" y2="102.31" stroke="rgb(51,0,204)" stroke-width="0.8"/>
<line x1="115.05" y1="102.31" x2="22.90" y2="86.02" stroke="rgb(59,0,196)" stroke-width="0.8"/>
<line x1="22.90" y1="86.02" x2="27.98" y2="86.02" stroke="rgb(68,0,187)" stroke-width="0.8"/>
<line x1="27.98" y1="86.02" x2="53.36" y2="42.53" stroke="rgb(76,0,179)" stroke-width="0.8"/>
<line x1="53.36" y1="42.53" x2="55.90" y2="42.53" stroke="rgb(85,0,170)" stroke-width="0.8"/>
<line x1="55.90" y1="42.53" x2="117.59" y2="102.31" stroke="rgb(93,0,162)" stroke-width="0.8"/>
<line x1="117.59" y1="102.31" x2="120.00" y2="120.00" stroke="rgb(102,0,153)" stroke-width="0.8"/>
<line x1="120.00" y1="120.00" x2="27.98" y2="84.75" stroke="rgb(110,0,145)" stroke-width="0.8"/>
<line x1="27.98" y1="84.75" x2="27.98" y2="83.48" stroke="rgb(119,0,136)" stroke-width="0.8"/>
<line x1="27.98" y1="83.48" x2="22.90" y2="84.75" stroke="rgb(127,0,128)" stroke-width="0.8"/>
<line x1="22.90" y1="84.75" x2="113.55" y2="37.07" stroke="rgb(136,0,119)" stroke-width="0.8"/>
<line x1="113.55" y1="37.07" x2="118.63" y2="37.07" stroke="rgb(144,0,111)" stroke-width="0.8"/>
<line x1="118.63" y1="37.07" x2="118.63" y2="39.61" stroke="rgb(153,0,102)" stroke-width="0.8"/>
<line x1="118.63" y1="39.61" x2="5.00" y2="120.00" stroke="rgb(161,0,94)" stroke-width="0.8"/>
<line x1="5.00" y1="120.00" x2="22.90" y2="83.48" stroke="rgb(170,0,85)" stroke-width="0.8"/>
<line x1="22.90" y1="83.48" x2="113.55" y2="35.80" stroke="rgb(178,0,77)" stroke-width="0.8"/>
<line x1="113.55" y1="35.80" x2="22.90" y2="87.29" stroke="rgb(187,0,68)" stroke-width="0.8"/>
<line x1="22.90" y1="87.29" x2="120.00" y2="5.00" stroke="rgb(195,0,60)" stroke-width="0.8"/>
<line x1="120.00" y1="5.00" x2="27.98" y2="87.29" stroke="rgb(204,0,51)" stroke-width="0.8"/>
<line x1="27.98" y1="87.29" x2="113.55" y2="39.61" stroke="rgb(212,0,43)" stroke-width="0.8"/>
<line x1="113.55" y1="39.61" x2="50.82" y2="42.53" stroke="rgb(221,0,34)" stroke-width="0.8"/>
<line x1="50.82" y1="42.53" x2="113.55" y2="38.34" stroke="rgb(229,0,26)" stroke-width="0.8"/>
<line x1="113.55" y1="38.34" x2="45.74" y2="42.53" stroke="rgb(238,0,17)" stroke-width="0.8"/>
<line x1="45.74" y1="42.53" x2="5.00" y2="5.00" stroke="rgb(246,0,9)" stroke-width="0.8"/>
</g>
<g>
<circle cx="5.00" cy="5.00" r="2" fill="blue"/>
<text x="7.50" y="5.00" font-family="Arial" font-size="5" fill="black">0</text>
<circle cx="120.00" cy="5.00" r="2" fill="blue"/>
<text x="122.50" y="5.00" font-family="Arial" font-size="5" fill="black">1</text>
<circle cx="5.00" cy="120.00" r="2" fill="blue"/>
<text x="7.50" y="120.00" font-family="Arial" font-size="5" fill="black">2</text>
<circle cx="120.00" cy="120.00" r="2" fill="blue"/>
<text x="122.50" y="120.00" font-family="Arial" font-size="5" fill="black">3</text>
<circle cx="45.74" cy="42.53" r="2" fill="blue"/>
<text x="48.24" y="42.53" font-family="Arial" font-size="5" fill="black">4</text>
<circle cx="48.28" cy="42.53" r="2" fill="blue"/>
<text x="50.78" y="42.53" font-family="Arial" font-size="5" fill="black">5</text>
<circle cx="50.82" cy="42.53" r="2" fill="blue"/>
<text x="53.32" y="42.53" font-family="Arial" font-size="5" fill="black">6</text>
<circle cx="53.36" cy="42.53" r="2" fill="blue"/>
<text x="55.86" y="42.53" font-family="Arial" font-size="5" fill="black">7</text>
<circle cx="55.90" cy="42.53" r="2" fill="blue"/>
<text x="58.40" y="42.53" font-family="Arial" font-size="5" fill="black">8</text>
<circle cx="107.43" cy="102.31" r="2" fill="blue"/>
<text x="109.93" y="102.31" font-family="Arial" font-size="5" fill="black">9</text>
<circle cx="109.97" cy="102.31" r="2" fill="blue"/>
<text x="112.47" y="102.31" font-family="Arial" font-size="5" fill="black">10</text>
<circle cx="112.51" cy="102.31" r="2" fill="blue"/>
<text x="115.01" y="102.31" font-family="Arial" font-size="5" fill="black">11</text>
<circle cx="115.05" cy="102.31" r="2" fill="blue"/>
<text x="117.55" y="102.31" font-family="Arial" font-size="5" fill="black">12</text>
<circle cx="117.59" cy="102.31" r="2" fill="blue"/>
<text x="120.09" y="102.31" font-family="Arial" font-size="5" fill="black">13</text>
<circle cx="113.55" cy="35.80" r="2" fill="blue"/>
<text x="116.05" y="35.80" font-family="Arial" font-size="5" fill="black">14</text>
<circle cx="113.55" cy="37.07" r="2" fill="blue"/>
<text x="116.05" y="37.07" font-family="Arial" font-size="5" fill="black">15</text>
<circle cx="113.55" cy="38.34" r="2" fill="blue"/>
<text x="116.05" y="38.34" font-family="Arial" font-size="5" fill="black">16</text>
<circle cx="113.55" cy="39.61" r="2" fill="blue"/>
<text x="116.05" y="39.61" font-family="Arial" font-size="5" fill="black">17</text>
<circle cx="118.63" cy="35.80" r="2" fill="blue"/>
<text x="121.13" y="35.80" font-family="Arial" font-size="5" fill="black">18</text>
<circle cx="118.63" cy="37.07" r="2" fill="blue"/>
<text x="121.13" y="37.07" font-family="Arial" font-size="5" fill="black">19</text>
<circle cx="118.63" cy="38.34" r="2" fill="blue"/>
<text x="121.13" y="38.34" font-family="Arial" font-size="5" fill="black">20</text>
<circle cx="118.63" cy="39.61" r="2" fill="blue"/>
<text x="121.13" y="39.61" font-family="Arial" font-size="5" fill="black">21</text>
<circle cx="22.90" cy="83.48" r="2" fill="blue"/>
<text x="25.40" y="83.48" font-family="Arial" font-size="5" fill="black">22</text>
<circle cx="22.90" cy="84.75" r="2" fill="blue"/>
<text x="25.40" y="84.75" font-family="Arial" font-size="5" fill="black">23</text>
<circle cx="22.90" cy="86.02" r="2" fill="blue"/>
<text x="25.40" y="86.02" font-family="Arial" font-size="5" fill="black">24</text>
<circle cx="22.90" cy="87.29" r="2" fill="blue"/>
<text x="25.40" y="87.29" font-family="Arial" font-size="5" fill="black">25</text>
<circle cx="27.98" cy="83.48" r="2" fill="blue"/>
<text x="30.48" y="83.48" font-family="Arial" font-size="5" fill="black">26</text>
<circle cx="27.98" cy="84.75" r="2" fill="blue"/>
<text x="30.48" y="84.75" font-family="Arial" font-size="5" fill="black">27</text>
<circle cx="27.98" cy="86.02" r="2" fill="blue"/>
<text x="30.48" y="86.02" font-family="Arial" font-size="5" fill="black">28</text>
<circle cx="27.98" cy="87.29" r="2" fill="blue"/>
<text x="30.48" y="87.29" font-family="Arial" font-size="5" fill="black">29</text>
</g>
</svg>
