<?xml version="1.0" encoding="UTF-8" standalone="no"?>
<svg xmlns="http://www.w3.org/2000/svg" viewBox="-5 -5 85 85">
<rect x="-5" y="-5" width="85" height="85" fill="white"/>
<g>
<circle cx="5" cy="5" r="2" fill="blue"/>
<text x="7.5" y="5" font-family="Arial" font-size="5" fill="black">0</text>
<circle cx="70" cy="5" r="2" fill="blue"/>
<text x="72.5" y="5" font-family="Arial" font-size="5" fill="black">1</text>
<circle cx="5" cy="70" r="2" fill="blue"/>
<text x="7.5" y="70" font-family="Arial" font-size="5" fill="black">2</text>
<circle cx="70" cy="70" r="2" fill="blue"/>
<text x="72.5" y="70" font-family="Arial" font-size="5" fill="black">3</text>
<circle cx="34.0775" cy="34.1002" r="2" fill="blue"/>
<text x="36.5775" y="34.1002" font-family="Arial" font-size="5" fill="black">4</text>
<circle cx="34.0775" cy="35.3702" r="2" fill="blue"/>
<text x="36.5775" y="35.3702" font-family="Arial" font-size="5" fill="black">5</text>
<circle cx="34.0775" cy="36.6402" r="2" fill="blue"/>
<text x="36.5775" y="36.6402" font-family="Arial" font-size="5" fill="black">6</text>
<circle cx="34.0775" cy="37.9102" r="2" fill="blue"/>
<text x="36.5775" y="37.9102" font-family="Arial" font-size="5" fill="black">7</text>
<circle cx="39.1575" cy="34.1002" r="2" fill="blue"/>
<text x="41.6575" y="34.1002" font-family="Arial" font-size="5" fill="black">8</text>
<circle cx="39.1575" cy="35.3702" r="2" fill="blue"/>
<text x="41.6575" y="35.3702" font-family="Arial" font-size="5" fill="black">9</text>
<circle cx="39.1575" cy="36.6402" r="2" fill="blue"/>
<text x="41.6575" y="36.6402" font-family="Arial" font-size="5" fill="black">10</text>
<circle cx="39.1575" cy="37.9102" r="2" fill="blue"/>
<text x="41.6575" y="37.9102" font-family="Arial" font-size="5" fill="black">11</text>
<circle cx="33.9671" cy="8.03004" r="2" fill="blue"/>
<text x="36.4671" y="8.03004" font-family="Arial" font-size="5" fill="black">12</text>
<circle cx="33.9671" cy="10.57" r="2" fill="blue"/>
<text x="36.4671" y="10.57" font-family="Arial" font-size="5" fill="black">13</text>
<circle cx="33.9671" cy="13.11" r="2" fill="blue"/>
<text x="36.4671" y="13.11" font-family="Arial" font-size="5" fill="black">14</text>
<circle cx="33.9671" cy="15.65" r="2" fill="blue"/>
<text x="36.4671" y="15.65" font-family="Arial" font-size="5" fill="black">15</text>
<circle cx="33.9671" cy="18.19" r="2" fill="blue"/>
<text x="36.4671" y="18.19" font-family="Arial" font-size="5" fill="black">16</text>
<circle cx="33.9671" cy="20.73" r="2" fill="blue"/>
<text x="36.4671" y="20.73" font-family="Arial" font-size="5" fill="black">17</text>
<circle cx="33.9671" cy="23.27" r="2" fill="blue"/>
<text x="36.4671" y="23.27" font-family="Arial" font-size="5" fill="black">18</text>
<circle cx="41.5871" cy="8.03004" r="2" fill="blue"/>
<text x="44.0871" y="8.03004" font-family="Arial" font-size="5" fill="black">19</text>
<circle cx="41.5871" cy="10.57" r="2" fill="blue"/>
<text x="44.0871" y="10.57" font-family="Arial" font-size="5" fill="black">20</text>
<circle cx="41.5871" cy="13.11" r="2" fill="blue"/>
<text x="44.0871" y="13.11" font-family="Arial" font-size="5" fill="black">21</text>
<circle cx="41.5871" cy="15.65" r="2" fill="blue"/>
<text x="44.0871" y="15.65" font-family="Arial" font-size="5" fill="black">22</text>
<circle cx="41.5871" cy="18.19" r="2" fill="blue"/>
<text x="44.0871" y="18.19" font-family="Arial" font-size="5" fill="black">23</text>
<circle cx="41.5871" cy="20.73" r="2" fill="blue"/>
<text x="44.0871" y="20.73" font-family="Arial" font-size="5" fill="black">24</text>
<circle cx="41.5871" cy="23.27" r="2" fill="blue"/>
<text x="44.0871" y="23.27" font-family="Arial" font-size="5" fill="black">25</text>
<circle cx="11.8146" cy="17.7678" r="2" fill="blue"/>
<text x="14.3146" y="17.7678" font-family="Arial" font-size="5" fill="black">26</text>
<circle cx="11.8146" cy="20.3078" r="2" fill="blue"/>
<text x="14.3146" y="20.3078" font-family="Arial" font-size="5" fill="black">27</text>
<circle cx="11.8146" cy="22.8478" r="2" fill="blue"/>
<text x="14.3146" y="22.8478" font-family="Arial" font-size="5" fill="black">28</text>
<circle cx="11.8146" cy="25.3878" r="2" fill="blue"/>
<text x="14.3146" y="25.3878" font-family="Arial" font-size="5" fill="black">29</text>
<circle cx="11.8146" cy="27.9278" r="2" fill="blue"/>
<text x="14.3146" y="27.9278" font-family="Arial" font-size="5" fill="black">30</text>
<circle cx="11.8146" cy="30.4678" r="2" fill="blue"/>
<text x="14.3146" y="30.4678" font-family="Arial" font-size="5" fill="black">31</text>
<circle cx="11.8146" cy="33.0078" r="2" fill="blue"/>
<text x="14.3146" y="33.0078" font-family="Arial" font-size="5" fill="black">32</text>
<circle cx="19.4346" cy="17.7678" r="2" fill="blue"/>
<text x="21.9346" y="17.7678" font-family="Arial" font-size="5" fill="black">33</text>
<circle cx="19.4346" cy="20.3078" r="2" fill="blue"/>
<text x="21.9346" y="20.3078" font-family="Arial" font-size="5" fill="black">34</text>
<circle cx="19.4346" cy="22.8478" r="2" fill="blue"/>
<text x="21.9346" y="22.8478" font-family="Arial" font-size="5" fill="black">35</text>
<circle cx="19.4346" cy="25.3878" r="2" fill="blue"/>
<text x="21.9346" y="25.3878" font-family="Arial" font-size="5" fill="black">36</text>
<circle cx="19.4346" cy="27.9278" r="2" fill="blue"/>
<text x="21.9346" y="27.9278" font-family="Arial" font-size="5" fill="black">37</text>
<circle cx="19.4346" cy="30.4678" r="2" fill="blue"/>
<text x="21.9346" y="30.4678" font-family="Arial" font-size="5" fill="black">38</text>
<circle cx="19.4346" cy="33.0078" r="2" fill="blue"/>
<text x="21.9346" y="33.0078" font-family="Arial" font-size="5" fill="black">39</text>
</g>
</svg>
