<?xml version="1.0" encoding="UTF-8" standalone="no"?>
<svg xmlns="http://www.w3.org/2000/svg" viewBox="-5 -5 110 110">
<rect x="-5" y="-5" width="110" height="110" fill="white"/>
<text x="0" y="10" font-family="Arial" font-size="10" fill="black">Iteration: 0 | Cost: 1493.26</text>
<g>
<line x1="5.00" y1="5.00" x2="13.71" y2="54.57" stroke="rgb(0,0,255)" stroke-width="0.8"/>
<line x1="13.71" y1="54.57" x2="78.54" y2="74.83" stroke="rgb(6,0,249)" stroke-width="0.8"/>
<line x1="78.54" y1="74.83" x2="78.54" y2="79.91" stroke="rgb(13,0,242)" stroke-width="0.8"/>
<line x1="78.54" y1="79.91" x2="78.54" y2="82.45" stroke="rgb(20,0,235)" stroke-width="0.8"/>
<line x1="78.54" y1="82.45" x2="21.33" y2="54.57" stroke="rgb(27,0,228)" stroke-width="0.8"/>
<line x1="21.33" y1="54.57" x2="86.16" y2="82.45" stroke="rgb(34,0,221)" stroke-width="0.8"/>
<line x1="86.16" y1="82.45" x2="21.33" y2="52.03" stroke="rgb(41,0,214)" stroke-width="0.8"/>
<line x1="21.33" y1="52.03" x2="21.33" y2="57.11" stroke="rgb(48,0,207)" stroke-width="0.8"/>
<line x1="21.33" y1="57.11" x2="42.63" y2="54.95" stroke="rgb(55,0,200)" stroke-width="0.8"/>
<line x1="42.63" y1="54.95" x2="13.71" y2="46.95" stroke="rgb(62,0,193)" stroke-width="0.8"/>
<line x1="13.71" y1="46.95" x2="95.00" y2="5.00" stroke="rgb(68,0,187)" stroke-width="0.8"/>
<line x1="95.00" y1="5.00" x2="13.71" y2="52.03" stroke="rgb(75,0,180)" stroke-width="0.8"/>
<line x1="13.71" y1="52.03" x2="86.16" y2="77.37" stroke="rgb(82,0,173)" stroke-width="0.8"/>
<line x1="86.16" y1="77.37" x2="86.16" y2="79.91" stroke="rgb(89,0,166)" stroke-width="0.8"/>
<line x1="86.16" y1="79.91" x2="86.16" y2="84.99" stroke="rgb(96,0,159)" stroke-width="0.8"/>
<line x1="86.16" y1="84.99" x2="78.54" y2="84.99" stroke="rgb(103,0,152)" stroke-width="0.8"/>
<line x1="78.54" y1="84.99" x2="21.33" y2="59.65" stroke="rgb(110,0,145)" stroke-width="0.8"/>
<line x1="21.33" y1="59.65" x2="21.33" y2="49.49" stroke="rgb(117,0,138)" stroke-width="0.8"/>
<line x1="21.33" y1="49.49" x2="13.71" y2="57.11" stroke="rgb(124,0,131)" stroke-width="0.8"/>
<line x1="13.71" y1="57.11" x2="86.16" y2="74.83" stroke="rgb(130,0,125)" stroke-width="0.8"/>
<line x1="86.16" y1="74.83" x2="95.00" y2="95.00" stroke="rgb(137,0,118)" stroke-width="0.8"/>
<line x1="95.00" y1="95.00" x2="5.00" y2="95.00" stroke="rgb(144,0,111)" stroke-width="0.8"/>
<line x1="5.00" y1="95.00" x2="13.71" y2="49.49" stroke="rgb(151,0,104)" stroke-width="0.8"/>
<line x1="13.71" y1="49.49" x2="40.09" y2="54.95" stroke="rgb(158,0,97)" stroke-width="0.8"/>
<line x1="40.09" y1="54.95" x2="47.71" y2="54.95" stroke="rgb(165,0,90)" stroke-width="0.8"/>
<line x1="47.71" y1="54.95" x2="86.16" y2="69.75" stroke="rgb(172,0,83)" stroke-width="0.8"/>
<line x1="86.16" y1="69.75" x2="21.33" y2="46.95" stroke="rgb(179,0,76)" stroke-width="0.8"/>
<line x1="21.33" y1="46.95" x2="86.16" y2="72.29" stroke="rgb(186,0,69)" stroke-width="0.8"/>
<line x1="86.16" y1="72.29" x2="78.54" y2="77.37" stroke="rgb(192,0,63)" stroke-width="0.8"/>
<line x1="78.54" y1="77.37" x2="37.55" y2="54.95" stroke="rgb(199,0,56)" stroke-width="0.8"/>
<line x1="37.55" y1="54.95" x2="78.54" y2="69.75" stroke="rgb(206,0,49)" stroke-width="0.8"/>
<line x1="78.54" y1="69.75" x2="78.54" y2="72.29" stroke="rgb(213,0,42)" stroke-width="0.8"/>
<line x1="78.54" y1="72.29" x2="13.71" y2="44.41" stroke="rgb(220,0,35)" stroke-width="0.8"/>
<line x1="13.71" y1="44.41" x2="45.17" y2="54.95" stroke="rgb(227,0,28)" stroke-width="0.8"/>
<line x1="45.17" y1="54.95" x2="13.71" y2="59.65" stroke="rgb(234,0,21)" stroke-width="0.8"/>
<line x1="13.71" y1="59.65" x2="21.33" y2="44.41" stroke="rgb(241,0,14)" stroke-width="0.8"/>
<line x1="21.33" y1="44.41" x2="5.00" y2="5.00" stroke="rgb(248,0,7)" stroke-width="0.8"/>
</g>
<g>
<circle cx="5.00" cy="5.00" r="2" fill="blue"/>
<text x="7.50" y="5.00" font-family="Arial" font-size="5" fill="black">0</text>
<circle cx="95.00" cy="5.00" r="2" fill="blue"/>
<text x="97.50" y="5.00" font-family="Arial" font-size="5" fill="black">1</text>
<circle cx="5.00" cy="95.00" r="2" fill="blue"/>
<text x="7.50" y="95.00" font-family="Arial" font-size="5" fill="black">2</text>
<circle cx="95.00" cy="95.00" r="2" fill="blue"/>
<text x="97.50" y="95.00" font-family="Arial" font-size="5" fill="black">3</text>
<circle cx="78.54" cy="69.75" r="2" fill="blue"/>
<text x="81.04" y="69.75" font-family="Arial" font-size="5" fill="black">4</text>
<circle cx="78.54" cy="72.29" r="2" fill="blue"/>
<text x="81.04" y="72.29" font-family="Arial" font-size="5" fill="black">5</text>
<circle cx="78.54" cy="74.83" r="2" fill="blue"/>
<text x="81.04" y="74.83" font-family="Arial" font-size="5" fill="black">6</text>
<circle cx="78.54" cy="77.37" r="2" fill="blue"/>
<text x="81.04" y="77.37" font-family="Arial" font-size="5" fill="black">7</text>
<circle cx="78.54" cy="79.91" r="2" fill="blue"/>
<text x="81.04" y="79.91" font-family="Arial" font-size="5" fill="black">8</text>
<circle cx="78.54" cy="82.45" r="2" fill="blue"/>
<text x="81.04" y="82.45" font-family="Arial" font-size="5" fill="black">9</text>
<circle cx="78.54" cy="84.99" r="2" fill="blue"/>
<text x="81.04" y="84.99" font-family="Arial" font-size="5" fill="black">10</text>
<circle cx="86.16" cy="69.75" r="2" fill="blue"/>
<text x="88.66" y="69.75" font-family="Arial" font-size="5" fill="black">11</text>
<circle cx="86.16" cy="72.29" r="2" fill="blue"/>
<text x="88.66" y="72.29" font-family="Arial" font-size="5" fill="black">12</text>
<circle cx="86.16" cy="74.83" r="2" fill="blue"/>
<text x="88.66" y="74.83" font-family="Arial" font-size="5" fill="black">13</text>
<circle cx="86.16" cy="77.37" r="2" fill="blue"/>
<text x="88.66" y="77.37" font-family="Arial" font-size="5" fill="black">14</text>
<circle cx="86.16" cy="79.91" r="2" fill="blue"/>
<text x="88.66" y="79.91" font-family="Arial" font-size="5" fill="black">15</text>
<circle cx="86.16" cy="82.45" r="2" fill="blue"/>
<text x="88.66" y="82.45" font-family="Arial" font-size="5" fill="black">16</text>
<circle cx="86.16" cy="84.99" r="2" fill="blue"/>
<text x="88.66" y="84.99" font-family="Arial" font-size="5" fill="black">17</text>
<circle cx="37.55" cy="54.95" r="2" fill="blue"/>
<text x="40.05" y="54.95" font-family="Arial" font-size="5" fill="black">18</text>
<circle cx="40.09" cy="54.95" r="2" fill="blue"/>
<text x="42.59" y="54.95" font-family="Arial" font-size="5" fill="black">19</text>
<circle cx="42.63" cy="54.95" r="2" fill="blue"/>
<text x="45.13" y="54.95" font-family="Arial" font-size="5" fill="black">20</text>
<circle cx="45.17" cy="54.95" r="2" fill="blue"/>
<text x="47.67" y="54.95" font-family="Arial" font-size="5" fill="black">21</text>
<circle cx="47.71" cy="54.95" r="2" fill="blue"/>
<text x="50.21" y="54.95" font-family="Arial" font-size="5" fill="black">22</text>
<circle cx="13.71" cy="44.41" r="2" fill="blue"/>
<text x="16.21" y="44.41" font-family="Arial" font-size="5" fill="black">23</text>
<circle cx="13.71" cy="46.95" r="2" fill="blue"/>
<text x="16.21" y="46.95" font-family="Arial" font-size="5" fill="black">24</text>
<circle cx="13.71" cy="49.49" r="2" fill="blue"/>
<text x="16.21" y="49.49" font-family="Arial" font-size="5" fill="black">25</text>
<circle cx="13.71" cy="52.03" r="2" fill="blue"/>
<text x="16.21" y="52.03" font-family="Arial" font-size="5" fill="black">26</text>
<circle cx="13.71" cy="54.57" r="2" fill="blue"/>
<text x="16.21" y="54.57" font-family="Arial" font-size="5" fill="black">27</text>
<circle cx="13.71" cy="57.11" r="2" fill="blue"/>
<text x="16.21" y="57.11" font-family="Arial" font-size="5" fill="black">28</text>
<circle cx="13.71" cy="59.65" r="2" fill="blue"/>
<text x="16.21" y="59.65" font-family="Arial" font-size="5" fill="black">29</text>
<circle cx="21.33" cy="44.41" r="2" fill="blue"/>
<text x="23.83" y="44.41" font-family="Arial" font-size="5" fill="black">30</text>
<circle cx="21.33" cy="46.95" r="2" fill="blue"/>
<text x="23.83" y="46.95" font-family="Arial" font-size="5" fill="black">31</text>
<circle cx="21.33" cy="49.49" r="2" fill="blue"/>
<text x="23.83" y="49.49" font-family="Arial" font-size="5" fill="black">32</text>
<circle cx="21.33" cy="52.03" r="2" fill="blue"/>
<text x="23.83" y="52.03" font-family="Arial" font-size="5" fill="black">33</text>
<circle cx="21.33" cy="54.57" r="2" fill="blue"/>
<text x="23.83" y="54.57" font-family="Arial" font-size="5" fill="black">34</text>
<circle cx="21.33" cy="57.11" r="2" fill="blue"/>
<text x="23.83" y="57.11" font-family="Arial" font-size="5" fill="black">35</text>
<circle cx="21.33" cy="59.65" r="2" fill="blue"/>
<text x="23.83" y="59.65" font-family="Arial" font-size="5" fill="black">36</text>
</g>
</svg>
