<?xml version="1.0" encoding="UTF-8" standalone="no"?>
<svg xmlns="http://www.w3.org/2000/svg" width="1760" height="800" viewBox="-189.474 -189.474 1760 800">
<g transform="translate(0,0)">
<rect x="-189.474" y="-189.474" width="800" height="800" fill="white"/>
<g>
<line x1="21.0526" y1="21.0526" x2="287.596" y2="100.808" stroke="rgb(128,0,127)" stroke-width="2"/>
<line x1="287.596" y1="100.808" x2="21.0526" y2="400" stroke="rgb(128,0,127)" stroke-width="2"/>
<line x1="21.0526" y1="400" x2="400" y2="21.0526" stroke="rgb(128,0,127)" stroke-width="2"/>
<line x1="400" y1="21.0526" x2="106.513" y2="241.413" stroke="rgb(128,0,127)" stroke-width="2"/>
<line x1="106.513" y1="241.413" x2="106.513" y2="246.76" stroke="rgb(128,0,127)" stroke-width="2"/>
<line x1="106.513" y1="246.76" x2="127.902" y2="241.413" stroke="rgb(128,0,127)" stroke-width="2"/>
<line x1="127.902" y1="241.413" x2="266.207" y2="100.808" stroke="rgb(128,0,127)" stroke-width="2"/>
<line x1="266.207" y1="100.808" x2="287.596" y2="84.7662" stroke="rgb(128,0,127)" stroke-width="2"/>
<line x1="287.596" y1="84.7662" x2="127.902" y2="230.718" stroke="rgb(128,0,127)" stroke-width="2"/>
<line x1="127.902" y1="230.718" x2="287.596" y2="95.4609" stroke="rgb(128,0,127)" stroke-width="2"/>
<line x1="287.596" y1="95.4609" x2="351.492" y2="254.169" stroke="rgb(128,0,127)" stroke-width="2"/>
<line x1="351.492" y1="254.169" x2="340.797" y2="254.169" stroke="rgb(128,0,127)" stroke-width="2"/>
<line x1="340.797" y1="254.169" x2="127.902" y2="246.76" stroke="rgb(128,0,127)" stroke-width="2"/>
<line x1="127.902" y1="246.76" x2="106.513" y2="230.718" stroke="rgb(128,0,127)" stroke-width="2"/>
<line x1="106.513" y1="230.718" x2="400" y2="400" stroke="rgb(128,0,127)" stroke-width="2"/>
<line x1="400" y1="400" x2="266.207" y2="95.4609" stroke="rgb(128,0,127)" stroke-width="2"/>
<line x1="266.207" y1="95.4609" x2="308.713" y2="254.169" stroke="rgb(128,0,127)" stroke-width="2"/>
<line x1="308.713" y1="254.169" x2="330.102" y2="254.169" stroke="rgb(128,0,127)" stroke-width="2"/>
<line x1="330.102" y1="254.169" x2="319.408" y2="254.169" stroke="rgb(128,0,127)" stroke-width="2"/>
<line x1="319.408" y1="254.169" x2="127.902" y2="236.065" stroke="rgb(128,0,127)" stroke-width="2"/>
<line x1="127.902" y1="236.065" x2="266.207" y2="84.7662" stroke="rgb(128,0,127)" stroke-width="2"/>
<line x1="266.207" y1="84.7662" x2="106.513" y2="236.065" stroke="rgb(128,0,127)" stroke-width="2"/>
<line x1="106.513" y1="236.065" x2="266.207" y2="90.1136" stroke="rgb(128,0,127)" stroke-width="2"/>
<line x1="266.207" y1="90.1136" x2="287.596" y2="90.1136" stroke="rgb(128,0,127)" stroke-width="2"/>
<line x1="287.596" y1="90.1136" x2="21.0526" y2="21.0526" stroke="rgb(128,0,127)" stroke-width="2"/>
</g>
<g>
<circle cx="21.0526" cy="21.0526" r="8" fill="blue"/>
<text x="36.0526" y="26.0526" font-family="Arial" font-size="12" fill="black">0</text>
<circle cx="400" cy="21.0526" r="8" fill="blue"/>
<text x="415" y="26.0526" font-family="Arial" font-size="12" fill="black">1</text>
<circle cx="21.0526" cy="400" r="8" fill="blue"/>
<text x="36.0526" y="405" font-family="Arial" font-size="12" fill="black">2</text>
<circle cx="400" cy="400" r="8" fill="blue"/>
<text x="415" y="405" font-family="Arial" font-size="12" fill="black">3</text>
<circle cx="308.713" cy="254.169" r="8" fill="blue"/>
<text x="323.713" y="259.169" font-family="Arial" font-size="12" fill="black">4</text>
<circle cx="319.408" cy="254.169" r="8" fill="blue"/>
<text x="334.408" y="259.169" font-family="Arial" font-size="12" fill="black">5</text>
<circle cx="330.102" cy="254.169" r="8" fill="blue"/>
<text x="345.102" y="259.169" font-family="Arial" font-size="12" fill="black">6</text>
<circle cx="340.797" cy="254.169" r="8" fill="blue"/>
<text x="355.797" y="259.169" font-family="Arial" font-size="12" fill="black">7</text>
<circle cx="351.492" cy="254.169" r="8" fill="blue"/>
<text x="366.492" y="259.169" font-family="Arial" font-size="12" fill="black">8</text>
<circle cx="266.207" cy="84.7662" r="8" fill="blue"/>
<text x="281.207" y="89.7662" font-family="Arial" font-size="12" fill="black">9</text>
<circle cx="266.207" cy="90.1136" r="8" fill="blue"/>
<text x="281.207" y="95.1136" font-family="Arial" font-size="12" fill="black">10</text>
<circle cx="266.207" cy="95.4609" r="8" fill="blue"/>
<text x="281.207" y="100.461" font-family="Arial" font-size="12" fill="black">11</text>
<circle cx="266.207" cy="100.808" r="8" fill="blue"/>
<text x="281.207" y="105.808" font-family="Arial" font-size="12" fill="black">12</text>
<circle cx="287.596" cy="84.7662" r="8" fill="blue"/>
<text x="302.596" y="89.7662" font-family="Arial" font-size="12" fill="black">13</text>
<circle cx="287.596" cy="90.1136" r="8" fill="blue"/>
<text x="302.596" y="95.1136" font-family="Arial" font-size="12" fill="black">14</text>
<circle cx="287.596" cy="95.4609" r="8" fill="blue"/>
<text x="302.596" y="100.461" font-family="Arial" font-size="12" fill="black">15</text>
<circle cx="287.596" cy="100.808" r="8" fill="blue"/>
<text x="302.596" y="105.808" font-family="Arial" font-size="12" fill="black">16</text>
<circle cx="106.513" cy="230.718" r="8" fill="blue"/>
<text x="121.513" y="235.718" font-family="Arial" font-size="12" fill="black">17</text>
<circle cx="106.513" cy="236.065" r="8" fill="blue"/>
<text x="121.513" y="241.065" font-family="Arial" font-size="12" fill="black">18</text>
<circle cx="106.513" cy="241.413" r="8" fill="blue"/>
<text x="121.513" y="246.413" font-family="Arial" font-size="12" fill="black">19</text>
<circle cx="106.513" cy="246.76" r="8" fill="blue"/>
<text x="121.513" y="251.76" font-family="Arial" font-size="12" fill="black">20</text>
<circle cx="127.902" cy="230.718" r="8" fill="blue"/>
<text x="142.902" y="235.718" font-family="Arial" font-size="12" fill="black">21</text>
<circle cx="127.902" cy="236.065" r="8" fill="blue"/>
<text x="142.902" y="241.065" font-family="Arial" font-size="12" fill="black">22</text>
<circle cx="127.902" cy="241.413" r="8" fill="blue"/>
<text x="142.902" y="246.413" font-family="Arial" font-size="12" fill="black">23</text>
<circle cx="127.902" cy="246.76" r="8" fill="blue"/>
<text x="142.902" y="251.76" font-family="Arial" font-size="12" fill="black">24</text>
</g>
<text x="-164.474" y="-164.474" font-family="Arial" font-size="14.4" fill="black"> Cost: 1111.17</text>
</g>
<g transform="translate(880.00,0)">
<rect x="-189.47" y="-189.47" width="800.00" height="800.00" fill="white"/>
<g>
<line x1="127.90" y1="230.72" x2="127.90" y2="236.07" stroke="rgb(128,0,127)" stroke-width="2.00"/>
<line x1="127.90" y1="236.07" x2="127.90" y2="241.41" stroke="rgb(128,0,127)" stroke-width="2.00"/>
<line x1="127.90" y1="241.41" x2="127.90" y2="246.76" stroke="rgb(128,0,127)" stroke-width="2.00"/>
<line x1="127.90" y1="246.76" x2="106.51" y2="230.72" stroke="rgb(128,0,127)" stroke-width="2.00"/>
<line x1="106.51" y1="230.72" x2="106.51" y2="236.07" stroke="rgb(128,0,127)" stroke-width="2.00"/>
<line x1="106.51" y1="236.07" x2="106.51" y2="241.41" stroke="rgb(128,0,127)" stroke-width="2.00"/>
<line x1="106.51" y1="241.41" x2="106.51" y2="246.76" stroke="rgb(128,0,127)" stroke-width="2.00"/>
<line x1="106.51" y1="246.76" x2="21.05" y2="400.00" stroke="rgb(128,0,127)" stroke-width="2.00"/>
<line x1="21.05" y1="400.00" x2="400.00" y2="400.00" stroke="rgb(128,0,127)" stroke-width="2.00"/>
<line x1="400.00" y1="400.00" x2="351.49" y2="254.17" stroke="rgb(128,0,127)" stroke-width="2.00"/>
<line x1="351.49" y1="254.17" x2="340.80" y2="254.17" stroke="rgb(128,0,127)" stroke-width="2.00"/>
<line x1="340.80" y1="254.17" x2="330.10" y2="254.17" stroke="rgb(128,0,127)" stroke-width="2.00"/>
<line x1="330.10" y1="254.17" x2="319.41" y2="254.17" stroke="rgb(128,0,127)" stroke-width="2.00"/>
<line x1="319.41" y1="254.17" x2="308.71" y2="254.17" stroke="rgb(128,0,127)" stroke-width="2.00"/>
<line x1="308.71" y1="254.17" x2="400.00" y2="21.05" stroke="rgb(128,0,127)" stroke-width="2.00"/>
<line x1="400.00" y1="21.05" x2="287.60" y2="84.77" stroke="rgb(128,0,127)" stroke-width="2.00"/>
<line x1="287.60" y1="84.77" x2="287.60" y2="90.11" stroke="rgb(128,0,127)" stroke-width="2.00"/>
<line x1="287.60" y1="90.11" x2="287.60" y2="95.46" stroke="rgb(128,0,127)" stroke-width="2.00"/>
<line x1="287.60" y1="95.46" x2="287.60" y2="100.81" stroke="rgb(128,0,127)" stroke-width="2.00"/>
<line x1="287.60" y1="100.81" x2="266.21" y2="100.81" stroke="rgb(128,0,127)" stroke-width="2.00"/>
<line x1="266.21" y1="100.81" x2="266.21" y2="95.46" stroke="rgb(128,0,127)" stroke-width="2.00"/>
<line x1="266.21" y1="95.46" x2="266.21" y2="90.11" stroke="rgb(128,0,127)" stroke-width="2.00"/>
<line x1="266.21" y1="90.11" x2="266.21" y2="84.77" stroke="rgb(128,0,127)" stroke-width="2.00"/>
<line x1="266.21" y1="84.77" x2="21.05" y2="21.05" stroke="rgb(128,0,127)" stroke-width="2.00"/>
<line x1="21.05" y1="21.05" x2="21.05" y2="21.05" stroke="rgb(128,0,127)" stroke-width="2.00"/>
</g>
<g>
<circle cx="21.05" cy="21.05" r="8.00" fill="blue"/>
<text x="36.05" y="26.05" font-family="Arial" font-size="12.00" fill="black">0</text>
<circle cx="400.00" cy="21.05" r="8.00" fill="blue"/>
<text x="415.00" y="26.05" font-family="Arial" font-size="12.00" fill="black">1</text>
<circle cx="21.05" cy="400.00" r="8.00" fill="blue"/>
<text x="36.05" y="405.00" font-family="Arial" font-size="12.00" fill="black">2</text>
<circle cx="400.00" cy="400.00" r="8.00" fill="blue"/>
<text x="415.00" y="405.00" font-family="Arial" font-size="12.00" fill="black">3</text>
<circle cx="308.71" cy="254.17" r="8.00" fill="blue"/>
<text x="323.71" y="259.17" font-family="Arial" font-size="12.00" fill="black">4</text>
<circle cx="319.41" cy="254.17" r="8.00" fill="blue"/>
<text x="334.41" y="259.17" font-family="Arial" font-size="12.00" fill="black">5</text>
<circle cx="330.10" cy="254.17" r="8.00" fill="blue"/>
<text x="345.10" y="259.17" font-family="Arial" font-size="12.00" fill="black">6</text>
<circle cx="340.80" cy="254.17" r="8.00" fill="blue"/>
<text x="355.80" y="259.17" font-family="Arial" font-size="12.00" fill="black">7</text>
<circle cx="351.49" cy="254.17" r="8.00" fill="blue"/>
<text x="366.49" y="259.17" font-family="Arial" font-size="12.00" fill="black">8</text>
<circle cx="266.21" cy="84.77" r="8.00" fill="blue"/>
<text x="281.21" y="89.77" font-family="Arial" font-size="12.00" fill="black">9</text>
<circle cx="266.21" cy="90.11" r="8.00" fill="blue"/>
<text x="281.21" y="95.11" font-family="Arial" font-size="12.00" fill="black">10</text>
<circle cx="266.21" cy="95.46" r="8.00" fill="blue"/>
<text x="281.21" y="100.46" font-family="Arial" font-size="12.00" fill="black">11</text>
<circle cx="266.21" cy="100.81" r="8.00" fill="blue"/>
<text x="281.21" y="105.81" font-family="Arial" font-size="12.00" fill="black">12</text>
<circle cx="287.60" cy="84.77" r="8.00" fill="blue"/>
<text x="302.60" y="89.77" font-family="Arial" font-size="12.00" fill="black">13</text>
<circle cx="287.60" cy="90.11" r="8.00" fill="blue"/>
<text x="302.60" y="95.11" font-family="Arial" font-size="12.00" fill="black">14</text>
<circle cx="287.60" cy="95.46" r="8.00" fill="blue"/>
<text x="302.60" y="100.46" font-family="Arial" font-size="12.00" fill="black">15</text>
<circle cx="287.60" cy="100.81" r="8.00" fill="blue"/>
<text x="302.60" y="105.81" font-family="Arial" font-size="12.00" fill="black">16</text>
<circle cx="106.51" cy="230.72" r="8.00" fill="blue"/>
<text x="121.51" y="235.72" font-family="Arial" font-size="12.00" fill="black">17</text>
<circle cx="106.51" cy="236.07" r="8.00" fill="blue"/>
<text x="121.51" y="241.07" font-family="Arial" font-size="12.00" fill="black">18</text>
<circle cx="106.51" cy="241.41" r="8.00" fill="blue"/>
<text x="121.51" y="246.41" font-family="Arial" font-size="12.00" fill="black">19</text>
<circle cx="106.51" cy="246.76" r="8.00" fill="blue"/>
<text x="121.51" y="251.76" font-family="Arial" font-size="12.00" fill="black">20</text>
<circle cx="127.90" cy="230.72" r="8.00" fill="blue"/>
<text x="142.90" y="235.72" font-family="Arial" font-size="12.00" fill="black">21</text>
<circle cx="127.90" cy="236.07" r="8.00" fill="blue"/>
<text x="142.90" y="241.07" font-family="Arial" font-size="12.00" fill="black">22</text>
<circle cx="127.90" cy="241.41" r="8.00" fill="blue"/>
<text x="142.90" y="246.41" font-family="Arial" font-size="12.00" fill="black">23</text>
<circle cx="127.90" cy="246.76" r="8.00" fill="blue"/>
<text x="142.90" y="251.76" font-family="Arial" font-size="12.00" fill="black">24</text>
</g>
<text x="-164.47" y="-164.47" font-family="Arial" font-size="14.40" fill="black"> Cost: 355.31</text>
</g>
</svg>
