<?xml version="1.0" encoding="UTF-8" standalone="no"?>
<svg xmlns="http://www.w3.org/2000/svg" viewBox="-5 -5 60 60">
<rect x="-5" y="-5" width="60" height="60" fill="white"/>
<text x="0" y="10" font-family="Arial" font-size="10" fill="black">Iteration: 0 | Cost: 331.99</text>
<g>
<line x1="5.00" y1="5.00" x2="25.83" y2="28.72" stroke="rgb(0,0,255)" stroke-width="0.8"/>
<line x1="25.83" y1="28.72" x2="33.45" y2="28.72" stroke="rgb(18,0,237)" stroke-width="0.8"/>
<line x1="33.45" y1="28.72" x2="14.52" y2="42.93" stroke="rgb(36,0,219)" stroke-width="0.8"/>
<line x1="14.52" y1="42.93" x2="45.00" y2="5.00" stroke="rgb(54,0,201)" stroke-width="0.8"/>
<line x1="45.00" y1="5.00" x2="22.14" y2="42.93" stroke="rgb(72,0,183)" stroke-width="0.8"/>
<line x1="22.14" y1="42.93" x2="24.68" y2="42.93" stroke="rgb(91,0,164)" stroke-width="0.8"/>
<line x1="24.68" y1="42.93" x2="19.60" y2="42.93" stroke="rgb(109,0,146)" stroke-width="0.8"/>
<line x1="19.60" y1="42.93" x2="30.91" y2="28.72" stroke="rgb(127,0,128)" stroke-width="0.8"/>
<line x1="30.91" y1="28.72" x2="45.00" y2="45.00" stroke="rgb(145,0,110)" stroke-width="0.8"/>
<line x1="45.00" y1="45.00" x2="5.00" y2="45.00" stroke="rgb(163,0,92)" stroke-width="0.8"/>
<line x1="5.00" y1="45.00" x2="28.37" y2="28.72" stroke="rgb(182,0,73)" stroke-width="0.8"/>
<line x1="28.37" y1="28.72" x2="23.29" y2="28.72" stroke="rgb(200,0,55)" stroke-width="0.8"/>
<line x1="23.29" y1="28.72" x2="17.06" y2="42.93" stroke="rgb(218,0,37)" stroke-width="0.8"/>
<line x1="17.06" y1="42.93" x2="5.00" y2="5.00" stroke="rgb(236,0,19)" stroke-width="0.8"/>
</g>
<g>
<circle cx="5.00" cy="5.00" r="2" fill="blue"/>
<text x="7.50" y="5.00" font-family="Arial" font-size="5" fill="black">0</text>
<circle cx="45.00" cy="5.00" r="2" fill="blue"/>
<text x="47.50" y="5.00" font-family="Arial" font-size="5" fill="black">1</text>
<circle cx="5.00" cy="45.00" r="2" fill="blue"/>
<text x="7.50" y="45.00" font-family="Arial" font-size="5" fill="black">2</text>
<circle cx="45.00" cy="45.00" r="2" fill="blue"/>
<text x="47.50" y="45.00" font-family="Arial" font-size="5" fill="black">3</text>
<circle cx="14.52" cy="42.93" r="2" fill="blue"/>
<text x="17.02" y="42.93" font-family="Arial" font-size="5" fill="black">4</text>
<circle cx="17.06" cy="42.93" r="2" fill="blue"/>
<text x="19.56" y="42.93" font-family="Arial" font-size="5" fill="black">5</text>
<circle cx="19.60" cy="42.93" r="2" fill="blue"/>
<text x="22.10" y="42.93" font-family="Arial" font-size="5" fill="black">6</text>
<circle cx="22.14" cy="42.93" r="2" fill="blue"/>
<text x="24.64" y="42.93" font-family="Arial" font-size="5" fill="black">7</text>
<circle cx="24.68" cy="42.93" r="2" fill="blue"/>
<text x="27.18" y="42.93" font-family="Arial" font-size="5" fill="black">8</text>
<circle cx="23.29" cy="28.72" r="2" fill="blue"/>
<text x="25.79" y="28.72" font-family="Arial" font-size="5" fill="black">9</text>
<circle cx="25.83" cy="28.72" r="2" fill="blue"/>
<text x="28.33" y="28.72" font-family="Arial" font-size="5" fill="black">10</text>
<circle cx="28.37" cy="28.72" r="2" fill="blue"/>
<text x="30.87" y="28.72" font-family="Arial" font-size="5" fill="black">11</text>
<circle cx="30.91" cy="28.72" r="2" fill="blue"/>
<text x="33.41" y="28.72" font-family="Arial" font-size="5" fill="black">12</text>
<circle cx="33.45" cy="28.72" r="2" fill="blue"/>
<text x="35.95" y="28.72" font-family="Arial" font-size="5" fill="black">13</text>
</g>
</svg>
