<?xml version="1.0" encoding="UTF-8" standalone="no"?>
<svg xmlns="http://www.w3.org/2000/svg" width="1760" height="800" viewBox="-167.442 -167.442 1760 800">
<g transform="translate(0,0)">
<rect x="-167.442" y="-167.442" width="800" height="800" fill="white"/>
<g>
<line x1="18.6047" y1="18.6047" x2="252.72" y2="357.362" stroke="rgb(128,0,127)" stroke-width="2"/>
<line x1="252.72" y1="357.362" x2="446.512" y2="446.512" stroke="rgb(128,0,127)" stroke-width="2"/>
<line x1="446.512" y1="446.512" x2="362.824" y2="323.846" stroke="rgb(128,0,127)" stroke-width="2"/>
<line x1="362.824" y1="323.846" x2="381.726" y2="328.572" stroke="rgb(128,0,127)" stroke-width="2"/>
<line x1="381.726" y1="328.572" x2="187.216" y2="235.737" stroke="rgb(128,0,127)" stroke-width="2"/>
<line x1="187.216" y1="235.737" x2="381.726" y2="338.023" stroke="rgb(128,0,127)" stroke-width="2"/>
<line x1="381.726" y1="338.023" x2="252.72" y2="366.813" stroke="rgb(128,0,127)" stroke-width="2"/>
<line x1="252.72" y1="366.813" x2="187.216" y2="245.188" stroke="rgb(128,0,127)" stroke-width="2"/>
<line x1="187.216" y1="245.188" x2="271.622" y2="362.088" stroke="rgb(128,0,127)" stroke-width="2"/>
<line x1="271.622" y1="362.088" x2="88.8188" y2="268.59" stroke="rgb(128,0,127)" stroke-width="2"/>
<line x1="88.8188" y1="268.59" x2="362.824" y2="333.298" stroke="rgb(128,0,127)" stroke-width="2"/>
<line x1="362.824" y1="333.298" x2="69.9165" y2="268.59" stroke="rgb(128,0,127)" stroke-width="2"/>
<line x1="69.9165" y1="268.59" x2="18.6047" y2="446.512" stroke="rgb(128,0,127)" stroke-width="2"/>
<line x1="18.6047" y1="446.512" x2="446.512" y2="18.6047" stroke="rgb(128,0,127)" stroke-width="2"/>
<line x1="446.512" y1="18.6047" x2="271.622" y2="352.637" stroke="rgb(128,0,127)" stroke-width="2"/>
<line x1="271.622" y1="352.637" x2="187.216" y2="216.834" stroke="rgb(128,0,127)" stroke-width="2"/>
<line x1="187.216" y1="216.834" x2="252.72" y2="352.637" stroke="rgb(128,0,127)" stroke-width="2"/>
<line x1="252.72" y1="352.637" x2="215.57" y2="264.09" stroke="rgb(128,0,127)" stroke-width="2"/>
<line x1="215.57" y1="264.09" x2="215.57" y2="226.286" stroke="rgb(128,0,127)" stroke-width="2"/>
<line x1="215.57" y1="226.286" x2="98.2699" y2="268.59" stroke="rgb(128,0,127)" stroke-width="2"/>
<line x1="98.2699" y1="268.59" x2="215.57" y2="245.188" stroke="rgb(128,0,127)" stroke-width="2"/>
<line x1="215.57" y1="245.188" x2="271.622" y2="357.362" stroke="rgb(128,0,127)" stroke-width="2"/>
<line x1="271.622" y1="357.362" x2="187.216" y2="264.09" stroke="rgb(128,0,127)" stroke-width="2"/>
<line x1="187.216" y1="264.09" x2="187.216" y2="273.541" stroke="rgb(128,0,127)" stroke-width="2"/>
<line x1="187.216" y1="273.541" x2="215.57" y2="254.639" stroke="rgb(128,0,127)" stroke-width="2"/>
<line x1="215.57" y1="254.639" x2="107.721" y2="268.59" stroke="rgb(128,0,127)" stroke-width="2"/>
<line x1="107.721" y1="268.59" x2="187.216" y2="254.639" stroke="rgb(128,0,127)" stroke-width="2"/>
<line x1="187.216" y1="254.639" x2="271.622" y2="366.813" stroke="rgb(128,0,127)" stroke-width="2"/>
<line x1="271.622" y1="366.813" x2="381.726" y2="333.298" stroke="rgb(128,0,127)" stroke-width="2"/>
<line x1="381.726" y1="333.298" x2="79.3676" y2="268.59" stroke="rgb(128,0,127)" stroke-width="2"/>
<line x1="79.3676" y1="268.59" x2="362.824" y2="338.023" stroke="rgb(128,0,127)" stroke-width="2"/>
<line x1="362.824" y1="338.023" x2="215.57" y2="216.834" stroke="rgb(128,0,127)" stroke-width="2"/>
<line x1="215.57" y1="216.834" x2="187.216" y2="226.286" stroke="rgb(128,0,127)" stroke-width="2"/>
<line x1="187.216" y1="226.286" x2="252.72" y2="362.088" stroke="rgb(128,0,127)" stroke-width="2"/>
<line x1="252.72" y1="362.088" x2="215.57" y2="273.541" stroke="rgb(128,0,127)" stroke-width="2"/>
<line x1="215.57" y1="273.541" x2="215.57" y2="235.737" stroke="rgb(128,0,127)" stroke-width="2"/>
<line x1="215.57" y1="235.737" x2="381.726" y2="323.846" stroke="rgb(128,0,127)" stroke-width="2"/>
<line x1="381.726" y1="323.846" x2="362.824" y2="328.572" stroke="rgb(128,0,127)" stroke-width="2"/>
<line x1="362.824" y1="328.572" x2="18.6047" y2="18.6047" stroke="rgb(128,0,127)" stroke-width="2"/>
</g>
<g>
<circle cx="18.6047" cy="18.6047" r="8" fill="blue"/>
<text x="33.6047" y="23.6047" font-family="Arial" font-size="12" fill="black">0</text>
<circle cx="446.512" cy="18.6047" r="8" fill="blue"/>
<text x="461.512" y="23.6047" font-family="Arial" font-size="12" fill="black">1</text>
<circle cx="18.6047" cy="446.512" r="8" fill="blue"/>
<text x="33.6047" y="451.512" font-family="Arial" font-size="12" fill="black">2</text>
<circle cx="446.512" cy="446.512" r="8" fill="blue"/>
<text x="461.512" y="451.512" font-family="Arial" font-size="12" fill="black">3</text>
<circle cx="187.216" cy="216.834" r="8" fill="blue"/>
<text x="202.216" y="221.834" font-family="Arial" font-size="12" fill="black">4</text>
<circle cx="187.216" cy="226.286" r="8" fill="blue"/>
<text x="202.216" y="231.286" font-family="Arial" font-size="12" fill="black">5</text>
<circle cx="187.216" cy="235.737" r="8" fill="blue"/>
<text x="202.216" y="240.737" font-family="Arial" font-size="12" fill="black">6</text>
<circle cx="187.216" cy="245.188" r="8" fill="blue"/>
<text x="202.216" y="250.188" font-family="Arial" font-size="12" fill="black">7</text>
<circle cx="187.216" cy="254.639" r="8" fill="blue"/>
<text x="202.216" y="259.639" font-family="Arial" font-size="12" fill="black">8</text>
<circle cx="187.216" cy="264.09" r="8" fill="blue"/>
<text x="202.216" y="269.09" font-family="Arial" font-size="12" fill="black">9</text>
<circle cx="187.216" cy="273.541" r="8" fill="blue"/>
<text x="202.216" y="278.541" font-family="Arial" font-size="12" fill="black">10</text>
<circle cx="215.57" cy="216.834" r="8" fill="blue"/>
<text x="230.57" y="221.834" font-family="Arial" font-size="12" fill="black">11</text>
<circle cx="215.57" cy="226.286" r="8" fill="blue"/>
<text x="230.57" y="231.286" font-family="Arial" font-size="12" fill="black">12</text>
<circle cx="215.57" cy="235.737" r="8" fill="blue"/>
<text x="230.57" y="240.737" font-family="Arial" font-size="12" fill="black">13</text>
<circle cx="215.57" cy="245.188" r="8" fill="blue"/>
<text x="230.57" y="250.188" font-family="Arial" font-size="12" fill="black">14</text>
<circle cx="215.57" cy="254.639" r="8" fill="blue"/>
<text x="230.57" y="259.639" font-family="Arial" font-size="12" fill="black">15</text>
<circle cx="215.57" cy="264.09" r="8" fill="blue"/>
<text x="230.57" y="269.09" font-family="Arial" font-size="12" fill="black">16</text>
<circle cx="215.57" cy="273.541" r="8" fill="blue"/>
<text x="230.57" y="278.541" font-family="Arial" font-size="12" fill="black">17</text>
<circle cx="69.9165" cy="268.59" r="8" fill="blue"/>
<text x="84.9165" y="273.59" font-family="Arial" font-size="12" fill="black">18</text>
<circle cx="79.3676" cy="268.59" r="8" fill="blue"/>
<text x="94.3676" y="273.59" font-family="Arial" font-size="12" fill="black">19</text>
<circle cx="88.8188" cy="268.59" r="8" fill="blue"/>
<text x="103.819" y="273.59" font-family="Arial" font-size="12" fill="black">20</text>
<circle cx="98.2699" cy="268.59" r="8" fill="blue"/>
<text x="113.27" y="273.59" font-family="Arial" font-size="12" fill="black">21</text>
<circle cx="107.721" cy="268.59" r="8" fill="blue"/>
<text x="122.721" y="273.59" font-family="Arial" font-size="12" fill="black">22</text>
<circle cx="362.824" cy="323.846" r="8" fill="blue"/>
<text x="377.824" y="328.846" font-family="Arial" font-size="12" fill="black">23</text>
<circle cx="362.824" cy="328.572" r="8" fill="blue"/>
<text x="377.824" y="333.572" font-family="Arial" font-size="12" fill="black">24</text>
<circle cx="362.824" cy="333.298" r="8" fill="blue"/>
<text x="377.824" y="338.298" font-family="Arial" font-size="12" fill="black">25</text>
<circle cx="362.824" cy="338.023" r="8" fill="blue"/>
<text x="377.824" y="343.023" font-family="Arial" font-size="12" fill="black">26</text>
<circle cx="381.726" cy="323.846" r="8" fill="blue"/>
<text x="396.726" y="328.846" font-family="Arial" font-size="12" fill="black">27</text>
<circle cx="381.726" cy="328.572" r="8" fill="blue"/>
<text x="396.726" y="333.572" font-family="Arial" font-size="12" fill="black">28</text>
<circle cx="381.726" cy="333.298" r="8" fill="blue"/>
<text x="396.726" y="338.298" font-family="Arial" font-size="12" fill="black">29</text>
<circle cx="381.726" cy="338.023" r="8" fill="blue"/>
<text x="396.726" y="343.023" font-family="Arial" font-size="12" fill="black">30</text>
<circle cx="252.72" cy="352.637" r="8" fill="blue"/>
<text x="267.72" y="357.637" font-family="Arial" font-size="12" fill="black">31</text>
<circle cx="252.72" cy="357.362" r="8" fill="blue"/>
<text x="267.72" y="362.362" font-family="Arial" font-size="12" fill="black">32</text>
<circle cx="252.72" cy="362.088" r="8" fill="blue"/>
<text x="267.72" y="367.088" font-family="Arial" font-size="12" fill="black">33</text>
<circle cx="252.72" cy="366.813" r="8" fill="blue"/>
<text x="267.72" y="371.813" font-family="Arial" font-size="12" fill="black">34</text>
<circle cx="271.622" cy="352.637" r="8" fill="blue"/>
<text x="286.622" y="357.637" font-family="Arial" font-size="12" fill="black">35</text>
<circle cx="271.622" cy="357.362" r="8" fill="blue"/>
<text x="286.622" y="362.362" font-family="Arial" font-size="12" fill="black">36</text>
<circle cx="271.622" cy="362.088" r="8" fill="blue"/>
<text x="286.622" y="367.088" font-family="Arial" font-size="12" fill="black">37</text>
<circle cx="271.622" cy="366.813" r="8" fill="blue"/>
<text x="286.622" y="371.813" font-family="Arial" font-size="12" fill="black">38</text>
</g>
<text x="-142.442" y="-142.442" font-family="Arial" font-size="14.4" fill="black"> Cost: 1828.19</text>
</g>
<g transform="translate(880.00,0)">
<rect x="-167.44" y="-167.44" width="800.00" height="800.00" fill="white"/>
<g>
<line x1="446.51" y1="18.60" x2="362.82" y2="323.85" stroke="rgb(128,0,127)" stroke-width="2.00"/>
<line x1="362.82" y1="323.85" x2="362.82" y2="328.57" stroke="rgb(128,0,127)" stroke-width="2.00"/>
<line x1="362.82" y1="328.57" x2="362.82" y2="333.30" stroke="rgb(128,0,127)" stroke-width="2.00"/>
<line x1="362.82" y1="333.30" x2="362.82" y2="338.02" stroke="rgb(128,0,127)" stroke-width="2.00"/>
<line x1="362.82" y1="338.02" x2="381.73" y2="323.85" stroke="rgb(128,0,127)" stroke-width="2.00"/>
<line x1="381.73" y1="323.85" x2="381.73" y2="328.57" stroke="rgb(128,0,127)" stroke-width="2.00"/>
<line x1="381.73" y1="328.57" x2="381.73" y2="333.30" stroke="rgb(128,0,127)" stroke-width="2.00"/>
<line x1="381.73" y1="333.30" x2="381.73" y2="338.02" stroke="rgb(128,0,127)" stroke-width="2.00"/>
<line x1="381.73" y1="338.02" x2="446.51" y2="446.51" stroke="rgb(128,0,127)" stroke-width="2.00"/>
<line x1="446.51" y1="446.51" x2="271.62" y2="366.81" stroke="rgb(128,0,127)" stroke-width="2.00"/>
<line x1="271.62" y1="366.81" x2="271.62" y2="362.09" stroke="rgb(128,0,127)" stroke-width="2.00"/>
<line x1="271.62" y1="362.09" x2="271.62" y2="357.36" stroke="rgb(128,0,127)" stroke-width="2.00"/>
<line x1="271.62" y1="357.36" x2="271.62" y2="352.64" stroke="rgb(128,0,127)" stroke-width="2.00"/>
<line x1="271.62" y1="352.64" x2="252.72" y2="366.81" stroke="rgb(128,0,127)" stroke-width="2.00"/>
<line x1="252.72" y1="366.81" x2="252.72" y2="362.09" stroke="rgb(128,0,127)" stroke-width="2.00"/>
<line x1="252.72" y1="362.09" x2="252.72" y2="357.36" stroke="rgb(128,0,127)" stroke-width="2.00"/>
<line x1="252.72" y1="357.36" x2="252.72" y2="352.64" stroke="rgb(128,0,127)" stroke-width="2.00"/>
<line x1="252.72" y1="352.64" x2="215.57" y2="273.54" stroke="rgb(128,0,127)" stroke-width="2.00"/>
<line x1="215.57" y1="273.54" x2="215.57" y2="264.09" stroke="rgb(128,0,127)" stroke-width="2.00"/>
<line x1="215.57" y1="264.09" x2="215.57" y2="254.64" stroke="rgb(128,0,127)" stroke-width="2.00"/>
<line x1="215.57" y1="254.64" x2="215.57" y2="245.19" stroke="rgb(128,0,127)" stroke-width="2.00"/>
<line x1="215.57" y1="245.19" x2="215.57" y2="235.74" stroke="rgb(128,0,127)" stroke-width="2.00"/>
<line x1="215.57" y1="235.74" x2="215.57" y2="226.29" stroke="rgb(128,0,127)" stroke-width="2.00"/>
<line x1="215.57" y1="226.29" x2="215.57" y2="216.83" stroke="rgb(128,0,127)" stroke-width="2.00"/>
<line x1="215.57" y1="216.83" x2="187.22" y2="216.83" stroke="rgb(128,0,127)" stroke-width="2.00"/>
<line x1="187.22" y1="216.83" x2="187.22" y2="226.29" stroke="rgb(128,0,127)" stroke-width="2.00"/>
<line x1="187.22" y1="226.29" x2="187.22" y2="235.74" stroke="rgb(128,0,127)" stroke-width="2.00"/>
<line x1="187.22" y1="235.74" x2="187.22" y2="245.19" stroke="rgb(128,0,127)" stroke-width="2.00"/>
<line x1="187.22" y1="245.19" x2="187.22" y2="254.64" stroke="rgb(128,0,127)" stroke-width="2.00"/>
<line x1="187.22" y1="254.64" x2="187.22" y2="264.09" stroke="rgb(128,0,127)" stroke-width="2.00"/>
<line x1="187.22" y1="264.09" x2="187.22" y2="273.54" stroke="rgb(128,0,127)" stroke-width="2.00"/>
<line x1="187.22" y1="273.54" x2="18.60" y2="446.51" stroke="rgb(128,0,127)" stroke-width="2.00"/>
<line x1="18.60" y1="446.51" x2="69.92" y2="268.59" stroke="rgb(128,0,127)" stroke-width="2.00"/>
<line x1="69.92" y1="268.59" x2="79.37" y2="268.59" stroke="rgb(128,0,127)" stroke-width="2.00"/>
<line x1="79.37" y1="268.59" x2="88.82" y2="268.59" stroke="rgb(128,0,127)" stroke-width="2.00"/>
<line x1="88.82" y1="268.59" x2="98.27" y2="268.59" stroke="rgb(128,0,127)" stroke-width="2.00"/>
<line x1="98.27" y1="268.59" x2="107.72" y2="268.59" stroke="rgb(128,0,127)" stroke-width="2.00"/>
<line x1="107.72" y1="268.59" x2="18.60" y2="18.60" stroke="rgb(128,0,127)" stroke-width="2.00"/>
<line x1="18.60" y1="18.60" x2="18.60" y2="18.60" stroke="rgb(128,0,127)" stroke-width="2.00"/>
</g>
<g>
<circle cx="18.60" cy="18.60" r="8.00" fill="blue"/>
<text x="33.60" y="23.60" font-family="Arial" font-size="12.00" fill="black">0</text>
<circle cx="446.51" cy="18.60" r="8.00" fill="blue"/>
<text x="461.51" y="23.60" font-family="Arial" font-size="12.00" fill="black">1</text>
<circle cx="18.60" cy="446.51" r="8.00" fill="blue"/>
<text x="33.60" y="451.51" font-family="Arial" font-size="12.00" fill="black">2</text>
<circle cx="446.51" cy="446.51" r="8.00" fill="blue"/>
<text x="461.51" y="451.51" font-family="Arial" font-size="12.00" fill="black">3</text>
<circle cx="187.22" cy="216.83" r="8.00" fill="blue"/>
<text x="202.22" y="221.83" font-family="Arial" font-size="12.00" fill="black">4</text>
<circle cx="187.22" cy="226.29" r="8.00" fill="blue"/>
<text x="202.22" y="231.29" font-family="Arial" font-size="12.00" fill="black">5</text>
<circle cx="187.22" cy="235.74" r="8.00" fill="blue"/>
<text x="202.22" y="240.74" font-family="Arial" font-size="12.00" fill="black">6</text>
<circle cx="187.22" cy="245.19" r="8.00" fill="blue"/>
<text x="202.22" y="250.19" font-family="Arial" font-size="12.00" fill="black">7</text>
<circle cx="187.22" cy="254.64" r="8.00" fill="blue"/>
<text x="202.22" y="259.64" font-family="Arial" font-size="12.00" fill="black">8</text>
<circle cx="187.22" cy="264.09" r="8.00" fill="blue"/>
<text x="202.22" y="269.09" font-family="Arial" font-size="12.00" fill="black">9</text>
<circle cx="187.22" cy="273.54" r="8.00" fill="blue"/>
<text x="202.22" y="278.54" font-family="Arial" font-size="12.00" fill="black">10</text>
<circle cx="215.57" cy="216.83" r="8.00" fill="blue"/>
<text x="230.57" y="221.83" font-family="Arial" font-size="12.00" fill="black">11</text>
<circle cx="215.57" cy="226.29" r="8.00" fill="blue"/>
<text x="230.57" y="231.29" font-family="Arial" font-size="12.00" fill="black">12</text>
<circle cx="215.57" cy="235.74" r="8.00" fill="blue"/>
<text x="230.57" y="240.74" font-family="Arial" font-size="12.00" fill="black">13</text>
<circle cx="215.57" cy="245.19" r="8.00" fill="blue"/>
<text x="230.57" y="250.19" font-family="Arial" font-size="12.00" fill="black">14</text>
<circle cx="215.57" cy="254.64" r="8.00" fill="blue"/>
<text x="230.57" y="259.64" font-family="Arial" font-size="12.00" fill="black">15</text>
<circle cx="215.57" cy="264.09" r="8.00" fill="blue"/>
<text x="230.57" y="269.09" font-family="Arial" font-size="12.00" fill="black">16</text>
<circle cx="215.57" cy="273.54" r="8.00" fill="blue"/>
<text x="230.57" y="278.54" font-family="Arial" font-size="12.00" fill="black">17</text>
<circle cx="69.92" cy="268.59" r="8.00" fill="blue"/>
<text x="84.92" y="273.59" font-family="Arial" font-size="12.00" fill="black">18</text>
<circle cx="79.37" cy="268.59" r="8.00" fill="blue"/>
<text x="94.37" y="273.59" font-family="Arial" font-size="12.00" fill="black">19</text>
<circle cx="88.82" cy="268.59" r="8.00" fill="blue"/>
<text x="103.82" y="273.59" font-family="Arial" font-size="12.00" fill="black">20</text>
<circle cx="98.27" cy="268.59" r="8.00" fill="blue"/>
<text x="113.27" y="273.59" font-family="Arial" font-size="12.00" fill="black">21</text>
<circle cx="107.72" cy="268.59" r="8.00" fill="blue"/>
<text x="122.72" y="273.59" font-family="Arial" font-size="12.00" fill="black">22</text>
<circle cx="362.82" cy="323.85" r="8.00" fill="blue"/>
<text x="377.82" y="328.85" font-family="Arial" font-size="12.00" fill="black">23</text>
<circle cx="362.82" cy="328.57" r="8.00" fill="blue"/>
<text x="377.82" y="333.57" font-family="Arial" font-size="12.00" fill="black">24</text>
<circle cx="362.82" cy="333.30" r="8.00" fill="blue"/>
<text x="377.82" y="338.30" font-family="Arial" font-size="12.00" fill="black">25</text>
<circle cx="362.82" cy="338.02" r="8.00" fill="blue"/>
<text x="377.82" y="343.02" font-family="Arial" font-size="12.00" fill="black">26</text>
<circle cx="381.73" cy="323.85" r="8.00" fill="blue"/>
<text x="396.73" y="328.85" font-family="Arial" font-size="12.00" fill="black">27</text>
<circle cx="381.73" cy="328.57" r="8.00" fill="blue"/>
<text x="396.73" y="333.57" font-family="Arial" font-size="12.00" fill="black">28</text>
<circle cx="381.73" cy="333.30" r="8.00" fill="blue"/>
<text x="396.73" y="338.30" font-family="Arial" font-size="12.00" fill="black">29</text>
<circle cx="381.73" cy="338.02" r="8.00" fill="blue"/>
<text x="396.73" y="343.02" font-family="Arial" font-size="12.00" fill="black">30</text>
<circle cx="252.72" cy="352.64" r="8.00" fill="blue"/>
<text x="267.72" y="357.64" font-family="Arial" font-size="12.00" fill="black">31</text>
<circle cx="252.72" cy="357.36" r="8.00" fill="blue"/>
<text x="267.72" y="362.36" font-family="Arial" font-size="12.00" fill="black">32</text>
<circle cx="252.72" cy="362.09" r="8.00" fill="blue"/>
<text x="267.72" y="367.09" font-family="Arial" font-size="12.00" fill="black">33</text>
<circle cx="252.72" cy="366.81" r="8.00" fill="blue"/>
<text x="267.72" y="371.81" font-family="Arial" font-size="12.00" fill="black">34</text>
<circle cx="271.62" cy="352.64" r="8.00" fill="blue"/>
<text x="286.62" y="357.64" font-family="Arial" font-size="12.00" fill="black">35</text>
<circle cx="271.62" cy="357.36" r="8.00" fill="blue"/>
<text x="286.62" y="362.36" font-family="Arial" font-size="12.00" fill="black">36</text>
<circle cx="271.62" cy="362.09" r="8.00" fill="blue"/>
<text x="286.62" y="367.09" font-family="Arial" font-size="12.00" fill="black">37</text>
<circle cx="271.62" cy="366.81" r="8.00" fill="blue"/>
<text x="286.62" y="371.81" font-family="Arial" font-size="12.00" fill="black">38</text>
</g>
<text x="-142.44" y="-142.44" font-family="Arial" font-size="14.40" fill="black"> Cost: 456.36</text>
</g>
</svg>
