<?xml version="1.0" encoding="UTF-8" standalone="no"?>
<svg xmlns="http://www.w3.org/2000/svg" viewBox="-5 -5 60 60">
<rect x="-5" y="-5" width="60" height="60" fill="white"/>
<g>
<circle cx="5" cy="5" r="2" fill="blue"/>
<text x="7.5" y="5" font-family="Arial" font-size="5" fill="black">0</text>
<circle cx="45" cy="5" r="2" fill="blue"/>
<text x="47.5" y="5" font-family="Arial" font-size="5" fill="black">1</text>
<circle cx="5" cy="45" r="2" fill="blue"/>
<text x="7.5" y="45" font-family="Arial" font-size="5" fill="black">2</text>
<circle cx="45" cy="45" r="2" fill="blue"/>
<text x="47.5" y="45" font-family="Arial" font-size="5" fill="black">3</text>
<circle cx="10.8819" cy="15.6434" r="2" fill="blue"/>
<text x="13.3819" y="15.6434" font-family="Arial" font-size="5" fill="black">4</text>
<circle cx="10.8819" cy="18.1834" r="2" fill="blue"/>
<text x="13.3819" y="18.1834" font-family="Arial" font-size="5" fill="black">5</text>
<circle cx="10.8819" cy="20.7234" r="2" fill="blue"/>
<text x="13.3819" y="20.7234" font-family="Arial" font-size="5" fill="black">6</text>
<circle cx="10.8819" cy="23.2634" r="2" fill="blue"/>
<text x="13.3819" y="23.2634" font-family="Arial" font-size="5" fill="black">7</text>
<circle cx="10.8819" cy="25.8034" r="2" fill="blue"/>
<text x="13.3819" y="25.8034" font-family="Arial" font-size="5" fill="black">8</text>
<circle cx="10.8819" cy="28.3434" r="2" fill="blue"/>
<text x="13.3819" y="28.3434" font-family="Arial" font-size="5" fill="black">9</text>
<circle cx="10.8819" cy="30.8834" r="2" fill="blue"/>
<text x="13.3819" y="30.8834" font-family="Arial" font-size="5" fill="black">10</text>
<circle cx="18.5019" cy="15.6434" r="2" fill="blue"/>
<text x="21.0019" y="15.6434" font-family="Arial" font-size="5" fill="black">11</text>
<circle cx="18.5019" cy="18.1834" r="2" fill="blue"/>
<text x="21.0019" y="18.1834" font-family="Arial" font-size="5" fill="black">12</text>
<circle cx="18.5019" cy="20.7234" r="2" fill="blue"/>
<text x="21.0019" y="20.7234" font-family="Arial" font-size="5" fill="black">13</text>
<circle cx="18.5019" cy="23.2634" r="2" fill="blue"/>
<text x="21.0019" y="23.2634" font-family="Arial" font-size="5" fill="black">14</text>
<circle cx="18.5019" cy="25.8034" r="2" fill="blue"/>
<text x="21.0019" y="25.8034" font-family="Arial" font-size="5" fill="black">15</text>
<circle cx="18.5019" cy="28.3434" r="2" fill="blue"/>
<text x="21.0019" y="28.3434" font-family="Arial" font-size="5" fill="black">16</text>
<circle cx="18.5019" cy="30.8834" r="2" fill="blue"/>
<text x="21.0019" y="30.8834" font-family="Arial" font-size="5" fill="black">17</text>
<circle cx="5.70958" cy="24.8351" r="2" fill="blue"/>
<text x="8.20958" y="24.8351" font-family="Arial" font-size="5" fill="black">18</text>
<circle cx="5.70958" cy="27.3751" r="2" fill="blue"/>
<text x="8.20958" y="27.3751" font-family="Arial" font-size="5" fill="black">19</text>
<circle cx="5.70958" cy="29.9151" r="2" fill="blue"/>
<text x="8.20958" y="29.9151" font-family="Arial" font-size="5" fill="black">20</text>
<circle cx="5.70958" cy="32.4551" r="2" fill="blue"/>
<text x="8.20958" y="32.4551" font-family="Arial" font-size="5" fill="black">21</text>
<circle cx="5.70958" cy="34.9951" r="2" fill="blue"/>
<text x="8.20958" y="34.9951" font-family="Arial" font-size="5" fill="black">22</text>
<circle cx="5.70958" cy="37.5351" r="2" fill="blue"/>
<text x="8.20958" y="37.5351" font-family="Arial" font-size="5" fill="black">23</text>
<circle cx="5.70958" cy="40.0751" r="2" fill="blue"/>
<text x="8.20958" y="40.0751" font-family="Arial" font-size="5" fill="black">24</text>
<circle cx="13.3296" cy="24.8351" r="2" fill="blue"/>
<text x="15.8296" y="24.8351" font-family="Arial" font-size="5" fill="black">25</text>
<circle cx="13.3296" cy="27.3751" r="2" fill="blue"/>
<text x="15.8296" y="27.3751" font-family="Arial" font-size="5" fill="black">26</text>
<circle cx="13.3296" cy="29.9151" r="2" fill="blue"/>
<text x="15.8296" y="29.9151" font-family="Arial" font-size="5" fill="black">27</text>
<circle cx="13.3296" cy="32.4551" r="2" fill="blue"/>
<text x="15.8296" y="32.4551" font-family="Arial" font-size="5" fill="black">28</text>
<circle cx="13.3296" cy="34.9951" r="2" fill="blue"/>
<text x="15.8296" y="34.9951" font-family="Arial" font-size="5" fill="black">29</text>
<circle cx="13.3296" cy="37.5351" r="2" fill="blue"/>
<text x="15.8296" y="37.5351" font-family="Arial" font-size="5" fill="black">30</text>
<circle cx="13.3296" cy="40.0751" r="2" fill="blue"/>
<text x="15.8296" y="40.0751" font-family="Arial" font-size="5" fill="black">31</text>
</g>
</svg>
