<?xml version="1.0" encoding="UTF-8" standalone="no"?>
<svg xmlns="http://www.w3.org/2000/svg" viewBox="-5 -5 110 110">
<rect x="-5" y="-5" width="110" height="110" fill="white"/>
<g>
<line x1="95" y1="5" x2="94.4749" y2="29.0541" stroke="rgb(0,0,255)" stroke-width="0.8"/>
<line x1="94.4749" y1="29.0541" x2="94.4749" y2="30.3241" stroke="rgb(10,0,245)" stroke-width="0.8"/>
<line x1="94.4749" y1="30.3241" x2="94.4749" y2="31.5941" stroke="rgb(20,0,235)" stroke-width="0.8"/>
<line x1="94.4749" y1="31.5941" x2="94.4749" y2="32.8641" stroke="rgb(30,0,225)" stroke-width="0.8"/>
<line x1="94.4749" y1="32.8641" x2="89.3949" y2="29.0541" stroke="rgb(40,0,215)" stroke-width="0.8"/>
<line x1="89.3949" y1="29.0541" x2="89.3949" y2="30.3241" stroke="rgb(51,0,204)" stroke-width="0.8"/>
<line x1="89.3949" y1="30.3241" x2="89.3949" y2="31.5941" stroke="rgb(61,0,194)" stroke-width="0.8"/>
<line x1="89.3949" y1="31.5941" x2="89.3949" y2="32.8641" stroke="rgb(71,0,184)" stroke-width="0.8"/>
<line x1="89.3949" y1="32.8641" x2="87.7282" y2="47.8109" stroke="rgb(81,0,174)" stroke-width="0.8"/>
<line x1="87.7282" y1="47.8109" x2="87.7282" y2="49.0809" stroke="rgb(91,0,164)" stroke-width="0.8"/>
<line x1="87.7282" y1="49.0809" x2="87.7282" y2="50.3509" stroke="rgb(102,0,153)" stroke-width="0.8"/>
<line x1="87.7282" y1="50.3509" x2="87.7282" y2="51.6209" stroke="rgb(112,0,143)" stroke-width="0.8"/>
<line x1="87.7282" y1="51.6209" x2="82.6482" y2="47.8109" stroke="rgb(122,0,133)" stroke-width="0.8"/>
<line x1="82.6482" y1="47.8109" x2="82.6482" y2="49.0809" stroke="rgb(132,0,123)" stroke-width="0.8"/>
<line x1="82.6482" y1="49.0809" x2="82.6482" y2="50.3509" stroke="rgb(142,0,113)" stroke-width="0.8"/>
<line x1="82.6482" y1="50.3509" x2="82.6482" y2="51.6209" stroke="rgb(153,0,102)" stroke-width="0.8"/>
<line x1="82.6482" y1="51.6209" x2="95" y2="95" stroke="rgb(163,0,92)" stroke-width="0.8"/>
<line x1="95" y1="95" x2="5" y2="95" stroke="rgb(173,0,82)" stroke-width="0.8"/>
<line x1="5" y1="95" x2="33.1041" y2="18.5048" stroke="rgb(183,0,72)" stroke-width="0.8"/>
<line x1="33.1041" y1="18.5048" x2="30.5641" y2="18.5048" stroke="rgb(193,0,62)" stroke-width="0.8"/>
<line x1="30.5641" y1="18.5048" x2="28.0241" y2="18.5048" stroke="rgb(204,0,51)" stroke-width="0.8"/>
<line x1="28.0241" y1="18.5048" x2="25.4841" y2="18.5048" stroke="rgb(214,0,41)" stroke-width="0.8"/>
<line x1="25.4841" y1="18.5048" x2="22.9441" y2="18.5048" stroke="rgb(224,0,31)" stroke-width="0.8"/>
<line x1="22.9441" y1="18.5048" x2="5" y2="5" stroke="rgb(234,0,21)" stroke-width="0.8"/>
<line x1="5" y1="5" x2="5" y2="5" stroke="rgb(244,0,11)" stroke-width="0.8"/>
</g>
<g>
<circle cx="5" cy="5" r="2" fill="blue"/>
<text x="7.5" y="5" font-family="Arial" font-size="5" fill="black">0</text>
<circle cx="95" cy="5" r="2" fill="blue"/>
<text x="97.5" y="5" font-family="Arial" font-size="5" fill="black">1</text>
<circle cx="5" cy="95" r="2" fill="blue"/>
<text x="7.5" y="95" font-family="Arial" font-size="5" fill="black">2</text>
<circle cx="95" cy="95" r="2" fill="blue"/>
<text x="97.5" y="95" font-family="Arial" font-size="5" fill="black">3</text>
<circle cx="22.9441" cy="18.5048" r="2" fill="blue"/>
<text x="25.4441" y="18.5048" font-family="Arial" font-size="5" fill="black">4</text>
<circle cx="25.4841" cy="18.5048" r="2" fill="blue"/>
<text x="27.9841" y="18.5048" font-family="Arial" font-size="5" fill="black">5</text>
<circle cx="28.0241" cy="18.5048" r="2" fill="blue"/>
<text x="30.5241" y="18.5048" font-family="Arial" font-size="5" fill="black">6</text>
<circle cx="30.5641" cy="18.5048" r="2" fill="blue"/>
<text x="33.0641" y="18.5048" font-family="Arial" font-size="5" fill="black">7</text>
<circle cx="33.1041" cy="18.5048" r="2" fill="blue"/>
<text x="35.6041" y="18.5048" font-family="Arial" font-size="5" fill="black">8</text>
<circle cx="82.6482" cy="47.8109" r="2" fill="blue"/>
<text x="85.1482" y="47.8109" font-family="Arial" font-size="5" fill="black">9</text>
<circle cx="82.6482" cy="49.0809" r="2" fill="blue"/>
<text x="85.1482" y="49.0809" font-family="Arial" font-size="5" fill="black">10</text>
<circle cx="82.6482" cy="50.3509" r="2" fill="blue"/>
<text x="85.1482" y="50.3509" font-family="Arial" font-size="5" fill="black">11</text>
<circle cx="82.6482" cy="51.6209" r="2" fill="blue"/>
<text x="85.1482" y="51.6209" font-family="Arial" font-size="5" fill="black">12</text>
<circle cx="87.7282" cy="47.8109" r="2" fill="blue"/>
<text x="90.2282" y="47.8109" font-family="Arial" font-size="5" fill="black">13</text>
<circle cx="87.7282" cy="49.0809" r="2" fill="blue"/>
<text x="90.2282" y="49.0809" font-family="Arial" font-size="5" fill="black">14</text>
<circle cx="87.7282" cy="50.3509" r="2" fill="blue"/>
<text x="90.2282" y="50.3509" font-family="Arial" font-size="5" fill="black">15</text>
<circle cx="87.7282" cy="51.6209" r="2" fill="blue"/>
<text x="90.2282" y="51.6209" font-family="Arial" font-size="5" fill="black">16</text>
<circle cx="89.3949" cy="29.0541" r="2" fill="blue"/>
<text x="91.8949" y="29.0541" font-family="Arial" font-size="5" fill="black">17</text>
<circle cx="89.3949" cy="30.3241" r="2" fill="blue"/>
<text x="91.8949" y="30.3241" font-family="Arial" font-size="5" fill="black">18</text>
<circle cx="89.3949" cy="31.5941" r="2" fill="blue"/>
<text x="91.8949" y="31.5941" font-family="Arial" font-size="5" fill="black">19</text>
<circle cx="89.3949" cy="32.8641" r="2" fill="blue"/>
<text x="91.8949" y="32.8641" font-family="Arial" font-size="5" fill="black">20</text>
<circle cx="94.4749" cy="29.0541" r="2" fill="blue"/>
<text x="96.9749" y="29.0541" font-family="Arial" font-size="5" fill="black">21</text>
<circle cx="94.4749" cy="30.3241" r="2" fill="blue"/>
<text x="96.9749" y="30.3241" font-family="Arial" font-size="5" fill="black">22</text>
<circle cx="94.4749" cy="31.5941" r="2" fill="blue"/>
<text x="96.9749" y="31.5941" font-family="Arial" font-size="5" fill="black">23</text>
<circle cx="94.4749" cy="32.8641" r="2" fill="blue"/>
<text x="96.9749" y="32.8641" font-family="Arial" font-size="5" fill="black">24</text>
</g>
</svg>
