<?xml version="1.0" encoding="UTF-8" standalone="no"?>
<svg xmlns="http://www.w3.org/2000/svg" width="800" height="800" viewBox="-257.143 -257.143 800 800">
<rect x="-257.143" y="-257.143" width="800" height="800" fill="white"/>
<g>
<line x1="28.5714" y1="28.5714" x2="202.299" y2="220.519" stroke="rgb(0,0,255)" stroke-width="2"/>
<line x1="202.299" y1="220.519" x2="187.785" y2="220.519" stroke="rgb(18,0,237)" stroke-width="2"/>
<line x1="187.785" y1="220.519" x2="173.27" y2="220.519" stroke="rgb(36,0,219)" stroke-width="2"/>
<line x1="173.27" y1="220.519" x2="163.001" y2="256.039" stroke="rgb(54,0,201)" stroke-width="2"/>
<line x1="163.001" y1="256.039" x2="148.487" y2="256.039" stroke="rgb(72,0,183)" stroke-width="2"/>
<line x1="148.487" y1="256.039" x2="104.944" y2="256.039" stroke="rgb(91,0,164)" stroke-width="2"/>
<line x1="104.944" y1="256.039" x2="158.756" y2="220.519" stroke="rgb(109,0,146)" stroke-width="2"/>
<line x1="158.756" y1="220.519" x2="216.813" y2="220.519" stroke="rgb(127,0,128)" stroke-width="2"/>
<line x1="216.813" y1="220.519" x2="119.458" y2="256.039" stroke="rgb(145,0,110)" stroke-width="2"/>
<line x1="119.458" y1="256.039" x2="28.5714" y2="257.143" stroke="rgb(163,0,92)" stroke-width="2"/>
<line x1="28.5714" y1="257.143" x2="257.143" y2="28.5714" stroke="rgb(182,0,73)" stroke-width="2"/>
<line x1="257.143" y1="28.5714" x2="133.972" y2="256.039" stroke="rgb(200,0,55)" stroke-width="2"/>
<line x1="133.972" y1="256.039" x2="257.143" y2="257.143" stroke="rgb(218,0,37)" stroke-width="2"/>
<line x1="257.143" y1="257.143" x2="28.5714" y2="28.5714" stroke="rgb(236,0,19)" stroke-width="2"/>
</g>
<g>
<circle cx="28.5714" cy="28.5714" r="8" fill="blue"/>
<text x="43.5714" y="33.5714" font-family="Arial" font-size="12" fill="black">0</text>
<circle cx="257.143" cy="28.5714" r="8" fill="blue"/>
<text x="272.143" y="33.5714" font-family="Arial" font-size="12" fill="black">1</text>
<circle cx="28.5714" cy="257.143" r="8" fill="blue"/>
<text x="43.5714" y="262.143" font-family="Arial" font-size="12" fill="black">2</text>
<circle cx="257.143" cy="257.143" r="8" fill="blue"/>
<text x="272.143" y="262.143" font-family="Arial" font-size="12" fill="black">3</text>
<circle cx="158.756" cy="220.519" r="8" fill="blue"/>
<text x="173.756" y="225.519" font-family="Arial" font-size="12" fill="black">4</text>
<circle cx="173.27" cy="220.519" r="8" fill="blue"/>
<text x="188.27" y="225.519" font-family="Arial" font-size="12" fill="black">5</text>
<circle cx="187.785" cy="220.519" r="8" fill="blue"/>
<text x="202.785" y="225.519" font-family="Arial" font-size="12" fill="black">6</text>
<circle cx="202.299" cy="220.519" r="8" fill="blue"/>
<text x="217.299" y="225.519" font-family="Arial" font-size="12" fill="black">7</text>
<circle cx="216.813" cy="220.519" r="8" fill="blue"/>
<text x="231.813" y="225.519" font-family="Arial" font-size="12" fill="black">8</text>
<circle cx="104.944" cy="256.039" r="8" fill="blue"/>
<text x="119.944" y="261.039" font-family="Arial" font-size="12" fill="black">9</text>
<circle cx="119.458" cy="256.039" r="8" fill="blue"/>
<text x="134.458" y="261.039" font-family="Arial" font-size="12" fill="black">10</text>
<circle cx="133.972" cy="256.039" r="8" fill="blue"/>
<text x="148.972" y="261.039" font-family="Arial" font-size="12" fill="black">11</text>
<circle cx="148.487" cy="256.039" r="8" fill="blue"/>
<text x="163.487" y="261.039" font-family="Arial" font-size="12" fill="black">12</text>
<circle cx="163.001" cy="256.039" r="8" fill="blue"/>
<text x="178.001" y="261.039" font-family="Arial" font-size="12" fill="black">13</text>
</g>
<text x="-232.143" y="-232.143" font-family="Arial" font-size="14.4" fill="black">Iteration: 0 Cost: 302.46</text>
</svg>
