<?xml version="1.0" encoding="UTF-8" standalone="no"?>
<svg xmlns="http://www.w3.org/2000/svg" viewBox="-5 -5 110 110">
<rect x="-5" y="-5" width="110" height="110" fill="white"/>
<g>
<line x1="5" y1="5" x2="81.0376" y2="27.3947" stroke="rgb(0,0,255)" stroke-width="0.8"/>
<line x1="81.0376" y1="27.3947" x2="81.0376" y2="24.8547" stroke="rgb(6,0,249)" stroke-width="0.8"/>
<line x1="81.0376" y1="24.8547" x2="81.0376" y2="22.3147" stroke="rgb(12,0,243)" stroke-width="0.8"/>
<line x1="81.0376" y1="22.3147" x2="81.0376" y2="19.7747" stroke="rgb(19,0,236)" stroke-width="0.8"/>
<line x1="81.0376" y1="19.7747" x2="81.0376" y2="17.2347" stroke="rgb(25,0,230)" stroke-width="0.8"/>
<line x1="81.0376" y1="17.2347" x2="95" y2="5" stroke="rgb(31,0,224)" stroke-width="0.8"/>
<line x1="95" y1="5" x2="88.6576" y2="17.2347" stroke="rgb(38,0,217)" stroke-width="0.8"/>
<line x1="88.6576" y1="17.2347" x2="88.6576" y2="19.7747" stroke="rgb(44,0,211)" stroke-width="0.8"/>
<line x1="88.6576" y1="19.7747" x2="88.6576" y2="22.3147" stroke="rgb(51,0,204)" stroke-width="0.8"/>
<line x1="88.6576" y1="22.3147" x2="88.6576" y2="24.8547" stroke="rgb(57,0,198)" stroke-width="0.8"/>
<line x1="88.6576" y1="24.8547" x2="88.6576" y2="27.3947" stroke="rgb(63,0,192)" stroke-width="0.8"/>
<line x1="88.6576" y1="27.3947" x2="88.6576" y2="29.9347" stroke="rgb(70,0,185)" stroke-width="0.8"/>
<line x1="88.6576" y1="29.9347" x2="88.6576" y2="32.4747" stroke="rgb(76,0,179)" stroke-width="0.8"/>
<line x1="88.6576" y1="32.4747" x2="81.0376" y2="29.9347" stroke="rgb(82,0,173)" stroke-width="0.8"/>
<line x1="81.0376" y1="29.9347" x2="81.0376" y2="32.4747" stroke="rgb(89,0,166)" stroke-width="0.8"/>
<line x1="81.0376" y1="32.4747" x2="67.4119" y2="40.9656" stroke="rgb(95,0,160)" stroke-width="0.8"/>
<line x1="67.4119" y1="40.9656" x2="67.4119" y2="43.5056" stroke="rgb(102,0,153)" stroke-width="0.8"/>
<line x1="67.4119" y1="43.5056" x2="67.4119" y2="46.0456" stroke="rgb(108,0,147)" stroke-width="0.8"/>
<line x1="67.4119" y1="46.0456" x2="67.4119" y2="48.5856" stroke="rgb(114,0,141)" stroke-width="0.8"/>
<line x1="67.4119" y1="48.5856" x2="67.4119" y2="51.1256" stroke="rgb(121,0,134)" stroke-width="0.8"/>
<line x1="67.4119" y1="51.1256" x2="59.7919" y2="40.9656" stroke="rgb(127,0,128)" stroke-width="0.8"/>
<line x1="59.7919" y1="40.9656" x2="59.7919" y2="43.5056" stroke="rgb(133,0,122)" stroke-width="0.8"/>
<line x1="59.7919" y1="43.5056" x2="59.7919" y2="46.0456" stroke="rgb(140,0,115)" stroke-width="0.8"/>
<line x1="59.7919" y1="46.0456" x2="59.7919" y2="48.5856" stroke="rgb(146,0,109)" stroke-width="0.8"/>
<line x1="59.7919" y1="48.5856" x2="59.7919" y2="51.1256" stroke="rgb(153,0,102)" stroke-width="0.8"/>
<line x1="59.7919" y1="51.1256" x2="59.7919" y2="53.6656" stroke="rgb(159,0,96)" stroke-width="0.8"/>
<line x1="59.7919" y1="53.6656" x2="59.7919" y2="56.2056" stroke="rgb(165,0,90)" stroke-width="0.8"/>
<line x1="59.7919" y1="56.2056" x2="67.4119" y2="53.6656" stroke="rgb(172,0,83)" stroke-width="0.8"/>
<line x1="67.4119" y1="53.6656" x2="67.4119" y2="56.2056" stroke="rgb(178,0,77)" stroke-width="0.8"/>
<line x1="67.4119" y1="56.2056" x2="85.8239" y2="71.0528" stroke="rgb(184,0,71)" stroke-width="0.8"/>
<line x1="85.8239" y1="71.0528" x2="85.8239" y2="72.3228" stroke="rgb(191,0,64)" stroke-width="0.8"/>
<line x1="85.8239" y1="72.3228" x2="85.8239" y2="73.5928" stroke="rgb(197,0,58)" stroke-width="0.8"/>
<line x1="85.8239" y1="73.5928" x2="85.8239" y2="74.8628" stroke="rgb(204,0,51)" stroke-width="0.8"/>
<line x1="85.8239" y1="74.8628" x2="90.9039" y2="71.0528" stroke="rgb(210,0,45)" stroke-width="0.8"/>
<line x1="90.9039" y1="71.0528" x2="90.9039" y2="72.3228" stroke="rgb(216,0,39)" stroke-width="0.8"/>
<line x1="90.9039" y1="72.3228" x2="90.9039" y2="73.5928" stroke="rgb(223,0,32)" stroke-width="0.8"/>
<line x1="90.9039" y1="73.5928" x2="90.9039" y2="74.8628" stroke="rgb(229,0,26)" stroke-width="0.8"/>
<line x1="90.9039" y1="74.8628" x2="95" y2="95" stroke="rgb(235,0,20)" stroke-width="0.8"/>
<line x1="95" y1="95" x2="5" y2="95" stroke="rgb(242,0,13)" stroke-width="0.8"/>
<line x1="5" y1="95" x2="5" y2="5" stroke="rgb(248,0,7)" stroke-width="0.8"/>
</g>
<g>
<circle cx="5" cy="5" r="2" fill="blue"/>
<text x="7.5" y="5" font-family="Arial" font-size="5" fill="black">0</text>
<circle cx="95" cy="5" r="2" fill="blue"/>
<text x="97.5" y="5" font-family="Arial" font-size="5" fill="black">1</text>
<circle cx="5" cy="95" r="2" fill="blue"/>
<text x="7.5" y="95" font-family="Arial" font-size="5" fill="black">2</text>
<circle cx="95" cy="95" r="2" fill="blue"/>
<text x="97.5" y="95" font-family="Arial" font-size="5" fill="black">3</text>
<circle cx="59.7919" cy="40.9656" r="2" fill="blue"/>
<text x="62.2919" y="40.9656" font-family="Arial" font-size="5" fill="black">4</text>
<circle cx="59.7919" cy="43.5056" r="2" fill="blue"/>
<text x="62.2919" y="43.5056" font-family="Arial" font-size="5" fill="black">5</text>
<circle cx="59.7919" cy="46.0456" r="2" fill="blue"/>
<text x="62.2919" y="46.0456" font-family="Arial" font-size="5" fill="black">6</text>
<circle cx="59.7919" cy="48.5856" r="2" fill="blue"/>
<text x="62.2919" y="48.5856" font-family="Arial" font-size="5" fill="black">7</text>
<circle cx="59.7919" cy="51.1256" r="2" fill="blue"/>
<text x="62.2919" y="51.1256" font-family="Arial" font-size="5" fill="black">8</text>
<circle cx="59.7919" cy="53.6656" r="2" fill="blue"/>
<text x="62.2919" y="53.6656" font-family="Arial" font-size="5" fill="black">9</text>
<circle cx="59.7919" cy="56.2056" r="2" fill="blue"/>
<text x="62.2919" y="56.2056" font-family="Arial" font-size="5" fill="black">10</text>
<circle cx="67.4119" cy="40.9656" r="2" fill="blue"/>
<text x="69.9119" y="40.9656" font-family="Arial" font-size="5" fill="black">11</text>
<circle cx="67.4119" cy="43.5056" r="2" fill="blue"/>
<text x="69.9119" y="43.5056" font-family="Arial" font-size="5" fill="black">12</text>
<circle cx="67.4119" cy="46.0456" r="2" fill="blue"/>
<text x="69.9119" y="46.0456" font-family="Arial" font-size="5" fill="black">13</text>
<circle cx="67.4119" cy="48.5856" r="2" fill="blue"/>
<text x="69.9119" y="48.5856" font-family="Arial" font-size="5" fill="black">14</text>
<circle cx="67.4119" cy="51.1256" r="2" fill="blue"/>
<text x="69.9119" y="51.1256" font-family="Arial" font-size="5" fill="black">15</text>
<circle cx="67.4119" cy="53.6656" r="2" fill="blue"/>
<text x="69.9119" y="53.6656" font-family="Arial" font-size="5" fill="black">16</text>
<circle cx="67.4119" cy="56.2056" r="2" fill="blue"/>
<text x="69.9119" y="56.2056" font-family="Arial" font-size="5" fill="black">17</text>
<circle cx="85.8239" cy="71.0528" r="2" fill="blue"/>
<text x="88.3239" y="71.0528" font-family="Arial" font-size="5" fill="black">18</text>
<circle cx="85.8239" cy="72.3228" r="2" fill="blue"/>
<text x="88.3239" y="72.3228" font-family="Arial" font-size="5" fill="black">19</text>
<circle cx="85.8239" cy="73.5928" r="2" fill="blue"/>
<text x="88.3239" y="73.5928" font-family="Arial" font-size="5" fill="black">20</text>
<circle cx="85.8239" cy="74.8628" r="2" fill="blue"/>
<text x="88.3239" y="74.8628" font-family="Arial" font-size="5" fill="black">21</text>
<circle cx="90.9039" cy="71.0528" r="2" fill="blue"/>
<text x="93.4039" y="71.0528" font-family="Arial" font-size="5" fill="black">22</text>
<circle cx="90.9039" cy="72.3228" r="2" fill="blue"/>
<text x="93.4039" y="72.3228" font-family="Arial" font-size="5" fill="black">23</text>
<circle cx="90.9039" cy="73.5928" r="2" fill="blue"/>
<text x="93.4039" y="73.5928" font-family="Arial" font-size="5" fill="black">24</text>
<circle cx="90.9039" cy="74.8628" r="2" fill="blue"/>
<text x="93.4039" y="74.8628" font-family="Arial" font-size="5" fill="black">25</text>
<circle cx="81.0376" cy="17.2347" r="2" fill="blue"/>
<text x="83.5376" y="17.2347" font-family="Arial" font-size="5" fill="black">26</text>
<circle cx="81.0376" cy="19.7747" r="2" fill="blue"/>
<text x="83.5376" y="19.7747" font-family="Arial" font-size="5" fill="black">27</text>
<circle cx="81.0376" cy="22.3147" r="2" fill="blue"/>
<text x="83.5376" y="22.3147" font-family="Arial" font-size="5" fill="black">28</text>
<circle cx="81.0376" cy="24.8547" r="2" fill="blue"/>
<text x="83.5376" y="24.8547" font-family="Arial" font-size="5" fill="black">29</text>
<circle cx="81.0376" cy="27.3947" r="2" fill="blue"/>
<text x="83.5376" y="27.3947" font-family="Arial" font-size="5" fill="black">30</text>
<circle cx="81.0376" cy="29.9347" r="2" fill="blue"/>
<text x="83.5376" y="29.9347" font-family="Arial" font-size="5" fill="black">31</text>
<circle cx="81.0376" cy="32.4747" r="2" fill="blue"/>
<text x="83.5376" y="32.4747" font-family="Arial" font-size="5" fill="black">32</text>
<circle cx="88.6576" cy="17.2347" r="2" fill="blue"/>
<text x="91.1576" y="17.2347" font-family="Arial" font-size="5" fill="black">33</text>
<circle cx="88.6576" cy="19.7747" r="2" fill="blue"/>
<text x="91.1576" y="19.7747" font-family="Arial" font-size="5" fill="black">34</text>
<circle cx="88.6576" cy="22.3147" r="2" fill="blue"/>
<text x="91.1576" y="22.3147" font-family="Arial" font-size="5" fill="black">35</text>
<circle cx="88.6576" cy="24.8547" r="2" fill="blue"/>
<text x="91.1576" y="24.8547" font-family="Arial" font-size="5" fill="black">36</text>
<circle cx="88.6576" cy="27.3947" r="2" fill="blue"/>
<text x="91.1576" y="27.3947" font-family="Arial" font-size="5" fill="black">37</text>
<circle cx="88.6576" cy="29.9347" r="2" fill="blue"/>
<text x="91.1576" y="29.9347" font-family="Arial" font-size="5" fill="black">38</text>
<circle cx="88.6576" cy="32.4747" r="2" fill="blue"/>
<text x="91.1576" y="32.4747" font-family="Arial" font-size="5" fill="black">39</text>
</g>
</svg>
