<?xml version="1.0" encoding="UTF-8" standalone="no"?>
<svg xmlns="http://www.w3.org/2000/svg" viewBox="-5 -5 352 160">
<g transform="translate(0,0)">
<rect x="-5" y="-5" width="160" height="160" fill="white"/>
<g>
<line x1="5" y1="5" x2="25.7348" y2="28.9673" stroke="rgb(128,0,127)" stroke-width="0.8"/>
<line x1="25.7348" y1="28.9673" x2="18.1148" y2="23.8873" stroke="rgb(128,0,127)" stroke-width="0.8"/>
<line x1="18.1148" y1="23.8873" x2="18.1148" y2="36.5873" stroke="rgb(128,0,127)" stroke-width="0.8"/>
<line x1="18.1148" y1="36.5873" x2="18.1148" y2="39.1273" stroke="rgb(128,0,127)" stroke-width="0.8"/>
<line x1="18.1148" y1="39.1273" x2="25.7348" y2="26.4273" stroke="rgb(128,0,127)" stroke-width="0.8"/>
<line x1="25.7348" y1="26.4273" x2="32.4382" y2="126.074" stroke="rgb(128,0,127)" stroke-width="0.8"/>
<line x1="32.4382" y1="126.074" x2="46.8099" y2="104.413" stroke="rgb(128,0,127)" stroke-width="0.8"/>
<line x1="46.8099" y1="104.413" x2="46.8099" y2="99.3326" stroke="rgb(128,0,127)" stroke-width="0.8"/>
<line x1="46.8099" y1="99.3326" x2="46.8099" y2="106.953" stroke="rgb(128,0,127)" stroke-width="0.8"/>
<line x1="46.8099" y1="106.953" x2="6.62198" y2="114.517" stroke="rgb(128,0,127)" stroke-width="0.8"/>
<line x1="6.62198" y1="114.517" x2="27.3582" y2="126.074" stroke="rgb(128,0,127)" stroke-width="0.8"/>
<line x1="27.3582" y1="126.074" x2="59.5067" y2="117.088" stroke="rgb(128,0,127)" stroke-width="0.8"/>
<line x1="59.5067" y1="117.088" x2="59.5067" y2="119.628" stroke="rgb(128,0,127)" stroke-width="0.8"/>
<line x1="59.5067" y1="119.628" x2="51.8867" y2="122.168" stroke="rgb(128,0,127)" stroke-width="0.8"/>
<line x1="51.8867" y1="122.168" x2="51.8867" y2="124.708" stroke="rgb(128,0,127)" stroke-width="0.8"/>
<line x1="51.8867" y1="124.708" x2="46.8099" y2="112.033" stroke="rgb(128,0,127)" stroke-width="0.8"/>
<line x1="46.8099" y1="112.033" x2="54.4299" y2="114.573" stroke="rgb(128,0,127)" stroke-width="0.8"/>
<line x1="54.4299" y1="114.573" x2="18.1148" y2="31.5073" stroke="rgb(128,0,127)" stroke-width="0.8"/>
<line x1="18.1148" y1="31.5073" x2="54.4299" y2="109.493" stroke="rgb(128,0,127)" stroke-width="0.8"/>
<line x1="54.4299" y1="109.493" x2="16.782" y2="114.517" stroke="rgb(128,0,127)" stroke-width="0.8"/>
<line x1="16.782" y1="114.517" x2="59.5067" y2="124.708" stroke="rgb(128,0,127)" stroke-width="0.8"/>
<line x1="59.5067" y1="124.708" x2="59.5067" y2="112.008" stroke="rgb(128,0,127)" stroke-width="0.8"/>
<line x1="59.5067" y1="112.008" x2="145" y2="5" stroke="rgb(128,0,127)" stroke-width="0.8"/>
<line x1="145" y1="5" x2="34.9782" y2="126.074" stroke="rgb(128,0,127)" stroke-width="0.8"/>
<line x1="34.9782" y1="126.074" x2="14.242" y2="114.517" stroke="rgb(128,0,127)" stroke-width="0.8"/>
<line x1="14.242" y1="114.517" x2="9.16198" y2="114.517" stroke="rgb(128,0,127)" stroke-width="0.8"/>
<line x1="9.16198" y1="114.517" x2="46.8099" y2="101.873" stroke="rgb(128,0,127)" stroke-width="0.8"/>
<line x1="46.8099" y1="101.873" x2="51.8867" y2="114.548" stroke="rgb(128,0,127)" stroke-width="0.8"/>
<line x1="51.8867" y1="114.548" x2="51.8867" y2="112.008" stroke="rgb(128,0,127)" stroke-width="0.8"/>
<line x1="51.8867" y1="112.008" x2="51.8867" y2="127.248" stroke="rgb(128,0,127)" stroke-width="0.8"/>
<line x1="51.8867" y1="127.248" x2="25.7348" y2="23.8873" stroke="rgb(128,0,127)" stroke-width="0.8"/>
<line x1="25.7348" y1="23.8873" x2="54.4299" y2="101.873" stroke="rgb(128,0,127)" stroke-width="0.8"/>
<line x1="54.4299" y1="101.873" x2="5" y2="145" stroke="rgb(128,0,127)" stroke-width="0.8"/>
<line x1="5" y1="145" x2="25.7348" y2="36.5873" stroke="rgb(128,0,127)" stroke-width="0.8"/>
<line x1="25.7348" y1="36.5873" x2="25.7348" y2="39.1273" stroke="rgb(128,0,127)" stroke-width="0.8"/>
<line x1="25.7348" y1="39.1273" x2="18.1148" y2="34.0473" stroke="rgb(128,0,127)" stroke-width="0.8"/>
<line x1="18.1148" y1="34.0473" x2="46.8099" y2="109.493" stroke="rgb(128,0,127)" stroke-width="0.8"/>
<line x1="46.8099" y1="109.493" x2="59.5067" y2="114.548" stroke="rgb(128,0,127)" stroke-width="0.8"/>
<line x1="59.5067" y1="114.548" x2="18.1148" y2="28.9673" stroke="rgb(128,0,127)" stroke-width="0.8"/>
<line x1="18.1148" y1="28.9673" x2="25.7348" y2="31.5073" stroke="rgb(128,0,127)" stroke-width="0.8"/>
<line x1="25.7348" y1="31.5073" x2="37.5182" y2="126.074" stroke="rgb(128,0,127)" stroke-width="0.8"/>
<line x1="37.5182" y1="126.074" x2="51.8867" y2="119.628" stroke="rgb(128,0,127)" stroke-width="0.8"/>
<line x1="51.8867" y1="119.628" x2="29.8982" y2="126.074" stroke="rgb(128,0,127)" stroke-width="0.8"/>
<line x1="29.8982" y1="126.074" x2="54.4299" y2="99.3326" stroke="rgb(128,0,127)" stroke-width="0.8"/>
<line x1="54.4299" y1="99.3326" x2="54.4299" y2="112.033" stroke="rgb(128,0,127)" stroke-width="0.8"/>
<line x1="54.4299" y1="112.033" x2="51.8867" y2="117.088" stroke="rgb(128,0,127)" stroke-width="0.8"/>
<line x1="51.8867" y1="117.088" x2="11.702" y2="114.517" stroke="rgb(128,0,127)" stroke-width="0.8"/>
<line x1="11.702" y1="114.517" x2="54.4299" y2="106.953" stroke="rgb(128,0,127)" stroke-width="0.8"/>
<line x1="54.4299" y1="106.953" x2="46.8099" y2="114.573" stroke="rgb(128,0,127)" stroke-width="0.8"/>
<line x1="46.8099" y1="114.573" x2="54.4299" y2="104.413" stroke="rgb(128,0,127)" stroke-width="0.8"/>
<line x1="54.4299" y1="104.413" x2="18.1148" y2="26.4273" stroke="rgb(128,0,127)" stroke-width="0.8"/>
<line x1="18.1148" y1="26.4273" x2="59.5067" y2="122.168" stroke="rgb(128,0,127)" stroke-width="0.8"/>
<line x1="59.5067" y1="122.168" x2="145" y2="145" stroke="rgb(128,0,127)" stroke-width="0.8"/>
<line x1="145" y1="145" x2="59.5067" y2="127.248" stroke="rgb(128,0,127)" stroke-width="0.8"/>
<line x1="59.5067" y1="127.248" x2="25.7348" y2="34.0473" stroke="rgb(128,0,127)" stroke-width="0.8"/>
<line x1="25.7348" y1="34.0473" x2="5" y2="5" stroke="rgb(128,0,127)" stroke-width="0.8"/>
</g>
<text x="0" y="10" font-family="Arial" font-size="10">Initial Solution (Cost: 2385.67)</text>
</g>
<g transform="translate(176.00,0)">
<rect x="-5.00" y="-5.00" width="160.00" height="160.00" fill="white"/>
<g>
<line x1="5.00" y1="5.00" x2="25.73" y2="23.89" stroke="rgb(128,0,127)" stroke-width="0.8"/>
<line x1="25.73" y1="23.89" x2="25.73" y2="26.43" stroke="rgb(128,0,127)" stroke-width="0.8"/>
<line x1="25.73" y1="26.43" x2="25.73" y2="28.97" stroke="rgb(128,0,127)" stroke-width="0.8"/>
<line x1="25.73" y1="28.97" x2="25.73" y2="31.51" stroke="rgb(128,0,127)" stroke-width="0.8"/>
<line x1="25.73" y1="31.51" x2="25.73" y2="34.05" stroke="rgb(128,0,127)" stroke-width="0.8"/>
<line x1="25.73" y1="34.05" x2="145.00" y2="5.00" stroke="rgb(128,0,127)" stroke-width="0.8"/>
<line x1="145.00" y1="5.00" x2="145.00" y2="145.00" stroke="rgb(128,0,127)" stroke-width="0.8"/>
<line x1="145.00" y1="145.00" x2="59.51" y2="127.25" stroke="rgb(128,0,127)" stroke-width="0.8"/>
<line x1="59.51" y1="127.25" x2="59.51" y2="124.71" stroke="rgb(128,0,127)" stroke-width="0.8"/>
<line x1="59.51" y1="124.71" x2="59.51" y2="122.17" stroke="rgb(128,0,127)" stroke-width="0.8"/>
<line x1="59.51" y1="122.17" x2="59.51" y2="119.63" stroke="rgb(128,0,127)" stroke-width="0.8"/>
<line x1="59.51" y1="119.63" x2="59.51" y2="117.09" stroke="rgb(128,0,127)" stroke-width="0.8"/>
<line x1="59.51" y1="117.09" x2="59.51" y2="114.55" stroke="rgb(128,0,127)" stroke-width="0.8"/>
<line x1="59.51" y1="114.55" x2="59.51" y2="112.01" stroke="rgb(128,0,127)" stroke-width="0.8"/>
<line x1="59.51" y1="112.01" x2="54.43" y2="114.57" stroke="rgb(128,0,127)" stroke-width="0.8"/>
<line x1="54.43" y1="114.57" x2="51.89" y2="114.55" stroke="rgb(128,0,127)" stroke-width="0.8"/>
<line x1="51.89" y1="114.55" x2="51.89" y2="112.01" stroke="rgb(128,0,127)" stroke-width="0.8"/>
<line x1="51.89" y1="112.01" x2="54.43" y2="112.03" stroke="rgb(128,0,127)" stroke-width="0.8"/>
<line x1="54.43" y1="112.03" x2="54.43" y2="109.49" stroke="rgb(128,0,127)" stroke-width="0.8"/>
<line x1="54.43" y1="109.49" x2="54.43" y2="106.95" stroke="rgb(128,0,127)" stroke-width="0.8"/>
<line x1="54.43" y1="106.95" x2="54.43" y2="104.41" stroke="rgb(128,0,127)" stroke-width="0.8"/>
<line x1="54.43" y1="104.41" x2="54.43" y2="101.87" stroke="rgb(128,0,127)" stroke-width="0.8"/>
<line x1="54.43" y1="101.87" x2="54.43" y2="99.33" stroke="rgb(128,0,127)" stroke-width="0.8"/>
<line x1="54.43" y1="99.33" x2="46.81" y2="99.33" stroke="rgb(128,0,127)" stroke-width="0.8"/>
<line x1="46.81" y1="99.33" x2="46.81" y2="101.87" stroke="rgb(128,0,127)" stroke-width="0.8"/>
<line x1="46.81" y1="101.87" x2="46.81" y2="104.41" stroke="rgb(128,0,127)" stroke-width="0.8"/>
<line x1="46.81" y1="104.41" x2="46.81" y2="106.95" stroke="rgb(128,0,127)" stroke-width="0.8"/>
<line x1="46.81" y1="106.95" x2="46.81" y2="109.49" stroke="rgb(128,0,127)" stroke-width="0.8"/>
<line x1="46.81" y1="109.49" x2="46.81" y2="112.03" stroke="rgb(128,0,127)" stroke-width="0.8"/>
<line x1="46.81" y1="112.03" x2="46.81" y2="114.57" stroke="rgb(128,0,127)" stroke-width="0.8"/>
<line x1="46.81" y1="114.57" x2="51.89" y2="117.09" stroke="rgb(128,0,127)" stroke-width="0.8"/>
<line x1="51.89" y1="117.09" x2="51.89" y2="119.63" stroke="rgb(128,0,127)" stroke-width="0.8"/>
<line x1="51.89" y1="119.63" x2="51.89" y2="122.17" stroke="rgb(128,0,127)" stroke-width="0.8"/>
<line x1="51.89" y1="122.17" x2="51.89" y2="124.71" stroke="rgb(128,0,127)" stroke-width="0.8"/>
<line x1="51.89" y1="124.71" x2="51.89" y2="127.25" stroke="rgb(128,0,127)" stroke-width="0.8"/>
<line x1="51.89" y1="127.25" x2="37.52" y2="126.07" stroke="rgb(128,0,127)" stroke-width="0.8"/>
<line x1="37.52" y1="126.07" x2="34.98" y2="126.07" stroke="rgb(128,0,127)" stroke-width="0.8"/>
<line x1="34.98" y1="126.07" x2="32.44" y2="126.07" stroke="rgb(128,0,127)" stroke-width="0.8"/>
<line x1="32.44" y1="126.07" x2="29.90" y2="126.07" stroke="rgb(128,0,127)" stroke-width="0.8"/>
<line x1="29.90" y1="126.07" x2="27.36" y2="126.07" stroke="rgb(128,0,127)" stroke-width="0.8"/>
<line x1="27.36" y1="126.07" x2="5.00" y2="145.00" stroke="rgb(128,0,127)" stroke-width="0.8"/>
<line x1="5.00" y1="145.00" x2="6.62" y2="114.52" stroke="rgb(128,0,127)" stroke-width="0.8"/>
<line x1="6.62" y1="114.52" x2="9.16" y2="114.52" stroke="rgb(128,0,127)" stroke-width="0.8"/>
<line x1="9.16" y1="114.52" x2="11.70" y2="114.52" stroke="rgb(128,0,127)" stroke-width="0.8"/>
<line x1="11.70" y1="114.52" x2="14.24" y2="114.52" stroke="rgb(128,0,127)" stroke-width="0.8"/>
<line x1="14.24" y1="114.52" x2="16.78" y2="114.52" stroke="rgb(128,0,127)" stroke-width="0.8"/>
<line x1="16.78" y1="114.52" x2="25.73" y2="39.13" stroke="rgb(128,0,127)" stroke-width="0.8"/>
<line x1="25.73" y1="39.13" x2="25.73" y2="36.59" stroke="rgb(128,0,127)" stroke-width="0.8"/>
<line x1="25.73" y1="36.59" x2="18.11" y2="39.13" stroke="rgb(128,0,127)" stroke-width="0.8"/>
<line x1="18.11" y1="39.13" x2="18.11" y2="36.59" stroke="rgb(128,0,127)" stroke-width="0.8"/>
<line x1="18.11" y1="36.59" x2="18.11" y2="34.05" stroke="rgb(128,0,127)" stroke-width="0.8"/>
<line x1="18.11" y1="34.05" x2="18.11" y2="31.51" stroke="rgb(128,0,127)" stroke-width="0.8"/>
<line x1="18.11" y1="31.51" x2="18.11" y2="28.97" stroke="rgb(128,0,127)" stroke-width="0.8"/>
<line x1="18.11" y1="28.97" x2="18.11" y2="26.43" stroke="rgb(128,0,127)" stroke-width="0.8"/>
<line x1="18.11" y1="26.43" x2="18.11" y2="23.89" stroke="rgb(128,0,127)" stroke-width="0.8"/>
<line x1="18.11" y1="23.89" x2="5.00" y2="5.00" stroke="rgb(128,0,127)" stroke-width="0.8"/>
</g>
<text x="0.00" y="10.00" font-family="Arial" font-size="10">Final Solution (Cost: 687.50)</text>
</g>
</svg>
