<?xml version="1.0" encoding="UTF-8" standalone="no"?>
<svg xmlns="http://www.w3.org/2000/svg" viewBox="-5 -5 352 160">
<g transform="translate(0,0)">
<rect x="-5" y="-5" width="160" height="160" fill="white"/>
<g>
<line x1="5" y1="5" x2="102.883" y2="62.4906" stroke="rgb(128,0,127)" stroke-width="0.8"/>
<line x1="102.883" y1="62.4906" x2="50.1142" y2="88.3842" stroke="rgb(128,0,127)" stroke-width="0.8"/>
<line x1="50.1142" y1="88.3842" x2="110.503" y2="59.9506" stroke="rgb(128,0,127)" stroke-width="0.8"/>
<line x1="110.503" y1="59.9506" x2="110.503" y2="62.4906" stroke="rgb(128,0,127)" stroke-width="0.8"/>
<line x1="110.503" y1="62.4906" x2="134.212" y2="141.589" stroke="rgb(128,0,127)" stroke-width="0.8"/>
<line x1="134.212" y1="141.589" x2="145" y2="145" stroke="rgb(128,0,127)" stroke-width="0.8"/>
<line x1="145" y1="145" x2="145" y2="5" stroke="rgb(128,0,127)" stroke-width="0.8"/>
<line x1="145" y1="5" x2="129.132" y2="141.589" stroke="rgb(128,0,127)" stroke-width="0.8"/>
<line x1="129.132" y1="141.589" x2="129.132" y2="140.319" stroke="rgb(128,0,127)" stroke-width="0.8"/>
<line x1="129.132" y1="140.319" x2="45.0342" y2="88.3842" stroke="rgb(128,0,127)" stroke-width="0.8"/>
<line x1="45.0342" y1="88.3842" x2="110.503" y2="70.1106" stroke="rgb(128,0,127)" stroke-width="0.8"/>
<line x1="110.503" y1="70.1106" x2="110.503" y2="57.4106" stroke="rgb(128,0,127)" stroke-width="0.8"/>
<line x1="110.503" y1="57.4106" x2="110.503" y2="67.5706" stroke="rgb(128,0,127)" stroke-width="0.8"/>
<line x1="110.503" y1="67.5706" x2="134.212" y2="142.859" stroke="rgb(128,0,127)" stroke-width="0.8"/>
<line x1="134.212" y1="142.859" x2="102.883" y2="57.4106" stroke="rgb(128,0,127)" stroke-width="0.8"/>
<line x1="102.883" y1="57.4106" x2="51.8897" y2="27.9579" stroke="rgb(128,0,127)" stroke-width="0.8"/>
<line x1="51.8897" y1="27.9579" x2="102.883" y2="67.5706" stroke="rgb(128,0,127)" stroke-width="0.8"/>
<line x1="102.883" y1="67.5706" x2="45.0342" y2="87.1142" stroke="rgb(128,0,127)" stroke-width="0.8"/>
<line x1="45.0342" y1="87.1142" x2="129.132" y2="142.859" stroke="rgb(128,0,127)" stroke-width="0.8"/>
<line x1="129.132" y1="142.859" x2="50.1142" y2="85.8442" stroke="rgb(128,0,127)" stroke-width="0.8"/>
<line x1="50.1142" y1="85.8442" x2="102.883" y2="59.9506" stroke="rgb(128,0,127)" stroke-width="0.8"/>
<line x1="102.883" y1="59.9506" x2="102.883" y2="65.0306" stroke="rgb(128,0,127)" stroke-width="0.8"/>
<line x1="102.883" y1="65.0306" x2="110.473" y2="51.547" stroke="rgb(128,0,127)" stroke-width="0.8"/>
<line x1="110.473" y1="51.547" x2="50.1142" y2="87.1142" stroke="rgb(128,0,127)" stroke-width="0.8"/>
<line x1="50.1142" y1="87.1142" x2="105.393" y2="51.547" stroke="rgb(128,0,127)" stroke-width="0.8"/>
<line x1="105.393" y1="51.547" x2="110.473" y2="49.007" stroke="rgb(128,0,127)" stroke-width="0.8"/>
<line x1="110.473" y1="49.007" x2="134.212" y2="144.129" stroke="rgb(128,0,127)" stroke-width="0.8"/>
<line x1="134.212" y1="144.129" x2="49.3497" y2="27.9579" stroke="rgb(128,0,127)" stroke-width="0.8"/>
<line x1="49.3497" y1="27.9579" x2="5" y2="145" stroke="rgb(128,0,127)" stroke-width="0.8"/>
<line x1="5" y1="145" x2="105.393" y2="50.277" stroke="rgb(128,0,127)" stroke-width="0.8"/>
<line x1="105.393" y1="50.277" x2="129.132" y2="144.129" stroke="rgb(128,0,127)" stroke-width="0.8"/>
<line x1="129.132" y1="144.129" x2="54.4297" y2="27.9579" stroke="rgb(128,0,127)" stroke-width="0.8"/>
<line x1="54.4297" y1="27.9579" x2="102.883" y2="54.8706" stroke="rgb(128,0,127)" stroke-width="0.8"/>
<line x1="102.883" y1="54.8706" x2="110.503" y2="54.8706" stroke="rgb(128,0,127)" stroke-width="0.8"/>
<line x1="110.503" y1="54.8706" x2="50.1142" y2="89.6542" stroke="rgb(128,0,127)" stroke-width="0.8"/>
<line x1="50.1142" y1="89.6542" x2="44.2697" y2="27.9579" stroke="rgb(128,0,127)" stroke-width="0.8"/>
<line x1="44.2697" y1="27.9579" x2="46.8097" y2="27.9579" stroke="rgb(128,0,127)" stroke-width="0.8"/>
<line x1="46.8097" y1="27.9579" x2="102.883" y2="70.1106" stroke="rgb(128,0,127)" stroke-width="0.8"/>
<line x1="102.883" y1="70.1106" x2="110.473" y2="50.277" stroke="rgb(128,0,127)" stroke-width="0.8"/>
<line x1="110.473" y1="50.277" x2="110.473" y2="47.737" stroke="rgb(128,0,127)" stroke-width="0.8"/>
<line x1="110.473" y1="47.737" x2="45.0342" y2="85.8442" stroke="rgb(128,0,127)" stroke-width="0.8"/>
<line x1="45.0342" y1="85.8442" x2="134.212" y2="140.319" stroke="rgb(128,0,127)" stroke-width="0.8"/>
<line x1="134.212" y1="140.319" x2="105.393" y2="47.737" stroke="rgb(128,0,127)" stroke-width="0.8"/>
<line x1="105.393" y1="47.737" x2="110.503" y2="65.0306" stroke="rgb(128,0,127)" stroke-width="0.8"/>
<line x1="110.503" y1="65.0306" x2="105.393" y2="49.007" stroke="rgb(128,0,127)" stroke-width="0.8"/>
<line x1="105.393" y1="49.007" x2="45.0342" y2="89.6542" stroke="rgb(128,0,127)" stroke-width="0.8"/>
<line x1="45.0342" y1="89.6542" x2="5" y2="5" stroke="rgb(128,0,127)" stroke-width="0.8"/>
</g>
<text x="0" y="10" font-family="Arial" font-size="10">Initial Solution (Cost: 3087.18)</text>
</g>
<g transform="translate(176.00,0)">
<rect x="-5.00" y="-5.00" width="160.00" height="160.00" fill="white"/>
<g>
<line x1="134.21" y1="141.59" x2="134.21" y2="142.86" stroke="rgb(128,0,127)" stroke-width="0.8"/>
<line x1="134.21" y1="142.86" x2="134.21" y2="144.13" stroke="rgb(128,0,127)" stroke-width="0.8"/>
<line x1="134.21" y1="144.13" x2="145.00" y2="145.00" stroke="rgb(128,0,127)" stroke-width="0.8"/>
<line x1="145.00" y1="145.00" x2="134.21" y2="140.32" stroke="rgb(128,0,127)" stroke-width="0.8"/>
<line x1="134.21" y1="140.32" x2="129.13" y2="140.32" stroke="rgb(128,0,127)" stroke-width="0.8"/>
<line x1="129.13" y1="140.32" x2="129.13" y2="141.59" stroke="rgb(128,0,127)" stroke-width="0.8"/>
<line x1="129.13" y1="141.59" x2="129.13" y2="142.86" stroke="rgb(128,0,127)" stroke-width="0.8"/>
<line x1="129.13" y1="142.86" x2="129.13" y2="144.13" stroke="rgb(128,0,127)" stroke-width="0.8"/>
<line x1="129.13" y1="144.13" x2="5.00" y2="145.00" stroke="rgb(128,0,127)" stroke-width="0.8"/>
<line x1="5.00" y1="145.00" x2="45.03" y2="89.65" stroke="rgb(128,0,127)" stroke-width="0.8"/>
<line x1="45.03" y1="89.65" x2="45.03" y2="88.38" stroke="rgb(128,0,127)" stroke-width="0.8"/>
<line x1="45.03" y1="88.38" x2="45.03" y2="87.11" stroke="rgb(128,0,127)" stroke-width="0.8"/>
<line x1="45.03" y1="87.11" x2="45.03" y2="85.84" stroke="rgb(128,0,127)" stroke-width="0.8"/>
<line x1="45.03" y1="85.84" x2="50.11" y2="89.65" stroke="rgb(128,0,127)" stroke-width="0.8"/>
<line x1="50.11" y1="89.65" x2="50.11" y2="88.38" stroke="rgb(128,0,127)" stroke-width="0.8"/>
<line x1="50.11" y1="88.38" x2="50.11" y2="87.11" stroke="rgb(128,0,127)" stroke-width="0.8"/>
<line x1="50.11" y1="87.11" x2="50.11" y2="85.84" stroke="rgb(128,0,127)" stroke-width="0.8"/>
<line x1="50.11" y1="85.84" x2="102.88" y2="54.87" stroke="rgb(128,0,127)" stroke-width="0.8"/>
<line x1="102.88" y1="54.87" x2="102.88" y2="57.41" stroke="rgb(128,0,127)" stroke-width="0.8"/>
<line x1="102.88" y1="57.41" x2="102.88" y2="59.95" stroke="rgb(128,0,127)" stroke-width="0.8"/>
<line x1="102.88" y1="59.95" x2="102.88" y2="62.49" stroke="rgb(128,0,127)" stroke-width="0.8"/>
<line x1="102.88" y1="62.49" x2="102.88" y2="65.03" stroke="rgb(128,0,127)" stroke-width="0.8"/>
<line x1="102.88" y1="65.03" x2="102.88" y2="67.57" stroke="rgb(128,0,127)" stroke-width="0.8"/>
<line x1="102.88" y1="67.57" x2="102.88" y2="70.11" stroke="rgb(128,0,127)" stroke-width="0.8"/>
<line x1="102.88" y1="70.11" x2="110.50" y2="70.11" stroke="rgb(128,0,127)" stroke-width="0.8"/>
<line x1="110.50" y1="70.11" x2="110.50" y2="67.57" stroke="rgb(128,0,127)" stroke-width="0.8"/>
<line x1="110.50" y1="67.57" x2="110.50" y2="65.03" stroke="rgb(128,0,127)" stroke-width="0.8"/>
<line x1="110.50" y1="65.03" x2="110.50" y2="62.49" stroke="rgb(128,0,127)" stroke-width="0.8"/>
<line x1="110.50" y1="62.49" x2="110.50" y2="59.95" stroke="rgb(128,0,127)" stroke-width="0.8"/>
<line x1="110.50" y1="59.95" x2="110.50" y2="57.41" stroke="rgb(128,0,127)" stroke-width="0.8"/>
<line x1="110.50" y1="57.41" x2="110.50" y2="54.87" stroke="rgb(128,0,127)" stroke-width="0.8"/>
<line x1="110.50" y1="54.87" x2="105.39" y2="51.55" stroke="rgb(128,0,127)" stroke-width="0.8"/>
<line x1="105.39" y1="51.55" x2="105.39" y2="50.28" stroke="rgb(128,0,127)" stroke-width="0.8"/>
<line x1="105.39" y1="50.28" x2="105.39" y2="47.74" stroke="rgb(128,0,127)" stroke-width="0.8"/>
<line x1="105.39" y1="47.74" x2="105.39" y2="49.01" stroke="rgb(128,0,127)" stroke-width="0.8"/>
<line x1="105.39" y1="49.01" x2="110.47" y2="51.55" stroke="rgb(128,0,127)" stroke-width="0.8"/>
<line x1="110.47" y1="51.55" x2="110.47" y2="50.28" stroke="rgb(128,0,127)" stroke-width="0.8"/>
<line x1="110.47" y1="50.28" x2="110.47" y2="49.01" stroke="rgb(128,0,127)" stroke-width="0.8"/>
<line x1="110.47" y1="49.01" x2="110.47" y2="47.74" stroke="rgb(128,0,127)" stroke-width="0.8"/>
<line x1="110.47" y1="47.74" x2="145.00" y2="5.00" stroke="rgb(128,0,127)" stroke-width="0.8"/>
<line x1="145.00" y1="5.00" x2="54.43" y2="27.96" stroke="rgb(128,0,127)" stroke-width="0.8"/>
<line x1="54.43" y1="27.96" x2="51.89" y2="27.96" stroke="rgb(128,0,127)" stroke-width="0.8"/>
<line x1="51.89" y1="27.96" x2="49.35" y2="27.96" stroke="rgb(128,0,127)" stroke-width="0.8"/>
<line x1="49.35" y1="27.96" x2="46.81" y2="27.96" stroke="rgb(128,0,127)" stroke-width="0.8"/>
<line x1="46.81" y1="27.96" x2="44.27" y2="27.96" stroke="rgb(128,0,127)" stroke-width="0.8"/>
<line x1="44.27" y1="27.96" x2="5.00" y2="5.00" stroke="rgb(128,0,127)" stroke-width="0.8"/>
<line x1="5.00" y1="5.00" x2="5.00" y2="5.00" stroke="rgb(128,0,127)" stroke-width="0.8"/>
</g>
<text x="0.00" y="10.00" font-family="Arial" font-size="10">Final Solution (Cost: 564.40)</text>
</g>
</svg>
