<?xml version="1.0" encoding="UTF-8" standalone="no"?>
<svg xmlns="http://www.w3.org/2000/svg" viewBox="-5 -5 135 135">
<rect x="-5" y="-5" width="135" height="135" fill="white"/>
<g>
<line x1="120" y1="5" x2="103.571" y2="74.2138" stroke="rgb(0,0,255)" stroke-width="0.8"/>
<line x1="103.571" y1="74.2138" x2="103.571" y2="75.4838" stroke="rgb(7,0,248)" stroke-width="0.8"/>
<line x1="103.571" y1="75.4838" x2="103.571" y2="76.7538" stroke="rgb(14,0,241)" stroke-width="0.8"/>
<line x1="103.571" y1="76.7538" x2="103.571" y2="78.0238" stroke="rgb(21,0,234)" stroke-width="0.8"/>
<line x1="103.571" y1="78.0238" x2="108.651" y2="74.2138" stroke="rgb(28,0,227)" stroke-width="0.8"/>
<line x1="108.651" y1="74.2138" x2="108.651" y2="75.4838" stroke="rgb(35,0,220)" stroke-width="0.8"/>
<line x1="108.651" y1="75.4838" x2="108.651" y2="76.7538" stroke="rgb(42,0,213)" stroke-width="0.8"/>
<line x1="108.651" y1="76.7538" x2="108.651" y2="78.0238" stroke="rgb(49,0,206)" stroke-width="0.8"/>
<line x1="108.651" y1="78.0238" x2="120" y2="120" stroke="rgb(56,0,199)" stroke-width="0.8"/>
<line x1="120" y1="120" x2="55.7569" y2="83.0949" stroke="rgb(63,0,192)" stroke-width="0.8"/>
<line x1="55.7569" y1="83.0949" x2="55.7569" y2="81.8249" stroke="rgb(70,0,185)" stroke-width="0.8"/>
<line x1="55.7569" y1="81.8249" x2="55.7569" y2="80.5549" stroke="rgb(77,0,178)" stroke-width="0.8"/>
<line x1="55.7569" y1="80.5549" x2="55.7569" y2="79.2849" stroke="rgb(85,0,170)" stroke-width="0.8"/>
<line x1="55.7569" y1="79.2849" x2="50.6769" y2="79.2849" stroke="rgb(92,0,163)" stroke-width="0.8"/>
<line x1="50.6769" y1="79.2849" x2="50.6769" y2="80.5549" stroke="rgb(99,0,156)" stroke-width="0.8"/>
<line x1="50.6769" y1="80.5549" x2="50.6769" y2="81.8249" stroke="rgb(106,0,149)" stroke-width="0.8"/>
<line x1="50.6769" y1="81.8249" x2="50.6769" y2="83.0949" stroke="rgb(113,0,142)" stroke-width="0.8"/>
<line x1="50.6769" y1="83.0949" x2="5" y2="120" stroke="rgb(120,0,135)" stroke-width="0.8"/>
<line x1="5" y1="120" x2="32.2915" y2="29.2656" stroke="rgb(127,0,128)" stroke-width="0.8"/>
<line x1="32.2915" y1="29.2656" x2="32.2915" y2="27.9956" stroke="rgb(134,0,121)" stroke-width="0.8"/>
<line x1="32.2915" y1="27.9956" x2="32.2915" y2="26.7256" stroke="rgb(141,0,114)" stroke-width="0.8"/>
<line x1="32.2915" y1="26.7256" x2="32.2915" y2="25.4556" stroke="rgb(148,0,107)" stroke-width="0.8"/>
<line x1="32.2915" y1="25.4556" x2="27.2115" y2="25.4556" stroke="rgb(155,0,100)" stroke-width="0.8"/>
<line x1="27.2115" y1="25.4556" x2="27.2115" y2="26.7256" stroke="rgb(162,0,93)" stroke-width="0.8"/>
<line x1="27.2115" y1="26.7256" x2="27.2115" y2="27.9956" stroke="rgb(170,0,85)" stroke-width="0.8"/>
<line x1="27.2115" y1="27.9956" x2="27.2115" y2="29.2656" stroke="rgb(177,0,78)" stroke-width="0.8"/>
<line x1="27.2115" y1="29.2656" x2="11.8655" y2="22.7596" stroke="rgb(184,0,71)" stroke-width="0.8"/>
<line x1="11.8655" y1="22.7596" x2="11.8655" y2="24.0296" stroke="rgb(191,0,64)" stroke-width="0.8"/>
<line x1="11.8655" y1="24.0296" x2="11.8655" y2="25.2996" stroke="rgb(198,0,57)" stroke-width="0.8"/>
<line x1="11.8655" y1="25.2996" x2="11.8655" y2="26.5696" stroke="rgb(205,0,50)" stroke-width="0.8"/>
<line x1="11.8655" y1="26.5696" x2="6.78548" y2="26.5696" stroke="rgb(212,0,43)" stroke-width="0.8"/>
<line x1="6.78548" y1="26.5696" x2="6.78548" y2="25.2996" stroke="rgb(219,0,36)" stroke-width="0.8"/>
<line x1="6.78548" y1="25.2996" x2="6.78548" y2="24.0296" stroke="rgb(226,0,29)" stroke-width="0.8"/>
<line x1="6.78548" y1="24.0296" x2="6.78548" y2="22.7596" stroke="rgb(233,0,22)" stroke-width="0.8"/>
<line x1="6.78548" y1="22.7596" x2="5" y2="5" stroke="rgb(240,0,15)" stroke-width="0.8"/>
<line x1="5" y1="5" x2="5" y2="5" stroke="rgb(247,0,8)" stroke-width="0.8"/>
</g>
<g>
<circle cx="5" cy="5" r="2" fill="blue"/>
<text x="7.5" y="5" font-family="Arial" font-size="5" fill="black">0</text>
<circle cx="120" cy="5" r="2" fill="blue"/>
<text x="122.5" y="5" font-family="Arial" font-size="5" fill="black">1</text>
<circle cx="5" cy="120" r="2" fill="blue"/>
<text x="7.5" y="120" font-family="Arial" font-size="5" fill="black">2</text>
<circle cx="120" cy="120" r="2" fill="blue"/>
<text x="122.5" y="120" font-family="Arial" font-size="5" fill="black">3</text>
<circle cx="27.2115" cy="25.4556" r="2" fill="blue"/>
<text x="29.7115" y="25.4556" font-family="Arial" font-size="5" fill="black">4</text>
<circle cx="27.2115" cy="26.7256" r="2" fill="blue"/>
<text x="29.7115" y="26.7256" font-family="Arial" font-size="5" fill="black">5</text>
<circle cx="27.2115" cy="27.9956" r="2" fill="blue"/>
<text x="29.7115" y="27.9956" font-family="Arial" font-size="5" fill="black">6</text>
<circle cx="27.2115" cy="29.2656" r="2" fill="blue"/>
<text x="29.7115" y="29.2656" font-family="Arial" font-size="5" fill="black">7</text>
<circle cx="32.2915" cy="25.4556" r="2" fill="blue"/>
<text x="34.7915" y="25.4556" font-family="Arial" font-size="5" fill="black">8</text>
<circle cx="32.2915" cy="26.7256" r="2" fill="blue"/>
<text x="34.7915" y="26.7256" font-family="Arial" font-size="5" fill="black">9</text>
<circle cx="32.2915" cy="27.9956" r="2" fill="blue"/>
<text x="34.7915" y="27.9956" font-family="Arial" font-size="5" fill="black">10</text>
<circle cx="32.2915" cy="29.2656" r="2" fill="blue"/>
<text x="34.7915" y="29.2656" font-family="Arial" font-size="5" fill="black">11</text>
<circle cx="103.571" cy="74.2138" r="2" fill="blue"/>
<text x="106.071" y="74.2138" font-family="Arial" font-size="5" fill="black">12</text>
<circle cx="103.571" cy="75.4838" r="2" fill="blue"/>
<text x="106.071" y="75.4838" font-family="Arial" font-size="5" fill="black">13</text>
<circle cx="103.571" cy="76.7538" r="2" fill="blue"/>
<text x="106.071" y="76.7538" font-family="Arial" font-size="5" fill="black">14</text>
<circle cx="103.571" cy="78.0238" r="2" fill="blue"/>
<text x="106.071" y="78.0238" font-family="Arial" font-size="5" fill="black">15</text>
<circle cx="108.651" cy="74.2138" r="2" fill="blue"/>
<text x="111.151" y="74.2138" font-family="Arial" font-size="5" fill="black">16</text>
<circle cx="108.651" cy="75.4838" r="2" fill="blue"/>
<text x="111.151" y="75.4838" font-family="Arial" font-size="5" fill="black">17</text>
<circle cx="108.651" cy="76.7538" r="2" fill="blue"/>
<text x="111.151" y="76.7538" font-family="Arial" font-size="5" fill="black">18</text>
<circle cx="108.651" cy="78.0238" r="2" fill="blue"/>
<text x="111.151" y="78.0238" font-family="Arial" font-size="5" fill="black">19</text>
<circle cx="50.6769" cy="79.2849" r="2" fill="blue"/>
<text x="53.1769" y="79.2849" font-family="Arial" font-size="5" fill="black">20</text>
<circle cx="50.6769" cy="80.5549" r="2" fill="blue"/>
<text x="53.1769" y="80.5549" font-family="Arial" font-size="5" fill="black">21</text>
<circle cx="50.6769" cy="81.8249" r="2" fill="blue"/>
<text x="53.1769" y="81.8249" font-family="Arial" font-size="5" fill="black">22</text>
<circle cx="50.6769" cy="83.0949" r="2" fill="blue"/>
<text x="53.1769" y="83.0949" font-family="Arial" font-size="5" fill="black">23</text>
<circle cx="55.7569" cy="79.2849" r="2" fill="blue"/>
<text x="58.2569" y="79.2849" font-family="Arial" font-size="5" fill="black">24</text>
<circle cx="55.7569" cy="80.5549" r="2" fill="blue"/>
<text x="58.2569" y="80.5549" font-family="Arial" font-size="5" fill="black">25</text>
<circle cx="55.7569" cy="81.8249" r="2" fill="blue"/>
<text x="58.2569" y="81.8249" font-family="Arial" font-size="5" fill="black">26</text>
<circle cx="55.7569" cy="83.0949" r="2" fill="blue"/>
<text x="58.2569" y="83.0949" font-family="Arial" font-size="5" fill="black">27</text>
<circle cx="6.78548" cy="22.7596" r="2" fill="blue"/>
<text x="9.28548" y="22.7596" font-family="Arial" font-size="5" fill="black">28</text>
<circle cx="6.78548" cy="24.0296" r="2" fill="blue"/>
<text x="9.28548" y="24.0296" font-family="Arial" font-size="5" fill="black">29</text>
<circle cx="6.78548" cy="25.2996" r="2" fill="blue"/>
<text x="9.28548" y="25.2996" font-family="Arial" font-size="5" fill="black">30</text>
<circle cx="6.78548" cy="26.5696" r="2" fill="blue"/>
<text x="9.28548" y="26.5696" font-family="Arial" font-size="5" fill="black">31</text>
<circle cx="11.8655" cy="22.7596" r="2" fill="blue"/>
<text x="14.3655" y="22.7596" font-family="Arial" font-size="5" fill="black">32</text>
<circle cx="11.8655" cy="24.0296" r="2" fill="blue"/>
<text x="14.3655" y="24.0296" font-family="Arial" font-size="5" fill="black">33</text>
<circle cx="11.8655" cy="25.2996" r="2" fill="blue"/>
<text x="14.3655" y="25.2996" font-family="Arial" font-size="5" fill="black">34</text>
<circle cx="11.8655" cy="26.5696" r="2" fill="blue"/>
<text x="14.3655" y="26.5696" font-family="Arial" font-size="5" fill="black">35</text>
</g>
</svg>
