<?xml version="1.0" encoding="UTF-8" standalone="no"?>
<svg xmlns="http://www.w3.org/2000/svg" viewBox="0 0 100 100">
<g stroke="red" stroke-width="0.5" fill="none">
<path d="M5 5 L 9.52362 27.6067 L 9.52362 30.1467 L 9.52362 32.6867 L 9.52362 35.2267 L 9.52362 37.7667 L 9.52362 40.3067 L 9.52362 42.8467 L 17.1436 27.6067 L 17.1436 30.1467 L 17.1436 32.6867 L 17.1436 35.2267 L 17.1436 37.7667 L 17.1436 40.3067 L 17.1436 42.8467 L 5 95 L 60.2939 91.4509 L 60.2939 90.1809 L 60.2939 88.9109 L 60.2939 87.6409 L 65.3739 87.6409 L 65.3739 88.9109 L 65.3739 90.1809 L 65.3739 91.4509 L 95 95 L 72.0465 44.5297 L 74.5865 44.5297 L 77.1265 44.5297 L 79.6665 44.5297 L 82.2065 44.5297 L 95 5 L 5 5"/>
</g>
<g>
<circle cx="5" cy="5" r="1" fill="blue"/>
<circle cx="95" cy="5" r="1" fill="blue"/>
<circle cx="5" cy="95" r="1" fill="blue"/>
<circle cx="95" cy="95" r="1" fill="blue"/>
<circle cx="60.2939" cy="87.6409" r="1" fill="blue"/>
<circle cx="60.2939" cy="88.9109" r="1" fill="blue"/>
<circle cx="60.2939" cy="90.1809" r="1" fill="blue"/>
<circle cx="60.2939" cy="91.4509" r="1" fill="blue"/>
<circle cx="65.3739" cy="87.6409" r="1" fill="blue"/>
<circle cx="65.3739" cy="88.9109" r="1" fill="blue"/>
<circle cx="65.3739" cy="90.1809" r="1" fill="blue"/>
<circle cx="65.3739" cy="91.4509" r="1" fill="blue"/>
<circle cx="9.52362" cy="27.6067" r="1" fill="blue"/>
<circle cx="9.52362" cy="30.1467" r="1" fill="blue"/>
<circle cx="9.52362" cy="32.6867" r="1" fill="blue"/>
<circle cx="9.52362" cy="35.2267" r="1" fill="blue"/>
<circle cx="9.52362" cy="37.7667" r="1" fill="blue"/>
<circle cx="9.52362" cy="40.3067" r="1" fill="blue"/>
<circle cx="9.52362" cy="42.8467" r="1" fill="blue"/>
<circle cx="17.1436" cy="27.6067" r="1" fill="blue"/>
<circle cx="17.1436" cy="30.1467" r="1" fill="blue"/>
<circle cx="17.1436" cy="32.6867" r="1" fill="blue"/>
<circle cx="17.1436" cy="35.2267" r="1" fill="blue"/>
<circle cx="17.1436" cy="37.7667" r="1" fill="blue"/>
<circle cx="17.1436" cy="40.3067" r="1" fill="blue"/>
<circle cx="17.1436" cy="42.8467" r="1" fill="blue"/>
<circle cx="72.0465" cy="44.5297" r="1" fill="blue"/>
<circle cx="74.5865" cy="44.5297" r="1" fill="blue"/>
<circle cx="77.1265" cy="44.5297" r="1" fill="blue"/>
<circle cx="79.6665" cy="44.5297" r="1" fill="blue"/>
<circle cx="82.2065" cy="44.5297" r="1" fill="blue"/>
</g>
</svg>