<?xml version="1.0" encoding="UTF-8" standalone="no"?>
<svg xmlns="http://www.w3.org/2000/svg" viewBox="0 0 150 150">
<g>
<circle cx="5" cy="5" r="1" fill="blue"/>
<circle cx="145" cy="5" r="1" fill="blue"/>
<circle cx="5" cy="145" r="1" fill="blue"/>
<circle cx="145" cy="145" r="1" fill="blue"/>
<circle cx="108.98" cy="70.6136" r="1" fill="blue"/>
<circle cx="108.98" cy="71.8836" r="1" fill="blue"/>
<circle cx="108.98" cy="73.1536" r="1" fill="blue"/>
<circle cx="108.98" cy="74.4236" r="1" fill="blue"/>
<circle cx="114.06" cy="70.6136" r="1" fill="blue"/>
<circle cx="114.06" cy="71.8836" r="1" fill="blue"/>
<circle cx="114.06" cy="73.1536" r="1" fill="blue"/>
<circle cx="114.06" cy="74.4236" r="1" fill="blue"/>
<circle cx="113.385" cy="77.2691" r="1" fill="blue"/>
<circle cx="113.385" cy="78.5391" r="1" fill="blue"/>
<circle cx="113.385" cy="79.8091" r="1" fill="blue"/>
<circle cx="113.385" cy="81.0791" r="1" fill="blue"/>
<circle cx="118.465" cy="77.2691" r="1" fill="blue"/>
<circle cx="118.465" cy="78.5391" r="1" fill="blue"/>
<circle cx="118.465" cy="79.8091" r="1" fill="blue"/>
<circle cx="118.465" cy="81.0791" r="1" fill="blue"/>
<circle cx="49.508" cy="77.5455" r="1" fill="blue"/>
<circle cx="49.508" cy="80.0855" r="1" fill="blue"/>
<circle cx="49.508" cy="82.6255" r="1" fill="blue"/>
<circle cx="49.508" cy="85.1655" r="1" fill="blue"/>
<circle cx="49.508" cy="87.7055" r="1" fill="blue"/>
<circle cx="49.508" cy="90.2455" r="1" fill="blue"/>
<circle cx="49.508" cy="92.7855" r="1" fill="blue"/>
<circle cx="57.128" cy="77.5455" r="1" fill="blue"/>
<circle cx="57.128" cy="80.0855" r="1" fill="blue"/>
<circle cx="57.128" cy="82.6255" r="1" fill="blue"/>
<circle cx="57.128" cy="85.1655" r="1" fill="blue"/>
<circle cx="57.128" cy="87.7055" r="1" fill="blue"/>
<circle cx="57.128" cy="90.2455" r="1" fill="blue"/>
<circle cx="57.128" cy="92.7855" r="1" fill="blue"/>
<circle cx="105.41" cy="101.881" r="1" fill="blue"/>
<circle cx="105.41" cy="103.151" r="1" fill="blue"/>
<circle cx="105.41" cy="104.421" r="1" fill="blue"/>
<circle cx="105.41" cy="105.691" r="1" fill="blue"/>
<circle cx="110.49" cy="101.881" r="1" fill="blue"/>
<circle cx="110.49" cy="103.151" r="1" fill="blue"/>
<circle cx="110.49" cy="104.421" r="1" fill="blue"/>
<circle cx="110.49" cy="105.691" r="1" fill="blue"/>
<circle cx="72.0906" cy="100.051" r="1" fill="blue"/>
<circle cx="72.0906" cy="101.321" r="1" fill="blue"/>
<circle cx="72.0906" cy="102.591" r="1" fill="blue"/>
<circle cx="72.0906" cy="103.861" r="1" fill="blue"/>
<circle cx="77.1706" cy="100.051" r="1" fill="blue"/>
<circle cx="77.1706" cy="101.321" r="1" fill="blue"/>
<circle cx="77.1706" cy="102.591" r="1" fill="blue"/>
<circle cx="77.1706" cy="103.861" r="1" fill="blue"/>
</g>
</svg>