<?xml version="1.0" encoding="UTF-8" standalone="no"?>
<svg xmlns="http://www.w3.org/2000/svg" viewBox="0 0 50 50">
<g stroke="red" stroke-width="0.5" fill="none">
<path d="M5 5 L 45 5 L 45 45 L 34.1934 34.6974 L 31.6534 34.6974 L 29.1134 34.6974 L 26.5734 34.6974 L 24.0334 34.6974 L 18.1247 43.7291 L 15.5847 43.7291 L 13.0447 43.7291 L 10.5047 43.7291 L 7.9647 43.7291 L 5 45 L 5 5"/>
</g>
<g>
<circle cx="5" cy="5" r="1" fill="blue"/>
<circle cx="45" cy="5" r="1" fill="blue"/>
<circle cx="5" cy="45" r="1" fill="blue"/>
<circle cx="45" cy="45" r="1" fill="blue"/>
<circle cx="24.0334" cy="34.6974" r="1" fill="blue"/>
<circle cx="26.5734" cy="34.6974" r="1" fill="blue"/>
<circle cx="29.1134" cy="34.6974" r="1" fill="blue"/>
<circle cx="31.6534" cy="34.6974" r="1" fill="blue"/>
<circle cx="34.1934" cy="34.6974" r="1" fill="blue"/>
<circle cx="7.9647" cy="43.7291" r="1" fill="blue"/>
<circle cx="10.5047" cy="43.7291" r="1" fill="blue"/>
<circle cx="13.0447" cy="43.7291" r="1" fill="blue"/>
<circle cx="15.5847" cy="43.7291" r="1" fill="blue"/>
<circle cx="18.1247" cy="43.7291" r="1" fill="blue"/>
</g>
</svg>