<?xml version="1.0" encoding="UTF-8" standalone="no"?>
<svg xmlns="http://www.w3.org/2000/svg" viewBox="0 0 75 75">
<g stroke="red" stroke-width="0.5" fill="none">
<path d="M5 5 L 21.1764 38.7343 L 21.1764 41.2743 L 21.1764 43.8143 L 21.1764 46.3543 L 21.1764 48.8943 L 21.1764 51.4343 L 21.1764 53.9743 L 5 70 L 28.7964 53.9743 L 28.7964 51.4343 L 28.7964 48.8943 L 28.7964 46.3543 L 28.7964 43.8143 L 28.7964 38.7343 L 28.7964 41.2743 L 38.6662 49.7911 L 38.6662 51.0611 L 38.6662 52.3311 L 38.6662 53.6011 L 43.7462 53.6011 L 43.7462 52.3311 L 43.7462 51.0611 L 43.7462 49.7911 L 43.7767 46.4263 L 43.7767 45.1563 L 43.7767 43.8863 L 43.7767 42.6163 L 48.8567 42.6163 L 48.8567 43.8863 L 48.8567 45.1563 L 48.8567 46.4263 L 70 70 L 70 5 L 5 5"/>
</g>
<g>
<circle cx="5" cy="5" r="1" fill="blue"/>
<circle cx="70" cy="5" r="1" fill="blue"/>
<circle cx="5" cy="70" r="1" fill="blue"/>
<circle cx="70" cy="70" r="1" fill="blue"/>
<circle cx="21.1764" cy="38.7343" r="1" fill="blue"/>
<circle cx="21.1764" cy="41.2743" r="1" fill="blue"/>
<circle cx="21.1764" cy="43.8143" r="1" fill="blue"/>
<circle cx="21.1764" cy="46.3543" r="1" fill="blue"/>
<circle cx="21.1764" cy="48.8943" r="1" fill="blue"/>
<circle cx="21.1764" cy="51.4343" r="1" fill="blue"/>
<circle cx="21.1764" cy="53.9743" r="1" fill="blue"/>
<circle cx="28.7964" cy="38.7343" r="1" fill="blue"/>
<circle cx="28.7964" cy="41.2743" r="1" fill="blue"/>
<circle cx="28.7964" cy="43.8143" r="1" fill="blue"/>
<circle cx="28.7964" cy="46.3543" r="1" fill="blue"/>
<circle cx="28.7964" cy="48.8943" r="1" fill="blue"/>
<circle cx="28.7964" cy="51.4343" r="1" fill="blue"/>
<circle cx="28.7964" cy="53.9743" r="1" fill="blue"/>
<circle cx="43.7767" cy="42.6163" r="1" fill="blue"/>
<circle cx="43.7767" cy="43.8863" r="1" fill="blue"/>
<circle cx="43.7767" cy="45.1563" r="1" fill="blue"/>
<circle cx="43.7767" cy="46.4263" r="1" fill="blue"/>
<circle cx="48.8567" cy="42.6163" r="1" fill="blue"/>
<circle cx="48.8567" cy="43.8863" r="1" fill="blue"/>
<circle cx="48.8567" cy="45.1563" r="1" fill="blue"/>
<circle cx="48.8567" cy="46.4263" r="1" fill="blue"/>
<circle cx="38.6662" cy="49.7911" r="1" fill="blue"/>
<circle cx="38.6662" cy="51.0611" r="1" fill="blue"/>
<circle cx="38.6662" cy="52.3311" r="1" fill="blue"/>
<circle cx="38.6662" cy="53.6011" r="1" fill="blue"/>
<circle cx="43.7462" cy="49.7911" r="1" fill="blue"/>
<circle cx="43.7462" cy="51.0611" r="1" fill="blue"/>
<circle cx="43.7462" cy="52.3311" r="1" fill="blue"/>
<circle cx="43.7462" cy="53.6011" r="1" fill="blue"/>
</g>
</svg>