<?xml version="1.0" encoding="UTF-8" standalone="no"?>
<svg xmlns="http://www.w3.org/2000/svg" viewBox="-5 -5 160 160">
<rect x="-5" y="-5" width="160" height="160" fill="white"/>
<text x="0" y="10" font-family="Arial" font-size="10" fill="black">Iteration: 0 | Cost: 4839.76</text>
<g>
<line x1="5.00" y1="5.00" x2="78.52" y2="35.03" stroke="rgb(0,0,255)" stroke-width="0.8"/>
<line x1="78.52" y1="35.03" x2="144.65" y2="73.24" stroke="rgb(4,0,251)" stroke-width="0.8"/>
<line x1="144.65" y1="73.24" x2="86.14" y2="32.49" stroke="rgb(8,0,247)" stroke-width="0.8"/>
<line x1="86.14" y1="32.49" x2="78.52" y2="32.49" stroke="rgb(12,0,243)" stroke-width="0.8"/>
<line x1="78.52" y1="32.49" x2="27.46" y2="41.31" stroke="rgb(16,0,239)" stroke-width="0.8"/>
<line x1="27.46" y1="41.31" x2="86.14" y2="35.03" stroke="rgb(20,0,235)" stroke-width="0.8"/>
<line x1="86.14" y1="35.03" x2="86.14" y2="29.95" stroke="rgb(24,0,231)" stroke-width="0.8"/>
<line x1="86.14" y1="29.95" x2="27.46" y2="38.77" stroke="rgb(28,0,227)" stroke-width="0.8"/>
<line x1="27.46" y1="38.77" x2="137.03" y2="70.70" stroke="rgb(32,0,223)" stroke-width="0.8"/>
<line x1="137.03" y1="70.70" x2="62.90" y2="119.64" stroke="rgb(37,0,218)" stroke-width="0.8"/>
<line x1="62.90" y1="119.64" x2="45.99" y2="134.97" stroke="rgb(41,0,214)" stroke-width="0.8"/>
<line x1="45.99" y1="134.97" x2="62.90" y2="117.10" stroke="rgb(45,0,210)" stroke-width="0.8"/>
<line x1="62.90" y1="117.10" x2="35.08" y2="38.77" stroke="rgb(49,0,206)" stroke-width="0.8"/>
<line x1="35.08" y1="38.77" x2="35.08" y2="33.69" stroke="rgb(53,0,202)" stroke-width="0.8"/>
<line x1="35.08" y1="33.69" x2="27.46" y2="46.39" stroke="rgb(57,0,198)" stroke-width="0.8"/>
<line x1="27.46" y1="46.39" x2="27.46" y2="33.69" stroke="rgb(61,0,194)" stroke-width="0.8"/>
<line x1="27.46" y1="33.69" x2="57.82" y2="119.64" stroke="rgb(65,0,190)" stroke-width="0.8"/>
<line x1="57.82" y1="119.64" x2="78.52" y2="19.79" stroke="rgb(69,0,186)" stroke-width="0.8"/>
<line x1="78.52" y1="19.79" x2="27.46" y2="31.15" stroke="rgb(74,0,181)" stroke-width="0.8"/>
<line x1="27.46" y1="31.15" x2="144.65" y2="60.54" stroke="rgb(78,0,177)" stroke-width="0.8"/>
<line x1="144.65" y1="60.54" x2="62.90" y2="118.37" stroke="rgb(82,0,173)" stroke-width="0.8"/>
<line x1="62.90" y1="118.37" x2="86.14" y2="24.87" stroke="rgb(86,0,169)" stroke-width="0.8"/>
<line x1="86.14" y1="24.87" x2="45.99" y2="131.16" stroke="rgb(90,0,165)" stroke-width="0.8"/>
<line x1="45.99" y1="131.16" x2="145.00" y2="5.00" stroke="rgb(94,0,161)" stroke-width="0.8"/>
<line x1="145.00" y1="5.00" x2="137.03" y2="63.08" stroke="rgb(98,0,157)" stroke-width="0.8"/>
<line x1="137.03" y1="63.08" x2="35.08" y2="36.23" stroke="rgb(102,0,153)" stroke-width="0.8"/>
<line x1="35.08" y1="36.23" x2="78.52" y2="27.41" stroke="rgb(106,0,149)" stroke-width="0.8"/>
<line x1="78.52" y1="27.41" x2="144.65" y2="68.16" stroke="rgb(111,0,144)" stroke-width="0.8"/>
<line x1="144.65" y1="68.16" x2="35.08" y2="31.15" stroke="rgb(115,0,140)" stroke-width="0.8"/>
<line x1="35.08" y1="31.15" x2="78.52" y2="29.95" stroke="rgb(119,0,136)" stroke-width="0.8"/>
<line x1="78.52" y1="29.95" x2="27.46" y2="36.23" stroke="rgb(123,0,132)" stroke-width="0.8"/>
<line x1="27.46" y1="36.23" x2="137.03" y2="60.54" stroke="rgb(127,0,128)" stroke-width="0.8"/>
<line x1="137.03" y1="60.54" x2="144.65" y2="70.70" stroke="rgb(131,0,124)" stroke-width="0.8"/>
<line x1="144.65" y1="70.70" x2="51.07" y2="133.70" stroke="rgb(135,0,120)" stroke-width="0.8"/>
<line x1="51.07" y1="133.70" x2="45.99" y2="133.70" stroke="rgb(139,0,116)" stroke-width="0.8"/>
<line x1="45.99" y1="133.70" x2="144.65" y2="65.62" stroke="rgb(143,0,112)" stroke-width="0.8"/>
<line x1="144.65" y1="65.62" x2="145.00" y2="145.00" stroke="rgb(148,0,107)" stroke-width="0.8"/>
<line x1="145.00" y1="145.00" x2="137.03" y2="68.16" stroke="rgb(152,0,103)" stroke-width="0.8"/>
<line x1="137.03" y1="68.16" x2="27.46" y2="43.85" stroke="rgb(156,0,99)" stroke-width="0.8"/>
<line x1="27.46" y1="43.85" x2="144.65" y2="63.08" stroke="rgb(160,0,95)" stroke-width="0.8"/>
<line x1="144.65" y1="63.08" x2="51.07" y2="132.43" stroke="rgb(164,0,91)" stroke-width="0.8"/>
<line x1="51.07" y1="132.43" x2="137.03" y2="73.24" stroke="rgb(168,0,87)" stroke-width="0.8"/>
<line x1="137.03" y1="73.24" x2="57.82" y2="118.37" stroke="rgb(172,0,83)" stroke-width="0.8"/>
<line x1="57.82" y1="118.37" x2="35.08" y2="43.85" stroke="rgb(176,0,79)" stroke-width="0.8"/>
<line x1="35.08" y1="43.85" x2="51.07" y2="131.16" stroke="rgb(180,0,75)" stroke-width="0.8"/>
<line x1="51.07" y1="131.16" x2="51.07" y2="134.97" stroke="rgb(185,0,70)" stroke-width="0.8"/>
<line x1="51.07" y1="134.97" x2="86.14" y2="22.33" stroke="rgb(189,0,66)" stroke-width="0.8"/>
<line x1="86.14" y1="22.33" x2="62.90" y2="115.83" stroke="rgb(193,0,62)" stroke-width="0.8"/>
<line x1="62.90" y1="115.83" x2="86.14" y2="19.79" stroke="rgb(197,0,58)" stroke-width="0.8"/>
<line x1="86.14" y1="19.79" x2="78.52" y2="22.33" stroke="rgb(201,0,54)" stroke-width="0.8"/>
<line x1="78.52" y1="22.33" x2="35.08" y2="46.39" stroke="rgb(205,0,50)" stroke-width="0.8"/>
<line x1="35.08" y1="46.39" x2="144.65" y2="75.78" stroke="rgb(209,0,46)" stroke-width="0.8"/>
<line x1="144.65" y1="75.78" x2="45.99" y2="132.43" stroke="rgb(213,0,42)" stroke-width="0.8"/>
<line x1="45.99" y1="132.43" x2="78.52" y2="24.87" stroke="rgb(217,0,38)" stroke-width="0.8"/>
<line x1="78.52" y1="24.87" x2="57.82" y2="117.10" stroke="rgb(222,0,33)" stroke-width="0.8"/>
<line x1="57.82" y1="117.10" x2="57.82" y2="115.83" stroke="rgb(226,0,29)" stroke-width="0.8"/>
<line x1="57.82" y1="115.83" x2="137.03" y2="75.78" stroke="rgb(230,0,25)" stroke-width="0.8"/>
<line x1="137.03" y1="75.78" x2="35.08" y2="41.31" stroke="rgb(234,0,21)" stroke-width="0.8"/>
<line x1="35.08" y1="41.31" x2="86.14" y2="27.41" stroke="rgb(238,0,17)" stroke-width="0.8"/>
<line x1="86.14" y1="27.41" x2="5.00" y2="145.00" stroke="rgb(242,0,13)" stroke-width="0.8"/>
<line x1="5.00" y1="145.00" x2="137.03" y2="65.62" stroke="rgb(246,0,9)" stroke-width="0.8"/>
<line x1="137.03" y1="65.62" x2="5.00" y2="5.00" stroke="rgb(250,0,5)" stroke-width="0.8"/>
</g>
<g>
<circle cx="5.00" cy="5.00" r="2" fill="blue"/>
<text x="7.50" y="5.00" font-family="Arial" font-size="5" fill="black">0</text>
<circle cx="145.00" cy="5.00" r="2" fill="blue"/>
<text x="147.50" y="5.00" font-family="Arial" font-size="5" fill="black">1</text>
<circle cx="5.00" cy="145.00" r="2" fill="blue"/>
<text x="7.50" y="145.00" font-family="Arial" font-size="5" fill="black">2</text>
<circle cx="145.00" cy="145.00" r="2" fill="blue"/>
<text x="147.50" y="145.00" font-family="Arial" font-size="5" fill="black">3</text>
<circle cx="57.82" cy="115.83" r="2" fill="blue"/>
<text x="60.32" y="115.83" font-family="Arial" font-size="5" fill="black">4</text>
<circle cx="57.82" cy="117.10" r="2" fill="blue"/>
<text x="60.32" y="117.10" font-family="Arial" font-size="5" fill="black">5</text>
<circle cx="57.82" cy="118.37" r="2" fill="blue"/>
<text x="60.32" y="118.37" font-family="Arial" font-size="5" fill="black">6</text>
<circle cx="57.82" cy="119.64" r="2" fill="blue"/>
<text x="60.32" y="119.64" font-family="Arial" font-size="5" fill="black">7</text>
<circle cx="62.90" cy="115.83" r="2" fill="blue"/>
<text x="65.40" y="115.83" font-family="Arial" font-size="5" fill="black">8</text>
<circle cx="62.90" cy="117.10" r="2" fill="blue"/>
<text x="65.40" y="117.10" font-family="Arial" font-size="5" fill="black">9</text>
<circle cx="62.90" cy="118.37" r="2" fill="blue"/>
<text x="65.40" y="118.37" font-family="Arial" font-size="5" fill="black">10</text>
<circle cx="62.90" cy="119.64" r="2" fill="blue"/>
<text x="65.40" y="119.64" font-family="Arial" font-size="5" fill="black">11</text>
<circle cx="78.52" cy="19.79" r="2" fill="blue"/>
<text x="81.02" y="19.79" font-family="Arial" font-size="5" fill="black">12</text>
<circle cx="78.52" cy="22.33" r="2" fill="blue"/>
<text x="81.02" y="22.33" font-family="Arial" font-size="5" fill="black">13</text>
<circle cx="78.52" cy="24.87" r="2" fill="blue"/>
<text x="81.02" y="24.87" font-family="Arial" font-size="5" fill="black">14</text>
<circle cx="78.52" cy="27.41" r="2" fill="blue"/>
<text x="81.02" y="27.41" font-family="Arial" font-size="5" fill="black">15</text>
<circle cx="78.52" cy="29.95" r="2" fill="blue"/>
<text x="81.02" y="29.95" font-family="Arial" font-size="5" fill="black">16</text>
<circle cx="78.52" cy="32.49" r="2" fill="blue"/>
<text x="81.02" y="32.49" font-family="Arial" font-size="5" fill="black">17</text>
<circle cx="78.52" cy="35.03" r="2" fill="blue"/>
<text x="81.02" y="35.03" font-family="Arial" font-size="5" fill="black">18</text>
<circle cx="86.14" cy="19.79" r="2" fill="blue"/>
<text x="88.64" y="19.79" font-family="Arial" font-size="5" fill="black">19</text>
<circle cx="86.14" cy="22.33" r="2" fill="blue"/>
<text x="88.64" y="22.33" font-family="Arial" font-size="5" fill="black">20</text>
<circle cx="86.14" cy="24.87" r="2" fill="blue"/>
<text x="88.64" y="24.87" font-family="Arial" font-size="5" fill="black">21</text>
<circle cx="86.14" cy="27.41" r="2" fill="blue"/>
<text x="88.64" y="27.41" font-family="Arial" font-size="5" fill="black">22</text>
<circle cx="86.14" cy="29.95" r="2" fill="blue"/>
<text x="88.64" y="29.95" font-family="Arial" font-size="5" fill="black">23</text>
<circle cx="86.14" cy="32.49" r="2" fill="blue"/>
<text x="88.64" y="32.49" font-family="Arial" font-size="5" fill="black">24</text>
<circle cx="86.14" cy="35.03" r="2" fill="blue"/>
<text x="88.64" y="35.03" font-family="Arial" font-size="5" fill="black">25</text>
<circle cx="45.99" cy="131.16" r="2" fill="blue"/>
<text x="48.49" y="131.16" font-family="Arial" font-size="5" fill="black">26</text>
<circle cx="45.99" cy="132.43" r="2" fill="blue"/>
<text x="48.49" y="132.43" font-family="Arial" font-size="5" fill="black">27</text>
<circle cx="45.99" cy="133.70" r="2" fill="blue"/>
<text x="48.49" y="133.70" font-family="Arial" font-size="5" fill="black">28</text>
<circle cx="45.99" cy="134.97" r="2" fill="blue"/>
<text x="48.49" y="134.97" font-family="Arial" font-size="5" fill="black">29</text>
<circle cx="51.07" cy="131.16" r="2" fill="blue"/>
<text x="53.57" y="131.16" font-family="Arial" font-size="5" fill="black">30</text>
<circle cx="51.07" cy="132.43" r="2" fill="blue"/>
<text x="53.57" y="132.43" font-family="Arial" font-size="5" fill="black">31</text>
<circle cx="51.07" cy="133.70" r="2" fill="blue"/>
<text x="53.57" y="133.70" font-family="Arial" font-size="5" fill="black">32</text>
<circle cx="51.07" cy="134.97" r="2" fill="blue"/>
<text x="53.57" y="134.97" font-family="Arial" font-size="5" fill="black">33</text>
<circle cx="137.03" cy="60.54" r="2" fill="blue"/>
<text x="139.53" y="60.54" font-family="Arial" font-size="5" fill="black">34</text>
<circle cx="137.03" cy="63.08" r="2" fill="blue"/>
<text x="139.53" y="63.08" font-family="Arial" font-size="5" fill="black">35</text>
<circle cx="137.03" cy="65.62" r="2" fill="blue"/>
<text x="139.53" y="65.62" font-family="Arial" font-size="5" fill="black">36</text>
<circle cx="137.03" cy="68.16" r="2" fill="blue"/>
<text x="139.53" y="68.16" font-family="Arial" font-size="5" fill="black">37</text>
<circle cx="137.03" cy="70.70" r="2" fill="blue"/>
<text x="139.53" y="70.70" font-family="Arial" font-size="5" fill="black">38</text>
<circle cx="137.03" cy="73.24" r="2" fill="blue"/>
<text x="139.53" y="73.24" font-family="Arial" font-size="5" fill="black">39</text>
<circle cx="137.03" cy="75.78" r="2" fill="blue"/>
<text x="139.53" y="75.78" font-family="Arial" font-size="5" fill="black">40</text>
<circle cx="144.65" cy="60.54" r="2" fill="blue"/>
<text x="147.15" y="60.54" font-family="Arial" font-size="5" fill="black">41</text>
<circle cx="144.65" cy="63.08" r="2" fill="blue"/>
<text x="147.15" y="63.08" font-family="Arial" font-size="5" fill="black">42</text>
<circle cx="144.65" cy="65.62" r="2" fill="blue"/>
<text x="147.15" y="65.62" font-family="Arial" font-size="5" fill="black">43</text>
<circle cx="144.65" cy="68.16" r="2" fill="blue"/>
<text x="147.15" y="68.16" font-family="Arial" font-size="5" fill="black">44</text>
<circle cx="144.65" cy="70.70" r="2" fill="blue"/>
<text x="147.15" y="70.70" font-family="Arial" font-size="5" fill="black">45</text>
<circle cx="144.65" cy="73.24" r="2" fill="blue"/>
<text x="147.15" y="73.24" font-family="Arial" font-size="5" fill="black">46</text>
<circle cx="144.65" cy="75.78" r="2" fill="blue"/>
<text x="147.15" y="75.78" font-family="Arial" font-size="5" fill="black">47</text>
<circle cx="27.46" cy="31.15" r="2" fill="blue"/>
<text x="29.96" y="31.15" font-family="Arial" font-size="5" fill="black">48</text>
<circle cx="27.46" cy="33.69" r="2" fill="blue"/>
<text x="29.96" y="33.69" font-family="Arial" font-size="5" fill="black">49</text>
<circle cx="27.46" cy="36.23" r="2" fill="blue"/>
<text x="29.96" y="36.23" font-family="Arial" font-size="5" fill="black">50</text>
<circle cx="27.46" cy="38.77" r="2" fill="blue"/>
<text x="29.96" y="38.77" font-family="Arial" font-size="5" fill="black">51</text>
<circle cx="27.46" cy="41.31" r="2" fill="blue"/>
<text x="29.96" y="41.31" font-family="Arial" font-size="5" fill="black">52</text>
<circle cx="27.46" cy="43.85" r="2" fill="blue"/>
<text x="29.96" y="43.85" font-family="Arial" font-size="5" fill="black">53</text>
<circle cx="27.46" cy="46.39" r="2" fill="blue"/>
<text x="29.96" y="46.39" font-family="Arial" font-size="5" fill="black">54</text>
<circle cx="35.08" cy="31.15" r="2" fill="blue"/>
<text x="37.58" y="31.15" font-family="Arial" font-size="5" fill="black">55</text>
<circle cx="35.08" cy="33.69" r="2" fill="blue"/>
<text x="37.58" y="33.69" font-family="Arial" font-size="5" fill="black">56</text>
<circle cx="35.08" cy="36.23" r="2" fill="blue"/>
<text x="37.58" y="36.23" font-family="Arial" font-size="5" fill="black">57</text>
<circle cx="35.08" cy="38.77" r="2" fill="blue"/>
<text x="37.58" y="38.77" font-family="Arial" font-size="5" fill="black">58</text>
<circle cx="35.08" cy="41.31" r="2" fill="blue"/>
<text x="37.58" y="41.31" font-family="Arial" font-size="5" fill="black">59</text>
<circle cx="35.08" cy="43.85" r="2" fill="blue"/>
<text x="37.58" y="43.85" font-family="Arial" font-size="5" fill="black">60</text>
<circle cx="35.08" cy="46.39" r="2" fill="blue"/>
<text x="37.58" y="46.39" font-family="Arial" font-size="5" fill="black">61</text>
</g>
</svg>
